<svg xmlns="http://www.w3.org/2000/svg" xmlns:xlink="http://www.w3.org/1999/xlink" version="1.1" x="0px" y="0px" viewBox="0 0 45 75" style="enable-background:new 0 0 45 60;" xml:space="preserve"><title>52 -Coat- (Outline)</title><desc>Created with Sketch.</desc><g><g transform="translate(-247.000000, -947.000000)"><g transform="translate(248.000000, 948.000000)"><path d="M8.1,9.3c-0.4,0.5-0.9,0.9-1.3,1.4c-0.2,0.3-0.4,0.5-0.5,0.6c-2.8,4.4-4.6,11.9-5.5,21.7     C0,40.9-0.1,49.1,0,56.3c0,0.5,0,0.9,0,1.3c0,0.2,0,0.4,0,0.5c0,0.5,0.5,1,1,1h4c0.4,0,0.8-0.2,0.9-0.6l2.9-7C9,51.3,9,51.1,9,51     C8.6,38.7,8.6,28.4,9,20.1c0.2-5,0.6-8.8,0.8-9.9C10,9.2,8.8,8.6,8.1,9.3z M7,20C6.6,28.3,6.6,38.6,7,50.8L4.4,57H2     c0-0.2,0-0.5,0-0.8c-0.2-7.1,0-15.3,0.7-23c0.9-8.9,2.4-15.9,4.7-20C7.3,15.2,7.2,17.4,7,20z"/><path d="M41,33.3c0.5,4.7,0.8,9.8,0.9,14.9C42,51.5,42,54.6,42,57h-2.3l-2.6-6.2C37.5,38.6,37.4,28.3,37,20     c-0.1-2.5-0.3-4.7-0.4-6.6C38.7,17.5,40.1,24.4,41,33.3z M36,9.3c-0.7-0.7-1.9-0.1-1.7,0.9c0.2,1.1,0.5,4.9,0.8,9.9     c0.4,8.4,0.5,18.7,0.1,30.9c0,0.1,0,0.3,0.1,0.4l2.9,7c0.2,0.4,0.5,0.6,0.9,0.6h4c0.5,0,1-0.4,1-1c0-0.1,0-0.4,0-0.8     c0.1-7.1-0.2-15.8-1-24.2c-1-9.8-2.6-17.3-5.1-21.6l-0.1-0.1c-0.1-0.1-0.3-0.4-0.5-0.6C36.8,10.3,36.4,9.8,36,9.3z"/><path d="M32,3.5C30.5,0.7,27.2-1,22-1s-8.5,1.7-10,4.5c-0.7,1.2-1,2.5-1,3.6c-0.8,0.3-1.7,1-2.9,2.2     C8,9.5,7.9,9.7,7.8,9.9c0,0.3-0.2,1.2-0.3,2.4c-0.2,2-0.4,4.4-0.5,7.2C6.6,27.6,6.6,37.7,7,50c0,0.2,0.1,0.4,0.2,0.6     C9.3,53.4,12.5,55,16,55h12.1c3.5,0,6.7-1.6,8.8-4.4c0.1-0.2,0.2-0.4,0.2-0.6c0.4-12.3,0.3-22.4-0.1-30.6     c-0.1-2.9-0.3-5.3-0.5-7.2c-0.1-1.2-0.2-2.1-0.3-2.4c0-0.2-0.1-0.4-0.3-0.5c-1.1-1.1-2.1-1.9-3-2.2C33,6,32.7,4.7,32,3.5z      M28.1,53H16c-2.7,0-5.3-1.2-7-3.4C8.6,37.5,8.6,27.6,9,19.6c0.1-2.8,0.3-5.2,0.5-7.1c0.1-0.7,0.1-1.2,0.2-1.7c0-0.1,0-0.2,0-0.2     c1-1,1.8-1.6,2-1.5c0.7,0.2,1.3-0.4,1.2-1.1c-0.1-1.1,0.1-2.3,0.7-3.4C14.9,2.3,17.5,1,22,1s7.1,1.3,8.3,3.5     c0.6,1.1,0.8,2.3,0.7,3.3c-0.1,0.8,0.5,1.4,1.2,1.2c0.2-0.1,1.1,0.5,2.1,1.5c0,0.1,0,0.1,0,0.2c0.1,0.5,0.1,1,0.2,1.7     c0.2,1.9,0.4,4.3,0.5,7.1c0.4,8,0.5,18,0.1,30.1C33.4,51.8,30.8,53,28.1,53z"/><path d="M28.1,53H16c-1.9,0-3.8-0.6-5.4-1.8C9.9,50.7,9,51.2,9,52v5c0,1.1,0.9,2,2,2h22c1.1,0,2-0.9,2-2v-4.9     c0-0.8-0.9-1.3-1.6-0.8C31.8,52.4,30,53,28.1,53z M33,57H11v-3.2c1.5,0.8,3.3,1.2,5,1.2h12.1c1.7,0,3.4-0.4,4.9-1.2V57z"/><path d="M36,53v0.2c0,0.1,0,0.3,0.1,0.4l2,4.8c0.2,0.4,0.5,0.6,0.9,0.6h4c0.5,0,1-0.4,1-1c0-0.1,0-0.3,0-0.6     c0-1.2,0-2.7,0-4.4c0-0.6-0.4-1-1-1h-6C36.4,52,36,52.4,36,53z M42,54c0,1.1,0,2.1,0,3h-2.3l-1.2-3H42z"/><path d="M4.4,57H2c0-0.2,0-0.4,0-0.7c0-0.7,0-1.5,0-2.3h3.7L4.4,57z M8.1,53c0-0.6-0.4-1-1-1H1c-0.6,0-1,0.5-1,1     c0,1.2,0,2.3,0,3.3c0,0.5,0,0.9,0,1.2c0,0.2,0,0.4,0,0.4c0,0.5,0.5,1,1,1h4c0.4,0,0.8-0.2,0.9-0.6l2-4.8c0.1-0.1,0.1-0.3,0.1-0.4     V53z"/><path d="M36.3,41h6.2c0.6,0,1-0.5,1-1.1c-0.2-3.2-0.5-6.2-0.8-9.1c-0.1-0.5-0.5-0.9-1-0.9h-5.4c-0.6,0-1,0.5-1,1     c0,2.8,0,5.8,0,9C35.3,40.5,35.8,41,36.3,41z M37.3,32h3.5c0.2,2.2,0.4,4.6,0.6,7h-4.1C37.4,36.6,37.4,34.2,37.3,32z"/><path d="M1.3,41h6.5c0.6,0,1-0.5,1-1c0-3.2,0-6.2,0-9c0-0.6-0.4-1-1-1H2c-0.5,0-0.9,0.4-1,0.9     c-0.3,2.9-0.6,5.9-0.7,9.1C0.2,40.5,0.7,41,1.3,41z M2.9,32h3.8c0,2.2,0,4.6,0,7H2.3C2.5,36.6,2.7,34.2,2.9,32z"/><path d="M18,35c0-1.4,0-2.7-0.1-4c0-0.5-0.5-1-1-1H7.7c-0.5,0-1,0.4-1,1c0,2.8,0,5.9,0,9c0,0.5,0.5,1,1,1h9.1     c0.5,0,1-0.4,1-0.9C17.9,38.3,18,36.7,18,35z M8.7,39c0-2.4,0-4.8,0-7h7.2c0,1,0.1,2,0.1,3c0,1.3,0,2.6-0.1,4H8.7z"/><path d="M26,35c0,1.7,0.1,3.3,0.1,5.1c0,0.5,0.5,0.9,1,0.9h9.2c0.5,0,1-0.4,1-1c0-3.2,0-6.2,0-9c0-0.5-0.5-1-1-1     h-9.3c-0.5,0-1,0.4-1,1C26,32.3,26,33.6,26,35z M35.3,32c0,2.2,0,4.6,0,7h-7.3C28,37.6,28,36.3,28,35c0-1,0-2,0.1-3H35.3z"/><path d="M11,25h2c0.6,0,1-0.4,1-1c0-0.6-0.4-1-1-1h-2c-0.6,0-1,0.4-1,1C10,24.6,10.4,25,11,25z"/><path d="M7.2,50.6c1.8,2.4,4.5,3.9,7.4,4.3c0.5,0.1,1-0.3,1.1-0.7C17.2,48.5,18,41.9,18,35     c0-10.7-1.9-20.7-5.2-27.4C12.6,7.3,12.3,7,12,7c-1.1-0.1-2.1,0.5-3.5,1.9C8.4,9,8.2,9.2,8.1,9.3C7.9,9.5,7.9,9.7,7.8,9.9     c-0.1,0.7-0.3,3-0.6,6.1C6.9,21,6.7,27.2,6.7,34.5c0,4.8,0.1,10,0.3,15.5C7,50.2,7.1,50.4,7.2,50.6z M8.7,34.5     c0-7.3,0.2-13.4,0.6-18.4c0.2-2.6,0.4-4.7,0.5-5.6c0.1-0.1,0.1-0.1,0.2-0.2c0.6-0.6,1.1-1,1.4-1.2C14.3,15.6,16,24.9,16,35     c0,6.4-0.7,12.4-2,17.8c-2-0.4-3.8-1.5-5-3.1C8.8,44.3,8.7,39.3,8.7,34.5z"/><path d="M31.2,7.6C27.9,14.3,26,24.3,26,35c0,6.9,0.8,13.5,2.3,19.2c0.1,0.5,0.6,0.8,1.1,0.7     c3-0.3,5.7-1.9,7.5-4.3c0.1-0.2,0.2-0.4,0.2-0.6c0.2-5.5,0.3-10.7,0.3-15.5c0-7.3-0.2-13.5-0.6-18.6c-0.2-3.1-0.4-5.4-0.6-6.1     c0-0.2-0.1-0.4-0.3-0.5c-0.1-0.1-0.3-0.3-0.4-0.4c-1.4-1.3-2.5-2-3.6-1.9C31.6,7,31.3,7.3,31.2,7.6z M34.2,10.3     c0.1,0,0.1,0.1,0.2,0.1c0.1,0.9,0.3,3,0.5,5.6c0.3,5,0.5,11.2,0.6,18.4c0,4.7-0.1,9.7-0.3,15.1c-1.3,1.6-3.1,2.7-5.1,3.2     c-1.3-5.3-2-11.4-2-17.8c0-10.1,1.7-19.4,4.7-25.9C33,9.4,33.6,9.8,34.2,10.3z"/><path d="M32,3.5C30.5,0.7,27.2-1,22-1c-4.7,0-7.9,1.4-9.6,3.8c-1.2,1.6-1.5,3.4-1.4,5l0,0.1l0.1,0.6     c0.2,1.1,1.7,1.1,2,0.1C13.5,6.7,17.3,5,22,5c4.7,0,8.5,1.7,8.9,3.6c0.2,0.9,1.5,1,1.9,0.2L33,8.4c0.1-0.3,0.1-0.6,0-0.8     C33.1,6.4,32.8,4.9,32,3.5z M32,9C32,9,32,9,32,9C32,9,32,9,32,9z M22,3c-3.5,0-6.6,0.8-8.7,2.2C13.5,4.8,13.7,4.4,14,4     c1.3-1.9,3.8-3,8-3c4.5,0,7.1,1.3,8.3,3.5c0.1,0.2,0.3,0.5,0.3,0.7C28.6,3.8,25.4,3,22,3z"/><path d="M20,13h4c0.6,0,1-0.4,1-1c0-0.6-0.4-1-1-1h-4c-0.6,0-1,0.4-1,1C19,12.6,19.4,13,20,13z"/></g></g></g><text x="0" y="75" fill="#000000" font-size="5px" font-weight="bold" font-family="'Helvetica Neue', Helvetica, Arial-Unicode, Arial, Sans-serif">Created by Ben Davis</text><text x="0" y="80" fill="#000000" font-size="5px" font-weight="bold" font-family="'Helvetica Neue', Helvetica, Arial-Unicode, Arial, Sans-serif">from the Noun Project</text></svg>