<svg xmlns="http://www.w3.org/2000/svg" xmlns:xlink="http://www.w3.org/1999/xlink" version="1.1" x="0px" y="0px" viewBox="0 0 64 80" style="enable-background:new 0 0 64 64;" xml:space="preserve"><path d="M47.981,7.623C47.783,3.939,44.732,1,41,1c-3.859,0-7,3.141-7,7s3.141,7,7,7c0.984,0,1.92-0.206,2.771-0.575  C50.182,18.49,54,25.389,54,33c0,12.131-9.869,22-22,22s-22-9.869-22-22c0-7.611,3.818-14.51,10.229-18.575  C21.08,14.794,22.016,15,23,15c3.859,0,7-3.141,7-7s-3.141-7-7-7c-3.732,0-6.783,2.939-6.981,6.623C7.235,13.158,2,22.596,2,33  c0,16.542,13.458,30,30,30s30-13.458,30-30C62,22.596,56.765,13.158,47.981,7.623z M57.658,21.743  c-1.412-0.682-3.42-1.537-5.777-2.224c-0.611-0.898-1.284-1.755-2.017-2.566c3.025,0.264,5.291,0.851,5.758,0.979  C56.398,19.148,57.079,20.42,57.658,21.743z M58.719,24.562c0.424,1.356,0.735,2.756,0.95,4.182  c-1.189-1.023-2.901-2.362-4.991-3.627c-0.354-1.027-0.774-2.026-1.263-2.99C56.273,23.167,58.31,24.322,58.719,24.562z   M55.572,37.494c0.2-1.053,0.337-2.128,0.394-3.224c1.922,2.287,3.104,4.277,3.375,4.751c-0.312,1.418-0.733,2.795-1.251,4.124  C57.57,41.661,56.754,39.64,55.572,37.494z M56.849,45.881c-0.666,1.28-1.426,2.504-2.275,3.659  c-0.118-1.567-0.383-3.725-0.968-6.098c0.471-0.971,0.875-1.98,1.213-3.017C56.076,43.115,56.703,45.333,56.849,45.881z   M55.931,31.239c-0.078-1.09-0.232-2.162-0.451-3.213c2.435,1.702,4.086,3.31,4.482,3.708C59.98,32.155,60,32.575,60,33  c0,1.032-0.06,2.05-0.17,3.053C58.944,34.753,57.63,33.009,55.931,31.239z M47.744,9.851c0.001-0.002,0.002-0.005,0.003-0.007  c0.275,0.187,0.537,0.387,0.804,0.582c-0.318,0.024-0.663,0.055-1.027,0.093C47.608,10.301,47.681,10.078,47.744,9.851z M36,8  c0-2.757,2.243-5,5-5c2.744,0,4.976,2.224,4.996,4.964l-0.003,0.101c-0.004,0.278-0.035,0.549-0.082,0.814  c-0.02,0.113-0.05,0.224-0.077,0.335c-0.045,0.177-0.099,0.35-0.161,0.519c-0.036,0.097-0.067,0.196-0.108,0.29  c-0.105,0.237-0.23,0.463-0.369,0.679c-0.049,0.076-0.103,0.147-0.156,0.22c-0.13,0.179-0.269,0.349-0.42,0.509  c-0.043,0.045-0.082,0.094-0.127,0.137c-0.203,0.199-0.422,0.38-0.657,0.542c-0.044,0.03-0.091,0.056-0.136,0.085  C42.919,12.7,41.996,13,41,13C38.243,13,36,10.757,36,8z M45.727,13.148c0.153-0.141,0.3-0.288,0.44-0.442  c2.41-0.351,4.25-0.373,4.724-0.372c1.079,0.98,2.076,2.032,2.978,3.153c-1.546-0.294-3.719-0.602-6.186-0.652  c-0.652-0.56-1.333-1.094-2.051-1.589C45.666,13.215,45.693,13.179,45.727,13.148z M48.05,50.826  c-0.254,2.952-0.818,5.186-0.969,5.747c-1.209,0.776-2.48,1.462-3.806,2.048c0.683-1.419,1.536-3.429,2.219-5.786  C46.391,52.223,47.245,51.552,48.05,50.826z M40.453,59.693c-1.36,0.432-2.764,0.765-4.205,0.985  c1.027-1.193,2.374-2.915,3.646-5.019c1.032-0.361,2.031-0.79,2.993-1.282C41.863,57.201,40.724,59.229,40.453,59.693z   M27.506,56.572c1.053,0.2,2.128,0.337,3.224,0.394c-2.287,1.922-4.277,3.104-4.751,3.375c-1.418-0.312-2.795-0.733-4.124-1.251  C23.339,58.57,25.36,57.754,27.506,56.572z M19.119,57.849c-1.28-0.666-2.504-1.426-3.659-2.275  c1.567-0.118,3.728-0.383,6.099-0.968c0.97,0.471,1.979,0.874,3.016,1.212C21.885,57.076,19.667,57.703,19.119,57.849z   M6.378,44.274c1.419,0.683,3.429,1.536,5.786,2.219c0.613,0.898,1.284,1.752,2.01,2.557c-2.952-0.254-5.186-0.818-5.747-0.969  C7.65,46.871,6.964,45.6,6.378,44.274z M6.254,23.793l1.869-0.711c-0.593-1.562-0.904-2.704-0.985-3.013  c0.663-1.275,1.43-2.494,2.285-3.653c0.116,1.564,0.379,3.73,0.965,6.114c-0.471,0.975-0.88,1.98-1.215,3.017  c-0.056-0.12-0.116-0.233-0.171-0.354l-1.82,0.828c0.39,0.857,0.809,1.674,1.241,2.459c-0.201,1.065-0.328,2.152-0.385,3.254  c-1.932-2.299-3.117-4.298-3.382-4.762c0.31-1.426,0.719-2.819,1.241-4.164C6.004,23.117,6.12,23.441,6.254,23.793z M8.072,34.763  c0.08,1.092,0.229,2.165,0.45,3.212c-2.45-1.712-4.106-3.329-4.49-3.716C4.013,33.842,4,33.423,4,33c0-1.029,0.064-2.045,0.172-3.05  C5.059,31.25,6.372,32.994,8.072,34.763z M9.34,40.895c0.361,1.032,0.79,2.031,1.282,2.993c-2.823-1.024-4.851-2.163-5.316-2.434  c-0.432-1.36-0.765-2.764-0.985-4.205C5.514,38.276,7.237,39.623,9.34,40.895z M18.368,13.245c-0.853,0.587-1.657,1.224-2.415,1.901  c0.154-1.774,0.419-3.293,0.64-4.338c0.129,0.293,0.28,0.572,0.446,0.842c0.016,0.027,0.032,0.054,0.049,0.08  c0.17,0.269,0.354,0.527,0.559,0.769c0.019,0.022,0.039,0.042,0.058,0.064c0.178,0.206,0.368,0.399,0.568,0.583  C18.307,13.179,18.334,13.215,18.368,13.245z M23,3c2.757,0,5,2.243,5,5s-2.243,5-5,5c-0.996,0-1.919-0.3-2.699-0.804  c-0.045-0.029-0.092-0.055-0.136-0.085c-0.234-0.162-0.454-0.343-0.657-0.542c-0.045-0.044-0.084-0.092-0.127-0.137  c-0.152-0.16-0.291-0.331-0.42-0.509c-0.053-0.073-0.107-0.144-0.156-0.22c-0.14-0.216-0.264-0.442-0.369-0.679  c-0.042-0.094-0.073-0.193-0.108-0.29c-0.063-0.169-0.117-0.342-0.161-0.519c-0.028-0.111-0.057-0.222-0.077-0.335  c-0.047-0.265-0.079-0.536-0.082-0.814l-0.003-0.101C18.024,5.224,20.256,3,23,3z M14.48,11.164  c-0.292,1.54-0.595,3.692-0.646,6.133c-0.715,0.822-1.366,1.691-1.958,2.598c-0.524-2.971-0.546-5.298-0.543-5.802  C12.297,13.046,13.349,12.067,14.48,11.164z M10.184,50.524c1.549,0.292,3.709,0.595,6.159,0.643  c0.818,0.706,1.684,1.358,2.592,1.95c-2.923,0.52-5.229,0.552-5.805,0.55C12.069,52.698,11.086,51.645,10.184,50.524z M28.947,60.83  c1.301-0.887,3.046-2.201,4.817-3.902c1.092-0.08,2.165-0.229,3.212-0.45c-1.712,2.45-3.329,4.106-3.716,4.49  C32.842,60.987,32.423,61,32,61C30.968,61,29.95,60.94,28.947,60.83z M49.524,54.816c0.292-1.549,0.595-3.709,0.643-6.159  c0.706-0.818,1.358-1.684,1.95-2.592c0.519,2.922,0.552,5.229,0.55,5.805C51.698,52.931,50.645,53.914,49.524,54.816z"/><text x="0" y="79" fill="#000000" font-size="5px" font-weight="bold" font-family="'Helvetica Neue', Helvetica, Arial-Unicode, Arial, Sans-serif">Created by Eucalyp</text><text x="0" y="84" fill="#000000" font-size="5px" font-weight="bold" font-family="'Helvetica Neue', Helvetica, Arial-Unicode, Arial, Sans-serif">from the Noun Project</text></svg>