<svg xmlns="http://www.w3.org/2000/svg" data-name="Layer 1" viewBox="0 0 60 75" x="0px" y="0px"><title>Mens Clothing - 47-Sandal</title><path d="M59.31641,42.94824A.9989.9989,0,0,0,60,42V36a1.00041,1.00041,0,0,0-1.32324-.94629l-15.27716,5.226-1.44647-4.58051a.99818.99818,0,0,0-1.34668-.61816l-7,3a.9988.9988,0,0,0-.56055,1.2168l1.27728,4.08728L21.62964,47.72772l-1.6814-5.04413a.99717.99717,0,0,0-1.26465-.63184l-9,3a.99914.99914,0,0,0-.63184,1.26465L11.613,54H2a2.00261,2.00261,0,0,0-2,2v2a2.00261,2.00261,0,0,0,2,2H58a2.00261,2.00261,0,0,0,2-2V56a2.00261,2.00261,0,0,0-2-2H47.7323L45.678,47.49469ZM58,37.39941V41.2793L45.07587,45.588,44.002,42.18744ZM34.91992,45.29474l1.041,3.33093L23.33221,52.83551l-1.07013-3.21039ZM37.64032,54H26.16095l10.39636-3.4657ZM11.26465,46.63281l7.10254-2.36816L21.61285,54H13.7204ZM58,58H2l-.002-2H58ZM39.73468,54l-4.511-14.43652,5.15527-2.209L45.636,54Z"/><text x="0" y="75" fill="#000000" font-size="5px" font-weight="bold" font-family="'Helvetica Neue', Helvetica, Arial-Unicode, Arial, Sans-serif">Created by Locad</text><text x="0" y="80" fill="#000000" font-size="5px" font-weight="bold" font-family="'Helvetica Neue', Helvetica, Arial-Unicode, Arial, Sans-serif">from the Noun Project</text></svg>