<svg xmlns="http://www.w3.org/2000/svg" xmlns:xlink="http://www.w3.org/1999/xlink" viewBox="0 0 60 52.5" version="1.1" x="0px" y="0px"><title>63 -Clothes Hanger- (Outline)</title><desc>Created with Sketch.</desc><g stroke="none" stroke-width="1" fill="none" fill-rule="evenodd"><g transform="translate(-359.000000, -1081.000000)" fill="#000000"><g transform="translate(359.000000, 1081.000000)"><path d="M23.6275,19.373 C23.3715,19.373 23.1155,19.275 22.9205,19.08 C22.5295,18.69 22.5295,18.057 22.9195,17.666 L23.7155,16.87 C23.3555,16.261 23.1635,15.563 23.1635,14.837 C23.1635,13.769 23.5795,12.765 24.3345,12.009 C25.8455,10.497 28.4805,10.497 29.9915,12.009 C30.7475,12.765 31.1635,13.769 31.1635,14.837 C31.1635,15.906 30.7475,16.91 29.9915,17.665 C29.6005,18.056 28.9675,18.056 28.5765,17.665 C28.1865,17.274 28.1865,16.641 28.5775,16.251 C28.9555,15.873 29.1635,15.371 29.1635,14.837 C29.1635,14.303 28.9555,13.801 28.5775,13.423 C27.8215,12.667 26.5045,12.667 25.7485,13.423 C25.3715,13.801 25.1635,14.303 25.1635,14.837 C25.1635,15.371 25.3715,15.873 25.7485,16.251 C26.1395,16.642 26.1395,17.274 25.7495,17.665 L24.3355,19.08 C24.1395,19.275 23.8835,19.373 23.6275,19.373"/><path d="M4.2604,14.5615 L27.4384,37.7405 L22.8024,19.1975 L4.2604,14.5615 Z M29.2844,41.9995 C29.0254,41.9995 28.7694,41.8995 28.5774,41.7075 L0.2934,13.4225 C-0.0246,13.1055 -0.0916,12.6145 0.1304,12.2225 C0.3514,11.8325 0.8034,11.6345 1.2424,11.7465 L23.8704,17.4035 C24.2284,17.4925 24.5084,17.7725 24.5974,18.1305 L30.2544,40.7575 C30.3634,41.1935 30.1684,41.6485 29.7774,41.8705 C29.6224,41.9575 29.4534,41.9995 29.2844,41.9995 L29.2844,41.9995 Z"/><path d="M52.4644,8.5352 C52.2084,8.5352 51.9524,8.4372 51.7574,8.2422 C51.3664,7.8512 51.3664,7.2192 51.7574,6.8282 L52.5534,6.0322 C52.1924,5.4242 52.0004,4.7262 52.0004,4.0002 C52.0004,2.9312 52.4164,1.9272 53.1724,1.1722 C54.6824,-0.3398 57.3174,-0.3398 58.8284,1.1722 C59.5844,1.9272 60.0004,2.9312 60.0004,4.0002 C60.0004,5.0682 59.5844,6.0732 58.8284,6.8282 C58.4374,7.2192 57.8044,7.2192 57.4134,6.8282 C57.0234,6.4372 57.0234,5.8042 57.4144,5.4142 C57.7924,5.0362 58.0004,4.5342 58.0004,4.0002 C58.0004,3.4662 57.7924,2.9642 57.4144,2.5862 C56.6584,1.8302 55.3414,1.8302 54.5864,2.5862 C54.2084,2.9642 54.0004,3.4662 54.0004,4.0002 C54.0004,4.5342 54.2084,5.0362 54.5864,5.4142 C54.7734,5.6012 54.8794,5.8552 54.8794,6.1212 C54.8794,6.3872 54.7734,6.6402 54.5864,6.8282 L53.1714,8.2422 C52.9764,8.4372 52.7204,8.5352 52.4644,8.5352"/><path d="M33.0968,3.7246 L56.2758,26.9036 L51.6398,8.3596 L33.0968,3.7246 Z M58.1218,31.1626 C57.8628,31.1626 57.6068,31.0626 57.4138,30.8706 L29.1298,2.5856 C28.8118,2.2686 28.7448,1.7776 28.9668,1.3856 C29.1878,0.9946 29.6408,0.7966 30.0798,0.9096 L52.7068,6.5656 C53.0648,6.6546 53.3448,6.9346 53.4348,7.2926 L59.0918,29.9206 C59.2008,30.3566 59.0048,30.8116 58.6138,31.0336 C58.4598,31.1206 58.2898,31.1626 58.1218,31.1626 L58.1218,31.1626 Z"/></g></g></g><text x="0" y="57" fill="#000000" font-size="5px" font-weight="bold" font-family="'Helvetica Neue', Helvetica, Arial-Unicode, Arial, Sans-serif">Created by Ben Davis</text><text x="0" y="62" fill="#000000" font-size="5px" font-weight="bold" font-family="'Helvetica Neue', Helvetica, Arial-Unicode, Arial, Sans-serif">from the Noun Project</text></svg>