<svg xmlns="http://www.w3.org/2000/svg" xmlns:xlink="http://www.w3.org/1999/xlink" viewBox="0 0 60 25" version="1.1" x="0px" y="0px"><title>23 -Bow Tie- (Outline)</title><desc>Created with Sketch.</desc><g stroke="none" stroke-width="1" fill="none" fill-rule="evenodd"><g transform="translate(-359.000000, -611.000000)" fill="#000000"><g transform="translate(359.000000, 610.000000)"><path d="M31.0001,6 C31.0001,6.552 30.5521,7 30.0001,7 C29.4481,7 29.0001,6.552 29.0001,6 C29.0001,5.448 29.4481,5 30.0001,5 C30.5521,5 31.0001,5.448 31.0001,6"/><path d="M29.0001,9 C29.0001,9.552 28.5521,10 28.0001,10 C27.4481,10 27.0001,9.552 27.0001,9 C27.0001,8.448 27.4481,8 28.0001,8 C28.5521,8 29.0001,8.448 29.0001,9"/><path d="M33.0001,9 C33.0001,9.552 32.5521,10 32.0001,10 C31.4481,10 31.0001,9.552 31.0001,9 C31.0001,8.448 31.4481,8 32.0001,8 C32.5521,8 33.0001,8.448 33.0001,9"/><path d="M31.0001,11 C31.0001,11.552 30.5521,12 30.0001,12 C29.4481,12 29.0001,11.552 29.0001,11 C29.0001,10.448 29.4481,10 30.0001,10 C30.5521,10 31.0001,10.448 31.0001,11"/><path d="M31.0001,16 C31.0001,16.552 30.5521,17 30.0001,17 C29.4481,17 29.0001,16.552 29.0001,16 C29.0001,15.448 29.4481,15 30.0001,15 C30.5521,15 31.0001,15.448 31.0001,16"/><path d="M29.0001,13 C29.0001,13.552 28.5521,14 28.0001,14 C27.4481,14 27.0001,13.552 27.0001,13 C27.0001,12.448 27.4481,12 28.0001,12 C28.5521,12 29.0001,12.448 29.0001,13"/><path d="M33.0001,13 C33.0001,13.552 32.5521,14 32.0001,14 C31.4481,14 31.0001,13.552 31.0001,13 C31.0001,12.448 31.4481,12 32.0001,12 C32.5521,12 33.0001,12.448 33.0001,13"/><path d="M29.7433,6 C27.6793,6 26.0003,7.679 26.0003,9.744 L26.0003,12.256 C26.0003,14.321 27.6793,16 29.7433,16 L30.2563,16 C32.3213,16 34.0003,14.321 34.0003,12.256 L34.0003,9.744 C34.0003,7.679 32.3213,6 30.2563,6 L29.7433,6 Z M30.2563,18 L29.7433,18 C26.5763,18 24.0003,15.423 24.0003,12.256 L24.0003,9.744 C24.0003,6.577 26.5763,4 29.7433,4 L30.2563,4 C33.4233,4 36.0003,6.577 36.0003,9.744 L36.0003,12.256 C36.0003,15.423 33.4233,18 30.2563,18 L30.2563,18 Z"/><path d="M14.4737,3.0273 C13.7527,3.9963 11.9037,6.8933 12.0037,10.9753 C11.9027,15.1253 13.7487,18.0083 14.4717,18.9733 C19.1197,18.6183 22.8067,15.6843 24.3687,14.2273 C24.1237,13.5853 23.9997,12.9253 23.9997,12.2563 L23.9997,9.7433 C23.9997,9.0743 24.1237,8.4143 24.3687,7.7723 C22.8067,6.3163 19.1217,3.3813 14.4737,3.0273 M14.0157,21.0003 C13.7337,21.0003 13.4647,20.8813 13.2757,20.6733 C13.1357,20.5193 9.8597,16.8463 10.0047,10.9753 C9.8597,5.1533 13.1357,1.4813 13.2757,1.3273 C13.4737,1.1103 13.7607,0.9883 14.0507,1.0003 C20.2647,1.2223 24.9827,5.5273 26.2807,6.8413 C26.5877,7.1523 26.6577,7.6273 26.4527,8.0133 C26.1517,8.5783 25.9997,9.1603 25.9997,9.7433 L25.9997,12.2563 C25.9997,12.8403 26.1517,13.4223 26.4527,13.9863 C26.6577,14.3723 26.5877,14.8473 26.2807,15.1583 C24.9827,16.4723 20.2647,20.7773 14.0507,20.9993 C14.0387,21.0003 14.0267,21.0003 14.0157,21.0003"/><path d="M2.0001,14 L10.2401,14 C10.0601,13.008 9.9811,12.003 10.0041,11 C9.9811,9.997 10.0601,8.992 10.2401,8 L2.0001,8 L2.0001,14 Z M11.4901,16 L1.0001,16 C0.4481,16 0.0001,15.552 0.0001,15 L0.0001,7 C0.0001,6.448 0.4481,6 1.0001,6 L11.4901,6 C11.8011,6 12.0951,6.145 12.2841,6.393 C12.4731,6.64 12.5371,6.961 12.4551,7.262 C12.1251,8.479 11.9731,9.729 12.0041,10.975 L12.0041,11.025 C11.9731,12.271 12.1251,13.521 12.4551,14.738 C12.5371,15.039 12.4731,15.36 12.2841,15.607 C12.0951,15.855 11.8011,16 11.4901,16 L11.4901,16 Z"/><path d="M49.7608,14 L57.9998,14 L57.9998,8 L49.7608,8 C49.9418,9 50.0208,10.013 49.9948,11.025 C50.0208,12.001 49.9418,13.003 49.7608,14 M58.9998,16 L48.5108,16 C48.1988,16 47.9058,15.855 47.7158,15.607 C47.5268,15.36 47.4638,15.039 47.5448,14.738 C47.8748,13.521 48.0268,12.271 47.9958,11.025 C48.0268,9.729 47.8748,8.479 47.5448,7.262 C47.4638,6.961 47.5268,6.64 47.7158,6.393 C47.9058,6.145 48.1988,6 48.5108,6 L58.9998,6 C59.5528,6 59.9998,6.448 59.9998,7 L59.9998,15 C59.9998,15.552 59.5528,16 58.9998,16"/><path d="M35.6319,14.2275 C37.1939,15.6845 40.8789,18.6185 45.5269,18.9725 C46.2469,18.0035 48.0969,15.1065 47.9959,11.0245 C48.0969,6.8745 46.2519,3.9915 45.5289,3.0265 C40.8799,3.3815 37.1939,6.3155 35.6319,7.7725 C35.8769,8.4145 35.9999,9.0745 35.9999,9.7435 L35.9999,12.2565 C35.9999,12.9255 35.8769,13.5855 35.6319,14.2275 M45.9849,20.9995 L45.9489,20.9995 C39.7359,20.7775 35.0179,16.4725 33.7199,15.1585 C33.4129,14.8475 33.3429,14.3725 33.5479,13.9865 C33.8479,13.4215 33.9999,12.8395 33.9999,12.2565 L33.9999,9.7435 C33.9999,9.1605 33.8479,8.5785 33.5479,8.0135 C33.3429,7.6275 33.4129,7.1525 33.7199,6.8415 C35.0179,5.5275 39.7359,1.2225 45.9489,1.0005 C46.2449,0.9895 46.5279,1.1095 46.7249,1.3275 C46.8639,1.4805 50.1399,5.1535 49.9949,11.0245 C50.1399,16.8465 46.8639,20.5195 46.7249,20.6725 C46.5349,20.8815 46.2659,20.9995 45.9849,20.9995"/><path d="M35.0011,11 C34.6341,11 34.2811,10.798 34.1051,10.447 C33.8581,9.953 34.0591,9.353 34.5531,9.105 L38.5531,7.105 C39.0481,6.857 39.6481,7.059 39.8951,7.553 C40.1421,8.047 39.9411,8.647 39.4471,8.895 L35.4471,10.895 C35.3041,10.966 35.1511,11 35.0011,11"/><path d="M24.9991,11 C24.8491,11 24.6961,10.966 24.5531,10.895 L20.5531,8.895 C20.0591,8.647 19.8581,8.047 20.1051,7.553 C20.3521,7.059 20.9511,6.857 21.4471,7.105 L25.4471,9.105 C25.9411,9.353 26.1421,9.953 25.8951,10.447 C25.7191,10.798 25.3661,11 24.9991,11"/><path d="M38.9991,15 C38.8491,15 38.6961,14.966 38.5531,14.895 L34.5531,12.895 C34.0591,12.647 33.8581,12.047 34.1051,11.553 C34.3521,11.059 34.9521,10.857 35.4471,11.105 L39.4471,13.105 C39.9411,13.353 40.1421,13.953 39.8951,14.447 C39.7191,14.798 39.3661,15 38.9991,15"/><path d="M21.0011,15 C20.6341,15 20.2811,14.798 20.1051,14.447 C19.8581,13.953 20.0591,13.353 20.5531,13.105 L24.5531,11.105 C25.0481,10.857 25.6471,11.059 25.8951,11.553 C26.1421,12.047 25.9411,12.647 25.4471,12.895 L21.4471,14.895 C21.3041,14.966 21.1511,15 21.0011,15"/></g></g></g><text x="0" y="35" fill="#000000" font-size="5px" font-weight="bold" font-family="'Helvetica Neue', Helvetica, Arial-Unicode, Arial, Sans-serif">Created by Ben Davis</text><text x="0" y="40" fill="#000000" font-size="5px" font-weight="bold" font-family="'Helvetica Neue', Helvetica, Arial-Unicode, Arial, Sans-serif">from the Noun Project</text></svg>