<svg xmlns="http://www.w3.org/2000/svg" xmlns:xlink="http://www.w3.org/1999/xlink" viewBox="0 0 60 33.75" version="1.1" x="0px" y="0px"><title>37 -Sneakers- (Outline)</title><desc>Created with Sketch.</desc><g stroke="none" stroke-width="1" fill="none" fill-rule="evenodd"><g transform="translate(-841.000000, -727.000000)" fill="#000000"><g transform="translate(841.000000, 727.000000)"><path d="M0,1.9982 C0,4.01222539 1.46459499,6.09505159 3.34679698,6.41229156 C3.89140031,6.50408295 4.40730016,6.13700635 4.49909156,5.59240302 C4.59088295,5.04779969 4.22380635,4.53189984 3.67920302,4.44010844 C2.8416979,4.29894926 2,3.10195593 2,1.9982 C2,1.44591525 1.55228475,0.9982 1,0.9982 C0.44771525,0.9982 0,1.44591525 0,1.9982 Z"/><path d="M24.1361747,0.726370782 C23.6793325,0.511400019 23.1339066,0.6706936 22.86457,1.09774744 C22.7603568,1.26298554 22.5351576,1.57814197 22.1923485,1.99296426 C21.6123302,2.69482576 20.9206522,3.39848587 20.1217549,4.05448695 C15.8316559,7.57722953 10.5085975,8.32730312 4.02668485,4.55207943 C3.4293617,4.20418389 2.66765001,4.55276604 2.54047084,5.2322156 C2.52198168,5.33099353 2.48710078,5.5168561 2.43813402,5.77699767 C2.35649521,6.2107133 2.26520674,6.69403239 2.16650068,7.21454296 C1.88450516,8.70160105 1.59960072,10.1886079 1.32967047,11.5761383 C1.29177844,11.7708153 1.29177844,11.7708153 1.25385059,11.965258 C0.628496214,15.1694377 0.178005137,17.3381069 0.0517167019,17.7169722 C-0.15413258,18.3345201 0.275543905,18.980999 0.924624962,19.0303249 C1.06000479,19.0406129 1.32012566,19.0598017 1.69582895,19.0866196 C2.32114797,19.1312552 3.04372053,19.1809754 3.85439004,19.2345085 C6.16979971,19.3874082 8.72761724,19.5402893 11.4546303,19.6829756 C17.6684879,20.0081052 23.8132171,20.2316289 29.5595438,20.30757 C45.9587115,20.5242945 56.1848663,19.5966539 58.542896,16.7824491 C58.6073253,16.7055555 58.6598175,16.6194049 58.6986096,16.5268905 C58.7312191,16.4491208 58.7668273,16.3423757 58.798418,16.2089513 C59.0243775,15.2546044 58.8002166,14.1702513 57.8492825,13.2117748 C56.0819487,11.4304234 52.1419193,10.5228311 45.3683963,10.717364 L24.1361747,0.726370782 Z M21.3909611,5.60016339 C22.2949603,4.8578597 23.0759544,4.06333614 23.734035,3.26701396 C23.8445082,3.13333399 23.9453987,3.00728681 24.0366861,2.88991747 L44.7336253,12.6290292 C44.8766667,12.6963385 45.0336281,12.7287759 45.1916325,12.7236804 C51.6075624,12.5167714 55.1340441,13.3146666 56.4294937,14.6203911 C56.8077366,15.001634 56.9095262,15.3426373 56.8711678,15.644179 C54.7765266,17.6160528 44.5612101,18.5056511 29.5859726,18.3077446 C23.8684719,18.2321845 17.7488463,18.009574 11.559134,17.6857077 C8.84164307,17.5435196 6.29285038,17.391178 3.98617442,17.238855 C3.35168368,17.196956 2.77159605,17.1574165 2.25036841,17.1208546 C2.47725066,16.0853364 2.8021792,14.4728683 3.21681466,12.3483664 C3.25486161,12.1533131 3.25486161,12.1533131 3.29286607,11.9580585 C3.56346888,10.5670708 3.84894236,9.07709404 4.13148165,7.58716851 C4.17280379,7.36926283 4.21282904,7.15785947 4.25139474,6.95386311 C10.9747709,10.3919371 16.7681791,9.39608302 21.3909611,5.60016339 Z"/><path d="M29.5854023,18.307483 C23.8684221,18.2318646 17.7493666,18.0092459 11.5601716,17.6854027 C8.8423173,17.5431938 6.29315826,17.3908299 3.98613131,17.2384847 C3.17894794,17.1851821 2.45979603,17.1356977 1.83785011,17.0913035 C1.46519437,17.0647035 1.20807802,17.0457366 1.07567359,17.035675 C0.495204565,16.9915639 -9.99999999e-05,17.4506573 -9.99999999e-05,18.0328 L-9.99999999e-05,23.9978 C-9.99999999e-05,24.5415405 0.434363534,24.9856371 0.977973266,24.9975596 C1.08089448,24.9998168 1.08089448,24.9998168 1.57022939,25.0106503 C2.23988976,25.02554 2.61337885,25.0338834 3.24443799,25.0480786 C5.04751365,25.0886373 7.05667532,25.1345268 9.2203952,25.1848198 C15.4023865,25.3285125 21.5843487,25.4786919 27.353986,25.6279367 C30.3951418,25.706603 33.2441264,25.783051 35.86643,25.8566588 C37.5898813,25.9050359 39.2079547,25.951979 40.7127658,25.9973459 C48.9725084,26.2475621 54.6281102,24.7410968 58.1857439,22.1826659 C59.8503848,20.9832198 60.4205795,18.7899644 59.6962325,16.8240658 L58.6950243,14.4848323 C58.5294558,14.0985619 58.140042,13.8570279 57.72043,13.8803396 C57.0398862,13.9181476 56.5962762,14.5782221 56.8124564,15.2055858 C56.8679207,15.3665456 56.8813019,15.5168522 56.8675496,15.6477074 C54.7662375,17.6171172 44.5534494,18.505465 29.5854023,18.307483 Z M57.81337,15.8782604 L57.83137,15.8772604 L57.7759,14.8788 L57.7582644,14.8863592 L57.81337,15.8782604 Z M57.8387757,17.5637677 C58.2446499,18.6692202 57.9228611,19.9069819 57.0173047,20.5594749 C53.8401488,22.8442891 48.6159489,24.2358432 40.7731796,23.9982585 C39.2667693,23.9528435 37.6473246,23.9058606 35.9225477,23.8574462 C33.2986775,23.7837944 30.4482484,23.7073078 27.4057032,23.6286054 C21.6341147,23.4793102 15.4504779,23.3290902 9.26687016,23.1853599 C7.10263039,23.1350548 5.09297237,23.0891539 3.28941498,23.0485844 C2.78972229,23.0373442 2.4514798,23.029772 1.9999,23.0197154 L1.9999,19.1078166 C2.55200069,19.1467173 3.17196991,19.1890772 3.85434771,19.2341382 C6.17010768,19.3870601 8.72829086,19.5399634 11.4556667,19.6826705 C17.6690003,20.0077767 23.8131527,20.2313085 29.5589507,20.307308 C44.5907661,20.5061335 54.4359344,19.7436122 57.7892324,17.4481833 L57.8387757,17.5637677 Z"/><path d="M44.0129182,20.0863073 C52.0180436,19.648428 56.9160675,18.6740322 58.5007424,16.783113 C58.5651961,16.7062034 58.6177067,16.6200307 58.6565096,16.5274905 C58.6891191,16.4497208 58.7247273,16.3429757 58.756318,16.2095513 C58.9822775,15.2552044 58.7581166,14.1708513 57.8071825,13.2123748 C56.0189717,11.4099808 52.006431,10.5021107 45.0850675,10.7253196 C44.6059535,10.7407707 44.2051982,11.0940391 44.1297604,11.5674291 L42.9707604,18.8404291 L42.9583,18.9978 L42.9583,19.0878 C42.9583,19.6615479 43.4400267,20.1176444 44.0129182,20.0863073 Z M43.9583,19.0878 L44.9583,19.0878 L44.9583,18.9978 L43.9583,18.9978 L44.9458396,19.1551709 L45.9740555,12.7028718 C51.8693768,12.5880678 55.1485478,13.3723193 56.3873937,14.6209911 C56.7648681,15.0014594 56.8670114,15.3418514 56.8292999,15.6429404 C55.6232069,16.757117 51.4743391,17.5994642 45.1274035,18.0158139 C44.7281331,18.0420054 44.320164,18.0665112 43.9036818,18.0892927 L43.9583,19.0878 Z"/><path d="M26.8621603,5.83723561 L28.8201603,2.50523561 C29.0999674,2.02907763 28.9407936,1.41624683 28.4646356,1.13643971 C27.9884776,0.856632593 27.3756468,1.01580641 27.0958397,1.49196439 L25.1378397,4.82396439 C24.8580326,5.30012237 25.0172064,5.91295317 25.4933644,6.19276029 C25.9695224,6.47256741 26.5823532,6.31339359 26.8621603,5.83723561 Z"/><path d="M30.8621603,7.83723561 L32.8201603,4.50523561 C33.0999674,4.02907763 32.9407936,3.41624683 32.4646356,3.13643971 C31.9884776,2.85663259 31.3756468,3.01580641 31.0958397,3.49196439 L29.1378397,6.82396439 C28.8580326,7.30012237 29.0172064,7.91295317 29.4933644,8.19276029 C29.9695224,8.47256741 30.5823532,8.31339359 30.8621603,7.83723561 Z"/><path d="M34.8621603,9.83723561 L36.8201603,6.50523561 C37.0999674,6.02907763 36.9407936,5.41624683 36.4646356,5.13643971 C35.9884776,4.85663259 35.3756468,5.01580641 35.0958397,5.49196439 L33.1378397,8.82396439 C32.8580326,9.30012237 33.0172064,9.91295317 33.4933644,10.1927603 C33.9695224,10.4725674 34.5823532,10.3133936 34.8621603,9.83723561 Z"/><path d="M38.8621603,11.8372356 L40.8201603,8.50523561 C41.0999674,8.02907763 40.9407936,7.41624683 40.4646356,7.13643971 C39.9884776,6.85663259 39.3756468,7.01580641 39.0958397,7.49196439 L37.1378397,10.8239644 C36.8580326,11.3001224 37.0172064,11.9129532 37.4933644,12.1927603 C37.9695224,12.4725674 38.5823532,12.3133936 38.8621603,11.8372356 Z"/><path d="M24.4564035,10.7035231 C24.6084806,10.9571006 24.864982,11.1303758 25.1569991,11.1767985 L26.0215822,11.3142433 L25.3850065,12.0187929 C25.1760607,12.25005 25.0868857,12.5655054 25.1438365,12.8719279 L25.2676017,13.5378437 L24.4679341,13.1144366 C24.1752271,12.9594545 23.8247729,12.9594545 23.5320659,13.1144366 L22.7323983,13.5378437 L22.8561635,12.8719279 C22.9131143,12.5655054 22.8239393,12.25005 22.6149935,12.0187929 L21.9784178,11.3142433 L22.8430009,11.1767985 C23.135018,11.1303758 23.3915194,10.9571006 23.5435965,10.7035231 L24,9.94250325 L24.4564035,10.7035231 Z M19.8429991,9.62860155 C19.059076,9.75322372 18.7258595,10.6976371 19.2580065,11.2866071 L20.7994728,12.992672 L20.3878365,15.2074721 C20.2349602,16.0300194 21.0995482,16.6654526 21.8389341,16.2739634 L24,15.1297246 L26.1610659,16.2739634 C26.9004518,16.6654526 27.7650398,16.0300194 27.6121635,15.2074721 L27.2005272,12.992672 L28.7419935,11.2866071 C29.2741405,10.6976371 28.940924,9.75322372 28.1570009,9.62860155 L25.9316822,9.27483718 L24.8575965,7.48387694 C24.4692323,6.83630769 23.5307677,6.83630769 23.1424035,7.48387694 L22.0683178,9.27483718 L19.8429991,9.62860155 Z"/></g></g></g><text x="0" y="42" fill="#000000" font-size="5px" font-weight="bold" font-family="'Helvetica Neue', Helvetica, Arial-Unicode, Arial, Sans-serif">Created by Ben Davis</text><text x="0" y="47" fill="#000000" font-size="5px" font-weight="bold" font-family="'Helvetica Neue', Helvetica, Arial-Unicode, Arial, Sans-serif">from the Noun Project</text></svg>