<svg xmlns="http://www.w3.org/2000/svg" xmlns:xlink="http://www.w3.org/1999/xlink" version="1.1" x="0px" y="0px" viewBox="0 0 58 75" enable-background="new 0 0 58 60" xml:space="preserve"><g><path d="M19,32c0.55,0,1-0.45,1-1v-5c0-0.55-0.45-1-1-1s-1,0.45-1,1v5C18,31.55,18.45,32,19,32z"/><path d="M58,5.17L47.52,3.19C46.68,1.26,44.82,0,42.69,0H5.31C2.38,0,0,2.38,0,5.31V56h2v4h4.62l2-4h32.76l2,4H48v-4v-2v-0.05   l10,2.31V5.17z M5.38,58H4v-2h2.38L5.38,58z M46,58h-1.38l-1-2H46V58z M40.38,54H9.62H2V5.31C2,3.49,3.49,2,5.31,2h37.37   c1.02,0,1.94,0.46,2.55,1.22c-0.03,0.01-0.05,0.02-0.07,0.03c-0.06,0.02-0.12,0.05-0.17,0.08c-0.13,0.06-0.25,0.13-0.37,0.2   c-0.06,0.04-0.11,0.07-0.17,0.11c-0.12,0.09-0.24,0.19-0.35,0.29c-0.03,0.03-0.07,0.06-0.1,0.09C43.37,3.39,42.51,3,41.55,3H25h-2   H6.45C4.55,3,3,4.55,3,6.45V53h20h2h18.88L46,53.49V54H40.38z M25,51v-5h18v5H25z M38,16c-0.55,0-1,0.45-1,1v1h-1v-1   c0-0.55-0.45-1-1-1s-1,0.45-1,1v1h-1v-1c0-0.55-0.45-1-1-1s-1,0.45-1,1v1h-1v-1c0-0.55-0.45-1-1-1s-1,0.45-1,1v1h-3v-3h18v3h-4v-1   C39,16.45,38.55,16,38,16z M25,20h3v2c0,0.55,0.45,1,1,1s1-0.45,1-1v-2h1v2c0,0.55,0.45,1,1,1s1-0.45,1-1v-2h1v2c0,0.55,0.45,1,1,1   s1-0.45,1-1v-2h1v2c0,0.55,0.45,1,1,1s1-0.45,1-1v-2h4v24H25V20z M43,13H25V5h16.55C42.35,5,43,5.65,43,6.45V13z M23,51H5V6.45   C5,5.65,5.65,5,6.45,5H23V51z M56,53.74l-8-1.85l0,0l-3-0.69V6.45c0-0.19,0.04-0.36,0.1-0.53c0,0,0-0.01,0-0.01   c0.06-0.16,0.16-0.3,0.27-0.43c0.01-0.01,0.01-0.01,0.01-0.02c0.11-0.12,0.25-0.22,0.4-0.3c0.01,0,0.02-0.01,0.03-0.02   c0.15-0.07,0.31-0.12,0.49-0.14c0.01,0,0.02,0,0.03-0.01l0.32,0.09l0.22,0L56,6.83V53.74z"/></g><text x="0" y="75" fill="#000000" font-size="5px" font-weight="bold" font-family="'Helvetica Neue', Helvetica, Arial-Unicode, Arial, Sans-serif">Created by Ben Davis</text><text x="0" y="80" fill="#000000" font-size="5px" font-weight="bold" font-family="'Helvetica Neue', Helvetica, Arial-Unicode, Arial, Sans-serif">from the Noun Project</text></svg>