<svg xmlns="http://www.w3.org/2000/svg" xmlns:xlink="http://www.w3.org/1999/xlink" viewBox="0 0 40 76.25" version="1.1" x="0px" y="0px"><title>11 -Raincoat- (Outline)</title><desc>Created with Sketch.</desc><g stroke="none" stroke-width="1" fill="none" fill-rule="evenodd"><g transform="translate(-132.000000, -466.000000)" fill="#000000"><g transform="translate(132.000000, 467.000000)"><path d="M24,26.9997 C24,27.5517 23.552,27.9997 23,27.9997 C22.448,27.9997 22,27.5517 22,26.9997 C22,26.4477 22.448,25.9997 23,25.9997 C23.552,25.9997 24,26.4477 24,26.9997"/><path d="M24,36.9997 C24,37.5517 23.552,37.9997 23,37.9997 C22.448,37.9997 22,37.5517 22,36.9997 C22,36.4477 22.448,35.9997 23,35.9997 C23.552,35.9997 24,36.4477 24,36.9997"/><path d="M24,48.0314 C24,48.5834 23.552,49.0314 23,49.0314 C22.448,49.0314 22,48.5834 22,48.0314 C22,47.4794 22.448,47.0314 23,47.0314 C23.552,47.0314 24,47.4794 24,48.0314"/><path d="M25.4709844,1.9681 L20,14.4732073 L14.5290156,1.9681 L25.4709844,1.9681 Z M13,-0.0319 C12.2788485,-0.0319 11.7947915,0.708230562 12.0838427,1.36891883 L19.0838427,17.3689188 C19.433365,18.1678271 20.566635,18.1678271 20.9161573,17.3689188 L27.9161573,1.36891883 C28.2052085,0.708230562 27.7211515,-0.0319 27,-0.0319 L13,-0.0319 Z"/><path d="M12.4599321,2.22855194 L19,17.1772785 L19,53.7187843 L17.4541897,56.6261937 C14.6673091,58.4628025 11.0416237,58.4609136 8.2528203,56.6011298 L8.02509997,56.4494249 L8.86992873,38.2123752 C8.95641976,36.7403106 9,35.2537684 9,33.7661 C9,27.8431141 8.30687735,21.9403676 6.93479887,16.1784486 L3.26677565,5.57151794 L12.4599321,2.22855194 Z M1.65825694,4.02830658 C1.14487539,4.21499077 0.87630374,4.77910711 1.05504732,5.295307 L5.01704732,16.737307 C6.32513576,22.2518875 7,27.9991424 7,33.7661 C7,35.2146816 6.9575656,36.6621388 6.87271858,38.1074978 L6.00107127,56.9218248 C5.98483235,57.2723693 6.15352718,57.6057746 6.44557498,57.8003337 L7.14357498,58.2653337 C10.68259,60.6254152 15.3084641,60.5728663 18.7943575,58.1334053 C18.9237329,58.0428672 19.0298282,57.9229778 19.1039585,57.783551 L20.8829585,54.437551 C20.9598099,54.2930064 21,54.1318049 21,53.9681 L21,16.9681 C21,16.8301407 20.971454,16.6936736 20.9161573,16.5672812 L13.9161573,0.567281166 C13.7046883,0.0839232963 13.154085,-0.151994549 12.6582569,0.0283065765 L1.65825694,4.02830658 Z"/><path d="M38.3417431,4.02830658 L27.3417431,0.0283065765 C26.845915,-0.151994549 26.2953117,0.0839232963 26.0838427,0.567281166 L19.0838427,16.5672812 C19.028546,16.6936736 19,16.8301407 19,16.9681 L19,53.9681 C19,54.1318049 19.0401901,54.2930064 19.1170415,54.437551 L20.8960415,57.783551 C20.9701718,57.9229778 21.0762671,58.0428672 21.2056425,58.1334053 C24.6915359,60.5728663 29.31741,60.6254152 32.8568203,58.2650702 L33.554425,57.8003337 C33.8464728,57.6057746 34.0151677,57.2723693 33.9989287,56.9218248 L33.1279287,38.1198248 C33.0424344,36.6621388 33,35.2146816 33,33.7661 C33,27.9991424 33.6748642,22.2518875 35.0107989,16.6417514 L38.9449527,5.295307 C39.1236963,4.77910711 38.8551246,4.21499077 38.3417431,4.02830658 Z M33.0930473,16.082893 C31.6931227,21.9403676 31,27.8431141 31,33.7661 C31,35.2537684 31.0435802,36.7403106 31.1307186,38.2247022 L31.9749023,56.4494234 L31.747575,56.6008663 C28.9583853,58.4609076 25.3326911,58.4628023 22.5458103,56.6261937 L21,53.7187843 L21,17.1772785 L27.5400679,2.22855194 L36.7328488,5.57138139 L33.0930473,16.082893 Z"/><path d="M19,18.459643 L11.0364406,10.0607077 L12.636865,8.73867532 C13.2862896,8.20221739 13.0221001,7.15231611 12.1961161,6.98711932 L9.02834789,6.35356567 L12.6702815,2.71163204 L19,17.2084958 L19,18.459643 Z M8.93713498,9.20072468 C8.49060275,9.56958312 8.44983247,10.2394591 8.84833525,10.6597484 L19.2743352,21.6557484 C19.8961855,22.3115959 21,21.8714885 21,20.9677 L21,16.9997 C21,16.8619877 20.9715561,16.7257596 20.916451,16.599553 L13.916451,0.567552996 C13.63452,-0.0781495843 12.7910985,-0.23761202 12.2928932,0.260593219 L6.29289322,6.26059322 C5.7281303,6.82535614 6.02069861,7.79164362 6.80388386,7.94828068 L9.74196212,8.53589633 L8.93713498,9.20072468 Z"/><path d="M33.1961161,7.94828068 C33.9793014,7.79164362 34.2718697,6.82535614 33.7071068,6.26059322 L27.7071068,0.260593219 C27.2089015,-0.23761202 26.36548,-0.0781495843 26.083549,0.567552996 L19.083549,16.599553 C19.0284439,16.7257596 19,16.8619877 19,16.9997 L19,20.9677 C19,21.8714885 20.1038145,22.3115959 20.7256648,21.6557484 L31.1516648,10.6597484 C31.5501675,10.2394591 31.5093972,9.56958312 31.062865,9.20072468 L30.2580379,8.53589633 L33.1961161,7.94828068 Z M27.3297185,2.71163204 L30.9716521,6.35356567 L27.8038839,6.98711932 C26.9778999,7.15231611 26.7137104,8.20221739 27.363135,8.73867532 L28.9635594,10.0607077 L21,18.459643 L21,17.2084958 L27.3297185,2.71163204 Z"/><path d="M8.9997,33.7661 C8.9997,27.8443605 8.30686626,21.9416513 6.93554658,16.1776491 L2.9446183,4.64079371 C2.80514402,4.23813785 2.4258277,3.9681 1.9997,3.9681 C1.12952704,3.9681 0.478513765,4.36429373 0.18572416,5.10097242 C0.0133320969,5.53472265 -0.00823822042,5.85488535 -0.00157713659,6.71734847 C-0.000610152773,6.84366741 -0.0003,6.89820828 -0.0003,6.9681 L-0.0003,44.9681 C-0.0003,46.6251168 1.34314712,47.9681 2.9997,47.9681 L5.4667,47.9681 C7.05550134,47.9681 8.36902158,46.7300169 8.46198736,45.1436008 L8.86897437,38.224822 C8.95609791,36.7406828 8.9997,35.2531417 8.9997,33.7661 Z M1.9997,5.9681 L1.96827858,5.94573088 C1.96207333,5.95960602 1.96819403,5.9681 1.9997,5.9681 Z M5.0177817,16.7364063 C6.32510104,22.2529332 6.9997,28.0002882 6.9997,33.7661 C6.9997,35.2140583 6.95724355,36.6625144 6.87241858,38.1074978 L6.46542563,45.026378 C6.43442123,45.5554525 5.99663093,45.9681 5.4667,45.9681 L2.9997,45.9681 C2.44756203,45.9681 1.9997,45.5203926 1.9997,44.9681 L1.9997,8.02334226 L5.0177817,16.7364063 Z M1.9997,6.9681 C1.9997,6.89145238 1.99935667,6.83107772 1.99836322,6.70190228 C1.99402679,6.14043128 2.00816327,5.9306072 2.04431021,5.83965902 C2.02812955,5.88037067 1.9791814,5.92135506 1.96827898,5.94573116 L1.0547817,5.29540629 L1.9997,8.02334226 L1.9997,6.9681 Z"/><path d="M37.0550562,4.64086746 L33.0930562,16.0818675 C31.6930916,21.9405114 31,27.8432481 31,33.7661 C31,35.2531417 31.0436021,36.7406828 31.1307186,38.2247022 L31.5377256,45.143822 C31.6322139,46.7306296 32.9446271,47.9681 34.533,47.9681 L37,47.9681 C38.6572847,47.9681 40,46.6253847 40,44.9681 L40,6.9681 C40,6.89772799 40.0003176,6.84282398 40.001308,6.71562621 C40.0080809,5.85359555 39.9865446,5.53370788 39.8140125,5.10005306 C39.5210729,4.36375719 38.8700432,3.9681 38,3.9681 C37.5738436,3.9681 37.1945084,4.23817362 37.0550562,4.64086746 Z M38,5.9681 C38.0317981,5.9681 38.0379358,5.95954655 38.031654,5.94556345 L38,5.9681 Z M38,44.9681 C38,45.5208153 37.5527153,45.9681 37,45.9681 L34.533,45.9681 C34.003336,45.9681 33.5657839,45.5555335 33.5342318,45.025659 L33.1272744,38.107378 C33.0424565,36.6625144 33,35.2140583 33,33.7661 C33,27.9992598 33.6748371,22.2519882 35.0108081,16.6407128 L38,8.02039029 L38,44.9681 Z M37.9556883,5.8393982 C37.9916748,5.9298491 38.0057746,6.13927988 38.0013698,6.69991297 C38.0003519,6.8300191 38,6.89085624 38,6.9681 L38,8.02039029 L38.9449438,5.29533254 L38.031654,5.94556343 C38.0206957,5.92117051 37.9719432,5.8802544 37.9556883,5.8393982 Z"/><path d="M7.48266998,44.9982575 L15.88267,45.9932575 C16.4774235,46.0637075 17.0003,45.5991115 17.0003,45.0002 L17.0003,41.0002 C17.0003,40.4944199 16.6226517,40.0682709 16.1205411,40.0074553 L7.90554114,39.0124553 C7.32822504,38.9425308 6.81323511,39.378085 6.78636782,39.9589994 L6.60136782,43.9589994 C6.57713592,44.4829323 6.96181829,44.9365614 7.48266998,44.9982575 Z M8.73446393,41.127471 L15.0003,41.8863884 L15.0003,43.8747566 L8.64223414,43.1216285 L8.73446393,41.127471 Z"/><path d="M32.0943635,39.0125426 L23.8803635,40.0065426 C23.3782067,40.0673101 23.0005,40.4934796 23.0005,40.9993 L23.0005,44.9993 C23.0005,45.5981701 23.5233076,46.0627532 24.1180272,45.9923697 L32.5170272,44.9983697 C33.0379249,44.9367228 33.4226659,44.4830721 33.3984322,43.9590994 L33.2134322,39.9590994 C33.1865668,39.3782268 32.6716455,38.942684 32.0943635,39.0125426 Z M31.3575614,43.121632 L25.0005,43.8739739 L25.0005,41.8855825 L31.2653308,41.1274572 L31.3575614,43.121632 Z"/></g></g></g><text x="0" y="76" fill="#000000" font-size="5px" font-weight="bold" font-family="'Helvetica Neue', Helvetica, Arial-Unicode, Arial, Sans-serif">Created by Ben Davis</text><text x="0" y="81" fill="#000000" font-size="5px" font-weight="bold" font-family="'Helvetica Neue', Helvetica, Arial-Unicode, Arial, Sans-serif">from the Noun Project</text></svg>