<svg xmlns="http://www.w3.org/2000/svg" xmlns:xlink="http://www.w3.org/1999/xlink" viewBox="0 0 60 37.5" version="1.1" x="0px" y="0px"><title>6 -Sneakers- (Outline)</title><desc>Created with Sketch.</desc><g stroke="none" stroke-width="1" fill="none" fill-rule="evenodd"><g transform="translate(-721.000000, -368.000000)" fill="#000000"><g transform="translate(720.000000, 368.000000)"><path d="M1.56368033,22.0575542 C0.99883018,23.1087837 0.795111737,24.2341588 1.22332413,25.3428323 C1.96588773,27.2653842 4.40046893,28.4724162 8.78285726,28.9157226 C9.05505216,28.9432569 9.32664245,28.8580689 9.53434932,28.6800069 C9.63375985,28.5947847 9.83959519,28.4447629 10.1093091,28.2935047 C10.5850859,28.0266843 11.0425149,27.8904476 11.402332,27.9279288 C11.8560503,27.9751916 12.2393808,28.309803 12.5722124,29.1970344 C12.7360419,29.6337556 13.1800355,29.8992119 13.6422818,29.8368108 C13.7624475,29.820589 13.9815238,29.7886227 14.2854993,29.7404753 C14.7887521,29.660764 15.3486822,29.5640134 15.9513423,29.4497561 C17.6750597,29.1229594 19.3997203,28.7206604 21.0158007,28.237817 C22.3435687,27.8411139 23.5423325,27.4056149 24.5829954,26.927479 C24.6725495,26.8979661 24.9727268,26.8020755 25.353563,26.7053778 C25.8356445,26.5829729 26.3079601,26.4979547 26.7363707,26.466577 C27.4305531,26.4157336 27.892169,26.5173386 28.0507442,26.6916754 C28.885929,27.6106678 31.2317533,28.9159597 33.2657949,29.4930768 C35.9797415,30.2631027 38.2070366,29.855993 39.2297027,27.8460382 C39.3970244,27.8402839 39.561528,27.8591721 39.7062216,27.9088153 C39.9896021,28.006041 40.2013289,28.2179837 40.354502,28.6649724 C40.4439837,28.9260975 40.6374212,29.1386219 40.8889987,29.2522092 C41.0706359,29.3342184 41.36549,29.4460532 41.7465683,29.5555628 C42.6562996,29.8169902 43.5933336,29.9269292 44.5035931,29.7905406 C45.7751488,29.6000172 46.8309567,28.9395577 47.5219007,27.7666074 L48.0540703,27.5894731 C48.2048225,27.6851139 48.3771293,27.7859705 48.5683263,27.88654 C49.4109048,28.3297359 50.2776472,28.5782092 51.1460782,28.5105955 C52.3920556,28.4135872 53.4106051,27.6676482 54.0579003,26.288325 L54.9781157,25.6746269 L55.6793529,25.6297593 C55.7931694,25.6224769 55.9049015,25.5957782 56.0097148,25.5508183 C56.645656,25.2780301 57.553906,24.7567436 58.4674594,23.9674938 C61.0219412,21.7605903 61.9066951,18.8096325 60.0100515,15.3554919 C59.6296564,14.6627217 58.6338324,14.6642116 58.2555121,15.3581171 C58.202123,15.4560422 58.1021459,15.6336287 57.967133,15.8637622 C57.7419415,16.2476079 57.5042568,16.6310653 57.2666257,16.9859464 C57.0972881,17.2388371 56.934509,17.467214 56.7817784,17.6645311 C56.5503164,17.9635636 56.3517153,18.1771033 56.2213616,18.2749038 L56.0701117,18.4149397 C55.9802752,18.5172372 55.7588057,18.7307156 55.3975192,19.0198007 C54.7708691,19.5212177 53.9875956,20.0275306 53.0388277,20.5036048 C47.0188856,23.5243005 38.1331349,23.8206204 25.8834048,19.5251359 C25.5408241,19.3862331 24.8152388,19.1713774 23.7374267,18.9624668 C20.455213,18.3262805 16.1166728,18.1875178 10.6693797,18.8446879 C10.3156506,18.8564974 9.70000263,18.8009442 8.82486567,18.6113471 C7.40081328,18.3028284 5.71963274,17.7195992 3.78478001,16.7920606 C3.47336337,16.6427722 3.1069577,16.6647343 2.81560305,16.8501522 C2.57772007,17.0015407 2.26317418,17.2582932 1.94997654,17.6266115 C0.941706598,18.8123299 0.709982766,20.3105926 1.66991005,21.8680244 C1.63461134,21.9284163 1.59910532,21.9916256 1.56368033,22.0575542 Z M8.40139293,20.5660008 C9.44822854,20.7927961 10.2346717,20.8624171 10.7543127,20.8429293 C16.1335628,20.1971629 20.2745486,20.3284857 23.356853,20.9259238 C23.917304,21.0345552 24.3889295,21.149869 24.7733692,21.2637068 C24.9921687,21.3284964 25.1269431,21.3754904 25.1793112,21.3965554 C37.9637615,25.8806262 47.4102029,25.5656085 53.9358017,22.2911835 C55.7260513,21.3928693 56.8957688,20.4759755 57.5072908,19.8078015 C57.7826333,19.5843775 58.0627896,19.2770198 58.3633463,18.8887219 C58.5464688,18.6521405 58.7352244,18.3873189 58.928467,18.0987282 C59.2786038,19.7981111 58.5918543,21.21701 57.1599618,22.4540706 C56.7310781,22.8245977 56.2676155,23.1443597 55.8046568,23.4100729 C55.6263325,23.5124215 55.4766233,23.5910844 55.3652875,23.6457646 L54.5826471,23.6958407 C54.4072406,23.7070638 54.2378906,23.7643207 54.0916614,23.861842 L52.7046614,24.786842 C52.5379256,24.8980393 52.4084483,25.056771 52.3330225,25.2424498 C51.9717453,26.1318216 51.5375377,26.474065 50.9908336,26.5166299 C50.5619049,26.550025 50.0382019,26.3998926 49.4993809,26.1164729 C49.1918284,25.9547004 48.9568626,25.7944033 48.8407593,25.7013829 C48.5759533,25.489224 48.2216298,25.4258189 47.8996824,25.5329801 L46.5116824,25.9949801 C46.2537168,26.0808447 46.0418329,26.268044 45.9248323,26.5134617 C45.5461494,27.3077783 44.9808037,27.6967119 44.2072316,27.81262 C43.6217984,27.9003383 42.956296,27.8222572 42.2989482,27.6333567 C42.2109467,27.6080679 42.1302271,27.5830072 42.0578108,27.5591355 C41.6786012,26.7848725 41.0871341,26.2681574 40.3552681,26.0170599 C39.7439125,25.8073086 39.1265993,25.8041957 38.5493957,25.9180452 C38.4045787,25.9466094 38.2904739,25.9773449 38.2124459,26.0030647 C37.9181094,26.1000846 37.6853896,26.328091 37.5823682,26.620381 C37.1459709,27.8585177 35.8757963,28.1546662 33.8117051,27.5690232 C32.1118276,27.0867183 30.0897644,25.9615774 29.5305454,25.346243 C28.8559832,24.6046327 27.8378872,24.3805423 26.5902777,24.47192 C26.0317069,24.5128309 25.4484958,24.6178105 24.861363,24.7668889 C24.4072547,24.8821911 24.0437839,24.9983005 23.8211499,25.0799587 C22.8007865,25.5453233 21.6874552,25.9497856 20.4432601,26.3215192 C18.9001398,26.782564 17.2399423,27.1698262 15.5788018,27.484759 C15.0486371,27.585272 14.5532293,27.6716675 14.1033552,27.7442057 C13.5067665,26.656874 12.648805,26.0469493 11.6095459,25.9386922 C10.7662583,25.850849 9.93422188,26.0986556 9.13102691,26.5490953 C8.92776899,26.6630844 8.7479834,26.7773955 8.59514086,26.88388 C5.14654502,26.4873587 3.47880888,25.6314837 3.08899886,24.6222368 C2.90820614,24.1541512 3.01014537,23.5910216 3.32545888,23.004199 C3.45474478,22.763588 3.58133307,22.5864072 3.64938629,22.506856 C3.9641226,22.1389434 3.97007842,21.5984032 3.66352507,21.2236451 C2.86480125,20.2472138 2.92129938,19.5717101 3.47359563,18.9222136 C3.4875859,18.9057611 3.50156674,18.8897371 3.51549014,18.8741543 C5.34528078,19.7095508 6.97525435,20.25703 8.40139293,20.5660008 Z"/><path d="M58.3635463,18.8887219 C58.5466688,18.6521405 58.7354244,18.3873189 58.928667,18.0987282 C59.1906788,17.7074367 59.4485431,17.2914235 59.6923787,16.8757985 C59.838782,16.6262497 59.9488437,16.43075 60.0116879,16.3154829 C60.0917494,16.1686361 60.1337,16.0040537 60.1337,15.8368 L60.1337,15.3748 C60.0844164,14.6502939 59.5568493,13.9124572 58.3851898,13.3271985 C56.780509,12.5256402 54.1021695,12.0688 50.0657,12.0688 C49.9564427,12.0740559 49.8758716,12.0786229 49.7581497,12.0833464 C48.6804615,12.1265877 47.434249,12.0771512 46.2711784,11.8658252 C44.4854062,11.5413563 43.3952837,10.910463 43.1707925,10.0432071 C43.0961508,9.75485058 42.8968505,9.51477755 42.6271527,9.38834988 C42.5459624,9.35028988 42.4299882,9.30377944 42.2858593,9.25893662 C42.0277625,9.17863503 41.7629759,9.13045975 41.488628,9.13394639 C41.1703961,9.13799075 40.874558,9.21539961 40.6222791,9.36151989 L39.8159336,8.75654284 C39.7446292,8.57247924 39.649129,8.36958257 39.5245588,8.16206054 C38.8833047,7.09379278 37.8172572,6.6411973 36.6532805,7.24220337 L36.1192427,6.88604985 C36.0650578,6.7464209 35.9945469,6.59858574 35.9039008,6.44778282 C35.3971947,5.60480364 34.5167049,5.19960207 33.4614566,5.50798369 C33.3057083,5.42422891 33.1300085,5.31851168 32.9573052,5.19547425 C32.7453143,5.0444475 32.5775505,4.89174163 32.468276,4.75191634 C32.4152051,4.61172637 32.3401418,4.45628569 32.2356123,4.29536653 C31.7214384,3.50381587 30.8218984,3.21043503 29.8957367,3.73233085 C29.8225223,3.71428172 29.7293628,3.68251561 29.617504,3.63052199 C29.1866761,3.43026694 28.7134912,3.01858048 28.2203968,2.31815087 C27.2970603,1.00567587 25.4183444,-0.00542790303 23.8582386,0.000557359079 C21.8329306,0.00832734435 20.7907104,1.56771902 21.2415306,4.04139423 C21.0818355,4.20789084 20.8402588,4.41454616 20.504763,4.63089819 C19.2739551,5.42461249 17.4869324,5.83119629 15.0093308,5.59819301 C14.9509373,5.58955052 14.7556156,5.55398742 14.497334,5.49052229 C14.0641875,5.38408921 13.6322025,5.2394497 13.2375723,5.05457246 C12.6940534,4.79994351 12.2749599,4.49263587 12.0183197,4.14730887 C11.2614816,3.1298421 9.52420924,2.47582507 7.90255481,2.45761306 C5.89897918,2.43511187 4.41444836,3.43240663 4.67488169,5.34100014 C4.81019411,6.33589905 4.75902463,6.90810674 4.64965737,7.14764704 C4.55952656,7.20747559 4.47913422,7.28190647 4.41206286,7.368515 C4.09550283,7.77728562 3.6463818,8.4896328 3.20241471,9.45557044 C2.07795025,11.9020638 1.65481438,14.5911474 2.3527,17.3588133 L2.3527,17.6938 C2.3527,18.0779856 2.57279682,18.4282043 2.91896332,18.5948397 C4.97782269,19.5859202 6.80973008,20.2196046 8.40346901,20.562872 C9.45116574,20.7885302 10.2390552,20.8590613 10.7553533,20.8425768 C16.1337628,20.1971629 20.2747486,20.3284857 23.357053,20.9259238 C23.917504,21.0345552 24.3891295,21.149869 24.7735692,21.2637068 C24.9923687,21.3284964 25.1271431,21.3754904 25.1795112,21.3965554 C37.9639615,25.8806262 47.4104029,25.5656085 53.9360017,22.2911835 C55.7262513,21.3928693 56.8959688,20.4759755 57.5074908,19.8078015 C57.7828333,19.5843775 58.0629896,19.2770198 58.3635463,18.8887219 Z M4.31945059,16.9760789 C3.70784739,14.6639204 4.05655849,12.3862232 5.01965568,10.2908161 C5.23932316,9.81288629 5.47416521,9.38501965 5.70746289,9.01498813 C5.78077822,8.89870329 5.84395647,8.80346252 5.89431266,8.7304474 C6.0525594,8.61132627 6.20197907,8.44881514 6.32977277,8.24036358 C6.73579303,7.57808083 6.85840033,6.55495713 6.65657751,5.07103443 C6.6015872,4.66803555 6.93086941,4.44682665 7.88009519,4.45748694 C8.93583347,4.46934343 10.0878199,4.90302255 10.413336,5.34063498 C10.8920784,5.98481586 11.5701063,6.48199162 12.3891021,6.86567665 C13.2864194,7.28605388 14.1649549,7.50192823 14.7825562,7.58489672 C17.7356727,7.86341358 19.9711792,7.35479066 21.5886741,6.3117125 C22.4222679,5.77415075 22.9320507,5.21043519 23.1803021,4.78325716 C23.3108151,4.55867726 23.3488222,4.29212639 23.2862795,4.04001892 C22.8897891,2.44178135 23.1490522,2.00329283 23.8659114,2.00054264 C24.7594099,1.99711478 26.0304428,2.68117042 26.5848182,3.46918631 C27.8197392,5.2233642 29.1529167,5.8430444 30.2375984,5.74342084 C30.4584868,5.70971537 30.5614524,5.67353829 30.6563405,5.62181115 C30.6753388,5.6633397 30.6971861,5.70357579 30.7217518,5.74222464 C30.9819387,6.15157249 31.3497446,6.50585582 31.7968412,6.82437672 C32.258878,7.1535414 32.7108236,7.38497059 33.0348438,7.51843427 C33.295742,7.62589808 33.5898982,7.61813946 33.8447688,7.49707183 C34.1321047,7.3605826 34.1154148,7.35449743 34.1897396,7.47814751 C34.2432381,7.56714995 34.2766907,7.67018129 34.2826469,7.7021213 C34.3320846,7.96722854 34.4865011,8.20113054 34.7108614,8.350758 L36.0978614,9.275758 C36.4677119,9.52241388 36.9559889,9.49529624 37.2962519,9.2092025 C37.6593113,8.90394149 37.6324228,8.89593703 37.8097808,9.19139836 C37.9083613,9.35562413 37.9750262,9.53337223 37.9984551,9.6226452 C38.0557242,9.8408618 38.1851,10.0333012 38.3655616,10.1686962 L40.2155616,11.5566962 C40.6630352,11.8924223 41.2553651,11.7849847 41.5795554,11.4042085 C41.6365521,11.3372633 41.6852606,11.2618693 41.7234365,11.1789493 C41.7686602,11.0728768 41.7919849,10.9906749 41.8049341,10.903142 C41.7977625,10.9516196 41.7364548,11.0173623 41.6678412,11.0662572 C41.6133693,11.1050746 41.5542927,11.1332734 41.5140436,11.1337849 C41.5500523,11.1333273 41.6178289,11.1456585 41.6916935,11.16864 C41.7546562,11.1895235 41.2346075,10.5443929 41.2346075,10.5443929 C41.314847,10.8543751 41.4306351,11.1405191 41.5795554,11.4042085 C42.3143555,12.7052994 43.8557996,13.4597045 45.913639,13.8336071 C47.245241,14.0755547 48.6266724,14.1303552 49.8383335,14.0817384 C49.9774838,14.0761551 50.078747,14.0704153 50.1369369,14.0662594 C53.8193555,14.0688 56.2108285,14.4767098 57.4914602,15.1164015 C57.8329551,15.2869825 58.0344272,15.4437428 58.1354426,15.5698608 C58.1442894,15.5252892 58.1394256,15.4905501 58.1362501,15.44617 L58.1337,15.8368 L59.1337,15.8368 L58.2557121,15.3581171 C58.2301913,15.4049268 58.1940251,15.4699391 58.1484755,15.5501924 C58.0882062,15.6560971 58.0317585,15.7539472 57.967333,15.8637622 C57.7421415,16.2476079 57.5044568,16.6310653 57.2668257,16.9859464 C57.0974881,17.2388371 56.934709,17.467214 56.7819784,17.6645311 C56.5505164,17.9635636 56.3519153,18.1771033 56.2215616,18.2749038 L56.0703117,18.4149397 C55.9804752,18.5172372 55.7590057,18.7307156 55.3977192,19.0198007 C54.7710691,19.5212177 53.9877956,20.0275306 53.0390277,20.5036048 C47.0190856,23.5243005 38.1333349,23.8206204 25.8836048,19.5251359 C25.5410241,19.3862331 24.8154388,19.1713774 23.7376267,18.9624668 C20.4564282,18.3264773 16.1195565,18.1876037 10.6746338,18.8440784 C10.3177887,18.8531064 9.69851407,18.7959405 8.82458185,18.6077086 C7.52593144,18.3279988 6.02767467,17.8261198 4.33623725,17.0510945 C4.33160925,17.0259053 4.32601125,17.0008814 4.31945059,16.9760789 Z"/><path d="M30.5064932,3.92219322 L26.6374932,7.79119322 C26.2469689,8.18171751 26.2469689,8.81488249 26.6374932,9.20540678 C27.0280175,9.59593107 27.6611825,9.59593107 28.0517068,9.20540678 L31.9207068,5.33640678 C32.3112311,4.94588249 32.3112311,4.31271751 31.9207068,3.92219322 C31.5301825,3.53166893 30.8970175,3.53166893 30.5064932,3.92219322 Z"/><path d="M34.2733932,6.15529322 L30.4473932,9.98129322 C30.0568689,10.3718175 30.0568689,11.0049825 30.4473932,11.3955068 C30.8379175,11.7860311 31.4710825,11.7860311 31.8616068,11.3955068 L35.6876068,7.56950678 C36.0781311,7.17898249 36.0781311,6.54581751 35.6876068,6.15529322 C35.2970825,5.76476893 34.6639175,5.76476893 34.2733932,6.15529322 Z"/><path d="M37.7497932,7.67879322 L34.0827932,11.3457932 C33.6922689,11.7363175 33.6922689,12.3694825 34.0827932,12.7600068 C34.4733175,13.1505311 35.1064825,13.1505311 35.4970068,12.7600068 L39.1640068,9.09300678 C39.5545311,8.70248249 39.5545311,8.06931751 39.1640068,7.67879322 C38.7734825,7.28826893 38.1403175,7.28826893 37.7497932,7.67879322 Z"/></g></g></g><text x="0" y="45" fill="#000000" font-size="5px" font-weight="bold" font-family="'Helvetica Neue', Helvetica, Arial-Unicode, Arial, Sans-serif">Created by Ben Davis</text><text x="0" y="50" fill="#000000" font-size="5px" font-weight="bold" font-family="'Helvetica Neue', Helvetica, Arial-Unicode, Arial, Sans-serif">from the Noun Project</text></svg>