<svg xmlns="http://www.w3.org/2000/svg" xmlns:xlink="http://www.w3.org/1999/xlink" version="1.1" x="0px" y="0px" viewBox="0 0 45 75" style="enable-background:new 0 0 45 60;" xml:space="preserve"><title>23 -Hoodie- (Outline)</title><desc>Created with Sketch.</desc><g><g transform="translate(-368.000000, -587.000000)"><g transform="translate(369.000000, 588.000000)"><path d="M16,22v8c0,0.6,0.4,1,1,1s1-0.4,1-1v-8c0-0.6-0.4-1-1-1S16,21.4,16,22z"/><path d="M24,22v8c0,0.6,0.4,1,1,1s1-0.4,1-1v-8c0-0.6-0.4-1-1-1S24,21.4,24,22z"/><path d="M15,38c0,3.4-1.9,6-4,6c-0.6,0-1,0.4-1,1v4c0,0.6,0.4,1,1,1h10c0.6,0,1-0.4,1-1V38c0-0.6-0.4-1-1-1h-5     C15.4,37,15,37.4,15,38z M20,39v9h-8v-2.1c2.6-0.6,4.6-3.4,5-6.9H20z"/><path d="M30,45.9V48h-8v-9h3C25.4,42.5,27.4,45.3,30,45.9z M27,38c0-0.6-0.4-1-1-1h-5c-0.6,0-1,0.4-1,1v11     c0,0.6,0.4,1,1,1h10c0.6,0,1-0.4,1-1v-4c0-0.6-0.4-1-1-1C28.9,44,27,41.4,27,38z"/><path d="M7.1,18.3c-0.4,0.5-0.9,0.9-1.3,1.4c-0.2,0.3-0.4,0.5-0.5,0.6c-2.5,3.9-4.2,9.4-5.2,16.2     S-1.2,50.4-1,56.6c0,0.4,0,0.7,0,1c0,0.2,0,0.3,0,0.4c0,0.5,0.5,0.9,1,0.9h4c0.4,0,0.8-0.2,0.9-0.6l2.9-7C8,51.3,8,51.1,8,51     C7.5,36.6,7.7,27.4,8.3,22.2c0.1-1,0.2-1.8,0.4-2.3c0.1-0.3,0.2-0.7,0.2-0.7C9,18.2,7.8,17.6,7.1,18.3z M6,50.8L3.4,57H1.1     c0-0.1,0-0.2,0-0.3c-0.2-6.1,0.1-13.1,1-19.8C3,31.1,4.3,26.3,6.2,22.8C5.7,28.2,5.5,37.2,6,50.8z"/><path d="M40,36.9c1,6.7,1.2,13.7,1,19.8c0,0.1,0,0.2,0,0.3h-2.4L36,50.8c0.5-13.7,0.3-22.7-0.2-28     C37.8,26.2,39.1,31.1,40,36.9z M35,18.3c-0.7-0.7-1.9-0.1-1.7,0.9c0,0,0.1,0.4,0.2,0.7c0.1,0.5,0.2,1.3,0.4,2.3     c0.6,5.2,0.8,14.4,0.3,28.7c0,0.1,0,0.3,0.1,0.4l2.9,7c0.2,0.4,0.5,0.6,0.9,0.6h4c0.5,0,1-0.4,1-0.9c0-0.1,0-0.2,0-0.4     c0-0.3,0-0.6,0-1c0.2-6.2-0.1-13.3-1.1-20.1s-2.7-12.3-5.1-16.1c-0.2-0.2-0.3-0.4-0.6-0.7C35.9,19.3,35.4,18.8,35,18.3z"/><path d="M27.1,53H15c-1.9,0-3.8-0.6-5.4-1.8C8.9,50.7,8,51.2,8,52v5c0,1.1,0.9,2,2,2h22c1.1,0,2-0.9,2-2v-4.9     c0-0.8-0.9-1.3-1.6-0.8C30.9,52.4,29,53,27.1,53z M32,57H10v-3.2c1.5,0.8,3.3,1.2,5,1.2h12.1c1.7,0,3.4-0.4,4.9-1.2V57z"/><path d="M35.5,53.1v0.2c0,0.1,0,0.3,0.1,0.4l1.5,4.7c0.2,0.4,0.5,0.6,0.9,0.6h4c0.5,0,1-0.4,1-1     c0-0.1,0-0.2,0-0.4c0-0.4,0-0.8,0-1.2c0-1,0-2.1,0-3.3c0-0.6-0.4-1-1-1h-6C35.4,52,35.5,52.5,35.5,53.1z M41.1,54     c0,0.8,0,1.6,0,2.3c0,0.2,0,0.5,0,0.7h-2.4l-1.2-3H41.1z"/><path d="M3.4,57H1.1c0-0.2,0-0.4,0-0.7c0-0.7,0-1.5,0-2.3h3.7L3.4,57z M6.9,52.8c0-0.6-0.2-0.8-0.8-0.8H0     c-0.6,0-1,0.5-1,1c0,1.2,0,2.3,0,3.3c0,0.5,0,0.9,0,1.2c0,0.2,0,0.4,0,0.4c0,0.5,0.5,1,1,1h4c0.4,0,0.8-0.2,0.9-0.6l1.7-4.7     C6.7,53.5,7,53.2,7,53.1V53L6.9,52.8z"/><path d="M17.5,8.1C17.7,6.3,19.2,5,21,5s3.3,1.3,3.5,3.1l0.8,5.9c0.3,2.1-1.4,4-3.5,4h-1.6c-2.2,0-3.8-1.9-3.5-4     L17.5,8.1z M20.2,20h1.6c3.4,0,6-3,5.5-6.3l-0.8-5.9C26.2,5.1,23.8,3,21,3s-5.2,2.1-5.5,4.8l-0.8,5.9C14.3,17,16.9,20,20.2,20z      M30.5,7.3C29.9,2.6,25.8-1,21-1s-8.9,3.6-9.5,8.3l-0.7,7.3C9.2,16,7.4,17.7,7,18.5c-0.1,0.1-0.1,0.2-0.1,0.4     c0.1-0.8-0.3,1-0.6,2.8C5.7,26.5,5.5,35.6,6,50c0,0.2,0.1,0.4,0.2,0.6C8.3,53.4,11.5,55,15,55h12.1c3.5,0,6.7-1.6,8.8-4.4     c0.1-0.2,0.2-0.4,0.2-0.6c0.5-14.5,0.3-23.5-0.3-28.4c-0.2-1.8-0.7-3.6-0.6-2.8c0-0.1-0.1-0.2-0.1-0.4c-0.5-0.8-2.3-2.6-3.9-4     L30.5,7.3z M33.5,19.8c0.1,0.5,0.2,1.1,0.4,2.1c0.6,4.7,0.7,13.6,0.3,27.8c-1.7,2.1-4.3,3.4-7,3.4H15c-2.7,0-5.3-1.2-7-3.4     c-0.5-14.2-0.3-23,0.3-27.8c0.1-0.9,0.2-1.6,0.4-2.1c0-0.1,0.1-0.2,0.1-0.3c0.4-0.6,2.2-2.4,3.7-3.6c0.2-0.2,0.3-0.4,0.3-0.7     l0.8-7.6C14,3.8,17.2,1,21,1s7,2.8,7.5,6.6l0.7,7.6c0,0.3,0.2,0.5,0.4,0.7c1.5,1.2,3.3,3,3.8,3.7C33.4,19.6,33.5,19.7,33.5,19.8z     "/></g></g></g><text x="0" y="75" fill="#000000" font-size="5px" font-weight="bold" font-family="'Helvetica Neue', Helvetica, Arial-Unicode, Arial, Sans-serif">Created by Ben Davis</text><text x="0" y="80" fill="#000000" font-size="5px" font-weight="bold" font-family="'Helvetica Neue', Helvetica, Arial-Unicode, Arial, Sans-serif">from the Noun Project</text></svg>