<svg xmlns="http://www.w3.org/2000/svg" xmlns:xlink="http://www.w3.org/1999/xlink" viewBox="0 0 48 75" version="1.1" x="0px" y="0px"><title>44 -Sweater- (Outline)</title><desc>Created with Sketch.</desc><g stroke="none" stroke-width="1" fill="none" fill-rule="evenodd"><g transform="translate(-487.000000, -827.000000)" fill="#000000"><g transform="translate(487.000000, 827.000000)"><path d="M29.9987,20.0007 C29.4467,20.0007 28.9987,19.5527 28.9987,19.0007 C28.9987,17.3467 27.6527,16.0007 25.9987,16.0007 C25.4467,16.0007 24.9987,15.5527 24.9987,15.0007 C24.9987,14.4487 25.4467,14.0007 25.9987,14.0007 C27.6327,14.0007 29.0857,14.7887 29.9987,16.0037 C30.9117,14.7887 32.3647,14.0007 33.9987,14.0007 C34.5507,14.0007 34.9987,14.4487 34.9987,15.0007 C34.9987,15.5527 34.5507,16.0007 33.9987,16.0007 C32.3447,16.0007 30.9987,17.3467 30.9987,19.0007 C30.9987,19.5527 30.5507,20.0007 29.9987,20.0007"/><path d="M11.7194,54.0007 L36.2784,54.0007 L37.0194,51.7747 C37.2024,50.3737 39.3714,32.8617 37.0054,12.1137 C36.9994,12.0677 36.9974,12.0217 36.9994,11.9757 C37.0024,11.8387 37.1004,9.0477 39.2594,7.0427 L32.4754,2.5207 C31.7284,4.1667 30.6284,5.6347 29.2484,6.8177 L24.6494,10.7597 C24.2744,11.0817 23.7224,11.0817 23.3474,10.7597 L18.7484,6.8177 C17.3684,5.6347 16.2684,4.1667 15.5224,2.5207 L8.7384,7.0427 C10.8974,9.0477 10.9944,11.8387 10.9984,11.9757 C10.9994,12.0217 10.9974,12.0677 10.9924,12.1137 C8.6234,32.8757 10.7954,50.3747 10.9774,51.7747 L11.7194,54.0007 Z M36.9984,56.0007 L10.9984,56.0007 C10.5684,56.0007 10.1864,55.7257 10.0504,55.3167 L9.0504,52.3167 C9.0304,52.2587 9.0164,52.1987 9.0084,52.1377 C8.9834,51.9557 6.5254,33.7227 8.9954,11.9687 C8.9684,11.5547 8.7124,9.1317 6.5024,7.8687 C6.2014,7.6967 6.0114,7.3817 5.9994,7.0357 C5.9874,6.6887 6.1554,6.3607 6.4444,6.1687 L15.4444,0.1687 C15.7044,-0.0043 16.0294,-0.0443 16.3234,0.0547 C16.6174,0.1557 16.8484,0.3887 16.9474,0.6847 C17.5444,2.4747 18.6174,4.0707 20.0504,5.2997 L23.9984,8.6837 L27.9474,5.2997 C29.3804,4.0707 30.4534,2.4747 31.0504,0.6847 C31.1484,0.3887 31.3794,0.1557 31.6744,0.0547 C31.9684,-0.0463 32.2934,-0.0043 32.5534,0.1687 L41.5534,6.1687 C41.8424,6.3607 42.0104,6.6887 41.9984,7.0357 C41.9864,7.3817 41.7954,7.6967 41.4944,7.8687 C39.2904,9.1287 39.0304,11.5427 39.0014,11.9697 C41.4714,33.7227 39.0144,51.9557 38.9894,52.1377 C38.9804,52.1987 38.9674,52.2587 38.9474,52.3167 L37.9474,55.3167 C37.8114,55.7257 37.4294,56.0007 36.9984,56.0007 L36.9984,56.0007 Z"/><path d="M46.5997,56.0007 L40.5997,56.0007 C40.1237,56.0007 39.7137,55.6657 39.6197,55.1997 C39.6097,55.1507 38.6147,50.2777 37.6097,48.3487 C37.3547,47.8587 37.5447,47.2547 38.0347,47.0007 C38.5257,46.7437 39.1287,46.9357 39.3837,47.4247 C40.2597,49.1057 41.0657,52.4597 41.4077,54.0007 L45.6827,54.0007 C47.2597,34.7187 42.9277,9.8427 40.7847,7.9777 C40.3117,7.8747 39.9717,7.4407 39.9997,6.9417 C40.0327,6.3907 40.4957,5.9607 41.0577,6.0027 C41.5197,6.0297 41.9467,6.2677 42.3267,6.7087 C45.7207,10.6567 49.1967,37.7717 47.5957,55.0927 C47.5477,55.6067 47.1167,56.0007 46.5997,56.0007"/><path d="M7.3976,56.0007 L1.3976,56.0007 C0.8806,56.0007 0.4496,55.6067 0.4016,55.0927 C-1.1994,37.7717 2.2766,10.6567 5.6706,6.7087 C6.0506,6.2677 6.4776,6.0297 6.9396,6.0027 C7.5026,5.9627 7.9646,6.3907 7.9976,6.9417 C8.0256,7.4407 7.6856,7.8747 7.2126,7.9777 C5.0696,9.8427 0.7376,34.7187 2.3146,54.0007 L6.5896,54.0007 C6.9316,52.4597 7.7376,49.1057 8.6136,47.4247 C8.8686,46.9357 9.4726,46.7437 9.9626,47.0007 C10.4526,47.2547 10.6426,47.8587 10.3876,48.3487 C9.3826,50.2777 8.3876,55.1507 8.3776,55.1997 C8.2836,55.6657 7.8736,56.0007 7.3976,56.0007"/><path d="M23.9987,4.0007 C20.4297,4.0007 17.1877,2.8507 15.4957,1.8647 C15.0187,1.5867 14.8567,0.9747 15.1347,0.4977 C15.4137,0.0207 16.0237,-0.1423 16.5017,0.1367 C17.6907,0.8287 20.6077,2.0007 23.9987,2.0007 C27.3887,2.0007 30.3057,0.8287 31.4957,0.1367 C31.9727,-0.1423 32.5847,0.0197 32.8627,0.4977 C33.1407,0.9747 32.9787,1.5867 32.5017,1.8647 C30.8087,2.8507 27.5657,4.0007 23.9987,4.0007"/><path d="M34.9987,60.0007 L12.9987,60.0007 C11.8957,60.0007 10.9987,59.1037 10.9987,58.0007 L10.9987,55.0007 C10.9987,54.4487 11.4467,54.0007 11.9987,54.0007 C12.5507,54.0007 12.9987,54.4487 12.9987,55.0007 L12.9987,58.0007 L34.9987,58.0007 L34.9987,55.0007 C34.9987,54.4487 35.4467,54.0007 35.9987,54.0007 C36.5507,54.0007 36.9987,54.4487 36.9987,55.0007 L36.9987,58.0007 C36.9987,59.1037 36.1017,60.0007 34.9987,60.0007"/><path d="M44.9987,60.0007 L41.9987,60.0007 C40.8957,60.0007 39.9987,59.1037 39.9987,58.0007 L39.9987,55.0007 C39.9987,54.4487 40.4467,54.0007 40.9987,54.0007 C41.5507,54.0007 41.9987,54.4487 41.9987,55.0007 L41.9987,58.0007 L44.9987,58.0007 L44.9987,55.0007 C44.9987,54.4487 45.4467,54.0007 45.9987,54.0007 C46.5507,54.0007 46.9987,54.4487 46.9987,55.0007 L46.9987,58.0007 C46.9987,59.1037 46.1017,60.0007 44.9987,60.0007"/><path d="M2.9987,56.0007 L2.9987,58.0007 L5.9997,58.0007 L5.9987,56.0007 L2.9987,56.0007 Z M5.9987,60.0007 L2.9987,60.0007 C1.8957,60.0007 0.9987,59.1037 0.9987,58.0007 L0.9987,55.0007 C0.9987,54.4487 1.4467,54.0007 1.9987,54.0007 L6.9987,54.0007 C7.5507,54.0007 7.9987,54.4487 7.9987,55.0007 L7.9987,58.0007 C7.9987,59.1037 7.1017,60.0007 5.9987,60.0007 L5.9987,60.0007 Z"/></g></g></g><text x="0" y="75" fill="#000000" font-size="5px" font-weight="bold" font-family="'Helvetica Neue', Helvetica, Arial-Unicode, Arial, Sans-serif">Created by Ben Davis</text><text x="0" y="80" fill="#000000" font-size="5px" font-weight="bold" font-family="'Helvetica Neue', Helvetica, Arial-Unicode, Arial, Sans-serif">from the Noun Project</text></svg>