<svg xmlns="http://www.w3.org/2000/svg" xmlns:xlink="http://www.w3.org/1999/xlink" viewBox="0 0 60 40" version="1.1" x="0px" y="0px"><title>59 -Underwear- (Outline)</title><desc>Created with Sketch.</desc><g stroke="none" stroke-width="1" fill="none" fill-rule="evenodd"><g transform="translate(-1080.000000, -962.000000)" fill="#000000"><g transform="translate(1081.000000, 963.000000)"><path d="M9,3.9997 C9,4.5517 8.552,4.9997 8,4.9997 C7.448,4.9997 7,4.5517 7,3.9997 C7,3.4477 7.448,2.9997 8,2.9997 C8.552,2.9997 9,3.4477 9,3.9997"/><path d="M15,3.9997 C15,4.5517 14.552,4.9997 14,4.9997 C13.448,4.9997 13,4.5517 13,3.9997 C13,3.4477 13.448,2.9997 14,2.9997 C14.552,2.9997 15,3.4477 15,3.9997"/><path d="M21,3.9997 C21,4.5517 20.552,4.9997 20,4.9997 C19.448,4.9997 19,4.5517 19,3.9997 C19,3.4477 19.448,2.9997 20,2.9997 C20.552,2.9997 21,3.4477 21,3.9997"/><path d="M27,3.9997 C27,4.5517 26.552,4.9997 26,4.9997 C25.448,4.9997 25,4.5517 25,3.9997 C25,3.4477 25.448,2.9997 26,2.9997 C26.552,2.9997 27,3.4477 27,3.9997"/><path d="M33,3.9997 C33,4.5517 32.552,4.9997 32,4.9997 C31.448,4.9997 31,4.5517 31,3.9997 C31,3.4477 31.448,2.9997 32,2.9997 C32.552,2.9997 33,3.4477 33,3.9997"/><path d="M39,3.9997 C39,4.5517 38.552,4.9997 38,4.9997 C37.448,4.9997 37,4.5517 37,3.9997 C37,3.4477 37.448,2.9997 38,2.9997 C38.552,2.9997 39,3.4477 39,3.9997"/><path d="M45,3.9997 C45,4.5517 44.552,4.9997 44,4.9997 C43.448,4.9997 43,4.5517 43,3.9997 C43,3.4477 43.448,2.9997 44,2.9997 C44.552,2.9997 45,3.4477 45,3.9997"/><path d="M51,3.9997 C51,4.5517 50.552,4.9997 50,4.9997 C49.448,4.9997 49,4.5517 49,3.9997 C49,3.4477 49.448,2.9997 50,2.9997 C50.552,2.9997 51,3.4477 51,3.9997"/><path d="M1,6.9997 L1,1.9997 C1,1.44698475 1.44728475,0.9997 2,0.9997 L56,0.9997 C56.5527153,0.9997 57,1.44698475 57,1.9997 L57,6.9997 L1,6.9997 Z M58,8.9997 C58.5522847,8.9997 59,8.55198475 59,7.9997 L59,1.9997 C59,0.34241525 57.6572847,-1.0003 56,-1.0003 L2,-1.0003 C0.34271525,-1.0003 -1,0.34241525 -1,1.9997 L-1,7.9997 C-1,8.55198475 -0.55228475,8.9997 0,8.9997 L58,8.9997 Z"/><path d="M2,26.9997 C1.44728475,26.9997 1,26.5524153 1,25.9997 L1,8.9997 L17.8950124,8.9997 L16.0950124,26.9997 L2,26.9997 Z M17,28.9997 C17.5137514,28.9997 17.943917,28.6104055 17.9950372,28.0992037 L19.9950372,8.09920372 C20.0539058,7.5105179 19.5916219,6.9997 19,6.9997 L0,6.9997 C-0.55228475,6.9997 -1,7.44741525 -1,7.9997 L-1,25.9997 C-1,27.6569847 0.34271525,28.9997 2,28.9997 L17,28.9997 Z"/><path d="M40.1049876,8.9997 L57,8.9997 L57,25.9997 C57,26.5524153 56.5527153,26.9997 56,26.9997 L41.9049876,26.9997 L40.1049876,8.9997 Z M56,28.9997 C57.6572847,28.9997 59,27.6569847 59,25.9997 L59,7.9997 C59,7.44741525 58.5522847,6.9997 58,6.9997 L39,6.9997 C38.4083781,6.9997 37.9460942,7.5105179 38.0049628,8.09920372 L40.0049628,28.0992037 C40.056083,28.6104055 40.4862486,28.9997 41,28.9997 L56,28.9997 Z"/><path d="M36,26.9997 C35.8261767,26.9997 35.6553554,27.0450091 35.5043827,27.131159 L34.9663827,27.438159 C31.2692937,29.550781 26.7307063,29.550781 23.0341389,27.4384569 L22.4956173,27.131159 C22.3446446,27.0450091 22.1738233,26.9997 22,26.9997 L18.1049876,26.9997 L19.9049876,8.9997 L38.0950124,8.9997 L39.8950124,26.9997 L36,26.9997 Z M22.0423827,29.175241 C26.3532937,31.638619 31.6467063,31.638619 35.9581389,29.1749431 L36.2652428,28.9997 L41,28.9997 C41.5916219,28.9997 42.0539058,28.4888821 41.9950372,27.9001963 L39.9950372,7.90019628 C39.943917,7.38899448 39.5137514,6.9997 39,6.9997 L19,6.9997 C18.4862486,6.9997 18.056083,7.38899448 18.0049628,7.90019628 L16.0049628,27.9001963 C15.9460942,28.4888821 16.4083781,28.9997 17,28.9997 L21.7347571,28.9997 L22.0423827,29.175241 Z"/><path d="M41,28.9997 C41.5916219,28.9997 42.0539058,28.4888821 41.9950372,27.9001963 L41.0950372,18.9001963 C41.043917,18.3889945 40.6137514,17.9997 40.1,17.9997 C36.7307153,17.9997 34,20.7304153 34,24.0997 L34,28.5327 C34,29.2840252 34.7975547,29.7670036 35.4633576,29.4188714 C35.4958854,29.4018634 35.5315032,29.3848736 35.602827,29.3521216 C35.7761644,29.2725762 35.8539746,29.2346652 35.9593841,29.1742304 L36.2652411,28.9997 L41,28.9997 Z M36,26.9997 L36,24.0997 C36,22.1424704 37.3707548,20.505978 39.2048101,20.097677 L39.8950124,26.9997 L36,26.9997 Z"/><path d="M-0.707106781,19.7068068 L8.29289322,28.7068068 C8.68341751,29.0973311 9.31658249,29.0973311 9.70710678,28.7068068 C10.0976311,28.3162825 10.0976311,27.6831175 9.70710678,27.2925932 L0.707106781,18.2925932 C0.316582489,17.9020689 -0.316582489,17.9020689 -0.707106781,18.2925932 C-1.09763107,18.6831175 -1.09763107,19.3162825 -0.707106781,19.7068068 Z"/><path d="M-0.707106781,13.7068068 L14.2928932,28.7068068 C14.6834175,29.0973311 15.3165825,29.0973311 15.7071068,28.7068068 C16.0976311,28.3162825 16.0976311,27.6831175 15.7071068,27.2925932 L0.707106781,12.2925932 C0.316582489,11.9020689 -0.316582489,11.9020689 -0.707106781,12.2925932 C-1.09763107,12.6831175 -1.09763107,13.3162825 -0.707106781,13.7068068 Z"/></g></g></g><text x="0" y="47" fill="#000000" font-size="5px" font-weight="bold" font-family="'Helvetica Neue', Helvetica, Arial-Unicode, Arial, Sans-serif">Created by Ben Davis</text><text x="0" y="52" fill="#000000" font-size="5px" font-weight="bold" font-family="'Helvetica Neue', Helvetica, Arial-Unicode, Arial, Sans-serif">from the Noun Project</text></svg>