<svg xmlns="http://www.w3.org/2000/svg" xmlns:xlink="http://www.w3.org/1999/xlink" version="1.1" x="0px" y="0px" viewBox="0 0 50.66 75" enable-background="new 0 0 50.66 60" xml:space="preserve"><g><path fill="#000000" d="M33.33,38.26V7c0-3.86-3.14-7-7-7s-7,3.14-7,7v31.26c-3.54,2.55-5.42,6.77-4.92,11.15   c0.63,5.48,5.07,9.9,10.55,10.51c0.46,0.05,0.92,0.08,1.37,0.08c3.21,0,6.22-1.25,8.49-3.51c2.27-2.27,3.51-5.28,3.51-8.49   C38.33,44.12,36.47,40.52,33.33,38.26z M33.4,55.07c-2.16,2.16-5.15,3.21-8.22,2.86c-4.57-0.51-8.26-4.19-8.79-8.75   c-0.44-3.81,1.28-7.47,4.48-9.56l0.45-0.3V38h1c0.55,0,1-0.45,1-1s-0.45-1-1-1h-1v-3h1c0.55,0,1-0.45,1-1s-0.45-1-1-1h-1v-3h1   c0.55,0,1-0.45,1-1s-0.45-1-1-1h-1v-3h1c0.55,0,1-0.45,1-1s-0.45-1-1-1h-1v-3h1c0.55,0,1-0.45,1-1s-0.45-1-1-1h-1v-3h1   c0.55,0,1-0.45,1-1s-0.45-1-1-1h-1V8h1c0.55,0,1-0.45,1-1s-0.45-1-1-1h-0.9c0.46-2.28,2.48-4,4.9-4c2.76,0,5,2.24,5,5v1h-1   c-0.55,0-1,0.45-1,1s0.45,1,1,1h1v3h-1c-0.55,0-1,0.45-1,1s0.45,1,1,1h1v3h-1c-0.55,0-1,0.45-1,1s0.45,1,1,1h1v3h-1   c-0.55,0-1,0.45-1,1s0.45,1,1,1h1v3h-1c-0.55,0-1,0.45-1,1s0.45,1,1,1h1v3h-1c-0.55,0-1,0.45-1,1s0.45,1,1,1h1v4.33l0.45,0.3   c2.85,1.86,4.55,4.99,4.55,8.38C36.33,50.67,35.29,53.18,33.4,55.07z"/><path fill="#000000" d="M27.33,43.1V37c0-0.55-0.45-1-1-1s-1,0.45-1,1v6.1c-2.28,0.46-4,2.48-4,4.9c0,2.76,2.24,5,5,5s5-2.24,5-5   C31.33,45.58,29.61,43.56,27.33,43.1z"/><path fill="#000000" d="M50.16,13.63L47.33,12l2.83-1.63c0.48-0.28,0.64-0.89,0.37-1.37c-0.28-0.48-0.89-0.64-1.37-0.37l-2.83,1.63   V7c0-0.55-0.45-1-1-1s-1,0.45-1,1v3.27L41.5,8.63C41.02,8.36,40.41,8.52,40.13,9c-0.28,0.48-0.11,1.09,0.37,1.37L43.33,12   l-2.83,1.63c-0.48,0.28-0.64,0.89-0.37,1.37c0.19,0.32,0.52,0.5,0.87,0.5c0.17,0,0.34-0.04,0.5-0.13l2.83-1.63V17   c0,0.55,0.45,1,1,1s1-0.45,1-1v-3.27l2.83,1.63c0.16,0.09,0.33,0.13,0.5,0.13c0.35,0,0.68-0.18,0.87-0.5   C50.8,14.52,50.64,13.91,50.16,13.63z"/><path fill="#000000" d="M10.53,36c-0.28-0.48-0.89-0.64-1.37-0.37l-2.83,1.63V34c0-0.55-0.45-1-1-1s-1,0.45-1,1v3.27L1.5,35.63   C1.02,35.36,0.41,35.52,0.13,36c-0.28,0.48-0.11,1.09,0.37,1.37L3.33,39L0.5,40.63C0.02,40.91-0.14,41.52,0.13,42   c0.19,0.32,0.52,0.5,0.87,0.5c0.17,0,0.34-0.04,0.5-0.13l2.83-1.63V44c0,0.55,0.45,1,1,1s1-0.45,1-1v-3.27l2.83,1.63   c0.16,0.09,0.33,0.13,0.5,0.13c0.35,0,0.68-0.18,0.87-0.5c0.28-0.48,0.11-1.09-0.37-1.37L7.33,39l2.83-1.63   C10.64,37.09,10.8,36.48,10.53,36z"/></g><text x="0" y="75" fill="#000000" font-size="5px" font-weight="bold" font-family="'Helvetica Neue', Helvetica, Arial-Unicode, Arial, Sans-serif">Created by Ben Davis</text><text x="0" y="80" fill="#000000" font-size="5px" font-weight="bold" font-family="'Helvetica Neue', Helvetica, Arial-Unicode, Arial, Sans-serif">from the Noun Project</text></svg>