<svg xmlns="http://www.w3.org/2000/svg" xmlns:xlink="http://www.w3.org/1999/xlink" viewBox="0 0 54 75" version="1.1" x="0px" y="0px"><title>53 -Scarf- (Outline)</title><desc>Created with Sketch.</desc><g stroke="none" stroke-width="1" fill="none" fill-rule="evenodd"><g transform="translate(-362.000000, -951.000000)" fill="#000000"><g transform="translate(362.000000, 951.000000)"><path d="M2,52 L20,52 L20,2 L2,2 L2,52 Z M21,54 L1,54 C0.448,54 0,53.553 0,53 L0,1 C0,0.447 0.448,0 1,0 L21,0 C21.552,0 22,0.447 22,1 L22,53 C22,53.553 21.552,54 21,54 L21,54 Z"/><path d="M21.0001,60 C20.4481,60 20.0001,59.553 20.0001,59 L20.0001,53 C20.0001,52.447 20.4481,52 21.0001,52 C21.5521,52 22.0001,52.447 22.0001,53 L22.0001,59 C22.0001,59.553 21.5521,60 21.0001,60"/><path d="M17.0001,60 C16.4481,60 16.0001,59.553 16.0001,59 L16.0001,53 C16.0001,52.447 16.4481,52 17.0001,52 C17.5521,52 18.0001,52.447 18.0001,53 L18.0001,59 C18.0001,59.553 17.5521,60 17.0001,60"/><path d="M13.0001,60 C12.4481,60 12.0001,59.553 12.0001,59 L12.0001,53 C12.0001,52.447 12.4481,52 13.0001,52 C13.5521,52 14.0001,52.447 14.0001,53 L14.0001,59 C14.0001,59.553 13.5521,60 13.0001,60"/><path d="M9.0001,60 C8.4481,60 8.0001,59.553 8.0001,59 L8.0001,53 C8.0001,52.447 8.4481,52 9.0001,52 C9.5521,52 10.0001,52.447 10.0001,53 L10.0001,59 C10.0001,59.553 9.5521,60 9.0001,60"/><path d="M5.0001,60 C4.4481,60 4.0001,59.553 4.0001,59 L4.0001,53 C4.0001,52.447 4.4481,52 5.0001,52 C5.5521,52 6.0001,52.447 6.0001,53 L6.0001,59 C6.0001,59.553 5.5521,60 5.0001,60"/><path d="M1.0001,60 C0.4481,60 0.0001,59.553 0.0001,59 L0.0001,53 C0.0001,52.447 0.4481,52 1.0001,52 C1.5521,52 2.0001,52.447 2.0001,53 L2.0001,59 C2.0001,59.553 1.5521,60 1.0001,60"/><path d="M52.1143,33.1152 C51.8583,33.1152 51.6023,33.0172 51.4073,32.8222 L47.1643,28.5792 C46.7743,28.1882 46.7743,27.5552 47.1643,27.1652 C47.5553,26.7742 48.1883,26.7742 48.5783,27.1652 L52.8213,31.4082 C53.2123,31.7992 53.2123,32.4312 52.8213,32.8222 C52.6263,33.0172 52.3703,33.1152 52.1143,33.1152"/><path d="M49.2857,35.9434 C49.0297,35.9434 48.7737,35.8454 48.5787,35.6504 L44.3357,31.4084 C43.9457,31.0174 43.9457,30.3844 44.3357,29.9944 C44.7267,29.6034 45.3597,29.6034 45.7497,29.9944 L49.9927,34.2364 C50.3837,34.6274 50.3837,35.2594 49.9927,35.6504 C49.7977,35.8454 49.5417,35.9434 49.2857,35.9434"/><path d="M46.4576,38.7725 C46.2016,38.7725 45.9456,38.6745 45.7506,38.4795 L41.5076,34.2365 C41.1176,33.8455 41.1176,33.2125 41.5076,32.8225 C41.8986,32.4315 42.5316,32.4315 42.9216,32.8225 L47.1646,37.0655 C47.5556,37.4565 47.5556,38.0885 47.1646,38.4795 C46.9696,38.6745 46.7136,38.7725 46.4576,38.7725"/><path d="M43.629,41.6006 C43.373,41.6006 43.117,41.5026 42.922,41.3076 L38.679,37.0646 C38.289,36.6736 38.289,36.0406 38.679,35.6506 C39.07,35.2596 39.703,35.2596 40.093,35.6506 L44.336,39.8936 C44.727,40.2846 44.727,40.9166 44.336,41.3076 C44.141,41.5026 43.885,41.6006 43.629,41.6006"/><path d="M40.8004,44.4287 C40.5444,44.4287 40.2884,44.3307 40.0934,44.1357 L35.8504,39.8937 C35.4604,39.5027 35.4604,38.8697 35.8504,38.4797 C36.2414,38.0887 36.8744,38.0887 37.2644,38.4797 L41.5074,42.7217 C41.8984,43.1127 41.8984,43.7447 41.5074,44.1357 C41.3124,44.3307 41.0564,44.4287 40.8004,44.4287"/><path d="M37.9723,47.2568 C37.7163,47.2568 37.4603,47.1588 37.2653,46.9638 L33.0223,42.7218 C32.6323,42.3308 32.6323,41.6978 33.0223,41.3078 C33.4133,40.9168 34.0463,40.9168 34.4363,41.3078 L38.6793,45.5498 C39.0703,45.9408 39.0703,46.5728 38.6793,46.9638 C38.4843,47.1588 38.2283,47.2568 37.9723,47.2568"/><path d="M22.0001,28.8711 L33.7291,40.6001 L46.4581,27.8731 L22.0001,3.4151 L22.0001,28.8711 Z M33.7291,43.0151 C33.4741,43.0151 33.2181,42.9171 33.0221,42.7221 L20.2931,29.9921 C20.1051,29.8051 20.0001,29.5511 20.0001,29.2851 L20.0001,1.0041 C20.0001,0.7871 20.0701,0.5771 20.2001,0.4041 C20.3741,0.1721 20.6411,0.0261 20.9301,0.0061 C21.2191,-0.0179 21.5031,0.0901 21.7081,0.2951 L48.5791,27.1661 C48.9691,27.5571 48.9691,28.1891 48.5791,28.5801 L34.4371,42.7221 C34.2411,42.9171 33.9851,43.0151 33.7291,43.0151 L33.7291,43.0151 Z"/><path d="M7.2291,18 L11.0001,23.279 L14.7711,18 L11.0001,12.721 L7.2291,18 Z M11.0001,26 C10.6771,26 10.3741,25.844 10.1861,25.581 L5.1861,18.581 C4.9381,18.233 4.9381,17.767 5.1861,17.419 L10.1861,10.419 C10.5621,9.894 11.4381,9.894 11.8141,10.419 L16.8141,17.419 C17.0621,17.767 17.0621,18.233 16.8141,18.581 L11.8141,25.581 C11.6261,25.844 11.3231,26 11.0001,26 L11.0001,26 Z"/><path d="M7.2291,32 L11.0001,37.279 L14.7711,32 L11.0001,26.721 L7.2291,32 Z M11.0001,40 C10.6771,40 10.3741,39.844 10.1861,39.581 L5.1861,32.581 C4.9381,32.233 4.9381,31.767 5.1861,31.419 L10.1861,24.419 C10.5621,23.894 11.4381,23.894 11.8141,24.419 L16.8141,31.419 C17.0621,31.767 17.0621,32.233 16.8141,32.581 L11.8141,39.581 C11.6261,39.844 11.3231,40 11.0001,40 L11.0001,40 Z"/><path d="M7.2291,46 L11.0001,51.279 L14.7711,46 L11.0001,40.721 L7.2291,46 Z M11.0001,54 C10.6771,54 10.3741,53.844 10.1861,53.581 L5.1861,46.581 C4.9381,46.233 4.9381,45.767 5.1861,45.419 L10.1861,38.419 C10.5621,37.894 11.4381,37.894 11.8141,38.419 L16.8141,45.419 C17.0621,45.767 17.0621,46.233 16.8141,46.581 L11.8141,53.581 C11.6261,53.844 11.3231,54 11.0001,54 L11.0001,54 Z"/><path d="M23.3424,22.6992 L29.7424,23.7652 L28.6754,17.3662 L22.2754,16.3002 L23.3424,22.6992 Z M30.9584,25.9822 C30.9044,25.9822 30.8494,25.9772 30.7944,25.9692 L22.3084,24.5542 C21.8874,24.4842 21.5574,24.1542 21.4874,23.7322 L20.0724,15.2472 C20.0194,14.9282 20.1234,14.6042 20.3524,14.3762 C20.5804,14.1472 20.9034,14.0472 21.2234,14.0962 L29.7094,15.5112 C30.1304,15.5812 30.4604,15.9112 30.5304,16.3332 L31.9454,24.8182 C31.9984,25.1372 31.8944,25.4612 31.6654,25.6892 C31.4764,25.8792 31.2214,25.9822 30.9584,25.9822 L30.9584,25.9822 Z"/><path d="M33.2423,32.5986 L39.6413,33.6646 L38.5753,27.2656 L32.1753,26.1996 L33.2423,32.5986 Z M40.8583,35.8816 C40.8033,35.8816 40.7483,35.8766 40.6933,35.8686 L32.2083,34.4536 C31.7873,34.3836 31.4573,34.0536 31.3873,33.6316 L29.9723,25.1466 C29.9193,24.8276 30.0233,24.5036 30.2513,24.2756 C30.4803,24.0466 30.8023,23.9466 31.1233,23.9956 L39.6083,25.4106 C40.0303,25.4806 40.3603,25.8106 40.4303,26.2326 L41.8443,34.7176 C41.8973,35.0366 41.7933,35.3606 41.5653,35.5886 C41.3763,35.7786 41.1213,35.8816 40.8583,35.8816 L40.8583,35.8816 Z"/><path d="M7.2291,4 L11.0001,9.279 L14.7711,4 L13.3421,2 L8.6581,2 L7.2291,4 Z M11.0001,12 C10.6771,12 10.3741,11.844 10.1861,11.581 L5.1861,4.581 C4.9381,4.233 4.9381,3.767 5.1871,3.419 L7.3301,0.419 C7.5171,0.156 7.8201,0 8.1431,0 L13.8571,0 C14.1801,0 14.4831,0.156 14.6701,0.419 L16.8131,3.419 C17.0621,3.767 17.0621,4.233 16.8141,4.581 L11.8141,11.581 C11.6261,11.844 11.3231,12 11.0001,12 L11.0001,12 Z"/></g></g></g><text x="0" y="75" fill="#000000" font-size="5px" font-weight="bold" font-family="'Helvetica Neue', Helvetica, Arial-Unicode, Arial, Sans-serif">Created by Ben Davis</text><text x="0" y="80" fill="#000000" font-size="5px" font-weight="bold" font-family="'Helvetica Neue', Helvetica, Arial-Unicode, Arial, Sans-serif">from the Noun Project</text></svg>