<svg xmlns="http://www.w3.org/2000/svg" data-name="Layer 1" viewBox="0 0 60 75" x="0px" y="0px"><title>Mens Clothing - 08-V Neck T-shirt</title><path d="M59.95313,27.69678l-7-22-.012.00378c-.00824-.02606-.00494-.054-.01538-.07947a1.00288,1.00288,0,0,0-.541-.54395l-12-5A1.00239,1.00239,0,0,0,40,0H20a1.00239,1.00239,0,0,0-.38477.07715l-12,5a1.00288,1.00288,0,0,0-.541.54395c-.01044.02545-.00714.05341-.01538.07947l-.012-.00378-7,22a1.00024,1.00024,0,0,0,.63672,1.252l9,3a.99809.99809,0,0,0,1.26465-.63232l1.72156-5.16461c1.51825,10.24274,1.00024,20.14331.39856,31.522L13.001,58.94727A1.00014,1.00014,0,0,0,14,60H46a1.00014,1.00014,0,0,0,.999-1.05273l-.06738-1.27344c-.60168-11.37872-1.11969-21.2793.39856-31.522l1.72156,5.16461a.99809.99809,0,0,0,1.26465.63232l9-3A1.00024,1.00024,0,0,0,59.95313,27.69678ZM37.96875,2,30,12.35986,22.03125,2ZM9.36719,29.73486,2.252,27.36328,8.10474,8.96954A80.49686,80.49686,0,0,1,11.94,22.0188ZM44.93457,57.7793,44.94629,58H15.05371l.01172-.2207c.9707-18.34326,1.74023-32.894-5.75879-51.24023L19.67535,2.21869,29.207,14.60986a1.00094,1.00094,0,0,0,1.58594,0L40.32465,2.21869,50.69336,6.53906C43.19434,24.88525,43.96387,39.436,44.93457,57.7793Zm5.69824-28.04443L48.06,22.0188A80.49686,80.49686,0,0,1,51.89526,8.96954L57.748,27.36328Z"/><text x="0" y="75" fill="#000000" font-size="5px" font-weight="bold" font-family="'Helvetica Neue', Helvetica, Arial-Unicode, Arial, Sans-serif">Created by Locad</text><text x="0" y="80" fill="#000000" font-size="5px" font-weight="bold" font-family="'Helvetica Neue', Helvetica, Arial-Unicode, Arial, Sans-serif">from the Noun Project</text></svg>