<svg xmlns="http://www.w3.org/2000/svg" xmlns:xlink="http://www.w3.org/1999/xlink" viewBox="0 0 44 75" version="1.1" x="0px" y="0px"><title>15 -Vest- (Outline)</title><desc>Created with Sketch.</desc><g stroke="none" stroke-width="1" fill="none" fill-rule="evenodd"><g transform="translate(-608.000000, -467.000000)" fill="#000000"><g transform="translate(609.000000, 468.000000)"><path d="M26,31.9997 C26,32.5517 25.552,32.9997 25,32.9997 C24.448,32.9997 24,32.5517 24,31.9997 C24,31.4477 24.448,30.9997 25,30.9997 C25.552,30.9997 26,31.4477 26,31.9997"/><path d="M26,38.9997 C26,39.5517 25.552,39.9997 25,39.9997 C24.448,39.9997 24,39.5517 24,38.9997 C24,38.4477 24.448,37.9997 25,37.9997 C25.552,37.9997 26,38.4477 26,38.9997"/><path d="M26,45.9997 C26,46.5517 25.552,46.9997 25,46.9997 C24.448,46.9997 24,46.5517 24,45.9997 C24,45.4477 24.448,44.9997 25,44.9997 C25.552,44.9997 26,45.4477 26,45.9997"/><path d="M29,47 L37,47 C37.5522847,47 38,46.5522847 38,46 L38,42 C38,41.4477153 37.5522847,41 37,41 L29,41 C28.4477153,41 28,41.4477153 28,42 L28,46 C28,46.5522847 28.4477153,47 29,47 Z M30,43 L36,43 L36,45 L30,45 L30,43 Z"/><path d="M5,47 L13,47 C13.5522847,47 14,46.5522847 14,46 L14,42 C14,41.4477153 13.5522847,41 13,41 L5,41 C4.44771525,41 4,41.4477153 4,42 L4,46 C4,46.5522847 4.44771525,47 5,47 Z M6,43 L12,43 L12,45 L6,45 L6,43 Z"/><path d="M14.2230613,1.26826489 C14.3539965,2.12034385 14.5038888,3.06747941 14.6705672,4.08624193 C15.1539038,7.04046562 15.6790477,9.99504706 16.2281099,12.7550668 C17.0496404,16.8847274 17.8513615,20.2089013 18.6146575,22.4576691 C19.0884089,23.8534012 19.5352387,24.8305352 20.043,25.4226985 L20.043,52.9997 C20.043,53.2649165 20.1483568,53.5192704 20.3358932,53.7068068 L21.4559916,54.8269052 L18.1899257,56.9134039 L2.05091411,52.2500279 C2.05344814,51.9777861 2.05594646,51.6792578 2.05832439,51.3563666 C2.08930007,47.1502936 2.0789207,42.5440764 1.99766021,38.2053067 C1.86906957,31.3394222 1.58661952,26.4675218 1.092846,24.3078205 C0.962119529,23.7352635 1.13298216,23.1785293 1.5419677,22.8278054 C4.9230565,19.9256625 6.65215226,13.889485 5.44635295,3.7299445 L14.2230613,1.26826489 Z M22.043,24.9997 C22.043,24.6767489 21.8870343,24.373678 21.6242382,24.1859665 C21.4043423,24.028898 20.9689753,23.1713568 20.5085326,21.8148338 C19.7801824,19.6690211 18.995413,16.4151336 18.1896723,12.364845 C17.6455691,9.62975278 17.1242541,6.69671428 16.644325,3.76331801 C16.476305,2.7363553 16.3254836,1.78283967 16.1941539,0.927358901 C16.1482235,0.62816823 16.108022,0.36268464 16.0738354,0.133979117 C16.0394378,-0.0972898292 16.0394378,-0.0972898292 16.0325171,-0.144716004 C15.9454091,-0.741566549 15.3537049,-1.12603568 14.7729427,-0.963144256 L4.07694271,2.03685574 C3.5979257,2.1712098 3.29052192,2.63726053 3.35558979,3.13048916 C4.68371936,13.1979996 3.13808746,18.8220612 0.239682618,21.3098946 C-0.745355933,22.1546101 -1.14954571,23.4716113 -0.856911613,24.7532923 C-0.406903899,26.7215678 -0.12751067,31.5407422 -0.00198911218,38.242758 C0.0788939639,42.5613759 0.0892370369,47.1514879 0.0583786278,51.341638 C0.0550275724,51.7966655 0.051437878,52.2029422 0.0478492914,52.5550072 C0.0456988735,52.7659779 0.0440249339,52.912182 0.0430795668,52.9870854 C0.037402362,53.4371011 0.333041933,53.8354667 0.765405689,53.9603984 L18.0694057,58.9603984 C18.3457024,59.0402345 18.6429965,58.9972469 18.885361,58.8424144 L23.581361,55.8424144 C24.119877,55.4983879 24.2019662,54.7444526 23.7501068,54.2925932 L22.043,52.5854864 L22.043,24.9997 Z"/><path d="M37.9884497,2.03699399 L27.3134497,-0.96300601 C26.7325731,-1.12625 26.1405205,-0.741769779 26.0533829,-0.144716004 C26.0464622,-0.0972898292 26.0464622,-0.0972898292 26.0120646,0.133979117 C25.977878,0.36268464 25.9376765,0.62816823 25.8917461,0.927358901 C25.7604164,1.78283967 25.609595,2.7363553 25.441575,3.76331801 C24.9616459,6.69671428 24.4403309,9.62975278 23.8962277,12.364845 C23.090487,16.4151336 22.3057176,19.6690211 21.5773674,21.8148338 C21.1169247,23.1713568 20.6815577,24.028898 20.4616618,24.1859665 C20.1988657,24.373678 20.0429,24.6767489 20.0429,24.9997 L20.0429,52.9997 C20.0429,53.2649165 20.1482568,53.5192704 20.3357932,53.7068068 L25.3357932,58.7068068 C25.6037326,58.9747462 26.0000987,59.0682275 26.3595267,58.9482502 L41.3385267,53.9482502 C41.7476143,53.8116965 42.0230691,53.4282557 42.0218963,52.9969806 C42.0217971,52.9605558 42.0217971,52.9605558 42.021496,52.7834094 C42.0195782,51.4435717 42.0232331,49.6368114 42.0370215,47.5314284 C42.0578958,44.3440889 42.0980162,41.1943677 42.1619202,38.2509457 C42.3079864,31.5231235 42.5608581,26.6947315 42.9299773,24.7138913 C43.1712952,23.4169838 42.792084,22.1390269 41.8248677,21.3095946 C38.9268125,18.8220612 37.3811806,13.1979996 38.7093102,3.13048916 C38.7743527,2.63745307 38.467211,2.17154048 37.9884497,2.03699399 Z M40.5225826,22.8275054 C40.9167842,23.1655515 41.0808629,23.7185031 40.9637744,24.347768 C40.5662532,26.4810243 40.3112862,31.3494254 40.1623913,38.2075344 C40.0982448,41.1621306 40.0580002,44.3216045 40.0370644,47.5183305 C40.0249062,49.3747989 40.0206051,50.9999535 40.0210535,52.2795428 L26.3127853,56.8553717 L22.0429,52.5854864 L22.0429,25.4226985 C22.5506613,24.8305352 22.9974911,23.8534012 23.4712425,22.4576691 C24.2345385,20.2089013 25.0362596,16.8847274 25.8577901,12.7550668 C26.4068523,9.99504706 26.9319962,7.04046562 27.4153328,4.08624193 C27.5819736,3.06770922 27.7318358,2.12077116 27.8627501,1.26884154 L36.6185996,3.72950183 C35.4126973,13.8893095 37.1417849,19.9256122 40.5225826,22.8275054 Z"/><path d="M21.6245382,25.8134335 C22.9971703,24.8329819 24.2172932,20.7653303 25.6401156,13.8355751 C26.5260772,9.52056214 27.3210607,4.84534093 27.9300085,0.827551539 C28.0790695,-0.155940668 26.8568795,-0.730259253 26.1948967,0.0122061474 C25.1150932,1.22329006 23.1878006,1.9997 21.0433,1.9997 C18.899579,1.9997 16.9715739,1.2268256 15.8912186,0.020544661 C15.2282685,-0.719678564 14.0084785,-0.144643391 14.1576286,0.837796181 C14.7716424,4.8822554 15.5638022,9.53824188 16.4492515,13.848908 C17.8712399,20.7716283 19.0903106,24.8339438 20.4621925,25.8135268 C20.8098818,26.061792 21.2768887,26.0617545 21.6245382,25.8134335 Z M18.4083485,13.446492 C17.7025779,10.0105619 17.0551786,6.3445794 16.5117637,2.95266599 C17.8211604,3.62504215 19.3922377,3.9997 21.0433,3.9997 C22.6950072,3.9997 24.2660738,3.62353821 25.5752425,2.9489115 C25.0342907,6.32718455 24.3859889,9.99965097 23.6809844,13.4333249 C22.7257223,18.085861 21.7646234,21.6304867 21.0432887,23.2581026 C20.3227513,21.6321352 19.3627125,18.092658 18.4083485,13.446492 Z"/></g></g></g><text x="0" y="75" fill="#000000" font-size="5px" font-weight="bold" font-family="'Helvetica Neue', Helvetica, Arial-Unicode, Arial, Sans-serif">Created by Ben Davis</text><text x="0" y="80" fill="#000000" font-size="5px" font-weight="bold" font-family="'Helvetica Neue', Helvetica, Arial-Unicode, Arial, Sans-serif">from the Noun Project</text></svg>