<svg xmlns="http://www.w3.org/2000/svg" xmlns:xlink="http://www.w3.org/1999/xlink" viewBox="0 0 60 75" version="1.1" x="0px" y="0px"><title>34 -T-Shirt- (Outline)</title><desc>Created with Sketch.</desc><g stroke="none" stroke-width="1" fill="none" fill-rule="evenodd"><g transform="translate(-480.000000, -707.000000)" fill="#000000"><g transform="translate(480.000000, 707.000000)"><path d="M16.0029,58 L43.9999,58 L43.9999,19 C44.0409,17.816 44.3549,12.538 46.6919,10.609 C46.0519,9.951 44.1639,8.598 38.7119,6.958 C38.5539,6.91 38.4099,6.824 38.2929,6.707 L36.3089,4.723 L30.9109,16.419 C30.7479,16.773 30.3929,17 30.0029,17 C29.6129,17 29.2579,16.773 29.0949,16.419 L23.6959,4.721 L21.7099,6.707 C21.5929,6.824 21.4489,6.91 21.2909,6.958 C15.8389,8.598 13.9509,9.951 13.3109,10.609 C15.6479,12.538 15.9609,17.812 16.0029,18.965 L16.0029,58 Z M44.9999,60 L15.0029,60 C14.4509,60 14.0029,59.552 14.0029,59 L14.0029,19 C13.9099,16.458 13.1089,12.423 11.6869,11.949 C11.3439,11.834 11.0889,11.544 11.0209,11.189 C10.8039,10.059 11.7519,7.776 20.4729,5.116 L23.2959,2.293 C23.5269,2.062 23.8579,1.958 24.1789,2.016 C24.5009,2.073 24.7739,2.284 24.9109,2.581 L30.0029,13.614 L35.0639,2.648 C35.0679,2.638 35.0719,2.627 35.0759,2.617 C35.3399,1.982 36.2829,1.826 36.7389,2.325 L39.5299,5.116 C48.2509,7.776 49.1989,10.059 48.9819,11.189 C48.9139,11.544 48.6589,11.834 48.3159,11.949 C46.8939,12.423 46.0929,16.458 45.9999,19.036 L45.9999,59 C45.9999,59.552 45.5519,60 44.9999,60 L44.9999,60 Z"/><path d="M8,31 C7.795,31 7.592,30.937 7.419,30.814 L0.419,25.814 C0.196,25.655 0.049,25.412 0.01,25.142 C-0.029,24.872 0.045,24.597 0.214,24.382 L11.214,10.382 C11.555,9.948 12.184,9.874 12.618,10.214 C13.052,10.555 13.127,11.184 12.786,11.618 L2.433,24.795 L8.081,28.829 L14.539,25.446 C15.029,25.189 15.633,25.379 15.889,25.868 C16.145,26.357 15.956,26.961 15.467,27.218 L8.464,30.886 C8.318,30.962 8.159,31 8,31"/><path d="M52,31 C51.841,31 51.682,30.962 51.536,30.886 L44.533,27.218 C44.044,26.961 43.855,26.357 44.111,25.868 C44.368,25.379 44.972,25.189 45.461,25.446 L51.919,28.829 L57.567,24.795 L47.214,11.618 C46.873,11.184 46.948,10.555 47.382,10.214 C47.816,9.873 48.445,9.947 48.786,10.382 L59.786,24.382 C59.955,24.597 60.029,24.872 59.99,25.142 C59.951,25.412 59.804,25.655 59.581,25.814 L52.581,30.814 C52.408,30.937 52.205,31 52,31"/><path d="M25.1118,3.0166 L30.0028,13.6136 L34.8908,3.0166 L34.7898,2.8156 C34.5388,2.3126 34.0328,1.9996 33.4698,1.9996 L26.5318,1.9996 C25.9688,1.9996 25.4628,2.3126 25.2118,2.8176 L25.1118,3.0166 Z M30.0028,16.9996 C29.6128,16.9996 29.2578,16.7736 29.0948,16.4186 L23.0948,3.4186 C22.9678,3.1436 22.9728,2.8256 23.1078,2.5536 L23.4218,1.9246 C24.0128,0.7376 25.2058,-0.0004 26.5318,-0.0004 L33.4698,-0.0004 C34.7948,-0.0004 35.9868,0.7366 36.5788,1.9216 L36.8948,2.5536 C37.0298,2.8246 37.0348,3.1426 36.9078,3.4186 L30.9108,16.4186 C30.7478,16.7726 30.3928,16.9996 30.0028,16.9996 L30.0028,16.9996 Z"/><path d="M24,15 C23.876,15 23.752,14.977 23.634,14.931 C23.371,14.827 23.163,14.616 23.063,14.351 L20.066,6.351 C19.873,5.833 20.135,5.257 20.652,5.063 C21.168,4.872 21.746,5.132 21.939,5.649 L24.547,12.609 L27.68,11.042 C28.176,10.794 28.775,10.995 29.022,11.489 C29.269,11.983 29.068,12.584 28.575,12.831 L24.447,14.895 C24.307,14.965 24.153,15 24,15"/><path d="M36.0029,15 C35.8489,15 35.6959,14.965 35.5559,14.895 L31.4279,12.831 C30.9349,12.584 30.7339,11.983 30.9809,11.489 C31.2279,10.997 31.8269,10.794 32.3229,11.042 L35.4559,12.609 L38.0639,5.649 C38.2569,5.132 38.8359,4.87 39.3509,5.063 C39.8679,5.257 40.1299,5.833 39.9369,6.351 L36.9399,14.351 C36.8399,14.616 36.6319,14.827 36.3689,14.931 C36.2509,14.977 36.1269,15 36.0029,15"/><path d="M37,26 C36.448,26 36,25.552 36,25 C36,23.346 34.654,22 33,22 C32.448,22 32,21.552 32,21 C32,20.448 32.448,20 33,20 C34.634,20 36.087,20.788 37,22.003 C37.913,20.788 39.366,20 41,20 C41.552,20 42,20.448 42,21 C42,21.552 41.552,22 41,22 C39.346,22 38,23.346 38,25 C38,25.552 37.552,26 37,26"/></g></g></g><text x="0" y="75" fill="#000000" font-size="5px" font-weight="bold" font-family="'Helvetica Neue', Helvetica, Arial-Unicode, Arial, Sans-serif">Created by Ben Davis</text><text x="0" y="80" fill="#000000" font-size="5px" font-weight="bold" font-family="'Helvetica Neue', Helvetica, Arial-Unicode, Arial, Sans-serif">from the Noun Project</text></svg>