<svg xmlns="http://www.w3.org/2000/svg" xmlns:xlink="http://www.w3.org/1999/xlink" version="1.1" x="0px" y="0px" viewBox="0 0 45 75" enable-background="new 0 0 45 60" xml:space="preserve"><g><path d="M30,38.26V7c0-3.86-3.14-7-7-7s-7,3.14-7,7v31.26c-3.54,2.55-5.42,6.77-4.92,11.15c0.63,5.48,5.07,9.9,10.55,10.51   C22.09,59.97,22.55,60,23,60c3.21,0,6.22-1.25,8.48-3.51C33.75,54.22,35,51.21,35,48C35,44.12,33.14,40.52,30,38.26z M30.07,55.07   c-2.16,2.16-5.15,3.21-8.22,2.86c-4.57-0.51-8.26-4.19-8.78-8.75c-0.44-3.81,1.28-7.47,4.48-9.56l0.45-0.3V38h1c0.55,0,1-0.45,1-1   s-0.45-1-1-1h-1v-3h1c0.55,0,1-0.45,1-1s-0.45-1-1-1h-1v-3h1c0.55,0,1-0.45,1-1s-0.45-1-1-1h-1v-3h1c0.55,0,1-0.45,1-1s-0.45-1-1-1   h-1v-3h1c0.55,0,1-0.45,1-1s-0.45-1-1-1h-1v-3h1c0.55,0,1-0.45,1-1s-0.45-1-1-1h-1V8h1c0.55,0,1-0.45,1-1s-0.45-1-1-1h-0.9   c0.46-2.28,2.48-4,4.9-4c2.76,0,5,2.24,5,5v1h-1c-0.55,0-1,0.45-1,1s0.45,1,1,1h1v3h-1c-0.55,0-1,0.45-1,1s0.45,1,1,1h1v3h-1   c-0.55,0-1,0.45-1,1s0.45,1,1,1h1v3h-1c-0.55,0-1,0.45-1,1s0.45,1,1,1h1v3h-1c-0.55,0-1,0.45-1,1s0.45,1,1,1h1v3h-1   c-0.55,0-1,0.45-1,1s0.45,1,1,1h1v4.33l0.45,0.3C31.3,41.48,33,44.61,33,48C33,50.67,31.96,53.18,30.07,55.07z"/><path d="M24,43.1V6c0-0.55-0.45-1-1-1s-1,0.45-1,1v37.1c-2.28,0.46-4,2.48-4,4.9c0,2.76,2.24,5,5,5s5-2.24,5-5   C28,45.58,26.28,43.56,24,43.1z"/><path d="M43.54,10.46L40,6.93l-3.54,3.54C35.52,11.41,35,12.66,35,14s0.52,2.59,1.46,3.54S38.66,19,40,19s2.59-0.52,3.54-1.46   S45,15.34,45,14S44.48,11.41,43.54,10.46z M42.12,16.12c-1.13,1.13-3.11,1.13-4.24,0C37.31,15.55,37,14.8,37,14   s0.31-1.55,0.88-2.12L40,9.76l2.12,2.12C42.69,12.45,43,13.2,43,14S42.69,15.55,42.12,16.12z"/><path d="M5,27.93l-3.54,3.54C0.52,32.41,0,33.66,0,35s0.52,2.59,1.46,3.54S3.66,40,5,40s2.59-0.52,3.54-1.46S10,36.34,10,35   s-0.52-2.59-1.46-3.54L5,27.93z M7.12,37.12c-1.13,1.13-3.11,1.13-4.24,0C2.31,36.55,2,35.8,2,35s0.31-1.55,0.88-2.12L5,30.76   l2.12,2.12C7.69,33.45,8,34.2,8,35S7.69,36.55,7.12,37.12z"/></g><text x="0" y="75" fill="#000000" font-size="5px" font-weight="bold" font-family="'Helvetica Neue', Helvetica, Arial-Unicode, Arial, Sans-serif">Created by Ben Davis</text><text x="0" y="80" fill="#000000" font-size="5px" font-weight="bold" font-family="'Helvetica Neue', Helvetica, Arial-Unicode, Arial, Sans-serif">from the Noun Project</text></svg>