<svg xmlns="http://www.w3.org/2000/svg" xmlns:xlink="http://www.w3.org/1999/xlink" viewBox="0 0 60 40" version="1.1" x="0px" y="0px"><title>58 -Baseball Cap- (Outline)</title><desc>Created with Sketch.</desc><g stroke="none" stroke-width="1" fill="none" fill-rule="evenodd"><g transform="translate(-959.000000, -964.000000)" fill="#000000"><g transform="translate(959.000000, 964.000000)"><path d="M2.0148,24.2588 C14.5678,27.9228 27.6618,27.9238 39.9868,24.2628 C39.5978,14.1258 31.2298,5.9998 20.9998,5.9998 C10.7718,5.9998 2.4058,14.1238 2.0148,24.2588 M21.0948,29.0088 C14.2678,29.0088 7.4098,27.9908 0.7088,25.9568 C0.2878,25.8288 -0.0002,25.4408 -0.0002,24.9998 C-0.0002,13.4208 9.4208,3.9998 20.9998,3.9998 C32.5788,3.9998 41.9998,13.4208 41.9998,24.9998 C41.9998,25.4388 41.7148,25.8248 41.2958,25.9548 C34.7198,27.9908 27.9228,29.0088 21.0948,29.0088"/><path d="M12.005,26.3838 C18,27.1988 24.043,27.2038 29.995,26.4018 C29.998,26.2688 30,26.1348 30,25.9998 C30,15.1588 25.879,5.9998 21,5.9998 C16.121,5.9998 12,15.1588 12,25.9998 C12,26.1288 12.002,26.2568 12.005,26.3838 M21.08,28.9988 C17.68,28.9988 14.274,28.7468 10.884,28.2448 C10.404,28.1738 10.044,27.7688 10.03,27.2838 L10.021,26.9508 C10.01,26.6358 10,26.3208 10,25.9998 C10,13.6628 14.832,3.9998 21,3.9998 C27.168,3.9998 32,13.6628 32,25.9998 C32,26.3248 31.99,26.6458 31.98,26.9658 L31.97,27.3008 C31.956,27.7858 31.596,28.1918 31.116,28.2628 C27.793,28.7528 24.44,28.9988 21.08,28.9988"/><path d="M21.0001,4 C21.6311,4 22.2801,4.036 22.9971,4.111 C22.9991,4.074 23.0001,4.037 23.0001,4 C23.0001,2.897 22.1031,2 21.0001,2 C19.8971,2 19.0001,2.897 19.0001,4 C19.0001,4.037 19.0011,4.074 19.0031,4.111 C19.7201,4.036 20.3691,4 21.0001,4 M23.7411,6.21 C23.6961,6.21 23.6501,6.207 23.6041,6.2 C21.6221,5.927 20.3781,5.927 18.3961,6.2 C17.9491,6.267 17.5241,6.021 17.3441,5.614 C17.1161,5.098 17.0001,4.555 17.0001,4 C17.0001,1.794 18.7941,0 21.0001,0 C23.2061,0 25.0001,1.794 25.0001,4 C25.0001,4.555 24.8841,5.098 24.6561,5.614 C24.4941,5.979 24.1331,6.21 23.7411,6.21"/><path d="M35.1505,27.5439 L38.1895,28.5109 C43.9405,30.3409 50.1255,30.0019 55.5965,27.6279 L41.0955,26.0169 C39.1495,26.6119 37.1615,27.1229 35.1505,27.5439 M45.7135,31.6789 C42.9815,31.6789 40.2395,31.2619 37.5845,30.4169 L30.6905,28.2239 C30.2465,28.0819 29.9595,27.6539 29.9965,27.1899 C30.0345,26.7269 30.3865,26.3499 30.8465,26.2809 C34.1905,25.7869 37.5075,25.0339 40.7045,24.0449 C40.8365,24.0039 40.9735,23.9909 41.1105,24.0059 L59.1105,26.0059 C59.5375,26.0539 59.8855,26.3669 59.9765,26.7869 C60.0685,27.2059 59.8825,27.6369 59.5145,27.8569 C55.3035,30.3839 50.5255,31.6789 45.7135,31.6789"/></g></g></g><text x="0" y="47" fill="#000000" font-size="5px" font-weight="bold" font-family="'Helvetica Neue', Helvetica, Arial-Unicode, Arial, Sans-serif">Created by Ben Davis</text><text x="0" y="52" fill="#000000" font-size="5px" font-weight="bold" font-family="'Helvetica Neue', Helvetica, Arial-Unicode, Arial, Sans-serif">from the Noun Project</text></svg>