<svg xmlns="http://www.w3.org/2000/svg" xmlns:xlink="http://www.w3.org/1999/xlink" viewBox="0 0 60 53.75" version="1.1" x="0px" y="0px"><title>66 -Shorts- (Outline)</title><desc>Created with Sketch.</desc><g stroke="none" stroke-width="1" fill="none" fill-rule="evenodd"><g transform="translate(-720.000000, -1075.000000)" fill="#000000"><g transform="translate(721.000000, 1076.000000)"><path d="M4,9 L54,9 C54.5522847,9 55,8.55228475 55,8 L55,0 C55,-0.55228475 54.5522847,-1 54,-1 L4,-1 C3.44771525,-1 3,-0.55228475 3,0 L3,8 C3,8.55228475 3.44771525,9 4,9 Z M5,7 L5,1 L53,1 L53,7 L5,7 Z"/><path d="M28,7.9997 L28,21.9997 C28,22.1071821 28.0173279,22.2139613 28.0513167,22.3159278 L33.0513167,37.3159278 C33.1874307,37.7242699 33.5695696,37.9997 34,37.9997 L57,37.9997 C57.5929841,37.9997 58.0557094,37.4866372 57.9946918,36.8968008 L54.9946918,7.89680085 C54.9419616,7.38707569 54.5124453,6.9997 54,6.9997 L29,6.9997 C28.4477153,6.9997 28,7.44741525 28,7.9997 Z M53.0981117,8.9997 L55.8912152,35.9997 L34.7207592,35.9997 L30,21.8374223 L30,8.9997 L53.0981117,8.9997 Z"/><path d="M29,6.9997 L4,6.9997 C3.48755468,6.9997 3.05803839,7.38707569 3.00530821,7.89680085 L0.00530820617,36.8968008 C-0.0557093517,37.4866372 0.407015925,37.9997 1,37.9997 L24,37.9997 C24.4304304,37.9997 24.8125693,37.7242699 24.9486833,37.3159278 L29.9486833,22.3159278 C29.9826721,22.2139613 30,22.1071821 30,21.9997 L30,7.9997 C30,7.44741525 29.5522847,6.9997 29,6.9997 Z M28,21.8374223 L23.2792408,35.9997 L2.10878481,35.9997 L4.90188826,8.9997 L28,8.9997 L28,21.8374223 Z"/><path d="M30,8.9997 L32,8.9997 L32,14.9997 C32,16.3057887 31.1651322,17.4170766 30,17.8289602 L30,8.9997 Z M28,18.9997 C28,19.5519847 28.4477153,19.9997 29,19.9997 C31.7612847,19.9997 34,17.7609847 34,14.9997 L34,7.9997 C34,7.44741525 33.5522847,6.9997 33,6.9997 L29,6.9997 C28.4477153,6.9997 28,7.44741525 28,7.9997 L28,18.9997 Z"/><path d="M12,6.9997 L4,6.9997 C3.48625719,6.9997 3.05609592,7.38898177 3.00496506,7.90017382 L1.68896506,21.0571738 C1.6159393,21.7872649 2.32790368,22.3447914 3.01919135,22.0988501 C8.95720129,19.9862678 13,14.3851094 13,7.9997 C13,7.44741525 12.5522847,6.9997 12,6.9997 Z M3.84727808,19.5741784 L4.90496703,8.9997 L10.9616321,8.9997 C10.610365,13.5628884 7.87367036,17.5486976 3.84727808,19.5741784 Z"/><path d="M56.3223387,21.1726111 L54.9953387,7.90061113 C54.9442256,7.38940288 54.5140572,7.0001 54.0003,7.0001 L45.6943,7.0001 C45.1420153,7.0001 44.6943,7.44781525 44.6943,8.0001 C44.6943,14.5183703 48.9034811,20.2129818 55.015002,22.2220842 C55.7020728,22.4479519 56.3942934,21.8922672 56.3223387,21.1726111 Z M46.7326312,9.0001 L53.0952989,9.0001 L54.1689369,19.7380984 C49.9736141,17.7703058 47.0934717,13.6921809 46.7326312,9.0001 Z"/><path d="M15,-0.0003 L15,7.9997 C15,8.55198475 15.4477153,8.9997 16,8.9997 C16.5522847,8.9997 17,8.55198475 17,7.9997 L17,-0.0003 C17,-0.55258475 16.5522847,-1.0003 16,-1.0003 C15.4477153,-1.0003 15,-0.55258475 15,-0.0003 Z"/><path d="M28,-0.0003 L28,7.9997 C28,8.55198475 28.4477153,8.9997 29,8.9997 C29.5522847,8.9997 30,8.55198475 30,7.9997 L30,-0.0003 C30,-0.55258475 29.5522847,-1.0003 29,-1.0003 C28.4477153,-1.0003 28,-0.55258475 28,-0.0003 Z"/><path d="M40,-0.0003 L40,7.9997 C40,8.55198475 40.4477153,8.9997 41,8.9997 C41.5522847,8.9997 42,8.55198475 42,7.9997 L42,-0.0003 C42,-0.55258475 41.5522847,-1.0003 41,-1.0003 C40.4477153,-1.0003 40,-0.55258475 40,-0.0003 Z"/><path d="M13,22.9997 L17,22.9997 C17.5522847,22.9997 18,22.5519847 18,21.9997 C18,21.4474153 17.5522847,20.9997 17,20.9997 L13,20.9997 C12.4477153,20.9997 12,21.4474153 12,21.9997 C12,22.5519847 12.4477153,22.9997 13,22.9997 Z"/><path d="M13,28.9997 L17,28.9997 C17.5522847,28.9997 18,28.5519847 18,27.9997 C18,27.4474153 17.5522847,26.9997 17,26.9997 L13,26.9997 C12.4477153,26.9997 12,27.4474153 12,27.9997 C12,28.5519847 12.4477153,28.9997 13,28.9997 Z"/><path d="M14,25.9997 L16,25.9997 C16.5522847,25.9997 17,25.5519847 17,24.9997 C17,24.4474153 16.5522847,23.9997 16,23.9997 L14,23.9997 C13.4477153,23.9997 13,24.4474153 13,24.9997 C13,25.5519847 13.4477153,25.9997 14,25.9997 Z"/><path d="M34,39.9997 L34,37.9997 L57,37.9997 L57,39.9997 L34,39.9997 Z M57,41.9997 C58.1042847,41.9997 59,41.1039847 59,39.9997 L59,37.9997 C59,36.8954153 58.1042847,35.9997 57,35.9997 L34,35.9997 C32.8957153,35.9997 32,36.8954153 32,37.9997 L32,39.9997 C32,41.1039847 32.8957153,41.9997 34,41.9997 L57,41.9997 Z"/><path d="M1,39.9997 L1,37.9997 L24,37.9997 L24,39.9997 L1,39.9997 Z M24,41.9997 C25.1042847,41.9997 26,41.1039847 26,39.9997 L26,37.9997 C26,36.8954153 25.1042847,35.9997 24,35.9997 L1,35.9997 C-0.10428475,35.9997 -1,36.8954153 -1,37.9997 L-1,39.9997 C-1,41.1039847 -0.10428475,41.9997 1,41.9997 L24,41.9997 Z"/></g></g></g><text x="0" y="58" fill="#000000" font-size="5px" font-weight="bold" font-family="'Helvetica Neue', Helvetica, Arial-Unicode, Arial, Sans-serif">Created by Ben Davis</text><text x="0" y="63" fill="#000000" font-size="5px" font-weight="bold" font-family="'Helvetica Neue', Helvetica, Arial-Unicode, Arial, Sans-serif">from the Noun Project</text></svg>