<svg xmlns="http://www.w3.org/2000/svg" xmlns:xlink="http://www.w3.org/1999/xlink" version="1.1" x="0px" y="0px" viewBox="0 0 60 51.25" style="enable-background:new 0 0 60 41;" xml:space="preserve"><title>30 -Boots- (Outline)</title><desc>Created with Sketch.</desc><g><g transform="translate(-1201.000000, -599.000000)"><g transform="translate(1201.000000, 599.000000)"><path d="M16,36c0.1,0,0.2,0,0.3,0c1.3,0.4,7.8,2.1,15.9,2.7c10.7,0.8,19.6-0.7,25.9-4.4v-0.8     c-4.3,1.9-17.9,6.3-43.2,0.8c-1.3-0.3-2.7-0.4-4.1-0.4L2,34v3h12.6l0.7-0.7C15.5,36.1,15.7,36,16,36 M37.8,41     c-9.9,0-18.8-2.2-21.5-2.9l-0.6,0.6C15.5,38.9,15.3,39,15,39H1c-0.6,0-1-0.4-1-1v-5c0-0.6,0.4-1,1-1h9.7c1.6,0,3.1,0.2,4.5,0.5     c29.9,6.4,43.2-1.2,43.3-1.3c0.3-0.2,0.7-0.2,1,0s0.5,0.5,0.5,0.9v3c0,0.3-0.2,0.7-0.5,0.9C53.2,39.8,45.2,41,37.8,41"/><path d="M10.7,32c1.6,0,3.1,0.2,4.5,0.5c25.9,5.5,39.3,0.5,42.5-1c-0.5-0.7-1.4-1.3-2-1.5     C53,29.7,21.1,26.3,21.1,3.9l0,0c0-0.3-0.1-0.5-0.3-0.6c-0.1-0.1-0.3-0.2-0.5-0.3l-0.5,0.3c-4.2,2.4-9.3,2.2-13.3-0.5     c-0.1-0.1-0.2,0-0.3,0C6.1,2.9,6,2.9,6,3.1C5.9,17.2,4.6,20.2,3.7,20.8C1,25.1,2.2,30.2,2.7,32H10.7z M37.6,37.1     c-6.2,0-13.7-0.7-22.8-2.7c-1.3-0.3-2.7-0.4-4.1-0.4L2,34l0,0c-0.4,0-0.7-0.2-0.9-0.6c0-0.1-3-7.7,1.1-14     c0.1-0.1,0.2-0.2,0.3-0.3C2.8,18.7,3.9,16.1,4,3c0-0.8,0.5-1.6,1.2-2s1.6-0.4,2.3,0.1c3.4,2.3,7.7,2.4,11.2,0.4l0.8-0.4     C19.7,1,19.9,1,20.1,1c0.8,0,1.5,0.3,2.1,0.8s0.9,1.3,0.9,2.1c0,21.5,32.7,24.1,33,24.1c0.1,0,0.2,0,0.3,0.1     c0.3,0.1,3.1,1.4,3.6,3.7c0,0.1,0,0.2,0,0.3c0,0.4-0.2,0.8-0.6,0.9C58.4,33.5,51.6,37.1,37.6,37.1L37.6,37.1z"/><path d="M19,10c-0.4,0-0.8-0.3-0.9-0.7c-0.2-0.5,0.1-1.1,0.6-1.3l3.4-1.1c0.5-0.2,1.1,0.1,1.3,0.6     c0.2,0.5-0.1,1.1-0.6,1.3l-3.4,1.1C19.2,10,19.1,10,19,10"/><path d="M20,13.7c-0.4,0-0.8-0.3-0.9-0.7c-0.2-0.5,0.1-1.1,0.6-1.3l3.5-1.2c0.5-0.2,1.1,0.1,1.3,0.6     c0.2,0.5-0.1,1.1-0.6,1.3l-3.5,1.2C20.2,13.7,20.1,13.7,20,13.7"/><path d="M21.2,17.2c-0.4,0-0.8-0.3-0.9-0.7c-0.2-0.5,0.1-1.1,0.6-1.3l4-1.4c0.5-0.2,1,0.1,1.2,0.6s-0.1,1.1-0.6,1.3     l-4,1.4C21.3,17.2,21.2,17.2,21.2,17.2"/><path d="M16.4,4.6C15.5,6.3,15,8.1,15,10c0,6.1,4.9,11,11,11c1.1,0,2.2-0.2,3.3-0.5c-5.4-4.4-8.2-10-8.2-16.6l0,0     c0-0.3-0.1-0.5-0.3-0.6c-0.1-0.1-0.3-0.2-0.5-0.3l-0.5,0.3C18.8,3.9,17.6,4.3,16.4,4.6 M26,23c-7.2,0-13-5.8-13-13     c0-2.4,0.7-4.7,1.9-6.8C15,3,15.3,2.8,15.6,2.7c1.2-0.2,2.2-0.6,3.2-1.2l0.8-0.4C19.7,1,19.9,1,20.1,1c0.8,0,1.5,0.3,2.1,0.8     s0.9,1.3,0.9,2.1c0,6.5,3,11.9,8.8,16.1c0.3,0.2,0.4,0.5,0.4,0.9s-0.2,0.7-0.6,0.8C29.9,22.6,28,23,26,23"/><path d="M22,4.4c-0.4,0-0.8-0.3-1-0.7c0-0.3-0.3-0.6-0.6-0.7c-0.5-0.2-0.8-0.7-0.7-1.3C19.9,1.3,20.5,1,21,1.1     c1,0.3,1.7,1,2,2c0.2,0.5-0.1,1.1-0.7,1.2C22.2,4.4,22.1,4.4,22,4.4L22,4.4z M14.4,4.9c-0.5,0-1-0.4-1-0.9c0-0.6,0.4-1,0.9-1.1     c0.6,0,1.2-0.1,1.7-0.3c0.5-0.1,1.1,0.2,1.2,0.7S17,4.4,16.5,4.5C15.9,4.8,15.2,4.9,14.4,4.9C14.5,4.9,14.4,4.9,14.4,4.9     L14.4,4.9z M5,6.8L5,6.8c-0.6,0-1-0.5-1-1c0-0.6,0-1.2,0-1.9c0-0.6,0.5-1,1-1l0,0c0.6,0,1,0.5,1,1c0,0.7,0,1.3,0,1.9     S5.5,6.8,5,6.8L5,6.8z M23,10.9c-0.4,0-0.8-0.3-1-0.7c-0.2-0.6-0.4-1.3-0.5-1.9c-0.1-0.5,0.2-1.1,0.8-1.2     c0.5-0.1,1.1,0.2,1.2,0.8s0.3,1.2,0.5,1.7s-0.1,1.1-0.7,1.3C23.2,10.9,23.1,10.9,23,10.9L23,10.9z M4.7,13.4     C4.7,13.4,4.6,13.4,4.7,13.4c-0.6,0-1-0.5-1-1.1s0.1-1.2,0.1-1.9c0-0.6,0.5-1,1.1-0.9c0.6,0,1,0.5,0.9,1.1c0,0.7-0.1,1.3-0.1,1.9     C5.6,13,5.2,13.4,4.7,13.4L4.7,13.4z M26,16.8c-0.3,0-0.6-0.1-0.8-0.4c-0.4-0.5-0.8-1.1-1.1-1.6c-0.3-0.5-0.1-1.1,0.3-1.4     c0.5-0.3,1.1-0.1,1.4,0.3c0.3,0.5,0.7,1,1,1.5c0.3,0.4,0.3,1.1-0.2,1.4C26.5,16.7,26.3,16.8,26,16.8L26,16.8z M30.8,21.4     c-0.2,0-0.4-0.1-0.6-0.2c-0.5-0.4-1.1-0.8-1.5-1.2c-0.4-0.4-0.5-1-0.1-1.4s1-0.5,1.4-0.1c0.5,0.4,0.9,0.8,1.4,1.1     c0.4,0.3,0.5,1,0.2,1.4C31.4,21.3,31.1,21.4,30.8,21.4L30.8,21.4z M10.6,24.4c-0.2,0-0.4-0.1-0.6-0.2c-0.5-0.4-1.1-0.8-1.5-1.3     c-0.4-0.4-0.5-1-0.1-1.4s1-0.5,1.4-0.1s0.9,0.8,1.4,1.1c0.4,0.3,0.5,1,0.2,1.4C11.2,24.2,10.9,24.4,10.6,24.4L10.6,24.4z      M16.4,27.6c-0.1,0-0.3,0-0.4-0.1c-0.6-0.3-1.2-0.5-1.8-0.8c-0.5-0.2-0.7-0.8-0.5-1.3s0.8-0.7,1.3-0.5c0.5,0.3,1.1,0.5,1.7,0.8     c0.5,0.2,0.8,0.8,0.5,1.3C17.1,27.4,16.7,27.6,16.4,27.6L16.4,27.6z M22.7,29.6c-0.1,0-0.1,0-0.2,0c-0.7-0.1-1.3-0.3-1.9-0.4     c-0.5-0.1-0.9-0.7-0.7-1.2c0.1-0.5,0.7-0.9,1.2-0.7c0.6,0.2,1.2,0.3,1.8,0.4c0.5,0.1,0.9,0.6,0.8,1.2     C23.6,29.3,23.2,29.6,22.7,29.6L22.7,29.6z M40.7,30.1c-0.5,0-0.9-0.4-1-0.9s0.3-1,0.9-1.1c0.6-0.1,1.2-0.1,1.9-0.2     c0.5-0.1,1.1,0.3,1.1,0.9c0.1,0.5-0.3,1.1-0.9,1.1C42.1,30,41.4,30.1,40.7,30.1L40.7,30.1L40.7,30.1z M29.3,30.4L29.3,30.4     c-0.7,0-1.4-0.1-2-0.2c-0.5-0.1-1-0.5-0.9-1.1c0.1-0.5,0.5-1,1.1-0.9s1.2,0.1,1.9,0.1c0.6,0,1,0.5,0.9,1.1     C30.3,30,29.8,30.4,29.3,30.4L29.3,30.4z M34.1,30.5c-0.5,0-1-0.4-1-1s0.4-1,1-1s1.2,0,1.9-0.1c0.5,0,1,0.4,1,1s-0.4,1-1,1     C35.3,30.5,34.7,30.5,34.1,30.5L34.1,30.5z"/></g></g></g><text x="0" y="56" fill="#000000" font-size="5px" font-weight="bold" font-family="'Helvetica Neue', Helvetica, Arial-Unicode, Arial, Sans-serif">Created by Ben Davis</text><text x="0" y="61" fill="#000000" font-size="5px" font-weight="bold" font-family="'Helvetica Neue', Helvetica, Arial-Unicode, Arial, Sans-serif">from the Noun Project</text></svg>