<svg xmlns="http://www.w3.org/2000/svg" xmlns:xlink="http://www.w3.org/1999/xlink" viewBox="0 0 36 75" version="1.1" x="0px" y="0px"><title>49 -Jarsey- (Outline)</title><desc>Created with Sketch.</desc><g stroke="none" stroke-width="1" fill="none" fill-rule="evenodd"><g transform="translate(-1093.000000, -827.000000)" fill="#000000"><g transform="translate(1094.000000, 828.000000)"><path d="M31,15.9997 L31,-0.0003 C31,-0.55258475 30.5522847,-1.0003 30,-1.0003 L26,-1.0003 C25.4477153,-1.0003 25,-0.55258475 25,-0.0003 C25,7.80362411 21.2825257,13.9997 17,13.9997 C12.7174743,13.9997 9,7.80362411 9,-0.0003 C9,-0.55258475 8.55228475,-1.0003 8,-1.0003 L4,-1.0003 C3.44771525,-1.0003 3,-0.55258475 3,-0.0003 L3,15.9997 C3,17.6772447 2.52674255,18.5307069 1.3059112,18.8527824 C-0.041075123,19.2093813 -1,20.3663028 -1,21.7447 L-1,55.9997 C-1,57.6569847 0.34271525,58.9997 2,58.9997 L32,58.9997 C33.6572847,58.9997 35,57.6569847 35,55.9997 L35,21.7447 C35,20.3663028 34.0410751,19.2093813 32.6949221,18.8530026 C31.4732574,18.5307069 31,17.6772447 31,15.9997 Z M5,0.9997 L7.01893245,0.9997 C7.33444272,9.30806141 11.5576777,15.9997 17,15.9997 C22.4423223,15.9997 26.6655573,9.30806141 26.9810675,0.9997 L29,0.9997 L29,15.9997 C29,18.4925952 29.9444597,20.1958134 32.1839112,20.7866176 C32.6791922,20.917738 33,21.3047855 33,21.7447 L33,55.9997 C33,56.5524153 32.5527153,56.9997 32,56.9997 L2,56.9997 C1.44728475,56.9997 1,56.5524153 1,55.9997 L1,21.7447 C1,21.3047855 1.32080781,20.917738 1.81692212,20.7863974 C4.05554026,20.1958134 5,18.4925952 5,15.9997 L5,0.9997 Z"/><path d="M22,26.9997 L26,26.9997 C26.5522847,26.9997 27,26.5519847 27,25.9997 C27,25.4474153 26.5522847,24.9997 26,24.9997 L22,24.9997 C21.4477153,24.9997 21,25.4474153 21,25.9997 C21,26.5519847 21.4477153,26.9997 22,26.9997 Z"/></g></g></g><text x="0" y="75" fill="#000000" font-size="5px" font-weight="bold" font-family="'Helvetica Neue', Helvetica, Arial-Unicode, Arial, Sans-serif">Created by Ben Davis</text><text x="0" y="80" fill="#000000" font-size="5px" font-weight="bold" font-family="'Helvetica Neue', Helvetica, Arial-Unicode, Arial, Sans-serif">from the Noun Project</text></svg>