<svg xmlns="http://www.w3.org/2000/svg" xmlns:xlink="http://www.w3.org/1999/xlink" viewBox="0 0 60 75" version="1.1" x="0px" y="0px"><title>30 -Gloves- (Outline)</title><desc>Created with Sketch.</desc><g stroke="none" stroke-width="1" fill="none" fill-rule="evenodd"><g transform="translate(-1199.000000, -591.000000)" fill="#000000"><g transform="translate(1198.000000, 591.000000)"><path d="M3.5724,16.0688 L3.5824,16.0688 L3.5724,16.0688 Z M14.9724,45.9998 L25.9744,45.9998 L25.9744,44.5738 C25.9744,39.4048 26.9224,34.3608 28.7914,29.5818 L32.1454,21.0088 C32.1604,20.9728 32.1764,20.9378 32.1944,20.9028 L35.8044,14.1328 C36.0364,13.6708 36.0354,13.0938 35.7904,12.6498 C35.6444,12.3858 35.3514,12.0598 34.7784,12.0028 C34.3714,11.9638 33.6214,12.3378 32.7694,13.5148 L28.2584,19.6288 C27.9674,20.0218 27.4364,20.1478 26.9984,19.9258 C26.5624,19.7028 26.3514,19.1978 26.5004,18.7318 L29.9204,7.9988 C30.1044,7.3308 29.8604,6.5978 29.3154,6.2508 C29.0564,6.0868 28.7584,5.9998 28.4504,5.9998 C27.6524,5.9998 27.0114,7.1608 26.7954,7.8928 C26.7854,7.9248 26.7744,7.9568 26.7614,7.9868 L22.8904,17.4528 C22.7094,17.8948 22.2484,18.1518 21.7714,18.0558 C21.3024,17.9638 20.9654,17.5518 20.9654,17.0738 L20.9744,3.6418 C20.9744,2.8008 20.3854,2.0838 19.6334,2.0078 C19.2044,1.9668 18.7874,2.0998 18.4684,2.3868 C18.1544,2.6718 17.9744,3.0768 17.9744,3.4998 L17.9654,18.2958 C17.9654,18.7858 17.6084,19.2038 17.1244,19.2818 C16.6394,19.3628 16.1704,19.0758 16.0154,18.6098 L12.2144,7.1508 C11.6954,5.1568 11.1764,5.0038 10.5494,5.0038 C9.8494,5.0038 9.2534,5.4118 9.0304,6.0428 C8.9294,6.3288 8.9694,6.6588 9.0214,6.8868 L12.7344,20.7368 C12.8474,21.1588 12.6744,21.6048 12.3044,21.8398 C11.9364,22.0738 11.4594,22.0418 11.1244,21.7598 L9.8554,20.6918 C9.2204,20.0938 8.6924,19.5798 8.2314,18.9598 C7.2204,17.5958 5.3304,16.7948 3.7334,17.0558 C3.5314,17.0888 3.3384,17.2058 3.1894,17.3858 C2.8994,17.7378 2.9034,18.2438 3.2004,18.5878 C4.4904,20.0828 13.1864,32.3188 14.0414,34.4788 C14.6524,36.0258 14.9634,37.6528 14.9634,39.3158 L14.9724,45.9998 Z M26.9744,47.9998 L13.9744,47.9998 C13.4234,47.9998 12.9754,47.5528 12.9744,47.0018 L12.9634,39.3168 C12.9634,37.9058 12.7004,36.5258 12.1814,35.2148 C11.4594,33.3878 3.0014,21.4188 1.6864,19.8938 C0.7514,18.8108 0.7344,17.2208 1.6464,16.1138 C2.1024,15.5598 2.7294,15.1938 3.4114,15.0818 C5.7394,14.7028 8.3834,15.8058 9.8384,17.7678 L9.8844,17.8298 L7.0814,7.3678 C6.9134,6.6368 6.9384,5.9618 7.1434,5.3778 C7.6534,3.9348 8.9904,3.0038 10.5494,3.0038 C12.9014,3.0038 13.6994,4.9178 14.1314,6.5848 L15.9684,12.1208 L15.9744,3.4998 C15.9744,2.5128 16.3944,1.5668 17.1274,0.9038 C17.8574,0.2418 18.8414,-0.0822 19.8324,0.0178 C21.5934,0.1938 22.9744,1.7858 22.9744,3.6428 L22.9684,11.9788 L24.8924,7.2748 C25.3574,5.7528 26.5594,3.9998 28.4504,3.9998 C29.1384,3.9998 29.8084,4.1948 30.3884,4.5638 C31.6704,5.3778 32.2654,7.0258 31.8374,8.5698 L30.2444,13.5688 L31.1544,12.3348 C32.7404,10.1428 34.2304,9.9438 34.9764,10.0128 C36.0814,10.1228 37.0164,10.7318 37.5424,11.6848 C38.1084,12.7118 38.1234,13.9698 37.5824,15.0508 L33.9874,21.7928 L30.6544,30.3108 C28.8764,34.8558 27.9744,39.6548 27.9744,44.5738 L27.9744,46.9998 C27.9744,47.5518 27.5274,47.9998 26.9744,47.9998 L26.9744,47.9998 Z"/><path d="M20.965,25 C20.412,25 19.965,24.552 19.965,24 L19.965,22 C19.965,21.448 20.412,21 20.965,21 C21.518,21 21.965,21.448 21.965,22 L21.965,24 C21.965,24.552 21.518,25 20.965,25 M20.965,31 C20.412,31 19.965,30.552 19.965,30 L19.965,29 C19.965,28.448 20.412,28 20.965,28 C21.518,28 21.965,28.448 21.965,29 L21.965,30 C21.965,30.552 21.518,31 20.965,31"/><path d="M26.6632,24.209 C26.5822,24.209 26.5012,24.199 26.4192,24.179 C25.8842,24.045 25.5582,23.502 25.6922,22.966 L25.9952,21.757 C26.1282,21.22 26.6722,20.896 27.2082,21.03 C27.7432,21.164 28.0692,21.707 27.9342,22.243 L27.6322,23.452 C27.5182,23.906 27.1102,24.209 26.6632,24.209 M24.9662,31 C24.8852,31 24.8042,30.991 24.7232,30.97 C24.1862,30.836 23.8602,30.293 23.9952,29.757 L24.4802,27.817 C24.6152,27.281 25.1652,26.956 25.6922,27.089 C26.2282,27.224 26.5552,27.767 26.4202,28.302 L25.9342,30.243 C25.8212,30.697 25.4142,31 24.9662,31"/><path d="M15.2667,24.209 C14.8197,24.209 14.4117,23.906 14.2977,23.452 L13.9957,22.243 C13.8607,21.707 14.1867,21.164 14.7217,21.03 C15.2577,20.899 15.8007,21.22 15.9347,21.757 L16.2377,22.966 C16.3717,23.502 16.0457,24.045 15.5107,24.179 C15.4287,24.199 15.3477,24.209 15.2667,24.209 M16.9637,31 C16.5157,31 16.1087,30.697 15.9957,30.243 L15.5097,28.302 C15.3747,27.767 15.7017,27.224 16.2377,27.089 C16.7717,26.955 17.3157,27.281 17.4497,27.817 L17.9347,29.757 C18.0697,30.293 17.7437,30.836 17.2067,30.97 C17.1257,30.991 17.0437,31 16.9637,31"/><path d="M21.9747,40 C21.4227,40 20.9747,40.449 20.9747,41 C20.9747,41.551 21.4227,42 21.9747,42 L26.0597,42 C26.1017,41.324 26.1587,40.656 26.2297,40 L21.9747,40 Z M27.0107,44 L21.9747,44 C20.3207,44 18.9747,42.654 18.9747,41 C18.9747,39.346 20.3207,38 21.9747,38 L27.3607,38 C27.6497,38 27.9247,38.125 28.1147,38.343 C28.3047,38.561 28.3907,38.851 28.3507,39.137 C28.1777,40.39 28.0627,41.703 28.0097,43.04 C27.9897,43.576 27.5477,44 27.0107,44 L27.0107,44 Z"/><path d="M19.9747,42 L13.9747,42 C13.4217,42 12.9747,41.552 12.9747,41 C12.9747,40.448 13.4217,40 13.9747,40 L19.9747,40 C20.5277,40 20.9747,40.448 20.9747,41 C20.9747,41.552 20.5277,42 19.9747,42"/><path d="M28.1251,36 L23.9751,36 C23.4221,36 22.9751,35.552 22.9751,35 C22.9751,34.448 23.4221,34 23.9751,34 L28.1251,34 C28.6781,34 29.1251,34.448 29.1251,35 C29.1251,35.552 28.6781,36 28.1251,36"/><path d="M43.965,37 C43.412,37 42.965,36.552 42.965,36 L42.965,34 C42.965,33.448 43.412,33 43.965,33 C44.518,33 44.965,33.448 44.965,34 L44.965,36 C44.965,36.552 44.518,37 43.965,37 M43.965,43 C43.412,43 42.965,42.552 42.965,42 L42.965,41 C42.965,40.448 43.412,40 43.965,40 C44.518,40 44.965,40.448 44.965,41 L44.965,42 C44.965,42.552 44.518,43 43.965,43"/><path d="M49.6632,36.209 C49.5822,36.209 49.5012,36.199 49.4192,36.179 C48.8842,36.045 48.5582,35.502 48.6922,34.966 L48.9952,33.757 C49.1292,33.22 49.6732,32.898 50.2082,33.03 C50.7432,33.164 51.0692,33.707 50.9342,34.243 L50.6322,35.452 C50.5182,35.906 50.1102,36.209 49.6632,36.209 M47.9662,43 C47.8852,43 47.8042,42.991 47.7232,42.97 C47.1862,42.836 46.8602,42.293 46.9952,41.757 L47.4802,39.817 C47.6142,39.281 48.1642,38.958 48.6922,39.089 C49.2282,39.224 49.5552,39.767 49.4202,40.302 L48.9342,42.243 C48.8212,42.697 48.4142,43 47.9662,43"/><path d="M38.2667,36.209 C37.8197,36.209 37.4117,35.906 37.2977,35.452 L36.9957,34.243 C36.8607,33.707 37.1867,33.164 37.7217,33.03 C38.2587,32.9 38.8007,33.221 38.9347,33.757 L39.2377,34.966 C39.3717,35.502 39.0457,36.045 38.5107,36.179 C38.4287,36.199 38.3477,36.209 38.2667,36.209 M39.9637,43 C39.5157,43 39.1087,42.697 38.9957,42.243 L38.5097,40.302 C38.3747,39.767 38.7017,39.224 39.2377,39.089 C39.7727,38.955 40.3157,39.281 40.4497,39.817 L40.9347,41.757 C41.0697,42.293 40.7437,42.836 40.2067,42.97 C40.1257,42.991 40.0437,43 39.9637,43"/><path d="M44.9747,52 C44.4227,52 43.9747,52.449 43.9747,53 C43.9747,53.551 44.4227,54 44.9747,54 L49.0597,54 C49.1017,53.324 49.1587,52.656 49.2297,52 L44.9747,52 Z M50.0107,56 L44.9747,56 C43.3207,56 41.9747,54.654 41.9747,53 C41.9747,51.346 43.3207,50 44.9747,50 L50.3607,50 C50.6497,50 50.9247,50.125 51.1147,50.343 C51.3047,50.561 51.3907,50.851 51.3507,51.137 C51.1777,52.39 51.0627,53.703 51.0097,55.04 C50.9897,55.576 50.5477,56 50.0107,56 L50.0107,56 Z"/><path d="M42.9747,54 L36.9747,54 C36.4217,54 35.9747,53.552 35.9747,53 C35.9747,52.448 36.4217,52 36.9747,52 L42.9747,52 C43.5277,52 43.9747,52.448 43.9747,53 C43.9747,53.552 43.5277,54 42.9747,54"/><path d="M51.1251,48 L46.9751,48 C46.4221,48 45.9751,47.552 45.9751,47 C45.9751,46.448 46.4221,46 46.9751,46 L51.1251,46 C51.6781,46 52.1251,46.448 52.1251,47 C52.1251,47.552 51.6781,48 51.1251,48"/><path d="M37.9728,58 L48.9748,58 L48.9748,56.574 C48.9748,51.405 49.9218,46.361 51.7908,41.582 L55.1458,33.009 C55.1598,32.973 55.1768,32.938 55.1948,32.903 L58.8048,26.133 C59.0358,25.671 59.0348,25.094 58.7898,24.65 C58.6448,24.386 58.3518,24.06 57.7788,24.003 L57.7778,24.003 C57.3888,23.963 56.6218,24.334 55.7698,25.515 L51.2578,31.629 C50.9668,32.021 50.4368,32.147 49.9978,31.926 C49.5628,31.703 49.3518,31.198 49.4998,30.731 L52.9198,19.999 C53.1048,19.332 52.8608,18.598 52.3148,18.251 C52.0568,18.087 51.7578,18 51.4508,18 C50.6528,18 50.0118,19.161 49.7948,19.893 C49.7858,19.925 49.7748,19.957 49.7618,19.987 L45.8908,29.453 C45.7098,29.895 45.2498,30.151 44.7718,30.056 C44.3028,29.963 43.9648,29.552 43.9648,29.074 L43.9748,15.643 C43.9748,14.802 43.3848,14.083 42.6328,14.008 C42.1978,13.963 41.7858,14.1 41.4688,14.387 C41.1548,14.671 40.9748,15.077 40.9748,15.5 L40.9648,30.296 C40.9648,30.787 40.6088,31.205 40.1238,31.283 C39.6378,31.36 39.1698,31.076 39.0158,30.61 L35.2848,19.361 L33.9878,21.792 L33.2898,23.574 L36.2608,33.293 C36.3908,33.717 36.2258,34.176 35.8558,34.42 C35.4858,34.665 34.9998,34.636 34.6598,34.35 L33.3918,33.281 C32.7568,32.684 32.2288,32.169 31.7688,31.55 C31.5318,31.231 31.0828,30.764 30.6338,30.362 C30.1518,31.602 29.7178,32.931 29.3438,34.319 C30.8918,36.452 36.2438,44.463 37.0408,46.479 C37.6528,48.026 37.9628,49.653 37.9628,51.316 L37.9728,58 Z M49.9748,60 L36.9748,60 C36.4228,60 35.9758,59.553 35.9748,59.001 L35.9628,51.317 C35.9628,49.906 35.7008,48.526 35.1818,47.214 C34.4568,45.386 28.4788,36.402 27.4758,35.162 C27.2768,34.916 27.2048,34.59 27.2848,34.283 C27.7108,32.63 28.2178,31.048 28.7908,29.582 L29.2518,28.408 C29.3568,28.14 29.5728,27.93 29.8428,27.832 C30.1148,27.733 30.4128,27.758 30.6648,27.897 C31.4448,28.326 32.5778,29.376 33.2068,30.144 L31.2768,23.826 C31.2098,23.61 31.2188,23.379 31.3008,23.169 L32.1458,21.009 C32.1608,20.973 32.1768,20.937 32.1958,20.903 L34.5348,16.519 C34.6998,16.208 35.0148,16.008 35.3658,15.991 C35.7438,15.971 36.0508,16.141 36.2458,16.432 C36.6108,16.974 36.8908,17.658 37.1308,18.584 L38.9688,24.121 L38.9748,15.5 C38.9748,14.513 39.3948,13.567 40.1268,12.904 C40.8578,12.242 41.8398,11.917 42.8318,12.018 C44.5948,12.195 45.9748,13.787 45.9748,15.643 L45.9688,23.979 L47.8928,19.275 C48.3578,17.752 49.5598,16 51.4508,16 C52.1388,16 52.8088,16.195 53.3888,16.563 C54.6698,17.379 55.2648,19.026 54.8368,20.57 L53.2438,25.568 L54.1548,24.335 C55.7408,22.143 57.2298,21.941 57.9768,22.013 C59.0818,22.123 60.0168,22.732 60.5418,23.685 C61.1088,24.711 61.1228,25.97 60.5818,27.051 L56.9878,33.792 L53.6548,42.311 C51.8758,46.856 50.9748,51.655 50.9748,56.574 L50.9748,59 C50.9748,59.552 50.5278,60 49.9748,60 L49.9748,60 Z"/></g></g></g><text x="0" y="75" fill="#000000" font-size="5px" font-weight="bold" font-family="'Helvetica Neue', Helvetica, Arial-Unicode, Arial, Sans-serif">Created by Ben Davis</text><text x="0" y="80" fill="#000000" font-size="5px" font-weight="bold" font-family="'Helvetica Neue', Helvetica, Arial-Unicode, Arial, Sans-serif">from the Noun Project</text></svg>