<svg xmlns="http://www.w3.org/2000/svg" xmlns:xlink="http://www.w3.org/1999/xlink" viewBox="0 0 30 75" version="1.1" x="0px" y="0px"><title>19 -Tracksuit Pants- (Outline)</title><desc>Created with Sketch.</desc><g stroke="none" stroke-width="1" fill="none" fill-rule="evenodd"><g transform="translate(-1095.000000, -467.000000)" fill="#000000"><g transform="translate(1096.000000, 468.000000)"><path d="M2,2.9997 L2,0.9997 L26,0.9997 L26,2.9997 L2,2.9997 Z M27,4.9997 C27.5522847,4.9997 28,4.55198475 28,3.9997 L28,0.9997 C28,-0.10458475 27.1042847,-1.0003 26,-1.0003 L2,-1.0003 C0.89571525,-1.0003 0,-0.10458475 0,0.9997 L0,3.9997 C0,4.55198475 0.44771525,4.9997 1,4.9997 L27,4.9997 Z"/><path d="M26.9382,2.9997 L1.0622,2.9997 C-0.0893163079,2.9997 -1.00302486,3.96926024 -0.935056367,5.11872733 L1.94499515,53.1195923 C2.00902314,54.176057 2.88444843,54.9997 3.9422,54.9997 L10.0292,54.9997 C11.1102089,54.9997 11.9947113,54.1409598 12.0287048,53.0611659 L12.9467627,22.0282704 C12.9617229,21.4548606 13.4291851,20.9997 14.0002,20.9997 C14.5708727,20.9997 15.0376682,21.4545183 15.0525399,22.0247703 L15.9716383,53.0593026 C16.0036611,54.1400738 16.8896901,54.9997 17.9712,54.9997 L24.0582,54.9997 C25.116061,54.9997 25.9903835,54.1759481 26.0543685,53.1201951 L28.9344048,5.11959229 C29.0043632,3.97028294 28.0903191,2.9997 26.9382,2.9997 Z M24.0580016,52.9997 L17.9712,52.9997 C17.9709171,52.9997 17.0517617,21.9690974 17.0517617,21.9690974 C17.0087224,20.3185235 15.655169,18.9997 14.0002,18.9997 C12.3451879,18.9997 10.9906764,20.3185664 10.9475399,21.9726297 L10.0296373,53.0001296 C10.0296603,52.9993416 3.9422,52.9997 3.9422,52.9997 C3.94185394,52.9997 1.06140485,4.99980771 1.06140485,4.99980771 C1.06142123,5.00007837 26.938002,4.9997 26.938002,4.9997 L24.0580016,52.9997 Z"/><path d="M5,54.9997 L9,54.9997 L9,56.9997 L5,56.9997 L5,54.9997 Z M9,58.9997 C10.1042847,58.9997 11,58.1039847 11,56.9997 L11,53.9997 C11,53.4474153 10.5522847,52.9997 10,52.9997 L4,52.9997 C3.44771525,52.9997 3,53.4474153 3,53.9997 L3,56.9997 C3,58.1039847 3.89571525,58.9997 5,58.9997 L9,58.9997 Z"/><path d="M19,54.9997 L23,54.9997 L23,56.9997 L19,56.9997 L19,54.9997 Z M23,58.9997 C24.1042847,58.9997 25,58.1039847 25,56.9997 L25,53.9997 C25,53.4474153 24.5522847,52.9997 24,52.9997 L18,52.9997 C17.4477153,52.9997 17,53.4474153 17,53.9997 L17,56.9997 C17,58.1039847 17.8957153,58.9997 19,58.9997 L23,58.9997 Z"/><path d="M14.7188904,6.67038933 C15.9777765,8.10609088 17.2672621,8.99714714 18.6437658,9.0220007 C18.8143279,9.0250803 18.9839625,9.01392711 19.1520267,8.98807638 C19.6978919,8.90411434 20.0723384,8.39353848 19.9883764,7.84767328 C19.9044143,7.30180808 19.3938385,6.92736158 18.8479733,7.01132362 C18.7935334,7.01969726 18.7376696,7.02337021 18.6798711,7.02232663 C18.0261287,7.01052293 17.1404646,6.39851414 16.2226689,5.35181044 C15.8657673,4.94478061 15.5311418,4.50468435 15.2305946,4.06443912 C15.0513868,3.80193327 14.9254892,3.60120572 14.8629264,3.49437032 C14.5786274,3.00888706 13.9499414,2.85339548 13.4721153,3.15038394 C13.427789,3.17793458 13.349179,3.22777878 13.2411154,3.29784596 C13.063501,3.41300909 12.8662191,3.54418379 12.654068,3.68933444 C12.0474883,4.10434732 11.4405639,4.55001224 10.8707859,5.01123255 C10.2341569,5.52656698 9.68226034,6.03070353 9.23737287,6.51874394 C8.44286381,7.39031837 7.99003749,8.19236287 8.00007499,9.01194615 C8.00683835,9.56418949 8.46000282,10.0063884 9.01224615,9.99962501 C9.56448949,9.99286165 10.0066884,9.53969718 9.99992501,8.98745385 C9.9977894,8.81307609 10.2347135,8.39343694 10.7154211,7.86610188 C11.084024,7.46174541 11.5647987,7.02257606 12.1291353,6.56576037 C12.6317364,6.15891802 13.1720402,5.76063045 13.714187,5.38747014 C14.0215619,5.82451706 14.3579356,6.25873698 14.7188904,6.67038933 Z"/><path d="M28.3319031,15.164922 L28.9349031,5.119922 C29.0029249,3.96956024 28.0892163,3 26.9377,3 L22.9997,3 C22.4474153,3 21.9997,3.44771525 21.9997,4 L21.9997,8 C21.9997,11.3988144 23.9056197,14.4581032 26.874371,15.9932662 C27.5168111,16.3254767 28.2885644,15.886874 28.3319031,15.164922 Z M26.439962,13.3048612 C24.9194041,12.0001927 23.9997,10.0821461 23.9997,8 L23.9997,5 L26.9377,5 C26.9381222,5 26.439962,13.3048612 26.439962,13.3048612 Z"/><path d="M1.06150306,5.000078 C1.06152123,5.00037837 4.0003,5 4.0003,5 L4.0003,8 C4.0003,10.082146 3.08059589,12.0001926 1.56003808,13.3048611 L1.06150306,5.000078 Z M-0.331903063,15.164922 C-0.288564379,15.886874 0.483188921,16.3254767 1.12562896,15.9932662 C4.09438028,14.4581032 6.0003,11.3988144 6.0003,8 L6.0003,4 C6.0003,3.44771525 5.55258475,3 5.0003,3 L1.0623,3 C-0.0892163079,3 -1.00292486,3.96956024 -0.934956367,5.11902733 L-0.331903063,15.164922 Z"/></g></g></g><text x="0" y="75" fill="#000000" font-size="5px" font-weight="bold" font-family="'Helvetica Neue', Helvetica, Arial-Unicode, Arial, Sans-serif">Created by Ben Davis</text><text x="0" y="80" fill="#000000" font-size="5px" font-weight="bold" font-family="'Helvetica Neue', Helvetica, Arial-Unicode, Arial, Sans-serif">from the Noun Project</text></svg>