<svg xmlns="http://www.w3.org/2000/svg" xmlns:xlink="http://www.w3.org/1999/xlink" viewBox="0 0 48 75" version="1.1" x="0px" y="0px"><title>75 -Hoodie- (Outline)</title><desc>Created with Sketch.</desc><g stroke="none" stroke-width="1" fill="none" fill-rule="evenodd"><g transform="translate(-606.000000, -1187.000000)" fill="#000000"><g transform="translate(607.000000, 1188.000000)"><path d="M34,54.9997 L34,56.9997 L12,56.9997 L12,54.9997 L34,54.9997 Z M34,58.9997 C35.1042847,58.9997 36,58.1039847 36,56.9997 L36,53.9997 C36,53.4474153 35.5522847,52.9997 35,52.9997 L11,52.9997 C10.4477153,52.9997 10,53.4474153 10,53.9997 L10,56.9997 C10,58.1039847 10.8957153,58.9997 12,58.9997 L34,58.9997 Z"/><path d="M44,54.9997 L44,56.9997 L41,56.9997 L41,54.9997 L44,54.9997 Z M44,58.9997 C45.1042847,58.9997 46,58.1039847 46,56.9997 L46,53.9997 C46,53.4474153 45.5522847,52.9997 45,52.9997 L40,52.9997 C39.4477153,52.9997 39,53.4474153 39,53.9997 L39,56.9997 C39,58.1039847 39.8957153,58.9997 41,58.9997 L44,58.9997 Z"/><path d="M5,54.9997 L5,56.9997 L2,56.9997 L2,54.9997 L5,54.9997 Z M5,58.9997 C6.10428475,58.9997 7,58.1039847 7,56.9997 L7,53.9997 C7,53.4474153 6.55228475,52.9997 6,52.9997 L1,52.9997 C0.44771525,52.9997 0,53.4474153 0,53.9997 L0,56.9997 C0,58.1039847 0.89571525,58.9997 2,58.9997 L5,58.9997 Z"/><path d="M7.45469028,48.3640833 C7.67116698,49.8721755 7.8926555,50.8343905 8.05038231,51.3128075 L9.0514167,54.3159278 C9.18753075,54.7242699 9.56966959,54.9997 10.0001,54.9997 L36.0001,54.9997 C36.4305304,54.9997 36.8126693,54.7242699 36.9487833,54.3159278 L37.9487833,51.3159278 C38.1075445,50.8343905 38.329033,49.8721755 38.5455097,48.3640833 C39.3899495,42.4812656 39.3917498,33.6808185 38.0025803,21.4647154 C38.0116074,21.3244639 38.041537,21.0876774 38.1070202,20.7854099 C38.2356946,20.1914548 38.4552174,19.5981983 38.7835939,19.0510089 C39.1985302,18.359581 39.7599273,17.7887287 40.496271,17.3679248 C41.1480166,16.9954668 41.1723005,16.0644491 40.5408576,15.6585215 L33.5408576,11.1585215 C32.9863995,10.8020842 32.2447821,11.0702022 32.0464447,11.6987987 C31.5646484,13.2257699 30.5105155,13.9997 29.0001,13.9997 L17.0001,13.9997 C15.7051552,13.9997 14.352357,12.9599989 13.9536115,11.6983433 C13.7550336,11.0700305 13.0136338,10.8021913 12.4593424,11.1585215 L5.45934241,15.6585215 C4.82789949,16.0644491 4.85218335,16.9954668 5.50392901,17.3679248 C6.24027266,17.7887287 6.80166977,18.359581 7.21660607,19.0510089 C7.54498264,19.5981983 7.76450537,20.1914548 7.8931798,20.7854099 C7.95866303,21.0876774 7.98859262,21.3244639 7.99761972,21.4647154 C6.60845018,33.6808185 6.61025051,42.4812656 7.45469028,48.3640833 Z M37.0686951,18.0218724 C36.2980218,19.3060817 36.0227776,20.5765958 36.0004099,21.4748052 L36.0065428,21.6130318 C37.3862241,33.7084219 37.3862241,42.364407 36.5658014,48.0799092 C36.4481878,48.899268 36.3230641,49.5740851 36.1991956,50.1122088 C36.12789,50.4219822 36.0753653,50.6108142 36.0503823,50.6865925 L35.2793421,52.9997 L10.7208592,52.9997 L9.9487833,50.6834722 C9.92483474,50.6108142 9.87230998,50.4219822 9.80100445,50.1122088 C9.67713586,49.5740851 9.55201216,48.899268 9.43439861,48.0799092 C8.61397588,42.364407 8.61397588,33.7084219 9.9936572,21.6130318 L9.99979008,21.4748052 C9.97742243,20.5765958 9.70217824,19.3060817 8.93150488,18.0218724 C8.60804349,17.4828734 8.21755764,16.9918807 7.75625643,16.5595506 L12.5858859,13.4547889 C13.5285437,14.9482057 15.2397929,15.9997 17.0001,15.9997 L29.0001,15.9997 C30.9535415,15.9997 32.5322186,15.099548 33.4480842,13.4764982 L38.2439436,16.5595506 C37.7826424,16.9918807 37.3921565,17.4828734 37.0686951,18.0218724 Z"/><path d="M38.1070202,20.7854099 C38.2356946,20.1914548 38.4552174,19.5981983 38.7835939,19.0510089 C39.1985302,18.359581 39.7599273,17.7887287 40.496271,17.3679248 C41.1480166,16.9954668 41.1723005,16.0644491 40.5408576,15.6585215 L33.5408576,11.1585215 C33.0197955,10.823553 32.3226416,11.0380557 32.0800065,11.6080012 C29.5310505,17.5954532 28.0001,27.2957617 28.0001,37.9997 C28.0001,42.9428444 28.3041876,45.8755442 29.0601585,49.0371403 C29.3195513,50.1219643 30.5203757,54.487772 30.4589363,54.2576297 C30.575765,54.6952515 30.9721521,54.9997 31.4251,54.9997 L36.0001,54.9997 C36.4305304,54.9997 36.8126693,54.7242699 36.9487833,54.3159278 L37.9487833,51.3159278 C38.1075445,50.8343905 38.329033,49.8721755 38.5455097,48.3640833 C39.3899495,42.4812656 39.3917498,33.6808185 38.0025803,21.4647154 C38.0116074,21.3244639 38.041537,21.0876774 38.1070202,20.7854099 Z M31.0053251,48.5720306 C30.2882074,45.5729251 30.0001,42.7943428 30.0001,37.9997 C30.0001,28.1919766 31.311493,19.2742036 33.4788998,13.4963082 L38.2439436,16.5595506 C37.7826424,16.9918807 37.3921565,17.4828734 37.0686951,18.0218724 C36.2980218,19.3060817 36.0227776,20.5765958 36.0004099,21.4748052 L36.0065428,21.6130318 C37.3862241,33.7084219 37.3862241,42.364407 36.5658014,48.0799092 C36.4481878,48.899268 36.3230641,49.5740851 36.1991956,50.1122088 C36.12789,50.4219822 36.0753653,50.6108142 36.0503823,50.6865925 L35.2793421,52.9997 L32.1870009,52.9997 C31.8461927,51.7549135 31.1846713,49.3220866 31.0053251,48.5720306 Z"/><path d="M7.45469028,48.3640833 C7.67116698,49.8721755 7.8926555,50.8343905 8.05038231,51.3128075 L9.0514167,54.3159278 C9.18753075,54.7242699 9.56966959,54.9997 10.0001,54.9997 L14.5751,54.9997 C15.0280479,54.9997 15.424435,54.6952515 15.5412637,54.2576297 C15.4798243,54.487772 16.6806487,50.1219643 16.9400415,49.0371403 C17.6960124,45.8755442 18.0001,42.9428444 18.0001,37.9997 C18.0001,27.2957617 16.4691495,17.5954532 13.9201935,11.6080012 C13.6775584,11.0380557 12.9804045,10.823553 12.4593424,11.1585215 L5.45934241,15.6585215 C4.82789949,16.0644491 4.85218335,16.9954668 5.50392901,17.3679248 C6.24027266,17.7887287 6.80166977,18.359581 7.21660607,19.0510089 C7.54498264,19.5981983 7.76450537,20.1914548 7.8931798,20.7854099 C7.95866303,21.0876774 7.98859262,21.3244639 7.99761972,21.4647154 C6.60845018,33.6808185 6.61025051,42.4812656 7.45469028,48.3640833 Z M10.7208592,52.9997 L9.9487833,50.6834722 C9.92483474,50.6108142 9.87230998,50.4219822 9.80100445,50.1122088 C9.67713586,49.5740851 9.55201216,48.899268 9.43439861,48.0799092 C8.61397588,42.364407 8.61397588,33.7084219 9.9936572,21.6130318 L9.99979008,21.4748052 C9.97742243,20.5765958 9.70217824,19.3060817 8.93150488,18.0218724 C8.60804349,17.4828734 8.21755764,16.9918807 7.75625643,16.5595506 L12.5213002,13.4963082 C14.688707,19.2742036 16.0001,28.1919766 16.0001,37.9997 C16.0001,42.7943428 15.7119926,45.5729251 14.9948749,48.5720306 C14.8155287,49.3220866 14.1540073,51.7549135 13.8131991,52.9997 L10.7208592,52.9997 Z"/><path d="M22,7.9997 C22,8.55198475 22.4477153,8.9997 23,8.9997 C23.5522847,8.9997 24,8.55198475 24,7.9997 L24,5.9997 C24,5.44741525 23.5522847,4.9997 23,4.9997 C21.8952847,4.9997 21,4.10441525 21,2.9997 C21,1.89498475 21.8952847,0.9997 23,0.9997 C24.1047153,0.9997 25,1.89498475 25,2.9997 C25,3.55198475 25.4477153,3.9997 26,3.9997 C26.5522847,3.9997 27,3.55198475 27,2.9997 C27,0.79041525 25.2092847,-1.0003 23,-1.0003 C20.7907153,-1.0003 19,0.79041525 19,2.9997 C19,4.86367992 20.274693,6.4297076 22,6.87370405 L22,7.9997 Z"/><path d="M32.8884689,12.7666909 L23.5144689,7.14269093 C23.1977998,6.95270302 22.8022002,6.95270302 22.4855311,7.14269093 L13.1115311,12.7666909 C12.7027406,13.0119478 12.5239125,13.5116662 12.6842812,13.9606012 C13.3296898,15.7673529 13.8992267,17.8651799 14.3751501,20.1999355 C14.4700831,20.6656516 14.8797066,21.0002 15.355,21.0002 L30.645,21.0002 C31.1202934,21.0002 31.5299169,20.6656516 31.6248499,20.1999355 C32.1007733,17.8651799 32.6703102,15.7673529 33.3157188,13.9606012 C33.4760875,13.5116662 33.2972594,13.0119478 32.8884689,12.7666909 Z M29.833772,19.0002 L16.166228,19.0002 C15.7765049,17.210167 15.3306556,15.5574915 14.8352642,14.0648615 L23,9.16636843 L31.1647358,14.0648615 C30.6693444,15.5574915 30.2234951,17.210167 29.833772,19.0002 Z"/><path d="M39.9987,16.4988 L39.2915932,17.2059068 L39.9947,16.5048 L39.9987,16.4988 Z M37.0687395,18.0219724 C36.2981279,19.306079 36.0226522,20.576489 36.0000174,21.4746055 L36.0058163,21.6102315 C36.8260413,28.8040509 37.1482135,33.8673662 37.1067511,37.9666861 C37.1383746,41.6571233 36.9804894,44.6911799 36.6867759,47.1470497 C36.6652148,47.3273309 36.6931438,47.5100807 36.7675664,47.6756931 C37.0523992,48.3095305 37.3559702,49.2015191 37.6631466,50.2772962 C37.9075455,51.1332174 38.139987,52.0539677 38.3522322,52.9752219 C38.4266038,53.2980332 38.4930871,53.5976393 38.5507179,53.8661523 C38.585085,54.0262754 38.6087138,54.1396974 38.6206527,54.1985646 C38.7151982,54.6647394 39.1250344,54.9998 39.6007,54.9998 L45.6007,54.9998 C46.1173174,54.9998 46.5488954,54.6062808 46.5964537,54.0918571 C48.2276941,36.4472275 44.4175921,15.6936665 39.9551233,15.4325081 C39.529234,15.4075836 39.2038799,15.624747 39.0315705,15.9272434 C38.2122476,16.4883794 37.5624647,17.1992547 37.0687395,18.0219724 Z M39.9997,16.4998 L39.5034008,15.6316485 C39.3402739,15.7249038 39.1830255,15.8235152 39.0315705,15.9272434 C38.7919233,16.347954 38.8483123,16.9337253 39.3419998,17.2628503 L39.4439998,17.3308503 L39.9947,16.5048 L39.9997,16.4998 Z M43.5321379,28.2686201 C44.8989822,35.7137977 45.3783123,44.5474321 44.6841789,52.9998003 L40.4084816,52.9998 C40.374742,52.848278 40.3389375,52.6901075 40.3011776,52.5262099 C40.0817633,51.573838 39.8412118,50.6209621 39.5862835,49.7281656 C39.2923482,48.6987607 38.998374,47.816272 38.7041142,47.1147163 C38.9878663,44.6222173 39.1378809,41.591205 39.1066629,37.9681838 C39.148936,33.8060086 38.8233961,28.6781536 38.0022134,21.4647487 C38.0113086,21.324423 38.0413053,21.0877471 38.106802,20.7856966 C38.235609,20.1916778 38.4552269,19.5983565 38.7836384,19.0511089 C39.1253539,18.4816922 39.5663075,17.9940549 40.1223759,17.6046598 C40.9718242,18.4932159 42.5037831,22.6671891 43.5321379,28.2686201 Z"/><path d="M6.04477666,15.4325081 C1.5823079,15.6936665 -2.22779412,36.4472275 -0.596553728,54.0918571 C-0.548995419,54.6062808 -0.117417416,54.9998 0.3992,54.9998 L6.3992,54.9998 C6.87486561,54.9998 7.28470177,54.6647394 7.37924726,54.1985646 C7.3911862,54.1396974 7.41481498,54.0262754 7.44918213,53.8661523 C7.50681294,53.5976393 7.57329623,53.2980332 7.6476678,52.9752219 C7.85991297,52.0539677 8.09235448,51.1332174 8.3367534,50.2772962 C8.64392978,49.2015191 8.94750078,48.3095305 9.23233358,47.6756931 C9.30675621,47.5100807 9.33468516,47.3273309 9.31312415,47.1470497 C9.01940478,44.6911311 8.86152589,41.658428 8.89316283,37.9894224 C8.85164729,33.8631235 9.17452911,28.7908232 9.99374952,21.6131991 L9.99988257,21.4746055 C9.97724777,20.576489 9.70177205,19.306079 8.93116046,18.0219724 C8.43742991,17.1992458 7.7876383,16.488364 6.96830291,15.9272252 C6.79595291,15.6247297 6.47054876,15.4075905 6.04477666,15.4325081 Z M7.29578537,47.1147174 C7.00152573,47.8162729 6.70755165,48.6987612 6.41361651,49.7281656 C6.15868821,50.6209621 5.91813667,51.573838 5.6987224,52.5262099 C5.66096249,52.6901075 5.62515798,52.848278 5.5914175,52.9998 L1.315722,52.9998 C0.621587661,44.5474321 1.10091784,35.7137977 2.46776212,28.2686201 C3.4961169,22.6671891 5.02807584,18.4932159 5.87752408,17.6046598 C6.43359253,17.9940549 6.87454608,18.4816922 7.21626161,19.0511089 C7.54467309,19.5983565 7.76429097,20.1916778 7.89309801,20.7856966 C7.95862231,21.0878747 7.98861675,21.3246229 7.99769813,21.4649264 C7.17700439,28.6718486 6.85146281,33.7991735 6.89315694,37.9815276 C6.86227749,41.5978263 7.01227409,44.6244238 7.29578537,47.1147174 Z"/><path d="M38.1070202,20.7854099 C38.2356946,20.1914548 38.4552174,19.5981983 38.7835939,19.0510089 C39.1985302,18.359581 39.7599273,17.7887287 40.496271,17.3679248 C41.1480166,16.9954668 41.1723005,16.0644491 40.5408576,15.6585215 L33.5408576,11.1585215 C33.0197955,10.823553 32.3226416,11.0380557 32.0800065,11.6080012 C29.5310505,17.5954532 28.0001,27.2957617 28.0001,37.9997 C28.0001,38.2367735 28.0014072,38.4182353 28.0052678,38.8130303 C28.0064072,38.9300012 28.0064072,38.9300012 28.0071418,39.008846 C28.0121604,39.5575394 28.4583836,39.9997 29.0071,39.9997 L38.1101,39.9997 C38.6619395,39.9997 39.1094701,39.5526794 39.1100993,39.0008403 C39.1157614,34.0352631 38.7704314,28.2160222 38.0025809,21.4647052 C38.0116088,21.3244525 38.0415386,21.0876701 38.1070202,20.7854099 Z M38.2439436,16.5595506 C37.7826424,16.9918807 37.3921565,17.4828734 37.0686951,18.0218724 C36.2980218,19.3060817 36.0227776,20.5765958 36.0004099,21.4748052 L36.0065461,21.6130603 C36.7208483,27.8736099 37.0677169,33.3144604 37.1064927,37.9997 L30.0001,37.9997 C30.0001,28.1919766 31.311493,19.2742036 33.4788998,13.4963082 L38.2439436,16.5595506 Z"/><path d="M6.89010065,39.0008403 C6.89072989,39.5526794 7.33826049,39.9997 7.8901,39.9997 L16.9931,39.9997 C17.5418164,39.9997 17.9880396,39.5575394 17.9930582,39.008846 C17.9937928,38.9300012 17.9937928,38.9300012 17.9945611,38.8510072 C17.9987928,38.4182353 18.0001,38.2367735 18.0001,37.9997 C18.0001,27.2957617 16.4691495,17.5954532 13.9201935,11.6080012 C13.6775584,11.0380557 12.9804045,10.823553 12.4593424,11.1585215 L5.45934241,15.6585215 C4.82789949,16.0644491 4.85218335,16.9954668 5.50392901,17.3679248 C6.24027266,17.7887287 6.80166977,18.359581 7.21660607,19.0510089 C7.54498264,19.5981983 7.76450537,20.1914548 7.8931798,20.7854099 C7.95866145,21.0876701 7.98859118,21.3244525 7.99761907,21.4647052 C7.22976857,28.2160222 6.88443865,34.0352631 6.89010065,39.0008403 Z M12.5213002,13.4963082 C14.688707,19.2742036 16.0001,28.1919766 16.0001,37.9997 L8.89370726,37.9997 C8.9324831,33.3144604 9.27935165,27.8736099 9.99365394,21.6130603 L9.99979008,21.4748052 C9.97742243,20.5765958 9.70217824,19.3060817 8.93150488,18.0218724 C8.60804349,17.4828734 8.21755764,16.9918807 7.75625643,16.5595506 L12.5213002,13.4963082 Z"/><path d="M32.2928932,43.7068068 L34.2928932,45.7068068 C34.6834175,46.0973311 35.3165825,46.0973311 35.7071068,45.7068068 C36.0976311,45.3162825 36.0976311,44.6831175 35.7071068,44.2925932 L33.7071068,42.2925932 C33.3165825,41.9020689 32.6834175,41.9020689 32.2928932,42.2925932 C31.9023689,42.6831175 31.9023689,43.3162825 32.2928932,43.7068068 Z"/><path d="M12.2928932,42.2925932 L10.2928932,44.2925932 C9.90236893,44.6831175 9.90236893,45.3162825 10.2928932,45.7068068 C10.6834175,46.0973311 11.3165825,46.0973311 11.7071068,45.7068068 L13.7071068,43.7068068 C14.0976311,43.3162825 14.0976311,42.6831175 13.7071068,42.2925932 C13.3165825,41.9020689 12.6834175,41.9020689 12.2928932,42.2925932 Z"/><path d="M39.9987,16.4988 L39.2915932,17.2059068 L39.9947,16.5048 L39.9987,16.4988 Z M37.0687395,18.0219724 C36.2981279,19.306079 36.0226522,20.576489 36.0000174,21.4746055 L36.0058163,21.6102315 C36.8260413,28.8040509 37.1482135,33.8673662 37.1067511,37.9666861 C37.1087019,38.2166103 37.1090185,38.3964503 37.1087802,38.7972934 C37.108714,38.9151791 37.108714,38.9151791 37.1087,38.9998 C37.1087,39.5520847 37.5564153,39.9998 38.1087,39.9998 L45.8087,39.9998 C46.384899,39.9998 46.8418871,39.5141246 46.8068495,38.9389918 C46.03594,26.284722 43.0951991,15.6154962 39.9548764,15.4324937 C39.5290928,15.4076811 39.2038392,15.6248155 39.0315691,15.9272444 C38.2122469,16.4883802 37.5624645,17.1992552 37.0687395,18.0219724 Z M39.9997,16.4998 L39.5034008,15.6316485 C39.3402734,15.7249041 39.1830245,15.8235159 39.0315691,15.9272444 C38.7919209,16.3479586 38.8483277,16.9337356 39.3419998,17.2628503 L39.4439998,17.3308503 L39.9947,16.5048 L39.9997,16.4998 Z M42.4027746,23.2635196 C43.5002557,27.2452621 44.3420889,32.4420064 44.7402449,37.9998 L39.1069241,37.9998 C39.148936,33.8060089 38.8233961,28.6781536 38.0022134,21.4647487 C38.0113086,21.324423 38.0413053,21.0877471 38.106802,20.7856966 C38.235609,20.1916778 38.4552269,19.5983565 38.7836384,19.0511089 C39.1207155,18.4894213 39.5543549,18.0073082 40.0997955,17.6205709 C40.627788,18.2330685 41.5802608,20.2793785 42.4027746,23.2635196 Z"/><path d="M6.0447966,15.4323953 C2.9051668,15.6154427 -0.0363388721,26.286245 -0.807149472,38.9388918 C-0.842187073,39.5140246 -0.385198996,39.9997 0.191,39.9997 L7.892,39.9997 C8.44544738,39.9997 8.89364273,39.5501688 8.89199557,38.9967238 C8.89170732,38.8999596 8.89170732,38.8999596 8.89144829,38.8036805 C8.89059311,38.4674196 8.89088413,38.2332234 8.89296368,37.9892224 C8.85150254,33.868492 9.17461374,28.7963095 9.99356388,21.6129732 L9.99969008,21.4748052 C9.97732243,20.5765958 9.70207824,19.3060817 8.93140488,18.0218724 C8.43762759,17.199068 7.78766125,16.4881341 6.96802028,15.9269788 C6.79568353,15.6246202 6.4704054,15.4075813 6.0447966,15.4323953 Z M7.21650607,19.0510089 C7.54488264,19.5981983 7.76440537,20.1914548 7.8930798,20.7854099 C7.95856392,21.0876815 7.98849344,21.3244704 7.99752009,21.4647211 C7.17647696,28.6827179 6.85083087,33.8121171 6.89305104,37.9908032 C6.89302358,37.9937677 1.25945742,37.9997 1.25945742,37.9997 C1.65761404,32.4422396 2.49959915,27.2455138 3.59729272,23.2634473 C4.41983125,20.2795516 5.37234787,18.2330744 5.90010086,17.6205006 C6.44572889,18.0072388 6.87944078,18.4893411 7.21650607,19.0510089 Z"/></g></g></g><text x="0" y="75" fill="#000000" font-size="5px" font-weight="bold" font-family="'Helvetica Neue', Helvetica, Arial-Unicode, Arial, Sans-serif">Created by Ben Davis</text><text x="0" y="80" fill="#000000" font-size="5px" font-weight="bold" font-family="'Helvetica Neue', Helvetica, Arial-Unicode, Arial, Sans-serif">from the Noun Project</text></svg>