<svg xmlns="http://www.w3.org/2000/svg" xmlns:xlink="http://www.w3.org/1999/xlink" viewBox="0 0 60 70" version="1.1" x="0px" y="0px"><title>41 -Winter Cap- (Outline)</title><desc>Created with Sketch.</desc><g stroke="none" stroke-width="1" fill="none" fill-rule="evenodd"><g transform="translate(-119.000000, -833.000000)" fill="#000000"><g transform="translate(119.000000, 832.000000)"><path d="M5.0001,45 C3.3461,45 2.0001,46.346 2.0001,48 L2.0001,52 C2.0001,53.654 3.3461,55 5.0001,55 L55.0001,55 C56.6541,55 58.0001,53.654 58.0001,52 L58.0001,48 C58.0001,46.346 56.6541,45 55.0001,45 L5.0001,45 Z M55.0001,57 L5.0001,57 C2.2431,57 0.0001,54.757 0.0001,52 L0.0001,48 C0.0001,45.243 2.2431,43 5.0001,43 L55.0001,43 C57.7571,43 60.0001,45.243 60.0001,48 L60.0001,52 C60.0001,54.757 57.7571,57 55.0001,57 L55.0001,57 Z"/><path d="M7.0001,43 L53.0001,43 L53.0001,33.979 C53.0001,19.654 42.6821,8 30.0001,8 C17.3181,8 7.0001,19.654 7.0001,33.979 L7.0001,43 Z M54.0001,45 L6.0001,45 C5.4481,45 5.0001,44.552 5.0001,44 L5.0001,33.979 C5.0001,18.552 16.2151,6 30.0001,6 C43.7851,6 55.0001,18.552 55.0001,33.979 L55.0001,44 C55.0001,44.552 54.5521,45 54.0001,45 L54.0001,45 Z"/><path d="M30.0001,2.9795 C28.0211,2.9795 26.3721,4.4325 26.0551,6.3325 C28.6031,5.8905 31.3971,5.8905 33.9451,6.3325 C33.6271,4.4325 31.9791,2.9795 30.0001,2.9795 M25.0151,8.5665 C24.7981,8.5665 24.5841,8.4965 24.4091,8.3615 C24.1701,8.1805 24.0261,7.9015 24.0151,7.6025 C24.0051,7.3265 24.0001,7.1205 24.0001,7.0005 C24.0001,3.6805 26.6911,0.9795 30.0001,0.9795 C33.3091,0.9795 36.0001,3.6805 36.0001,7.0005 C36.0001,7.1525 35.9931,7.3585 35.9791,7.6185 C35.9631,7.9145 35.8161,8.1875 35.5791,8.3655 C35.3411,8.5425 35.0381,8.6055 34.7491,8.5385 C31.7401,7.8245 28.2571,7.8235 25.2461,8.5395 C25.1691,8.5575 25.0921,8.5665 25.0151,8.5665"/><path d="M41.0001,24.9795 C40.4481,24.9795 40.0001,24.5315 40.0001,23.9795 C40.0001,15.1685 35.5141,8.0005 30.0001,8.0005 C24.4861,8.0005 20.0001,15.1685 20.0001,23.9795 C20.0001,24.5315 19.5521,24.9795 19.0001,24.9795 C18.4481,24.9795 18.0001,24.5315 18.0001,23.9795 C18.0001,14.0655 23.3831,6.0005 30.0001,6.0005 C36.6171,6.0005 42.0001,14.0655 42.0001,23.9795 C42.0001,24.5315 41.5521,24.9795 41.0001,24.9795"/><path d="M33.0001,51 L28.0001,51 C26.3461,51 25.0001,49.654 25.0001,48 C25.0001,47.448 25.4481,47 26.0001,47 C26.5521,47 27.0001,47.448 27.0001,48 C27.0001,48.551 27.4491,49 28.0001,49 L33.0001,49 C33.5521,49 34.0001,49.448 34.0001,50 C34.0001,50.552 33.5521,51 33.0001,51"/><path d="M28.0001,51.9795 C27.4481,51.9795 27.0001,51.5315 27.0001,50.9795 L27.0001,50.0005 C27.0001,49.4475 27.4481,49.0005 28.0001,49.0005 C28.5521,49.0005 29.0001,49.4475 29.0001,50.0005 L29.0001,50.9795 C29.0001,51.5315 28.5521,51.9795 28.0001,51.9795"/><path d="M31.0001,51.9795 C30.4481,51.9795 30.0001,51.5315 30.0001,50.9795 L30.0001,50.0005 C30.0001,49.4475 30.4481,49.0005 31.0001,49.0005 C31.5521,49.0005 32.0001,49.4475 32.0001,50.0005 L32.0001,50.9795 C32.0001,51.5315 31.5521,51.9795 31.0001,51.9795"/></g></g></g><text x="0" y="71" fill="#000000" font-size="5px" font-weight="bold" font-family="'Helvetica Neue', Helvetica, Arial-Unicode, Arial, Sans-serif">Created by Ben Davis</text><text x="0" y="76" fill="#000000" font-size="5px" font-weight="bold" font-family="'Helvetica Neue', Helvetica, Arial-Unicode, Arial, Sans-serif">from the Noun Project</text></svg>