<svg xmlns="http://www.w3.org/2000/svg" xmlns:xlink="http://www.w3.org/1999/xlink" viewBox="0 0 54 75" version="1.1" x="0px" y="0px"><title>43 -Wardrobe- (Outline)</title><desc>Created with Sketch.</desc><g stroke="none" stroke-width="1" fill="none" fill-rule="evenodd"><g transform="translate(-363.000000, -820.000000)" fill="#000000"><g transform="translate(363.000000, 820.000000)"><path d="M21,52 L13,52 C12.448,52 12,51.552 12,51 C12,50.448 12.448,50 13,50 L21,50 C21.552,50 22,50.448 22,51 C22,51.552 21.552,52 21,52"/><path d="M44,43 L36,43 C35.448,43 35,42.552 35,42 C35,41.448 35.448,41 36,41 L44,41 C44.552,41 45,41.448 45,42 C45,42.552 44.552,43 44,43"/><path d="M44,51 L36,51 C35.448,51 35,50.552 35,50 C35,49.448 35.448,49 36,49 L44,49 C44.552,49 45,49.448 45,50 C45,50.552 44.552,51 44,51"/><path d="M17,54 C16.448,54 16,53.552 16,53 L16,51 C16,50.448 16.448,50 17,50 C17.552,50 18,50.448 18,51 L18,53 C18,53.552 17.552,54 17,54"/><path d="M2,44 L16,44 L16,2 L4.521,2 C3.131,2 2,3.131 2,4.521 L2,44 Z M17,46 L1,46 C0.448,46 0,45.552 0,45 L0,4.521 C0,2.028 2.028,0 4.521,0 L17,0 C17.552,0 18,0.448 18,1 L18,45 C18,45.552 17.552,46 17,46 L17,46 Z"/><path d="M11,23 C10.448,23 10,22.552 10,22 L10,19 C10,18.448 10.448,18 11,18 C11.552,18 12,18.448 12,19 L12,22 C12,22.552 11.552,23 11,23"/><path d="M11,20 L8,20 C7.448,20 7,19.552 7,19 C7,18.448 7.448,18 8,18 L11,18 C11.552,18 12,18.448 12,19 C12,19.552 11.552,20 11,20"/><path d="M23,23 C22.448,23 22,22.552 22,22 L22,19 C22,18.448 22.448,18 23,18 C23.552,18 24,18.448 24,19 L24,22 C24,22.552 23.552,23 23,23"/><path d="M26,20 L23,20 C22.448,20 22,19.552 22,19 C22,18.448 22.448,18 23,18 L26,18 C26.552,18 27,18.448 27,19 C27,19.552 26.552,20 26,20"/><path d="M30,45 L50,45 L50,39 L30,39 L30,45 Z M51,47 L29,47 C28.448,47 28,46.552 28,46 L28,38 C28,37.448 28.448,37 29,37 L51,37 C51.552,37 52,37.448 52,38 L52,46 C52,46.552 51.552,47 51,47 L51,47 Z"/><path d="M30,53 L50,53 L50,47 L30,47 L30,53 Z M51,55 L29,55 C28.448,55 28,54.552 28,54 L28,46 C28,45.448 28.448,45 29,45 L51,45 C51.552,45 52,45.448 52,46 L52,54 C52,54.552 51.552,55 51,55 L51,55 Z"/><path d="M46.6772,58 L48.0002,58 L48.0002,55 L45.4772,55 L46.6772,58 Z M49.0002,60 L46.0002,60 C45.5912,60 45.2232,59.751 45.0712,59.372 L43.0712,54.372 C42.9482,54.063 42.9862,53.714 43.1722,53.439 C43.3582,53.165 43.6682,53 44.0002,53 L49.0002,53 C49.5522,53 50.0002,53.448 50.0002,54 L50.0002,59 C50.0002,59.552 49.5522,60 49.0002,60 L49.0002,60 Z"/><path d="M32,58 L33.323,58 L34.523,55 L32,55 L32,58 Z M34,60 L31,60 C30.448,60 30,59.552 30,59 L30,54 C30,53.448 30.448,53 31,53 L36,53 C36.332,53 36.642,53.165 36.828,53.439 C37.014,53.714 37.052,54.063 36.929,54.372 L34.929,59.372 C34.776,59.751 34.409,60 34,60 L34,60 Z"/><path d="M28,37 L52,37 L52,35 L28,35 L28,37 Z M53,39 L27,39 C26.448,39 26,38.552 26,38 L26,34 C26,33.448 26.448,33 27,33 L53,33 C53.552,33 54,33.448 54,34 L54,38 C54,38.552 53.552,39 53,39 L53,39 Z"/><path d="M31,60 L1,60 C0.448,60 0,59.552 0,59 L0,45 C0,44.448 0.448,44 1,44 L29,44 C29.552,44 30,44.448 30,45 C30,45.552 29.552,46 29,46 L2,46 L2,58 L31,58 C31.552,58 32,58.448 32,59 C32,59.552 31.552,60 31,60"/><path d="M29,46 L17,46 C16.448,46 16,45.552 16,45 L16,1 C16,0.448 16.448,0 17,0 L29.479,0 C31.972,0 34,2.028 34,4.521 L34,34 C34,34.552 33.552,35 33,35 C32.448,35 32,34.552 32,34 L32,4.521 C32,3.131 30.869,2 29.479,2 L18,2 L18,44 L29,44 C29.552,44 30,44.448 30,45 C30,45.552 29.552,46 29,46"/></g></g></g><text x="0" y="75" fill="#000000" font-size="5px" font-weight="bold" font-family="'Helvetica Neue', Helvetica, Arial-Unicode, Arial, Sans-serif">Created by Ben Davis</text><text x="0" y="80" fill="#000000" font-size="5px" font-weight="bold" font-family="'Helvetica Neue', Helvetica, Arial-Unicode, Arial, Sans-serif">from the Noun Project</text></svg>