<svg xmlns="http://www.w3.org/2000/svg" xmlns:xlink="http://www.w3.org/1999/xlink" version="1.1" x="0px" y="0px" viewBox="0 0 54 68.75" enable-background="new 0 0 54 55" xml:space="preserve"><path d="M54,10c0-5.51-4.49-10-10-10c-4.47,0-8.26,2.95-9.54,7H5.24C2.35,7,0,9.35,0,12.24v37.53C0,52.65,2.35,55,5.24,55h37.53  c2.89,0,5.24-2.35,5.24-5.24V19.16C51.53,17.61,54,14.09,54,10z M46,49.76c0,1.78-1.45,3.24-3.24,3.24H5.24C3.45,53,2,51.55,2,49.76  V12.24C2,10.45,3.45,9,5.24,9h28.82C34.02,9.33,34,9.66,34,10c0,5.51,4.49,10,10,10c0.68,0,1.35-0.07,2-0.2V49.76z M46.65,17.54  c-0.2,0.07-0.4,0.13-0.6,0.18c-0.04,0.01-0.07,0.02-0.11,0.03c-0.18,0.05-0.36,0.08-0.53,0.12c-0.09,0.02-0.19,0.03-0.28,0.04  c-0.13,0.02-0.27,0.04-0.4,0.05C44.49,17.98,44.25,18,44,18c-4.41,0-8-3.59-8-8c0-0.58,0.07-1.18,0.21-1.78C37.02,4.67,40.2,2,44,2  c4.41,0,8,3.59,8,8C52,13.48,49.76,16.44,46.65,17.54z"/><text x="0" y="70" fill="#000000" font-size="5px" font-weight="bold" font-family="'Helvetica Neue', Helvetica, Arial-Unicode, Arial, Sans-serif">Created by Ben Davis</text><text x="0" y="75" fill="#000000" font-size="5px" font-weight="bold" font-family="'Helvetica Neue', Helvetica, Arial-Unicode, Arial, Sans-serif">from the Noun Project</text></svg>