<svg xmlns="http://www.w3.org/2000/svg" xmlns:xlink="http://www.w3.org/1999/xlink" viewBox="0 0 60 61.25" version="1.1" x="0px" y="0px"><title>4 -Shirt- (Outline)</title><desc>Created with Sketch.</desc><g stroke="none" stroke-width="1" fill="none" fill-rule="evenodd"><g transform="translate(-480.000000, -352.000000)" fill="#000000"><g transform="translate(481.000000, 353.000000)"><path d="M30,15.9997 C30,16.5517 29.552,16.9997 29,16.9997 C28.448,16.9997 28,16.5517 28,15.9997 C28,15.4477 28.448,14.9997 29,14.9997 C29.552,14.9997 30,15.4477 30,15.9997"/><path d="M30,22.9997 C30,23.5517 29.552,23.9997 29,23.9997 C28.448,23.9997 28,23.5517 28,22.9997 C28,22.4477 28.448,21.9997 29,21.9997 C29.552,21.9997 30,22.4477 30,22.9997"/><path d="M30,29.9997 C30,30.5517 29.552,30.9997 29,30.9997 C28.448,30.9997 28,30.5517 28,29.9997 C28,29.4477 28.448,28.9997 29,28.9997 C29.552,28.9997 30,29.4477 30,29.9997"/><path d="M30,36.9997 C30,37.5517 29.552,37.9997 29,37.9997 C28.448,37.9997 28,37.5517 28,36.9997 C28,36.4477 28.448,35.9997 29,35.9997 C29.552,35.9997 30,36.4477 30,36.9997"/><path d="M34,30 L40,30 C40.5522847,30 41,29.5522847 41,29 L41,21 C41,20.4477153 40.5522847,20 40,20 L34,20 C33.4477153,20 33,20.4477153 33,21 L33,29 C33,29.5522847 33.4477153,30 34,30 Z M35,28 L35,22 L39,22 L39,28 L35,28 Z"/><path d="M24.4457584,1.79747472 C25.6175739,1.2952846 27.2483246,0.9997 29.0016,0.9997 C30.7548754,0.9997 32.3856261,1.2952846 33.5574416,1.79747472 C34.2827897,2.10832793 34.7270452,2.44919384 34.9078339,2.73112613 L29.0016,9.48110774 L23.0953661,2.73112613 C23.2761548,2.44919384 23.7204103,2.10832793 24.4457584,1.79747472 Z M21.0016,2.9997 C21.0016,3.24192315 21.0895182,3.47591311 21.2490233,3.65820461 L28.2490233,11.6582046 C28.6474346,12.1135318 29.3557654,12.1135318 29.7541767,11.6582046 L36.7541767,3.65820461 C36.9136818,3.47591311 37.0016,3.24192315 37.0016,2.9997 C37.0016,0.558783514 33.3636188,-1.0003 29.0016,-1.0003 C24.6395812,-1.0003 21.0016,0.558783514 21.0016,2.9997 Z"/><path d="M33.1149413,7.81720617 L36.4553593,3.9997 L38.3020855,3.9997 L34.876378,10.1659735 L33.1149413,7.81720617 Z M34.2015773,12.5996697 C34.636271,13.179307 35.5238963,13.1186927 35.8757573,12.4853429 L40.8757573,3.48534293 C41.2460524,2.81881174 40.7640843,1.9997 40.0016,1.9997 L36.0016,1.9997 C35.7132426,1.9997 35.438921,2.12417598 35.2490331,2.34118422 L31.0760331,7.11018422 C30.7648745,7.46578338 30.7450826,7.99064703 31.0285773,8.36866975 L34.2015773,12.5996697 Z"/><path d="M23.8016227,12.5996697 L26.9746227,8.36866975 C27.2581174,7.99064703 27.2383255,7.46578338 26.9271669,7.11018422 L22.7541669,2.34118422 C22.564279,2.12417598 22.2899574,1.9997 22.0016,1.9997 L18.0016,1.9997 C17.2391157,1.9997 16.7571476,2.81881174 17.1274427,3.48534293 L22.1274427,12.4853429 C22.4793037,13.1186927 23.366929,13.179307 23.8016227,12.5996697 Z M19.7011145,3.9997 L21.5478407,3.9997 L24.8882587,7.81720617 L23.126822,10.1659735 L19.7011145,3.9997 Z"/><path d="M43.9769349,3.35333114 C42.9356092,2.47890772 41.6209047,2 40.2617,2 L36.0017,2 C35.7133374,2 35.4390114,2.12448043 35.2491233,2.34149539 L29.0017,9.48140774 L22.7542767,2.34149539 C22.5643886,2.12448043 22.2900626,2 22.0017,2 L17.7407,2 C16.3818998,2 15.0661118,2.47930243 14.0261949,3.35355821 C13.519241,3.77944781 13.08974,4.28904072 12.7559873,4.86101544 L-0.67983922,27.8687183 C-1.33533813,28.9914345 -0.952180292,30.4339428 0.173668102,31.084007 L3.03962881,32.7389843 C4.15641799,33.3836208 5.58349677,33.0072248 6.23680785,31.8957248 L13.0014093,20.3777894 L12.9997,41.9999209 C12.9996693,42.3884626 13.224701,42.7418499 13.5767857,42.9061697 L20.4697857,46.1231697 C25.8768867,48.646273 32.1235655,48.646273 37.5296241,46.1231651 L44.4226143,42.9061697 C44.7746472,42.7418741 44.9996693,42.3885636 44.9997,42.0000791 L45.0014121,20.3422042 L51.8308622,31.8435673 C52.486114,32.9484337 53.9086328,33.3197825 55.0217744,32.6769825 L57.7566874,31.0980327 C58.9586425,30.404533 59.3652028,28.8640466 58.6618194,27.6672947 L45.2464928,4.85943951 C44.9128709,4.28810466 44.4836932,3.77905642 43.9769349,3.35333114 Z M36.6837857,44.3108303 C31.8138345,46.583727 26.1865133,46.583727 21.3155565,44.3108033 L14.9997503,41.3631828 L15.0017,16.7000791 C15.0017806,15.6808681 13.6555738,15.3147247 13.1394174,16.1935726 L4.51241739,30.8825726 C4.41591267,31.0467592 4.20499814,31.1023885 4.03961739,31.0069269 L1.17377119,29.3520157 C1.00750075,29.2560113 0.950784411,29.0424862 1.04728429,28.8772045 L14.4832392,5.86928168 C14.701282,5.495607 14.9815837,5.16303554 15.3129349,4.88466886 C15.9926038,4.31327289 16.8526051,4 17.7407,4 L21.5479318,4 L28.2491233,11.6585046 C28.6475346,12.1138318 29.3558654,12.1138318 29.7542767,11.6585046 L36.4554682,4 L40.2617,4 C41.1503903,4 42.0097104,4.31302476 42.6906331,4.88480999 C43.0218163,5.16303554 43.302118,5.495607 43.5199873,5.86898456 L56.9377483,28.6809904 C57.0781,28.919788 56.9969237,29.2273711 56.7569429,29.3658344 L54.0217126,30.9449673 C53.8567469,31.0402292 53.6472741,30.9855462 53.5508152,30.8229001 L44.8615378,16.1894327 C44.3424998,15.3153294 43.0017804,15.68333 43.0017,16.6999209 L42.9997503,41.3631358 L36.6837857,44.3108303 Z"/><path d="M55.0209441,32.6778308 L57.7573877,31.0975747 C58.9592623,30.4041215 59.3647915,28.8636274 58.6614194,27.6668947 L56.8913078,24.656705 C56.6044016,24.1688024 55.9701037,24.0160548 55.4925427,24.3198633 L50.4105427,27.5528633 C49.9546897,27.8428619 49.8116091,28.442506 50.0874131,28.9070846 L51.8303143,31.8429181 C52.4856282,32.9476218 53.9086107,33.3194275 55.0209441,32.6778308 Z M55.6922517,26.5632228 L56.9372922,28.680495 C57.0779739,28.919854 56.9970554,29.2272414 56.7575429,29.3654344 L54.0212123,30.9456253 C53.8574588,31.0400785 53.6468041,30.9850283 53.5504152,30.8225001 L52.3021656,28.7198833 L55.6922517,26.5632228 Z"/><path d="M1.14881123,24.7374032 L-0.679188767,27.8684032 C-1.33554742,28.9913508 -0.952940472,30.4332771 0.173368102,31.083607 L3.04045964,32.7386598 C4.15603052,33.3835995 5.5850119,33.0067016 6.23709797,31.8943195 L8.19360691,28.5641563 C8.48217012,28.0729942 8.30274884,27.4403559 7.79929535,27.1738161 L2.48029535,24.3578161 C2.00647248,24.1069635 1.41912618,24.2744075 1.14881123,24.7374032 Z M5.93969583,28.4522984 L4.51219309,30.8820437 C4.4159804,31.0461703 4.20509888,31.1017909 4.04090295,31.0068652 L1.17334036,29.3515402 C1.00707885,29.2555409 0.950732752,29.04319 1.04774165,28.8772198 L2.39231482,26.5742339 L5.93969583,28.4522984 Z"/></g></g></g><text x="0" y="64" fill="#000000" font-size="5px" font-weight="bold" font-family="'Helvetica Neue', Helvetica, Arial-Unicode, Arial, Sans-serif">Created by Ben Davis</text><text x="0" y="69" fill="#000000" font-size="5px" font-weight="bold" font-family="'Helvetica Neue', Helvetica, Arial-Unicode, Arial, Sans-serif">from the Noun Project</text></svg>