<svg xmlns="http://www.w3.org/2000/svg" xmlns:xlink="http://www.w3.org/1999/xlink" version="1.1" x="0px" y="0px" viewBox="0 0 60 75" style="enable-background:new 0 0 60 60;" xml:space="preserve"><title>2 -Man Socks- (Outline)</title><desc>Created with Sketch.</desc><g><g transform="translate(-241.000000, -352.000000)"><g transform="translate(241.000000, 352.000000)"><path d="M26,10V8h18v2H26z M45,12c0.6,0,1-0.4,1-1V7c0-0.6-0.4-1-1-1H25c-0.6,0-1,0.4-1,1v4c0,0.6,0.4,1,1,1H45z     "/><path d="M34.4,45.1c1.3-0.9,2.9-1.4,4.6-1.4c0.8,0,1.6-0.1,2.3-0.3c4.1-1,7.1-4.5,7.6-8.6     c0.3-2.5-0.4-4.8-1.7-6.8c-0.8-1.1-1.2-2.3-1.2-3.6V1c0-0.6-0.4-1-1-1H25c-0.6,0-1,0.4-1,1v22.6c0,2.9-1.4,5.6-3.7,7.3L3.6,43     c-3.9,3.9-4,9.9-0.4,13.8C7,60.9,13.4,61,17.4,57.1L34.4,45.1z M21.5,32.5c2.8-2.1,4.5-5.4,4.5-8.9V2h18v22.4     c0,1.6,0.6,3.3,1.6,4.7c1.1,1.6,1.6,3.5,1.4,5.4c-0.3,3.3-2.8,6.1-6.1,6.9c-0.6,0.2-1.2,0.2-1.9,0.2c-2.2,0-4.2,0.6-5.8,1.8     l-17,12.1l-0.1,0.1c-3.2,3.2-8.3,3.1-11.4-0.2c-2.9-3.1-2.8-7.9,0.1-10.9L21.5,32.5z"/><path d="M28,1v2c0,0.6,0.4,1,1,1s1-0.4,1-1V1c0-0.6-0.4-1-1-1S28,0.4,28,1z"/><path d="M32,1v2c0,0.6,0.4,1,1,1s1-0.4,1-1V1c0-0.6-0.4-1-1-1S32,0.4,32,1z"/><path d="M36,1v2c0,0.6,0.4,1,1,1s1-0.4,1-1V1c0-0.6-0.4-1-1-1S36,0.4,36,1z"/><path d="M33,36c0,3,1.3,5.8,3.6,7.6c0.2,0.2,0.5,0.3,0.8,0.2c0.6-0.1,1.1-0.2,1.6-0.2c0.8,0,1.6-0.1,2.3-0.3     c4.1-1,7.1-4.5,7.6-8.6c0.3-2.5-0.4-4.8-1.7-6.8c-0.2-0.3-0.4-0.6-0.6-1c-0.1-0.2-0.3-0.4-0.6-0.5c-1-0.3-2-0.5-3-0.5     C37.5,26,33,30.5,33,36z M45.6,29.1c1.1,1.6,1.6,3.5,1.4,5.4c-0.3,3.3-2.8,6.1-6.1,6.9c-0.6,0.2-1.2,0.2-1.9,0.2     c-0.5,0-1,0-1.5,0.1C35.9,40.3,35,38.2,35,36c0-4.4,3.6-8,8-8c0.7,0,1.4,0.1,2,0.3C45.2,28.6,45.4,28.8,45.6,29.1z"/><path d="M3.3,43.3c-3.6,3.8-3.6,9.7-0.1,13.6c3.5,3.7,9.3,4.2,13.3,1.1c0.2-0.2,0.4-0.4,0.4-0.7     c0-0.4,0.1-0.8,0.1-1.2c0-7.2-5.8-13-12.9-13C3.8,43,3.5,43.1,3.3,43.3z M15,56c0,0.2,0,0.4,0,0.6c-3.2,2.2-7.6,1.8-10.2-1.1     C2,52.5,1.9,48,4.5,45C10.3,45.3,15,50.1,15,56z"/><path d="M40,1v2c0,0.6,0.4,1,1,1s1-0.4,1-1V1c0-0.6-0.4-1-1-1S40,0.4,40,1z"/><path d="M47,1v2c0,0.6,0.4,1,1,1s1-0.4,1-1V1c0-0.6-0.4-1-1-1S47,0.4,47,1z"/><path d="M51,1v2c0,0.6,0.4,1,1,1s1-0.4,1-1V1c0-0.6-0.4-1-1-1S51,0.4,51,1z"/><path d="M45.4,45.1c1.3-0.9,2.9-1.4,4.6-1.4c0.8,0,1.6-0.1,2.3-0.3c4.1-1,7.1-4.5,7.6-8.6     c0.3-2.5-0.4-4.8-1.7-6.8c-0.8-1.1-1.2-2.3-1.2-3.6V1c0-0.6-0.4-1-1-1H45c-0.6,0-1,0.4-1,1v23.4c0,1.6,0.6,3.3,1.6,4.7     c1.1,1.6,1.6,3.5,1.4,5.4c-0.3,3.3-2.8,6.1-6.1,6.9c-0.6,0.2-1.2,0.2-1.9,0.2c-2.1,0-4.2,0.6-5.8,1.8l-17,12.1l-0.1,0.1     c-0.2,0.2-0.4,0.4-0.7,0.6c-0.5,0.4-0.5,1.2,0,1.6c3.9,3.1,9.5,2.8,13.1-0.7L45.4,45.1z M17.7,57c-0.2-0.1,16.7-11.9,16.7-11.9     c1.3-0.9,2.9-1.4,4.6-1.4c0.8,0,1.6-0.1,2.3-0.3c4.1-1,7.1-4.5,7.6-8.6c0.3-2.5-0.4-4.8-1.7-6.8c-0.8-1.1-1.2-2.3-1.2-3.6V2h9     v22.4c0,1.6,0.6,3.3,1.6,4.7c1.1,1.6,1.6,3.5,1.4,5.4c-0.3,3.3-2.8,6.1-6.1,6.9c-0.6,0.2-1.2,0.2-1.9,0.2c-2.1,0-4.2,0.6-5.8,1.8     l-17,12.1l-0.1,0.1C24.5,58.2,20.7,58.7,17.7,57z"/><path d="M16.1,55.7c-0.2,0.2-0.4,0.4-0.7,0.6c-0.5,0.4-0.5,1.2,0,1.6c3.6,2.8,8.6,2.8,12.2,0.1     c0.2-0.2,0.4-0.4,0.4-0.7c0-0.4,0.1-0.8,0.1-1.2c0-2.2-0.6-4.4-1.6-6.3c-0.3-0.5-1-0.7-1.5-0.3l-8.7,6.2L16.1,55.7z M25.1,51.7     C25.7,53,26,54.5,26,56c0,0.2,0,0.4,0,0.6c-2.5,1.7-5.7,1.8-8.3,0.4C17.4,56.8,25.1,51.7,25.1,51.7z"/><path d="M45,12h11c0.6,0,1-0.4,1-1V7c0-0.6-0.4-1-1-1H45c-0.6,0-1,0.4-1,1v4C44,11.5,44.4,12,45,12z M46,10V8h9     v2H46z"/><path d="M57.6,27c-0.1-0.2-0.3-0.4-0.6-0.5c-1-0.3-2-0.5-3-0.5c-2.9,0-5.6,1.3-7.5,3.3c-0.3,0.3-0.3,0.7-0.2,1.1     c0.6,1.3,0.8,2.6,0.6,4c-0.2,1.6-0.9,3-1.9,4.3c-0.3,0.3-0.3,0.7-0.2,1.1c0.6,1.4,1.6,2.6,2.7,3.6c0.2,0.2,0.5,0.3,0.8,0.2     c0.6-0.1,1.1-0.2,1.6-0.2c0.8,0,1.6-0.1,2.3-0.3c4.1-1,7.1-4.4,7.6-8.4c0.3-2.4-0.4-4.7-1.7-6.6C58,27.7,57.8,27.4,57.6,27z      M46.9,39.3c1.1-1.4,1.8-3.1,2-4.9c0.2-1.5,0-3-0.5-4.4c1.5-1.5,3.5-2.2,5.6-2.2c0.7,0,1.4,0.1,2,0.3c0.2,0.3,0.3,0.6,0.5,0.9     c1.1,1.6,1.6,3.4,1.4,5.3c-0.3,3.2-2.8,5.9-6.1,6.7c-0.6,0.2-1.2,0.2-1.9,0.2c-0.5,0-1,0-1.5,0.1C47.9,40.8,47.3,40.1,46.9,39.3z     "/></g></g></g><text x="0" y="75" fill="#000000" font-size="5px" font-weight="bold" font-family="'Helvetica Neue', Helvetica, Arial-Unicode, Arial, Sans-serif">Created by Ben Davis</text><text x="0" y="80" fill="#000000" font-size="5px" font-weight="bold" font-family="'Helvetica Neue', Helvetica, Arial-Unicode, Arial, Sans-serif">from the Noun Project</text></svg>