<svg xmlns="http://www.w3.org/2000/svg" xmlns:xlink="http://www.w3.org/1999/xlink" viewBox="0 0 60 27.5" version="1.1" x="0px" y="0px"><title>38 -Belt- (Outline)</title><desc>Created with Sketch.</desc><g stroke="none" stroke-width="1" fill="none" fill-rule="evenodd"><g transform="translate(-959.000000, -730.000000)" fill="#000000"><g transform="translate(959.000000, 730.000000)"><path d="M7.0001,11 C7.0001,11.552 7.4471,12 8.0001,12 C8.5531,12 9.0001,11.552 9.0001,11 C9.0001,10.448 8.5531,10 8.0001,10 C7.4471,10 7.0001,10.448 7.0001,11"/><path d="M17.0001,20 L38.0001,20 C39.3041,20 40.4161,19.164 40.8291,18 L22.0001,18 C21.4471,18 21.0001,17.552 21.0001,17 L21.0001,5 C21.0001,4.448 21.4471,4 22.0001,4 L40.8291,4 C40.4161,2.836 39.3041,2 38.0001,2 L17.0001,2 L17.0001,20 Z M38.0001,22 L16.0001,22 C15.4471,22 15.0001,21.552 15.0001,21 L15.0001,1 C15.0001,0.448 15.4471,0 16.0001,0 L38.0001,0 C40.7571,0 43.0001,2.243 43.0001,5 C43.0001,5.552 42.5531,6 42.0001,6 L23.0001,6 L23.0001,16 L42.0001,16 C42.5531,16 43.0001,16.448 43.0001,17 C43.0001,19.757 40.7571,22 38.0001,22 L38.0001,22 Z"/><path d="M3.0001,6 C2.4481,6 2.0001,6.449 2.0001,7 L2.0001,15 C2.0001,15.551 2.4481,16 3.0001,16 L15.0001,16 L15.0001,6 L3.0001,6 Z M16.0001,18 L3.0001,18 C1.3461,18 0.0001,16.654 0.0001,15 L0.0001,7 C0.0001,5.346 1.3461,4 3.0001,4 L16.0001,4 C16.5531,4 17.0001,4.448 17.0001,5 L17.0001,17 C17.0001,17.552 16.5531,18 16.0001,18 L16.0001,18 Z"/><path d="M23.0001,16 L53.0001,16 C55.7571,16 58.0001,13.757 58.0001,11 C58.0001,8.243 55.7571,6 53.0001,6 L23.0001,6 L23.0001,16 Z M53.0001,18 L22.0001,18 C21.4471,18 21.0001,17.552 21.0001,17 L21.0001,5 C21.0001,4.448 21.4471,4 22.0001,4 L53.0001,4 C56.8591,4 60.0001,7.14 60.0001,11 C60.0001,14.86 56.8591,18 53.0001,18 L53.0001,18 Z"/><path d="M33.0001,12 L20.0001,12 C19.4471,12 19.0001,11.552 19.0001,11 C19.0001,10.448 19.4471,10 20.0001,10 L33.0001,10 C33.5531,10 34.0001,10.448 34.0001,11 C34.0001,11.552 33.5531,12 33.0001,12"/></g></g></g><text x="0" y="37" fill="#000000" font-size="5px" font-weight="bold" font-family="'Helvetica Neue', Helvetica, Arial-Unicode, Arial, Sans-serif">Created by Ben Davis</text><text x="0" y="42" fill="#000000" font-size="5px" font-weight="bold" font-family="'Helvetica Neue', Helvetica, Arial-Unicode, Arial, Sans-serif">from the Noun Project</text></svg>