<svg xmlns="http://www.w3.org/2000/svg" xmlns:xlink="http://www.w3.org/1999/xlink" viewBox="0 0 60 75" version="1.1" x="0px" y="0px"><title>71 -Shirt- (Outline)</title><desc>Created with Sketch.</desc><g stroke="none" stroke-width="1" fill="none" fill-rule="evenodd"><g transform="translate(-120.000000, -1187.000000)" fill="#000000"><g transform="translate(120.000000, 1187.000000)"><path d="M38.9968,21 C38.4448,21 37.9968,20.553 37.9968,20 C37.9968,18.346 36.6508,17 34.9968,17 C34.4448,17 33.9968,16.553 33.9968,16 C33.9968,15.447 34.4448,15 34.9968,15 C36.6308,15 38.0838,15.788 38.9968,17.003 C39.9098,15.788 41.3628,15 42.9968,15 C43.5488,15 43.9968,15.447 43.9968,16 C43.9968,16.553 43.5488,17 42.9968,17 C41.3428,17 39.9968,18.346 39.9968,20 C39.9968,20.553 39.5488,21 38.9968,21"/><path d="M51.3577,51.3086 C50.9227,51.3086 50.5227,51.0226 50.3967,50.5826 C50.2447,50.0516 50.5527,49.4986 51.0837,49.3466 L58.0277,47.3636 C58.5577,47.2176 59.1117,47.5196 59.2637,48.0506 C59.4157,48.5816 59.1077,49.1346 58.5767,49.2876 L51.6327,51.2706 C51.5417,51.2956 51.4487,51.3086 51.3577,51.3086"/><path d="M8.6301,51.3203 C8.5391,51.3203 8.4461,51.3073 8.3551,51.2823 L1.4121,49.2993 C0.8811,49.1463 0.5731,48.5933 0.7251,48.0623 C0.8771,47.5313 1.4291,47.2293 1.9621,47.3753 L8.9041,49.3583 C9.4351,49.5103 9.7431,50.0633 9.5911,50.5943 C9.4651,51.0343 9.0651,51.3203 8.6301,51.3203"/><path d="M22.7102,5.2891 C22.4542,5.2891 22.1982,5.1911 22.0022,4.9961 C21.6122,4.6051 21.6122,3.9721 22.0032,3.5821 L23.1772,2.4081 L23.4182,1.9251 C24.0102,0.7371 25.2022,0.0001 26.5292,0.0001 L33.4662,0.0001 C34.7922,0.0001 35.9832,0.7361 36.5762,1.9221 L36.8182,2.4081 L37.9912,3.5811 C38.3822,3.9721 38.3822,4.6041 37.9912,4.9951 C37.6012,5.3861 36.9682,5.3861 36.5772,4.9951 L35.2922,3.7091 C35.2152,3.6331 35.1502,3.5431 35.1022,3.4471 L34.7872,2.8161 C34.5352,2.3121 34.0292,2.0001 33.4662,2.0001 L26.5292,2.0001 C25.9652,2.0001 25.4602,2.3131 25.2082,2.8171 L24.8952,3.4461 C24.8462,3.5431 24.7832,3.6311 24.7072,3.7071 L23.4172,4.9961 C23.2222,5.1911 22.9662,5.2891 22.7102,5.2891"/><path d="M12.9817,10.8125 L12.9817,10.8135 L12.9817,10.8125 Z M14.9987,25.3325 C15.0417,25.3325 15.0847,25.3345 15.1287,25.3405 C15.6267,25.4055 15.9997,25.8305 15.9997,26.3325 L15.9997,55.0005 C15.9997,56.6545 17.3447,58.0005 18.9997,58.0005 L40.9967,58.0005 C42.6507,58.0005 43.9967,56.6545 43.9967,55.0005 L43.9967,26.3335 C43.9967,25.8315 44.3697,25.4065 44.8677,25.3415 C45.3697,25.2735 45.8347,25.5915 45.9637,26.0765 L52.8997,52.2175 C52.9697,52.5035 53.1367,52.7265 53.3747,52.8655 C53.6117,53.0025 53.8877,53.0355 54.1507,52.9615 L57.2717,52.0705 C57.7897,51.9225 58.1007,51.3765 57.9637,50.8555 L47.0327,11.2665 C47.0097,11.1835 46.9987,11.0995 46.9967,11.0145 C46.8937,10.7885 45.9097,9.1245 38.7087,6.9585 C38.5507,6.9105 38.4067,6.8245 38.2897,6.7075 L37.5167,5.9345 C35.8697,8.4415 33.0487,10.0005 29.9967,10.0005 C26.9457,10.0005 24.1247,8.4415 22.4777,5.9355 L21.7067,6.7075 C21.5897,6.8245 21.4457,6.9105 21.2877,6.9585 C14.0867,9.1245 13.1027,10.7885 12.9997,11.0145 C12.9977,11.1235 12.9787,11.2305 12.9427,11.3325 L2.0277,50.8675 C1.8947,51.3765 2.2057,51.9215 2.7247,52.0695 L5.8447,52.9605 C6.1067,53.0385 6.3837,53.0025 6.6207,52.8645 C6.8577,52.7265 7.0247,52.5025 7.0907,52.2365 L14.0327,26.0755 C14.1497,25.6325 14.5507,25.3325 14.9987,25.3325 L14.9987,25.3325 Z M40.9967,60.0005 L18.9997,60.0005 C16.2427,60.0005 13.9997,57.7565 13.9997,55.0005 L13.9997,33.9995 L9.0277,52.7305 C8.8377,53.5105 8.3377,54.1795 7.6257,54.5935 C6.9137,55.0055 6.0857,55.1105 5.2947,54.8845 L2.1747,53.9935 C0.6187,53.5475 -0.3133,51.9135 0.0967,50.3475 L10.9907,10.8855 C11.0097,9.6785 12.4687,7.5555 20.4697,5.1155 L22.0027,3.5825 C22.2347,3.3495 22.5637,3.2425 22.8897,3.3055 C23.2127,3.3645 23.4857,3.5785 23.6217,3.8765 C24.7537,6.3815 27.2557,7.9995 29.9967,7.9995 C32.7377,7.9995 35.2407,6.3805 36.3737,3.8755 C36.5087,3.5775 36.7817,3.3635 37.1047,3.3045 C37.4307,3.2425 37.7597,3.3485 37.9917,3.5815 L39.5267,5.1155 C47.5467,7.5615 48.9937,9.6895 49.0047,10.8945 L59.8947,50.3345 C60.3087,51.9135 59.3767,53.5485 57.8207,53.9945 L54.7007,54.8845 C53.9107,55.1105 53.0827,55.0075 52.3697,54.5945 C51.6577,54.1805 51.1577,53.5125 50.9617,52.7115 L45.9967,34.0005 L45.9967,55.0005 C45.9967,57.7565 43.7537,60.0005 40.9967,60.0005 L40.9967,60.0005 Z"/><path d="M29.9968,60 C29.4448,60 28.9968,59.553 28.9968,59 L28.9968,9 C28.9968,8.447 29.4448,8 29.9968,8 C30.5488,8 30.9968,8.447 30.9968,9 L30.9968,59 C30.9968,59.553 30.5488,60 29.9968,60"/></g></g></g><text x="0" y="75" fill="#000000" font-size="5px" font-weight="bold" font-family="'Helvetica Neue', Helvetica, Arial-Unicode, Arial, Sans-serif">Created by Ben Davis</text><text x="0" y="80" fill="#000000" font-size="5px" font-weight="bold" font-family="'Helvetica Neue', Helvetica, Arial-Unicode, Arial, Sans-serif">from the Noun Project</text></svg>