<svg xmlns="http://www.w3.org/2000/svg" xmlns:xlink="http://www.w3.org/1999/xlink" viewBox="0 0 28 75" version="1.1" x="0px" y="0px"><title>9 -Man Tie- (Outline)</title><desc>Created with Sketch.</desc><g stroke="none" stroke-width="1" fill="none" fill-rule="evenodd"><g transform="translate(-1095.000000, -351.000000)" fill="#000000"><g transform="translate(1095.000000, 351.000000)"><path d="M10.9435,6 L14.0005,10.279 L17.0565,6 L10.9435,6 Z M14.0005,13 C13.6765,13 13.3745,12.844 13.1865,12.581 L8.1865,5.581 C7.9685,5.276 7.9395,4.875 8.1105,4.542 C8.2825,4.209 8.6255,4 9.0005,4 L19.0005,4 C19.3755,4 19.7175,4.209 19.8895,4.542 C20.0605,4.875 20.0315,5.276 19.8135,5.581 L14.8135,12.581 C14.6265,12.844 14.3235,13 14.0005,13 L14.0005,13 Z"/><path d="M10.0099,52.6494 L13.9999,57.4384 L17.9899,52.6494 L17.0129,15.5094 L13.9999,13.2504 L10.9879,15.5094 L10.0099,52.6494 Z M13.9999,60.0004 C13.7029,60.0004 13.4219,59.8684 13.2319,59.6404 L8.2319,53.6404 C8.0759,53.4534 7.9939,53.2164 7.9999,52.9734 L8.9999,14.9734 C9.0089,14.6684 9.1559,14.3834 9.4009,14.2004 L13.4009,11.2004 C13.7559,10.9334 14.2439,10.9334 14.5999,11.2004 L18.5999,14.2004 C18.8449,14.3834 18.9909,14.6684 18.9999,14.9734 L19.9999,52.9734 C20.0059,53.2164 19.9239,53.4534 19.7689,53.6404 L14.7689,59.6404 C14.5779,59.8684 14.2969,60.0004 13.9999,60.0004 L13.9999,60.0004 Z"/><path d="M19.254,4.0327 C19.525,4.1037 19.758,4.2867 19.89,4.5427 C20.011,4.7787 20.031,5.0487 19.956,5.2937 L24.621,3.7387 L22.028,2.1827 L19.254,4.0327 Z M17.438,8.1877 C17.126,8.1877 16.825,8.0417 16.633,7.7817 C16.376,7.4327 16.372,6.9587 16.624,6.6067 L17.057,5.9997 L16,5.9997 C15.56,5.9997 15.171,5.7117 15.043,5.2897 C14.915,4.8677 15.079,4.4127 15.445,4.1677 L21.445,0.1677 C21.767,-0.0473 22.182,-0.0563 22.515,0.1427 L27.515,3.1427 C27.85,3.3437 28.037,3.7207 27.994,4.1087 C27.951,4.4967 27.687,4.8247 27.317,4.9487 L17.754,8.1367 C17.65,8.1707 17.543,8.1877 17.438,8.1877 L17.438,8.1877 Z"/><path d="M3.379,3.7388 L8.044,5.2938 C7.969,5.0488 7.989,4.7788 8.11,4.5428 C8.242,4.2868 8.476,4.1038 8.746,4.0328 L5.972,2.1828 L3.379,3.7388 Z M10.563,8.1878 C10.457,8.1878 10.351,8.1708 10.246,8.1358 L0.684,4.9488 C0.314,4.8248 0.049,4.4968 0.006,4.1088 C-0.037,3.7208 0.15,3.3428 0.485,3.1428 L5.485,0.1428 C5.817,-0.0562 6.232,-0.0472 6.555,0.1678 L12.555,4.1678 C12.921,4.4128 13.085,4.8678 12.957,5.2898 C12.829,5.7118 12.441,5.9998 12,5.9998 L10.943,5.9998 L11.376,6.6068 C11.628,6.9588 11.624,7.4328 11.367,7.7818 C11.175,8.0418 10.874,8.1878 10.563,8.1878 L10.563,8.1878 Z"/></g></g></g><text x="0" y="75" fill="#000000" font-size="5px" font-weight="bold" font-family="'Helvetica Neue', Helvetica, Arial-Unicode, Arial, Sans-serif">Created by Ben Davis</text><text x="0" y="80" fill="#000000" font-size="5px" font-weight="bold" font-family="'Helvetica Neue', Helvetica, Arial-Unicode, Arial, Sans-serif">from the Noun Project</text></svg>