<svg xmlns="http://www.w3.org/2000/svg" xmlns:xlink="http://www.w3.org/1999/xlink" viewBox="0 0 34 75" version="1.1" x="0px" y="0px"><title>48 -Jarsey- (Outline)</title><desc>Created with Sketch.</desc><g stroke="none" stroke-width="1" fill="none" fill-rule="evenodd"><g transform="translate(-974.000000, -827.000000)" fill="#000000"><g transform="translate(975.000000, 828.000000)"><path d="M6.98287219,15.8154115 L3.98287219,-0.184588535 C3.76298827,-1.35730278 2.04404225,-1.22901983 2.00066119,-0.0366584241 C1.99505079,0.117547561 1.98317661,0.409218334 1.96448231,0.81866364 C1.93326314,1.50243011 1.89411008,2.26467526 1.84647181,3.08567752 C1.71042253,5.43036316 1.53381348,7.77458046 1.3124722,9.95940205 C1.05775863,12.4736356 0.759708914,14.6102018 0.417817219,16.2420297 C0.0636292749,17.9325468 -0.349160754,19.0201401 -0.581370146,19.1860608 C-1.3728426,19.7515921 -0.972756046,20.9997 0,20.9997 C3.07284015,20.9997 7,18.6772638 7,15.9997 L6.98287219,15.8154115 Z M1.86482796,18.6488304 C2.47372518,16.8247637 2.91501716,13.9836621 3.30228709,10.1609875 C3.37139316,9.47885345 3.43615344,8.78204151 3.49670787,8.07508218 L4.99676652,16.0753949 C4.91905527,16.9940457 3.4523049,18.0968966 1.86482796,18.6488304 Z"/><path d="M28.5032921,8.07508218 C28.5638466,8.78204151 28.6286068,9.47885345 28.6977129,10.1609875 C29.0849828,13.9836621 29.5262748,16.8247637 30.135172,18.6488304 C28.5476951,18.0968966 27.0809447,16.9940457 27.0032335,16.0753949 L28.5032921,8.07508218 Z M25.0171278,15.8154115 L25,15.9997 C25,18.6772638 28.9271599,20.9997 32,20.9997 C32.972756,20.9997 33.3728426,19.7515921 32.5813701,19.1860608 C32.3491608,19.0201401 31.9363707,17.9325468 31.5821828,16.2420297 C31.2402911,14.6102018 30.9422414,12.4736356 30.6875278,9.95940205 C30.4661865,7.77458046 30.2895775,5.43036316 30.1535282,3.08567752 C30.1058899,2.26467526 30.0667369,1.50243011 30.0355177,0.81866364 C30.0168234,0.409218334 30.0049492,0.117547561 29.9993388,-0.0366584241 C29.9559577,-1.22901983 28.2370117,-1.35730278 28.0171278,-0.184588535 L25.0171278,15.8154115 Z"/><path d="M0,18.9997 C-0.55228475,18.9997 -1,19.4474153 -1,19.9997 L-1,55.9997 C-1,57.6569847 0.34271525,58.9997 2,58.9997 L30,58.9997 C31.6572847,58.9997 33,57.6569847 33,55.9997 L33,19.9997 C33,19.4474153 32.5522847,18.9997 32,18.9997 C29.927974,18.9997 27.1117336,17.3580111 27.0032335,16.0753949 L29.9828722,0.183988535 C30.0982622,-0.431425077 29.626138,-1.0003 29,-1.0003 L25,-1.0003 C24.4477153,-1.0003 24,-0.55258475 24,-0.0003 C24,4.41841525 20.4187153,7.9997 16,7.9997 C11.5812847,7.9997 8,4.41841525 8,-0.0003 C8,-0.55258475 7.55228475,-1.0003 7,-1.0003 L3,-1.0003 C2.37386201,-1.0003 1.90173776,-0.431425077 2.01712781,0.183988535 L4.99676652,16.0753949 C4.88826642,17.3580111 2.07202599,18.9997 0,18.9997 Z M27.7950737,0.9997 L25.0171278,15.8154115 L25,15.9997 C25,18.3935161 28.1389219,20.503484 31,20.9237975 L31,55.9997 C31,56.5524153 30.5527153,56.9997 30,56.9997 L2,56.9997 C1.44728475,56.9997 1,56.5524153 1,55.9997 L1,20.9237975 C3.86107809,20.503484 7,18.3935161 7,15.9997 L6.98287219,15.8154115 L4.20492629,0.9997 L6.04936363,0.9997 C6.55100976,6.05337135 10.8142172,9.9997 16,9.9997 C21.1857828,9.9997 25.4489902,6.05337135 25.9506364,0.9997 L27.7950737,0.9997 Z"/><path d="M16,9.9997 C21.3195618,9.9997 25.6921975,5.83092389 25.974581,0.535954844 C26.0222429,-0.357754317 24.9618794,-0.85923455 24.3013013,-0.255393238 C22.8427099,1.0779203 19.6224632,1.9997 16,1.9997 C12.3775368,1.9997 9.15729005,1.0779203 7.69869873,-0.255393238 C7.03812065,-0.85923455 5.97775707,-0.357754317 6.02541905,0.535954844 C6.30780251,5.83092389 10.6804382,9.9997 16,9.9997 Z M23.574435,2.54927408 C23.5664022,2.57323331 23.5582597,2.59714115 23.5500078,2.62099702 L23.574435,2.54927408 Z M23.5500078,2.62099702 C22.4640632,5.76043859 19.4859869,7.9997 16,7.9997 C12.487524,7.9997 9.49070676,5.72627807 8.42556504,2.54927408 C10.4206436,3.47016192 13.1131748,3.9997 16,3.9997 C18.8868252,3.9997 21.5793564,3.47016192 23.574435,2.54927408 L23.5500078,2.62099702 Z"/></g></g></g><text x="0" y="75" fill="#000000" font-size="5px" font-weight="bold" font-family="'Helvetica Neue', Helvetica, Arial-Unicode, Arial, Sans-serif">Created by Ben Davis</text><text x="0" y="80" fill="#000000" font-size="5px" font-weight="bold" font-family="'Helvetica Neue', Helvetica, Arial-Unicode, Arial, Sans-serif">from the Noun Project</text></svg>