<svg xmlns="http://www.w3.org/2000/svg" xmlns:xlink="http://www.w3.org/1999/xlink" viewBox="0 0 60 31.25" version="1.1" x="0px" y="0px"><title>17 -Sunglasses- (Outline)</title><desc>Created with Sketch.</desc><g stroke="none" stroke-width="1" fill="none" fill-rule="evenodd"><g transform="translate(-839.000000, -489.000000)" fill="#000000"><g transform="translate(839.000000, 489.000000)"><path d="M41.9572,2 C37.7852,2 35.3482,4.764 34.4582,7.351 C33.5672,9.937 33.7882,13.616 37.0772,16.183 L42.2442,20.214 C44.8692,22.264 48.2242,22.616 51.2192,21.155 C54.2132,19.693 56.0002,16.833 56.0002,13.501 L56.0002,10.188 C56.0002,5.673 52.3272,2 47.8112,2 L41.9572,2 Z M47.4682,24.029 C45.1772,24.029 42.9102,23.271 41.0142,21.791 L35.8472,17.759 C32.4542,15.111 31.1662,10.77 32.5662,6.7 C33.9672,2.63 37.6522,0 41.9572,0 L47.8112,0 C53.4302,0 58.0002,4.57 58.0002,10.188 L58.0002,13.501 C58.0002,17.553 55.7372,21.175 52.0962,22.952 C50.6162,23.674 49.0362,24.029 47.4682,24.029 L47.4682,24.029 Z"/><path d="M53.0001,11.1885 C52.4471,11.1885 52.0001,10.7405 52.0001,10.1885 C52.0001,7.8785 50.1211,6.0005 47.8121,6.0005 C47.2591,6.0005 46.8121,5.5525 46.8121,5.0005 C46.8121,4.4475 47.2591,4.0005 47.8121,4.0005 C51.2241,4.0005 54.0001,6.7765 54.0001,10.1885 C54.0001,10.7405 53.5531,11.1885 53.0001,11.1885"/><path d="M12.1974,2 C7.6814,2 4.0094,5.673 4.0094,10.188 L4.0094,13.501 C4.0094,16.832 5.7964,19.693 8.7904,21.154 C11.7834,22.616 15.1394,22.265 17.7654,20.214 L22.9314,16.183 C26.2204,13.616 26.4414,9.937 25.5514,7.351 C24.6614,4.764 22.2234,2 18.0514,2 L12.1974,2 Z M12.5414,24.029 C10.9724,24.029 9.3924,23.674 7.9134,22.952 C4.2714,21.174 2.0094,17.553 2.0094,13.501 L2.0094,10.188 C2.0094,4.57 6.5794,0 12.1974,0 L18.0514,0 C22.3564,0 26.0424,2.63 27.4424,6.7 C28.8434,10.77 27.5544,15.111 24.1624,17.759 L18.9964,21.791 C17.0994,23.271 14.8324,24.029 12.5414,24.029 L12.5414,24.029 Z"/><path d="M33.8458,7.1846 C33.6548,7.1846 33.4598,7.1296 33.2888,7.0146 C31.2898,5.6716 28.6988,5.6536 26.6818,6.9676 C26.2178,7.2686 25.5988,7.1396 25.2978,6.6756 C24.9958,6.2126 25.1268,5.5936 25.5898,5.2916 C28.2798,3.5406 31.7408,3.5636 34.4048,5.3546 C34.8638,5.6626 34.9848,6.2836 34.6768,6.7426 C34.4838,7.0296 34.1678,7.1846 33.8458,7.1846"/><path d="M44.0001,2 L16.0001,2 C15.4471,2 15.0001,1.552 15.0001,1 C15.0001,0.448 15.4471,0 16.0001,0 L44.0001,0 C44.5531,0 45.0001,0.448 45.0001,1 C45.0001,1.552 44.5531,2 44.0001,2"/><path d="M3.0001,12 L1.0001,12 C0.4471,12 0.0001,11.552 0.0001,11 C0.0001,10.448 0.4471,10 1.0001,10 L3.0001,10 C3.5531,10 4.0001,10.448 4.0001,11 C4.0001,11.552 3.5531,12 3.0001,12"/><path d="M59.0001,12 L57.0001,12 C56.4471,12 56.0001,11.552 56.0001,11 C56.0001,10.448 56.4471,10 57.0001,10 L59.0001,10 C59.5531,10 60.0001,10.448 60.0001,11 C60.0001,11.552 59.5531,12 59.0001,12"/><path d="M10.0001,7 L8.0001,7 C7.4471,7 7.0001,6.552 7.0001,6 C7.0001,5.448 7.4471,5 8.0001,5 L10.0001,5 C10.5531,5 11.0001,5.448 11.0001,6 C11.0001,6.552 10.5531,7 10.0001,7"/></g></g></g><text x="0" y="40" fill="#000000" font-size="5px" font-weight="bold" font-family="'Helvetica Neue', Helvetica, Arial-Unicode, Arial, Sans-serif">Created by Ben Davis</text><text x="0" y="45" fill="#000000" font-size="5px" font-weight="bold" font-family="'Helvetica Neue', Helvetica, Arial-Unicode, Arial, Sans-serif">from the Noun Project</text></svg>