<svg xmlns="http://www.w3.org/2000/svg" xmlns:xlink="http://www.w3.org/1999/xlink" viewBox="0 0 52 75" version="1.1" x="0px" y="0px"><title>30 -Jeans- (Outline)</title><desc>Created with Sketch.</desc><g stroke="none" stroke-width="1" fill="none" fill-rule="evenodd"><g transform="translate(-1204.000000, -587.000000)" fill="#000000"><g transform="translate(1205.000000, 588.000000)"><path d="M7,7 L25,7 C25.5522847,7 26,6.55228475 26,6 L26,0 C26,-0.55228475 25.5522847,-1 25,-1 L7,-1 C6.44771525,-1 6,-0.55228475 6,0 L6,6 C6,6.55228475 6.44771525,7 7,7 Z M8,1 L24,1 L24,5 L8,5 L8,1 Z"/><path d="M7.84019703,56.9997 L1.04808317,18.1876208 L7.57437033,6.9997 L24,6.9997 L24,56.9997 L7.84019703,56.9997 Z M25,58.9997 C25.5522847,58.9997 26,58.5519847 26,57.9997 L26,5.9997 C26,5.44741525 25.5522847,4.9997 25,4.9997 L7,4.9997 C6.64433294,4.9997 6.31543143,5.18861127 6.1362211,5.49582897 L-0.863778901,17.495829 C-0.982792554,17.6998524 -1.02574647,17.9394175 -0.985030467,18.1720803 L6.01496953,58.1720803 C6.09870839,58.6505881 6.51422037,58.9997 7,58.9997 L25,58.9997 Z"/><path d="M12,-0.0003 L12,5.9997 C12,6.55198475 12.4477153,6.9997 13,6.9997 C13.5522847,6.9997 14,6.55198475 14,5.9997 L14,-0.0003 C14,-0.55258475 13.5522847,-1.0003 13,-1.0003 C12.4477153,-1.0003 12,-0.55258475 12,-0.0003 Z"/><path d="M18,-0.0003 L18,5.9997 C18,6.55198475 18.4477153,6.9997 19,6.9997 C19.5522847,6.9997 20,6.55198475 20,5.9997 L20,-0.0003 C20,-0.55258475 19.5522847,-1.0003 19,-1.0003 C18.4477153,-1.0003 18,-0.55258475 18,-0.0003 Z"/><path d="M10,13.9997 L20,13.9997 C20.5522847,13.9997 21,13.5519847 21,12.9997 C21,12.4474153 20.5522847,11.9997 20,11.9997 L10,11.9997 C9.44771525,11.9997 9,12.4474153 9,12.9997 C9,13.5519847 9.44771525,13.9997 10,13.9997 Z"/><path d="M18,11.9997 L18,14.9997 C18,15.5519847 18.4477153,15.9997 19,15.9997 C19.5522847,15.9997 20,15.5519847 20,14.9997 L20,11.9997 C20,11.4474153 19.5522847,10.9997 19,10.9997 C18.4477153,10.9997 18,11.4474153 18,11.9997 Z"/><path d="M25.7071068,58.4347068 L50.7071068,33.4347068 C51.0976311,33.0441825 51.0976311,32.4110175 50.7071068,32.0204932 L37.9791068,19.2924932 C37.5885825,18.9019689 36.9554175,18.9019689 36.5648932,19.2924932 L24.2928932,31.5644932 C24.1053568,31.7520296 24,32.0063835 24,32.2716 L24,57.7276 C24,58.6185049 25.0771419,59.0646716 25.7071068,58.4347068 Z M26,32.6858136 L37.272,21.4138136 L48.5857864,32.7276 L26,55.3133864 L26,32.6858136 Z"/><path d="M33.2071932,24.0647068 L45.9351932,36.7927068 C46.3257175,37.1832311 46.9588825,37.1832311 47.3494068,36.7927068 L50.7074068,33.4347068 C51.0979311,33.0441825 51.0979311,32.4110175 50.7074068,32.0204932 L37.9794068,19.2924932 C37.5888825,18.9019689 36.9557175,18.9019689 36.5651932,19.2924932 L33.2071932,22.6504932 C32.8166689,23.0410175 32.8166689,23.6741825 33.2071932,24.0647068 Z M35.3285136,23.3576 L37.2723,21.4138136 L48.5860864,32.7276 L46.6423,34.6713864 L35.3285136,23.3576 Z"/></g></g></g><text x="0" y="75" fill="#000000" font-size="5px" font-weight="bold" font-family="'Helvetica Neue', Helvetica, Arial-Unicode, Arial, Sans-serif">Created by Ben Davis</text><text x="0" y="80" fill="#000000" font-size="5px" font-weight="bold" font-family="'Helvetica Neue', Helvetica, Arial-Unicode, Arial, Sans-serif">from the Noun Project</text></svg>