<svg xmlns="http://www.w3.org/2000/svg" xmlns:xlink="http://www.w3.org/1999/xlink" viewBox="0 0 26 75" version="1.1" x="0px" y="0px"><title>16 -Jeans- (Outline)</title><desc>Created with Sketch.</desc><g stroke="none" stroke-width="1" fill="none" fill-rule="evenodd"><g transform="translate(-737.000000, -467.000000)" fill="#000000"><g transform="translate(738.000000, 468.000000)"><path d="M0,8 L24,8 C24.5522847,8 25,7.55228475 25,7 L25,0 C25,-0.55228475 24.5522847,-1 24,-1 L0,-1 C-0.55228475,-1 -1,-0.55228475 -1,0 L-1,7 C-1,7.55228475 -0.55228475,8 0,8 Z M1,1 L23,1 L23,6 L1,6 L1,1 Z"/><path d="M11,6.9997 L11,19.9997 C11,20.5519847 11.4477153,20.9997 12,20.9997 C12.5707436,20.9997 13.037962,21.4547767 13.0533637,22.0256686 L13.949346,56.0790021 C13.9913513,57.703714 15.3219154,58.9997 16.948,58.9997 L22,58.9997 C23.6572847,58.9997 25,57.6569847 25,55.9997 L25,6.9997 C25,6.44741525 24.5522847,5.9997 24,5.9997 L12,5.9997 C11.4477153,5.9997 11,6.44741525 11,6.9997 Z M23,7.9997 L23,55.9997 C23,56.5524153 22.5527153,56.9997 22,56.9997 L16.948,56.9997 C16.4061369,56.9997 15.96265,56.5677382 15.9486659,56.0268545 L15.052654,21.9723979 C15.0174613,20.6679126 14.1685994,19.57243 13,19.1673528 L13,7.9997 L23,7.9997 Z"/><path d="M13,19.9997 L13,6.9997 C13,6.44741525 12.5522847,5.9997 12,5.9997 L0,5.9997 C-0.55228475,5.9997 -1,6.44741525 -1,6.9997 L-1,55.9997 C-1,57.6569847 0.34271525,58.9997 2,58.9997 L7.052,58.9997 C8.67808462,58.9997 10.0086487,57.703714 10.0506659,56.0785455 L10.946654,22.0250021 C10.962038,21.4547767 11.4292564,20.9997 12,20.9997 C12.5522847,20.9997 13,20.5519847 13,19.9997 Z M8.94736372,21.9717314 L8.05134596,56.0263979 C8.03734998,56.5677382 7.59386309,56.9997 7.052,56.9997 L2,56.9997 C1.44728475,56.9997 1,56.5524153 1,55.9997 L1,7.9997 L11,7.9997 L11,19.1673465 C9.83140136,19.5724002 8.98254249,20.6677717 8.94736372,21.9717314 Z"/><path d="M20,8.9997 L20,7.9997 L23,7.9997 L23,12.8736199 C21.2750047,12.4294423 20,10.863131 20,8.9997 Z M24,14.9997 C24.5522847,14.9997 25,14.5519847 25,13.9997 L25,6.9997 C25,6.44741525 24.5522847,5.9997 24,5.9997 L19,5.9997 C18.4477153,5.9997 18,6.44741525 18,6.9997 L18,8.9997 C18,12.3129847 20.6867153,14.9997 24,14.9997 Z"/><path d="M0,14.9997 C3.31328475,14.9997 6,12.3129847 6,8.9997 L6,6.9997 C6,6.44741525 5.55228475,5.9997 5,5.9997 L0,5.9997 C-0.55228475,5.9997 -1,6.44741525 -1,6.9997 L-1,13.9997 C-1,14.5519847 -0.55228475,14.9997 0,14.9997 Z M1,7.9997 L4,7.9997 L4,8.9997 C4,10.863131 2.72499528,12.4294423 1,12.8736199 L1,7.9997 Z"/><path d="M0,3.9997 L24,3.9997 C24.5522847,3.9997 25,3.55198475 25,2.9997 C25,2.44741525 24.5522847,1.9997 24,1.9997 L0,1.9997 C-0.55228475,1.9997 -1,2.44741525 -1,2.9997 C-1,3.55198475 -0.55228475,3.9997 0,3.9997 Z"/><path d="M0,29.9997 L4,29.9997 C4.55228475,29.9997 5,29.5519847 5,28.9997 C5,28.4474153 4.55228475,27.9997 4,27.9997 L0,27.9997 C-0.55228475,27.9997 -1,28.4474153 -1,28.9997 C-1,29.5519847 -0.55228475,29.9997 0,29.9997 Z"/><path d="M0,33.9997 L2,33.9997 C2.55228475,33.9997 3,33.5519847 3,32.9997 C3,32.4474153 2.55228475,31.9997 2,31.9997 L0,31.9997 C-0.55228475,31.9997 -1,32.4474153 -1,32.9997 C-1,33.5519847 -0.55228475,33.9997 0,33.9997 Z"/></g></g></g><text x="0" y="75" fill="#000000" font-size="5px" font-weight="bold" font-family="'Helvetica Neue', Helvetica, Arial-Unicode, Arial, Sans-serif">Created by Ben Davis</text><text x="0" y="80" fill="#000000" font-size="5px" font-weight="bold" font-family="'Helvetica Neue', Helvetica, Arial-Unicode, Arial, Sans-serif">from the Noun Project</text></svg>