<svg xmlns="http://www.w3.org/2000/svg" xmlns:xlink="http://www.w3.org/1999/xlink" viewBox="0 0 61 75" version="1.1" x="0px" y="0px"><title>70 -Engagement Rings- (Outline)</title><desc>Created with Sketch.</desc><g stroke="none" stroke-width="1" fill="none" fill-rule="evenodd"><g transform="translate(-1199.000000, -1065.000000)" fill="#000000"><g transform="translate(1199.000000, 1065.000000)"><path d="M36.0238,38.5004 C36.0238,39.2658852 35.9585696,40.0340141 35.8309456,40.8059203 C26.922906,39.5755227 19.9412706,32.3295136 19.1156482,23.2973702 C19.0548717,22.6341599 19.0238,22.0548456 19.0238,21.5004 C19.0238,20.5347804 19.1137838,19.5417201 19.2894563,18.4340368 C20.7794636,9.01976858 28.9055724,2.0004 38.5238,2.0004 C49.2935153,2.0004 58.0238,10.7306847 58.0238,21.5004 C58.0238,30.6594163 51.6565146,38.4667701 42.9185402,40.4770187 C42.988156,39.799072 43.0238,39.1465265 43.0238,38.5004 C43.0238,38.1340674 43.0121865,37.7624778 42.989449,37.3740984 C50.0199709,35.3965633 55.0238,28.9489049 55.0238,21.5004 C55.0238,12.4011153 47.6230847,5.0004 38.5238,5.0004 C30.7812896,5.0004 24.1196484,10.4069403 22.4372447,17.875646 C22.1649475,19.0849985 22.0238,20.2923275 22.0238,21.5004 C22.0238,22.0649127 22.0522822,22.6257719 22.108954,23.1817978 C22.8693963,30.6610192 28.642059,36.6761784 36.0075643,37.8086542 C36.018378,38.0381629 36.0238,38.2687765 36.0238,38.5004 Z M38.5238,7.0004 C46.5185153,7.0004 53.0238,13.5056847 53.0238,21.5004 C53.0238,28.3013453 48.2714587,34.1566434 41.7089117,35.6358749 C41.2192001,35.7462584 40.8872212,36.2026022 40.9329594,36.7025122 C40.9930653,37.3594596 41.0238,37.9411078 41.0238,38.5004 C41.0238,39.4655014 40.9336958,40.4598899 40.7581668,41.5656179 C40.6516383,42.2366837 41.2310103,42.8163238 41.9021253,42.7101056 C52.2831224,41.067093 60.0238,32.1063578 60.0238,21.5004 C60.0238,9.62611525 50.3980847,0.0004 38.5238,0.0004 C27.916972,0.0004 18.9571266,7.739954 17.3140944,18.1210747 C17.1230519,19.3256716 17.0238,20.4210144 17.0238,21.5004 C17.0238,22.1218211 17.0580367,22.7601461 17.1239727,23.4796575 C18.0648451,33.7726136 26.2512391,41.9593187 36.543761,42.9002473 C37.043735,42.9459543 37.500094,42.6138572 37.6103764,42.1240603 C37.8826227,40.9149342 38.0238,39.7076155 38.0238,38.5004 C38.0238,37.9348548 37.9953141,37.373922 37.9386262,36.8188089 C37.8904223,36.3467744 37.5171368,35.9736027 37.0450876,35.9255428 C30.2288707,35.2315756 24.7916146,29.7945962 24.0986709,22.9792475 C24.0488449,22.4903878 24.0238,21.9972144 24.0238,21.5004 C24.0238,20.444094 24.1477775,19.3836314 24.3883764,18.3150603 C25.8665317,11.7530762 31.7225175,7.0004 38.5238,7.0004 Z"/><path d="M17.0242,21.5003 C17.0242,21.8662057 17.0358276,22.2379997 17.0585637,22.6264918 C10.0283304,24.6031174 5.0242,31.0514988 5.0242,38.5003 C5.0242,47.5995847 12.4249153,55.0003 21.5242,55.0003 C29.2669122,55.0003 35.9284148,49.5935593 37.6107621,42.1240237 C37.8831145,40.9144265 38.0242,39.7081586 38.0242,38.5003 C38.0242,37.9421973 37.9955064,37.3824058 37.9392182,36.8206065 C37.1785771,29.3394191 31.4056399,23.323572 24.0404664,22.1919504 C24.0296318,21.9622517 24.0242,21.7316707 24.0242,21.5003 C24.0242,20.7324817 24.0892257,19.9638983 24.216619,19.1938094 C33.1252347,20.4249182 40.1067513,27.6704252 40.9323518,36.7023298 C40.9932039,37.3674323 41.0242,37.9453373 41.0242,38.5003 C41.0242,39.4654014 40.9340958,40.4597899 40.7585668,41.5655179 C39.268553,50.9798265 31.1415379,58.0003 21.5242,58.0003 C10.7544847,58.0003 2.0242,49.2700153 2.0242,38.5003 C2.0242,29.3402669 8.39078056,21.5333624 17.1293549,19.5226072 C17.0597964,20.201837 17.0242,20.8542789 17.0242,21.5003 Z M43.0242,38.5003 C43.0242,37.878396 42.9900462,37.2416166 42.9240406,36.5201878 C41.9831911,26.2274823 33.7971772,18.0414684 23.5043397,17.0994619 C23.0046607,17.053731 22.5484574,17.3853769 22.4378145,17.8747935 C22.1652048,19.0806515 22.0242,20.2890364 22.0242,21.5003 C22.0242,22.0648127 22.0526822,22.6256719 22.109354,23.1816978 C22.1574788,23.653865 22.5308684,24.0271626 23.0030475,24.0751709 C29.8187763,24.7681532 35.2563468,30.2057237 35.9493291,37.0214525 C35.9989149,37.5163676 36.0242,38.009662 36.0242,38.5003 C36.0242,39.5563548 35.9002911,40.615764 35.6596236,41.6846397 C34.1814926,48.2474651 28.3256502,53.0003 21.5242,53.0003 C13.5294847,53.0003 7.0242,46.4950153 7.0242,38.5003 C7.0242,31.6990175 11.7768762,25.8430317 18.338954,24.3648553 C18.8287319,24.2545277 19.1607836,23.79815 19.1150406,23.2981878 C19.0549851,22.6417908 19.0242,22.0589581 19.0242,21.5003 C19.0242,20.5366832 19.1139465,19.5434573 19.289001,18.4330217 C19.3947453,17.7622458 18.8154768,17.1833889 18.1447762,17.28961 C7.7635557,18.9337187 0.0242,27.893647 0.0242,38.5003 C0.0242,50.3745847 9.64991525,60.0003 21.5242,60.0003 C32.1301578,60.0003 41.090893,52.2596224 42.7339056,41.8786253 C42.9248159,40.6760054 43.0242,39.5792038 43.0242,38.5003 Z"/></g></g></g><text x="0" y="75" fill="#000000" font-size="5px" font-weight="bold" font-family="'Helvetica Neue', Helvetica, Arial-Unicode, Arial, Sans-serif">Created by Ben Davis</text><text x="0" y="80" fill="#000000" font-size="5px" font-weight="bold" font-family="'Helvetica Neue', Helvetica, Arial-Unicode, Arial, Sans-serif">from the Noun Project</text></svg>