<svg xmlns="http://www.w3.org/2000/svg" xmlns:xlink="http://www.w3.org/1999/xlink" viewBox="0 0 32 75" version="1.1" x="0px" y="0px"><title>31 -Man Watch- (Outline)</title><desc>Created with Sketch.</desc><g stroke="none" stroke-width="1" fill="none" fill-rule="evenodd"><g transform="translate(-133.000000, -711.000000)" fill="#000000"><g transform="translate(133.000000, 711.000000)"><path d="M14.0001,18 C7.3831,18 2.0001,23.383 2.0001,30 C2.0001,36.617 7.3831,42 14.0001,42 C20.6171,42 26.0001,36.617 26.0001,30 C26.0001,23.383 20.6171,18 14.0001,18 M14.0001,44 C6.2801,44 0.0001,37.72 0.0001,30 C0.0001,22.28 6.2801,16 14.0001,16 C21.7201,16 28.0001,22.28 28.0001,30 C28.0001,37.72 21.7201,44 14.0001,44"/><path d="M7.5245,50 L20.4245,50 L20.5245,48 L7.4245,48 L7.5245,50 Z M21.3755,52 L6.5735,52 C6.0405,52 5.6015,51.582 5.5745,51.05 L5.3745,47.05 C5.3605,46.776 5.4605,46.509 5.6485,46.311 C5.8375,46.112 6.0995,46 6.3735,46 L21.5765,46 C21.8505,46 22.1115,46.112 22.3005,46.311 C22.4895,46.509 22.5885,46.776 22.5745,47.05 L22.3745,51.05 C22.3475,51.582 21.9085,52 21.3755,52 L21.3755,52 Z"/><path d="M7.7252,54 L20.2242,54 L20.3242,52 L7.6242,52 L7.7252,54 Z M21.1752,56 L6.7742,56 C6.2412,56 5.8022,55.582 5.7752,55.05 L5.5752,51.05 C5.5602,50.776 5.6602,50.509 5.8492,50.311 C6.0382,50.112 6.2992,50 6.5732,50 L21.3752,50 C21.6492,50 21.9112,50.112 22.1002,50.311 C22.2892,50.509 22.3882,50.776 22.3742,51.05 L22.1732,55.05 C22.1472,55.582 21.7072,56 21.1752,56 L21.1752,56 Z"/><path d="M7.8253,56 L7.9253,58 L20.0233,58 L20.1233,56 L7.8253,56 Z M20.0233,60 L7.9263,60 C6.8593,60 5.9823,59.166 5.9283,58.101 L5.7753,55.05 C5.7613,54.776 5.8603,54.509 6.0493,54.311 C6.2383,54.112 6.5003,54 6.7743,54 L21.1753,54 C21.4493,54 21.7103,54.112 21.8993,54.311 C22.0883,54.509 22.1873,54.776 22.1733,55.05 L22.0203,58.1 C21.9683,59.166 21.0913,60 20.0233,60 L20.0233,60 Z"/><path d="M7.4752,12 L20.5762,12 L20.4752,10 L7.5762,10 L7.4752,12 Z M21.6272,14 L6.4242,14 C6.1502,14 5.8882,13.888 5.6992,13.689 C5.5102,13.491 5.4112,13.224 5.4252,12.95 L5.6262,8.95 C5.6522,8.418 6.0922,8 6.6242,8 L21.4272,8 C21.9592,8 22.3992,8.418 22.4252,8.95 L22.6252,12.95 C22.6392,13.224 22.5402,13.491 22.3512,13.689 C22.1632,13.888 21.9012,14 21.6272,14 L21.6272,14 Z"/><path d="M7.6759,8 L20.3759,8 L20.2749,6 L7.7769,6 L7.6759,8 Z M21.4269,10 L6.6249,10 C6.3509,10 6.0889,9.888 5.8999,9.689 C5.7109,9.491 5.6119,9.224 5.6259,8.95 L5.8269,4.95 C5.8529,4.418 6.2929,4 6.8249,4 L21.2259,4 C21.7589,4 22.1979,4.418 22.2249,4.95 L22.4259,8.95 C22.4399,9.224 22.3409,9.491 22.1519,9.689 C21.9629,9.888 21.7009,10 21.4269,10 L21.4269,10 Z"/><path d="M7.8766,4 L20.1746,4 L20.0746,2 L7.9766,2 L7.8766,4 Z M21.2266,6 L6.8256,6 C6.5516,6 6.2896,5.888 6.1006,5.689 C5.9116,5.491 5.8126,5.224 5.8266,4.95 L5.9796,1.9 C6.0326,0.834 6.9096,0 7.9766,0 L20.0746,0 C21.1406,0 22.0186,0.834 22.0716,1.899 L22.2246,4.95 C22.2386,5.224 22.1396,5.491 21.9506,5.689 C21.7616,5.888 21.5006,6 21.2266,6 L21.2266,6 Z"/><path d="M7.3243,46 L20.6253,46 L20.8143,42.221 C18.7373,43.39 16.4153,44 14.0003,44 C13.9813,44 13.9563,43.999 13.9383,43.998 C13.7433,43.997 13.5933,43.986 13.4413,43.976 L13.2643,43.964 C11.0903,43.852 9.0023,43.244 7.1333,42.189 L7.3243,46 Z M21.5763,48 L6.3733,48 C5.8403,48 5.4013,47.582 5.3743,47.05 L5.0363,40.309 C5.0163,39.918 5.2263,39.552 5.5733,39.372 C5.9203,39.191 6.3393,39.229 6.6493,39.469 C8.5863,40.976 10.9123,41.84 13.3753,41.967 L13.5823,41.981 C13.7123,41.99 13.8423,42 13.9743,42 L14.0003,42 C16.6563,42 19.1813,41.138 21.3023,39.506 C21.6123,39.269 22.0323,39.232 22.3763,39.413 C22.7213,39.594 22.9303,39.959 22.9103,40.349 L22.5743,47.05 C22.5483,47.582 22.1093,48 21.5763,48 L21.5763,48 Z"/><path d="M14.0255,16 C14.2055,16 14.3815,16.012 14.5585,16.024 L14.7355,16.036 C16.9105,16.148 18.9975,16.756 20.8665,17.812 L20.6755,14 L7.3755,14 L7.1855,17.779 C9.2625,16.61 11.5845,16 14.0005,16 L14.0255,16 Z M21.9645,20.741 C21.7475,20.741 21.5305,20.67 21.3515,20.531 C19.4135,19.024 17.0875,18.16 14.6255,18.033 L14.4185,18.019 C14.2965,18.011 14.1755,18.001 14.0525,18 L13.9715,18 C11.3255,18.006 8.8115,18.868 6.6975,20.494 C6.3885,20.731 5.9685,20.768 5.6245,20.587 C5.2785,20.406 5.0695,20.041 5.0895,19.651 L5.4255,12.95 C5.4515,12.418 5.8915,12 6.4235,12 L21.6275,12 C22.1595,12 22.5995,12.418 22.6255,12.95 L22.9635,19.691 C22.9835,20.082 22.7735,20.448 22.4265,20.628 C22.2815,20.704 22.1225,20.741 21.9645,20.741 L21.9645,20.741 Z"/><path d="M14.0001,21 C13.4481,21 13.0001,20.552 13.0001,20 L13.0001,17 C13.0001,16.448 13.4481,16 14.0001,16 C14.5521,16 15.0001,16.448 15.0001,17 L15.0001,20 C15.0001,20.552 14.5521,21 14.0001,21"/><path d="M14.0001,44 C13.4481,44 13.0001,43.552 13.0001,43 L13.0001,40 C13.0001,39.448 13.4481,39 14.0001,39 C14.5521,39 15.0001,39.448 15.0001,40 L15.0001,43 C15.0001,43.552 14.5521,44 14.0001,44"/><path d="M27.0001,31 L24.0001,31 C23.4481,31 23.0001,30.552 23.0001,30 C23.0001,29.448 23.4481,29 24.0001,29 L27.0001,29 C27.5521,29 28.0001,29.448 28.0001,30 C28.0001,30.552 27.5521,31 27.0001,31"/><path d="M4.0001,31 L1.0001,31 C0.4481,31 0.0001,30.552 0.0001,30 C0.0001,29.448 0.4481,29 1.0001,29 L4.0001,29 C4.5521,29 5.0001,29.448 5.0001,30 C5.0001,30.552 4.5521,31 4.0001,31"/><path d="M18.0001,31 L14.0001,31 C13.4481,31 13.0001,30.552 13.0001,30 L13.0001,24 C13.0001,23.448 13.4481,23 14.0001,23 C14.5521,23 15.0001,23.448 15.0001,24 L15.0001,29 L18.0001,29 C18.5521,29 19.0001,29.448 19.0001,30 C19.0001,30.552 18.5521,31 18.0001,31"/><path d="M27.8487,32 L29.9997,32 L29.9997,28 L27.8487,28 C27.9497,28.675 27.9997,29.344 27.9997,30 C27.9997,30.656 27.9497,31.325 27.8487,32 M29.9997,34 L26.6387,34 C26.3327,34 26.0437,33.86 25.8537,33.621 C25.6637,33.381 25.5947,33.067 25.6647,32.77 C25.8877,31.83 25.9997,30.898 25.9997,30 C25.9997,29.103 25.8877,28.17 25.6647,27.23 C25.5947,26.933 25.6637,26.619 25.8537,26.379 C26.0437,26.14 26.3327,26 26.6387,26 L29.9997,26 C31.1027,26 31.9997,26.897 31.9997,28 L31.9997,32 C31.9997,33.103 31.1027,34 29.9997,34"/></g></g></g><text x="0" y="75" fill="#000000" font-size="5px" font-weight="bold" font-family="'Helvetica Neue', Helvetica, Arial-Unicode, Arial, Sans-serif">Created by Ben Davis</text><text x="0" y="80" fill="#000000" font-size="5px" font-weight="bold" font-family="'Helvetica Neue', Helvetica, Arial-Unicode, Arial, Sans-serif">from the Noun Project</text></svg>