<svg xmlns="http://www.w3.org/2000/svg" xmlns:xlink="http://www.w3.org/1999/xlink" viewBox="0 0 60 37.5" version="1.1" x="0px" y="0px"><title>51 -Cowboy Hat- (Outline)</title><desc>Created with Sketch.</desc><g stroke="none" stroke-width="1" fill="none" fill-rule="evenodd"><g transform="translate(-119.000000, -966.000000)" fill="#000000"><g transform="translate(119.000000, 966.000000)"><path d="M18.0904,19.7373 C25.9014,21.4093 34.0994,21.4093 41.9094,19.7373 L40.6494,8.0863 C40.6494,8.0803 40.6484,8.0753 40.6474,8.0693 C40.3274,4.5523 37.5314,2.0003 34.0004,2.0003 C33.6954,2.0003 33.3874,2.1333 33.3144,2.2983 C32.5564,3.9903 31.3174,5.0003 30.0004,5.0003 C28.6824,5.0003 27.4444,3.9903 26.6864,2.2993 C26.6124,2.1333 26.3044,2.0003 26.0004,2.0003 C22.4684,2.0003 19.6724,4.5523 19.3524,8.0693 L18.0904,19.7373 Z M30.0004,22.9913 C25.5504,22.9913 21.1014,22.4923 16.7754,21.4943 C16.2814,21.3803 15.9514,20.9153 16.0064,20.4123 L17.3624,7.8713 C17.7694,3.3903 21.4844,0.0003 26.0004,0.0003 C27.1234,0.0003 28.1094,0.5813 28.5114,1.4813 C28.9184,2.3893 29.5164,3.0003 30.0004,3.0003 C30.4834,3.0003 31.0814,2.3893 31.4884,1.4803 C31.8914,0.5813 32.8774,0.0003 34.0004,0.0003 C38.5134,0.0003 42.2254,3.3863 42.6384,7.8793 L43.9944,20.4123 C44.0484,20.9153 43.7184,21.3803 43.2244,21.4943 C38.8994,22.4923 34.4494,22.9913 30.0004,22.9913 L30.0004,22.9913 Z"/><path d="M18.0904,19.7373 C19.9024,20.1253 21.7454,20.4263 23.5814,20.6363 C27.8394,21.1193 32.1594,21.1193 36.4194,20.6363 C38.2554,20.4263 40.0974,20.1253 41.9094,19.7373 L41.5054,16.0003 L18.4944,16.0003 L18.0904,19.7373 Z M30.0004,22.9993 C27.7794,22.9993 25.5604,22.8743 23.3554,22.6233 C21.1514,22.3723 18.9374,21.9923 16.7754,21.4943 C16.2814,21.3803 15.9514,20.9153 16.0064,20.4123 L16.6034,14.8923 C16.6574,14.3843 17.0864,14.0003 17.5974,14.0003 L42.4024,14.0003 C42.9134,14.0003 43.3424,14.3843 43.3974,14.8923 L43.9944,20.4123 C44.0484,20.9153 43.7184,21.3803 43.2244,21.4943 C41.0634,21.9923 38.8494,22.3723 36.6454,22.6233 C34.4404,22.8743 32.2204,22.9993 30.0004,22.9993 L30.0004,22.9993 Z"/><path d="M16.1881,18.7295 C5.5011,19.9365 2.0001,22.1045 2.0001,23.0005 C2.0001,24.6975 11.8831,28.0005 30.0001,28.0005 C48.1171,28.0005 58.0001,24.6975 58.0001,23.0005 C58.0001,22.1045 54.4991,19.9365 43.8121,18.7295 L43.9941,20.4125 C44.0491,20.9155 43.7181,21.3795 43.2251,21.4945 C34.5731,23.4905 25.4271,23.4905 16.7751,21.4945 C16.2821,21.3795 15.9511,20.9155 16.0061,20.4125 L16.1881,18.7295 Z M30.0001,30.0005 C19.6241,30.0005 0.0001,28.5375 0.0001,23.0005 C0.0001,18.9495 10.7861,17.2565 17.2151,16.6085 C17.5141,16.5805 17.8131,16.6845 18.0251,16.8995 C18.2371,17.1135 18.3421,17.4115 18.3101,17.7105 L18.0901,19.7375 C25.9011,21.4095 34.0991,21.4095 41.9101,19.7375 L41.6901,17.7105 C41.6581,17.4115 41.7631,17.1135 41.9751,16.8995 C42.1881,16.6855 42.4881,16.5815 42.7851,16.6085 C49.2141,17.2565 60.0001,18.9495 60.0001,23.0005 C60.0001,28.5375 40.3761,30.0005 30.0001,30.0005 L30.0001,30.0005 Z"/><path d="M30.0001,19.999 C29.4481,19.999 29.0001,19.552 29.0001,18.999 L29.0001,18 C29.0001,17.447 29.4481,17 30.0001,17 C30.5521,17 31.0001,17.447 31.0001,18 L31.0001,18.999 C31.0001,19.552 30.5521,19.999 30.0001,19.999"/></g></g></g><text x="0" y="45" fill="#000000" font-size="5px" font-weight="bold" font-family="'Helvetica Neue', Helvetica, Arial-Unicode, Arial, Sans-serif">Created by Ben Davis</text><text x="0" y="50" fill="#000000" font-size="5px" font-weight="bold" font-family="'Helvetica Neue', Helvetica, Arial-Unicode, Arial, Sans-serif">from the Noun Project</text></svg>