<svg xmlns="http://www.w3.org/2000/svg" xmlns:xlink="http://www.w3.org/1999/xlink" viewBox="0 0 60 75" version="1.1" x="0px" y="0px"><title>72 -Shirt- (Outline)</title><desc>Created with Sketch.</desc><g stroke="none" stroke-width="1" fill="none" fill-rule="evenodd"><g transform="translate(-240.000000, -1187.000000)" fill="#000000"><g transform="translate(241.000000, 1187.000000)"><path d="M38,30.9997 C38,31.5517 37.552,31.9997 37,31.9997 C36.448,31.9997 36,31.5517 36,30.9997 C36,30.4477 36.448,29.9997 37,29.9997 C37.552,29.9997 38,30.4477 38,30.9997"/><path d="M38,39.9997 C38,40.5517 37.552,40.9997 37,40.9997 C36.448,40.9997 36,40.5517 36,39.9997 C36,39.4477 36.448,38.9997 37,38.9997 C37.552,38.9997 38,39.4477 38,39.9997"/><path d="M53.702839,54.8849901 L56.8235839,53.9927774 C58.3915171,53.5460818 59.3147496,51.9266186 58.9021902,50.3483914 L58.269599,48.0580319 C58.1216293,47.522377 57.5653139,47.2101089 57.0309789,47.3627761 L50.0869789,49.3467761 C49.5629964,49.4964853 49.2553539,50.0381725 49.3951768,50.5648793 L49.9678316,52.7220449 C50.3759449,54.369492 52.0695151,55.3505847 53.702839,54.8849901 Z M56.6104174,49.5629679 L56.970801,50.8675681 C57.1048681,51.380814 56.7970563,51.9207537 56.2747076,52.0695682 L53.1538161,52.9618226 C52.6084905,53.1172725 52.0426195,52.7884303 51.9082253,52.2373641 L51.9032232,52.2177207 L51.580019,51.0002246 L56.6104174,49.5629679 Z"/><path d="M-0.274161828,48.0712852 L-0.897161828,50.3352852 C-1.31296397,51.9255911 -0.390198982,53.5437732 1.17815747,53.9920893 L4.29811607,54.8840774 C5.93575388,55.3509021 7.63315658,54.3644975 8.03652528,52.7105359 L8.59991728,50.5756901 C8.73877202,50.0493622 8.43114414,49.508647 7.90775771,49.3590865 L0.964757709,47.3750865 C0.430042153,47.2222886 -0.126615301,47.5350968 -0.274161828,48.0712852 Z M6.41614327,51.0129036 L6.09808272,52.2185099 C5.95908052,52.7877303 5.39320947,53.1165725 4.84713897,52.9609099 L1.72788393,52.0691226 C1.20455445,51.9195284 0.896870449,51.3799666 1.03449019,50.8535086 L1.38619783,49.5755693 L6.41614327,51.0129036 Z"/><path d="M35.5793106,1.92175366 C34.9893103,0.743156427 33.7861403,-0.0006 32.4696,-0.0006 L25.5326,-0.0006 C24.2145714,-0.0006 23.0100082,0.744708801 22.4217471,1.92403885 L22.1804965,2.40730818 C22.1309326,2.45688855 22.0523506,2.53550167 21.9031827,2.68472879 C21.5038019,3.08435968 21.3005301,3.287819 21.0059685,3.58281836 L19.4729137,5.11497642 C12.6650653,7.19057166 10.0464222,9.14363975 9.99837774,10.8683381 L-0.896346988,50.3353056 C-1.31389864,51.9250211 -0.390515537,53.5450968 1.17860756,53.9921318 L4.29771607,54.8838774 C5.93460568,55.3519888 7.63264764,54.3647442 8.03612528,52.7103359 L13.0026,33.7596891 L13.0026,54.9994 C13.0026,57.7606847 15.2413153,59.9994 18.0026,59.9994 L39.9996,59.9994 C42.761578,59.9994 44.9996,57.7609915 44.9996,54.9994 L44.9996,34.0005145 L49.9700534,52.7308911 C50.3687529,54.3650661 52.066898,55.351902 53.7035539,54.8838574 L56.823199,53.9929588 C58.391799,53.5445732 59.314564,51.9263911 58.9020902,50.3484914 L48.0041126,10.8802188 C47.9677854,9.15262364 45.3528097,7.1953676 38.5294355,5.11502191 L35.8216845,2.40727096 L35.5793106,1.92175366 Z M46.0057125,10.8915764 C46.0100279,10.8534448 46.0100279,10.8534448 46.0176324,10.8103508 C46.0069848,10.8656568 46.0010614,10.9215892 45.9998386,10.9775532 C46.0010353,10.9598498 46.0018905,10.9307225 46.0057125,10.8915764 Z M46.0356717,11.2655622 L56.9706717,50.8675622 C57.1047296,51.3807666 56.7970456,51.9203284 56.2737575,52.0699107 L53.154001,52.9608412 C52.608493,53.1168434 52.0424942,52.7879269 51.9080758,52.2372612 L44.9661466,26.0769089 C44.6658665,24.9453501 42.9996,25.1626765 42.9996,26.3334 L42.9996,54.9994 C42.9996,56.6564993 41.6569312,57.9994 39.9996,57.9994 L18.0026,57.9994 C16.3458847,57.9994 15.0026,56.6561153 15.0026,54.9994 L15.0026,25.9994 C15.0026,24.8268539 13.3325159,24.6116494 13.0352666,25.7458924 L6.09726659,52.2198924 C5.95859408,52.7878847 5.39276357,53.1168596 4.84755391,52.9609426 L1.72748393,52.0689226 C1.20438408,51.9198937 0.896922005,51.3804515 1.03480554,50.855395 L11.8678539,11.6121472 C12.0099909,11.4078524 12.0837462,11.1544417 12.0616368,10.9073559 C12.1747628,10.7313174 12.386824,10.5051005 12.7277187,10.2359807 C13.9949167,9.23558948 16.4253604,8.12025535 20.2907781,6.95697684 C20.4488709,6.90939956 20.5927249,6.8234204 20.7095001,6.70671345 L22.4205001,4.99671345 C22.7155449,4.701231 22.9186481,4.49794032 23.3177673,4.09857121 C23.6327837,3.78342982 23.6327837,3.78342982 23.7097068,3.70650678 C23.785859,3.63035455 23.8492099,3.54240095 23.8973115,3.44604453 L24.2113115,2.81704453 C24.4612806,2.31591334 24.9728274,1.9994 25.5326,1.9994 L32.4696,1.9994 C33.0286821,1.9994 33.5397205,2.31530558 33.7903861,2.81603987 L34.1048894,3.44604634 C34.1529909,3.54240205 34.2163415,3.63035503 34.2924932,3.70650678 L37.2924932,6.70650678 C37.4093043,6.82331782 37.5532343,6.90937105 37.7114219,6.95697684 C41.5768396,8.12025535 44.0072833,9.23558948 45.2744813,10.2359807 C45.6669841,10.5458427 45.8886925,10.7988281 45.985243,10.9838321 C45.9977205,11.074491 46.0097057,11.1715241 46.0356717,11.2655622 Z"/><path d="M-0.896539021,50.3347768 C-0.936677059,50.5373903 -0.936677059,50.5373903 -0.9336,50.6089 C-0.9336,50.7391305 -0.908162299,50.8681071 -0.858715689,50.9885853 C-0.530424395,51.7884778 -0.178691497,52.5692785 0.195050034,53.3292197 C0.289937032,53.5221566 0.444481613,53.6793733 0.635763706,53.7775535 C0.810452292,53.8672166 0.991631848,53.9396885 1.17968055,53.9929936 L4.29780099,54.8834588 C5.93410205,55.351402 7.63224707,54.3645661 8.03587577,52.7110388 L13.0024,33.760193 L13.0024,54.9999 C13.0024,57.7611847 15.2411153,59.9999 18.0024,59.9999 L19.7364,59.9999 C20.0853219,59.9999 20.4090136,59.8180305 20.5904942,59.5200183 C23.9645429,53.9794416 26.0004,44.8949384 26.0004,34.9999 C26.0004,21.8006466 22.3874882,10.2689915 17.0180412,6.39960801 C16.7436383,6.20186509 16.3878745,6.15623102 16.072447,6.27831599 C11.77237,7.942644 10.0461818,9.50436017 9.99907805,10.8691835 L-0.896539021,50.3347768 Z M24.0004,34.9999 C24.0004,44.26756 22.1597689,52.7607869 19.1653692,57.9999 L18.0024,57.9999 C16.3456847,57.9999 15.0024,56.6566153 15.0024,54.9999 L15.0024,25.9999 C15.0024,24.8273539 13.3323159,24.6121494 13.0350666,25.7463924 L6.09706659,52.2203924 C5.95850583,52.7874269 5.39250702,53.1163434 4.84735391,52.9604426 L1.81963507,52.0957959 C1.57613987,51.5865589 1.34290685,51.0675149 1.12042095,50.5392499 L11.8687943,11.6120558 C12.0102703,11.4079907 12.0834995,11.1549144 12.0621858,10.9084381 C12.1239641,10.8134658 12.2216041,10.6952131 12.3647662,10.5550441 C13.0288873,9.90480825 14.2875937,9.15706342 16.2723095,8.35046617 C20.7714069,12.0853117 24.0004,22.7608653 24.0004,34.9999 Z"/><path d="M20,4.9997 C20,7.20998475 21.7897153,8.9997 24,8.9997 C24.5522847,8.9997 25,8.55198475 25,7.9997 C25,7.44741525 24.5522847,6.9997 24,6.9997 C22.8942847,6.9997 22,6.10541525 22,4.9997 C22,4.44741525 21.5522847,3.9997 21,3.9997 C20.4477153,3.9997 20,4.44741525 20,4.9997 Z"/><path d="M36,4.9997 C36,6.10541525 35.1057153,6.9997 34,6.9997 C33.4477153,6.9997 33,7.44741525 33,7.9997 C33,8.55198475 33.4477153,8.9997 34,8.9997 C36.2102847,8.9997 38,7.20998475 38,4.9997 C38,4.44741525 37.5522847,3.9997 37,3.9997 C36.4477153,3.9997 36,4.44741525 36,4.9997 Z"/><path d="M47.8106849,10.1664015 C47.2652985,9.03949951 45.7836152,7.90550096 43.0031395,6.71520871 C42.6346337,6.55761877 42.2935723,6.41949661 41.9282202,6.2781033 C41.612888,6.15606795 41.2572433,6.20164507 40.9828745,6.39925266 C35.6133857,10.2664985 32.0003,21.7990054 32.0003,34.9997 C32.0003,44.8940659 34.0359211,53.9787522 37.4091331,59.5196989 C37.5905979,59.817779 37.9143283,59.9997 38.2633,59.9997 L40.0003,59.9997 C42.7615847,59.9997 45.0003,57.7609847 45.0003,54.9997 L45.0003,34.0011665 L49.9697418,52.7311474 C50.3700755,54.3658659 52.0669443,55.3519602 53.7040211,54.8842239 L56.823899,53.9932588 C58.3922959,53.5445023 59.315476,51.9255923 58.9015648,50.3479309 L47.9950755,10.8452639 C47.971809,10.5978736 47.9125145,10.3857104 47.8106849,10.1664015 Z M42.1756926,8.53588063 C42.1479328,8.52378999 42.1479328,8.52378999 42.0881611,8.49194314 L42.1815654,8.53837623 C42.1801098,8.53775729 42.1781394,8.53692017 42.1756926,8.53588063 Z M56.2742144,52.0702803 L53.154701,52.9611412 C52.6085171,53.1171937 52.0427378,52.7884048 51.9075724,52.2367295 L44.9668582,26.0762526 C44.6666224,24.9446545 43.0003,25.1619499 43.0003,26.3327 L43.0003,54.9997 C43.0003,56.6564153 41.6570153,57.9997 40.0003,57.9997 L38.8344221,57.9997 C35.8407173,52.7601538 34.0003,44.2667368 34.0003,34.9997 C34.0003,22.7592562 37.2295281,12.0828245 41.7284102,8.35006417 C41.8810265,8.41200868 42.0283126,8.47320609 42.170531,8.5337636 C44.5621541,9.55551331 45.6921821,10.4103608 45.9854046,10.9847243 C45.9885128,10.9908125 46.8943,10.5667 46.8943,10.5667 L45.8943,10.5667 C45.8943,10.7117185 45.9254071,10.8539616 45.9854046,10.9847243 C46.0389393,10.6908 46.0389475,10.6909056 46.0402761,10.7081039 C46.0198777,10.7747558 46.0193215,10.7765734 46.0027337,10.9690562 C46.0017847,11.1001009 46.0138067,11.1841335 46.0363655,11.2658396 L56.9683719,50.860619 C57.1028898,51.3844856 56.7954354,51.9211462 56.2742144,52.0702803 Z"/></g></g></g><text x="0" y="75" fill="#000000" font-size="5px" font-weight="bold" font-family="'Helvetica Neue', Helvetica, Arial-Unicode, Arial, Sans-serif">Created by Ben Davis</text><text x="0" y="80" fill="#000000" font-size="5px" font-weight="bold" font-family="'Helvetica Neue', Helvetica, Arial-Unicode, Arial, Sans-serif">from the Noun Project</text></svg>