<svg xmlns="http://www.w3.org/2000/svg" xmlns:xlink="http://www.w3.org/1999/xlink" viewBox="0 0 60 61.25" version="1.1" x="0px" y="0px"><title>63 -Shorts- (Outline)</title><desc>Created with Sketch.</desc><g stroke="none" stroke-width="1" fill="none" fill-rule="evenodd"><g transform="translate(-360.000000, -1072.000000)" fill="#000000"><g transform="translate(360.000000, 1072.000000)"><path d="M12,43 C11.448,43 11,42.553 11,42 C11,40.346 9.654,39 8,39 C7.448,39 7,38.553 7,38 C7,37.447 7.448,37 8,37 C9.634,37 11.087,37.788 12,39.003 C12.913,37.788 14.366,37 16,37 C16.552,37 17,37.447 17,38 C17,38.553 16.552,39 16,39 C14.346,39 13,40.346 13,42 C13,42.553 12.552,43 12,43"/><path d="M22.0005,18 L21.9805,18 C21.4285,17.989 20.9895,17.533 21.0005,16.98 C21.1355,9.971 29.2445,6.243 29.5895,6.088 C29.8635,5.965 30.1795,5.972 30.4475,6.105 C30.7165,6.24 30.9105,6.489 30.9765,6.782 C31.0425,7.076 32.7055,14 39.9365,14 C39.9575,14 39.9795,13.996 40.0005,14 C40.5495,14 40.9975,14.444 41.0005,14.995 C41.0025,15.547 40.5575,15.997 40.0045,16 L39.9355,16 C33.1225,16 30.3445,10.851 29.4175,8.437 C27.4165,9.588 23.0855,12.587 23.0005,17.02 C22.9895,17.564 22.5435,18 22.0005,18"/><path d="M55,8 C54.448,8 54,7.553 54,7 L54,3 C54,2.448 53.551,2 53,2 L7,2 C6.449,2 6,2.448 6,3 L6,7 C6,7.553 5.552,8 5,8 C4.448,8 4,7.553 4,7 L4,3 C4,1.346 5.346,0 7,0 L53,0 C54.654,0 56,1.346 56,3 L56,7 C56,7.553 55.552,8 55,8"/><path d="M12,5 C11.448,5 11,4.553 11,4 L11,1 C11,0.447 11.448,0 12,0 C12.552,0 13,0.447 13,1 L13,4 C13,4.553 12.552,5 12,5"/><path d="M18,5 C17.448,5 17,4.553 17,4 L17,1 C17,0.447 17.448,0 18,0 C18.552,0 19,0.447 19,1 L19,4 C19,4.553 18.552,5 18,5"/><path d="M24,5 C23.448,5 23,4.553 23,4 L23,1 C23,0.447 23.448,0 24,0 C24.552,0 25,0.447 25,1 L25,4 C25,4.553 24.552,5 24,5"/><path d="M30,5 C29.448,5 29,4.553 29,4 L29,1 C29,0.447 29.448,0 30,0 C30.552,0 31,0.447 31,1 L31,4 C31,4.553 30.552,5 30,5"/><path d="M36,5 C35.448,5 35,4.553 35,4 L35,1 C35,0.447 35.448,0 36,0 C36.552,0 37,0.447 37,1 L37,4 C37,4.553 36.552,5 36,5"/><path d="M42,5 C41.448,5 41,4.553 41,4 L41,1 C41,0.447 41.448,0 42,0 C42.552,0 43,0.447 43,1 L43,4 C43,4.553 42.552,5 42,5"/><path d="M48,5 C47.448,5 47,4.553 47,4 L47,1 C47,0.447 47.448,0 48,0 C48.552,0 49,0.447 49,1 L49,4 C49,4.553 48.552,5 48,5"/><path d="M58.6782,19.9131 C58.6382,19.9131 58.5982,19.9111 58.5572,19.9061 C52.5382,19.1831 48.0002,14.0631 48.0002,8.0001 L48.0002,7.0001 C48.0002,6.4471 48.4482,6.0001 49.0002,6.0001 C49.5522,6.0001 50.0002,6.4471 50.0002,7.0001 L50.0002,8.0001 C50.0002,13.0531 53.7822,17.3171 58.7962,17.9201 C59.3442,17.9861 59.7352,18.4841 59.6692,19.0321 C59.6082,19.5401 59.1772,19.9131 58.6782,19.9131"/><path d="M30,38.002 C30.875,38.002 31.637,38.532 31.941,39.352 L33.333,43.092 C34.202,45.43 36.462,47 38.956,47 L53,47 C55.424,47 58,39.99 58,27 C58,17.166 56.832,10.474 54.699,8 L5.301,8 C3.168,10.474 2,17.166 2,27 C2,39.99 4.576,47 7,47 L21.044,47 C23.538,47 25.798,45.43 26.667,43.092 L28.058,39.352 C28.363,38.532 29.125,38.002 30,38.002 M53,49 L38.956,49 C35.63,49 32.617,46.906 31.458,43.789 L30.067,40.049 L28.996,39.7 L29.933,40.049 L28.542,43.789 C27.383,46.906 24.37,49 21.044,49 L7,49 C1.839,49 0,37.636 0,27 C0,15.725 1.458,8.705 4.333,6.135 C4.628,5.873 5.049,5.808 5.409,5.968 C5.431,5.978 5.452,5.988 5.474,6 L54.526,6 C54.548,5.988 54.569,5.978 54.591,5.968 C54.951,5.806 55.372,5.872 55.667,6.135 C58.542,8.705 60,15.725 60,27 C60,37.636 58.161,49 53,49"/><path d="M1.3218,19.9131 C0.8228,19.9131 0.3918,19.5401 0.3308,19.0321 C0.2648,18.4841 0.6558,17.9861 1.2038,17.9201 C6.2178,17.3171 9.9998,13.0531 9.9998,8.0001 L9.9998,7.0001 C9.9998,6.4471 10.4478,6.0001 10.9998,6.0001 C11.5518,6.0001 11.9998,6.4471 11.9998,7.0001 L11.9998,8.0001 C11.9998,14.0631 7.4618,19.1831 1.4428,19.9061 C1.4018,19.9111 1.3618,19.9131 1.3218,19.9131"/></g></g></g><text x="0" y="64" fill="#000000" font-size="5px" font-weight="bold" font-family="'Helvetica Neue', Helvetica, Arial-Unicode, Arial, Sans-serif">Created by Ben Davis</text><text x="0" y="69" fill="#000000" font-size="5px" font-weight="bold" font-family="'Helvetica Neue', Helvetica, Arial-Unicode, Arial, Sans-serif">from the Noun Project</text></svg>