<svg xmlns="http://www.w3.org/2000/svg" xmlns:xlink="http://www.w3.org/1999/xlink" version="1.1" x="0px" y="0px" viewBox="0 0 24 75" enable-background="new 0 0 24 60" xml:space="preserve"><g><path fill="#000000" d="M19,38.26V7c0-3.86-3.14-7-7-7S5,3.14,5,7v31.26c-3.54,2.55-5.42,6.77-4.92,11.15   c0.63,5.48,5.07,9.9,10.55,10.51C11.09,59.97,11.55,60,12,60c3.21,0,6.22-1.25,8.48-3.51C22.75,54.22,24,51.21,24,48   C24,44.12,22.14,40.52,19,38.26z M19.07,55.07c-2.16,2.16-5.15,3.21-8.22,2.86c-4.57-0.51-8.26-4.19-8.78-8.75   c-0.44-3.81,1.28-7.47,4.48-9.56L7,39.33V38h1c0.55,0,1-0.45,1-1s-0.45-1-1-1H7v-3h1c0.55,0,1-0.45,1-1s-0.45-1-1-1H7v-3h1   c0.55,0,1-0.45,1-1s-0.45-1-1-1H7v-3h1c0.55,0,1-0.45,1-1s-0.45-1-1-1H7v-3h1c0.55,0,1-0.45,1-1s-0.45-1-1-1H7v-3h1   c0.55,0,1-0.45,1-1s-0.45-1-1-1H7V8h1c0.55,0,1-0.45,1-1S8.55,6,8,6H7.1C7.57,3.72,9.58,2,12,2c2.76,0,5,2.24,5,5v1h-1   c-0.55,0-1,0.45-1,1s0.45,1,1,1h1v3h-1c-0.55,0-1,0.45-1,1s0.45,1,1,1h1v3h-1c-0.55,0-1,0.45-1,1s0.45,1,1,1h1v3h-1   c-0.55,0-1,0.45-1,1s0.45,1,1,1h1v3h-1c-0.55,0-1,0.45-1,1s0.45,1,1,1h1v3h-1c-0.55,0-1,0.45-1,1s0.45,1,1,1h1v4.33l0.45,0.3   C20.3,41.48,22,44.61,22,48C22,50.67,20.96,53.18,19.07,55.07z"/><path fill="#000000" d="M13,43.1V22c0-0.55-0.45-1-1-1s-1,0.45-1,1v21.1c-2.28,0.46-4,2.48-4,4.9c0,2.76,2.24,5,5,5s5-2.24,5-5   C17,45.58,15.28,43.56,13,43.1z"/></g><text x="0" y="75" fill="#000000" font-size="5px" font-weight="bold" font-family="'Helvetica Neue', Helvetica, Arial-Unicode, Arial, Sans-serif">Created by Ben Davis</text><text x="0" y="80" fill="#000000" font-size="5px" font-weight="bold" font-family="'Helvetica Neue', Helvetica, Arial-Unicode, Arial, Sans-serif">from the Noun Project</text></svg>