<svg xmlns="http://www.w3.org/2000/svg" xmlns:xlink="http://www.w3.org/1999/xlink" version="1.1" x="0px" y="0px" viewBox="0 0 60 72.5" style="enable-background:new 0 0 60 58;" xml:space="preserve"><title>36 -T-Shirt- (Outline)</title><desc>Created with Sketch.</desc><g><g transform="translate(-720.000000, -708.000000)"><g transform="translate(721.000000, 709.000000)"><path d="M35.7-0.7L35,0l-0.9-0.4l-4,8.8c-0.4,0.9-1.7,0.9-2.1,0l-4-8.8c-0.3-0.6-1.1-0.8-1.6-0.3l-2.8,2.8     c-7.1,2.2-9.6,4.2-9.5,6c0.1,0.5,0.3,0.7,0.7,0.9c0.7,0.2,1.3,1.4,1.8,3.2c0.2,0.8,0.3,1.7,0.4,2.7c0,0.3,0.1,0.6,0.1,0.9     c0,0.2,0,0.3,0,0.3l0,40c0,0.6,0.4,1,1,1h30c0.6,0,1-0.4,1-1V16c0,0,0-0.1,0-0.3c0-0.3,0-0.6,0.1-0.9c0.1-0.9,0.2-1.8,0.4-2.7     c0.4-1.8,1.1-3,1.8-3.2c0.3-0.1,0.6-0.4,0.7-0.8c0.2-1.9-2.4-3.9-9.5-6.1L35.7-0.7z M43,55H15V16c0-0.1,0-0.2,0-0.4     c0-0.3,0-0.6-0.1-1c-0.1-1-0.3-2-0.5-2.9c-0.5-1.9-1.1-3.3-2.1-4.1c0.1-0.1,0.2-0.2,0.4-0.4c1.3-1,3.7-2.1,7.6-3.3     c0.2,0,0.3-0.1,0.4-0.3l2-2l3.4,7.5c1.1,2.4,4.6,2.4,5.7,0l3.4-7.5l2,2c0.1,0.1,0.3,0.2,0.4,0.3c3.9,1.2,6.3,2.3,7.6,3.3     c0.2,0.1,0.3,0.3,0.4,0.4c-1,0.8-1.6,2.2-2.1,4.1c-0.2,0.9-0.4,1.9-0.5,2.9c0,0.3-0.1,0.7-0.1,1c0,0.2,0,0.3,0,0.4L43,55z"/><path d="M15,15.6c0-0.3,0-0.6-0.1-1c-0.1-1-0.3-2-0.5-2.9c-0.6-2.4-1.5-4.1-3-4.6C11,6.9,10.5,7,10.2,7.4l-11,14     c-0.4,0.4-0.3,1.1,0.2,1.4l7,5c0.3,0.2,0.7,0.2,1,0.1l7-3.7c0.3-0.2,0.5-0.5,0.5-0.9V16C15,15.9,15,15.8,15,15.6z M13,22.7     l-5.9,3.1l-5.6-4l9.8-12.5c0.5,0.5,0.9,1.5,1.3,2.8c0.2,0.8,0.3,1.7,0.4,2.7c0,0.3,0.1,0.6,0.1,0.9c0,0.1,0,0.2,0,0.3V22.7z"/><path d="M45,15.7c0-0.3,0-0.6,0.1-0.9c0.1-0.9,0.2-1.8,0.4-2.7c0.3-1.3,0.8-2.3,1.2-2.9l9.8,12.5l-5.6,4L45,22.7     V16C45,16,45,15.9,45,15.7z M43,23.3c0,0.4,0.2,0.7,0.5,0.9l7,3.7c0.3,0.2,0.7,0.1,1-0.1l7-5c0.5-0.3,0.6-1,0.2-1.4l-11-14     C47.5,7,47,6.9,46.6,7.1l-0.1,0c-1.4,0.5-2.4,2.2-2.9,4.6c-0.2,0.9-0.4,1.9-0.5,2.9c0,0.3-0.1,0.7-0.1,1c0,0.2,0,0.3,0,0.4     L43,23.3z"/><path d="M22.1,0.4l4,8.8c1.1,2.4,4.6,2.4,5.7,0l4-8.8c0.4-0.8-0.4-1.6-1.2-1.4l-0.2,0.1c-3.6,1.2-7.4,1.2-10.9,0     l-0.2-0.1C22.5-1.2,21.7-0.4,22.1,0.4z M33.2,1.6l-3.1,6.8c-0.4,0.9-1.7,0.9-2.1,0l-3.1-6.8C27.6,2.2,30.4,2.2,33.2,1.6z"/><path d="M25,28.8c0-0.3-0.1-0.7-0.4-0.9l-4.2-3.4l5.7-0.7c0.3,0,0.6-0.3,0.8-0.6l2.1-4.5l2.1,4.5     c0.1,0.3,0.4,0.5,0.8,0.6l5.7,0.7l-4.2,3.4c-0.3,0.2-0.4,0.6-0.4,0.9l0.6,5.1l-4-2.8c-0.3-0.2-0.8-0.2-1.1,0l-4,2.8L25,28.8z      M34.3,36.8c0.7,0.5,1.7-0.1,1.6-0.9l-0.8-6.8l5.6-4.6c0.7-0.6,0.4-1.7-0.5-1.8l-7.4-0.9l-2.8-6c-0.4-0.8-1.5-0.8-1.8,0l-2.8,6     l-7.4,0.9c-0.9,0.1-1.2,1.2-0.5,1.8l5.6,4.6l-0.8,6.8c-0.1,0.9,0.9,1.4,1.6,0.9l5.2-3.6L34.3,36.8z"/></g></g></g><text x="0" y="73" fill="#000000" font-size="5px" font-weight="bold" font-family="'Helvetica Neue', Helvetica, Arial-Unicode, Arial, Sans-serif">Created by Ben Davis</text><text x="0" y="78" fill="#000000" font-size="5px" font-weight="bold" font-family="'Helvetica Neue', Helvetica, Arial-Unicode, Arial, Sans-serif">from the Noun Project</text></svg>