<svg xmlns="http://www.w3.org/2000/svg" xmlns:xlink="http://www.w3.org/1999/xlink" viewBox="0 0 60 32.5" version="1.1" x="0px" y="0px"><title>19 -Dress Shoe- (Outline)</title><desc>Created with Sketch.</desc><g stroke="none" stroke-width="1" fill="none" fill-rule="evenodd"><g transform="translate(-1081.000000, -488.000000)" fill="#000000"><g transform="translate(1081.000000, 488.000000)"><path d="M16,21.0002 C16.083,21.0002 16.167,21.0102 16.249,21.0322 C19.03,21.8172 43.081,28.2442 58,19.4252 L58,18.6042 C53.69,20.5052 40.126,24.8722 14.775,19.4102 C13.481,19.1302 12.104,18.9892 10.679,18.9892 L2,18.9992 L2,22.0002 L14.586,22.0002 L15.293,21.2932 C15.482,21.1032 15.738,21.0002 16,21.0002 M37.762,26.0092 C27.836,26.0102 18.933,23.8302 16.295,23.1192 L15.707,23.7072 C15.52,23.8952 15.266,24.0002 15,24.0002 L1,24.0002 C0.447,24.0002 0,23.5522 0,23.0002 L0,18.0002 C0,17.4482 0.447,17.0002 0.999,17.0002 L10.678,16.9892 C12.245,16.9892 13.765,17.1462 15.197,17.4552 C45.208,23.9222 58.351,16.2142 58.48,16.1342 C58.789,15.9482 59.176,15.9392 59.49,16.1172 C59.805,16.2942 60,16.6272 60,16.9892 L60,19.9892 C60,20.3342 59.821,20.6562 59.527,20.8382 C53.161,24.7922 45.176,26.0092 37.762,26.0092"/><path d="M10.6777,16.989 C12.2447,16.989 13.7647,17.146 15.1977,17.455 C41.2117,23.06 54.5517,18.015 57.7277,16.521 C57.2597,15.848 56.3537,15.271 55.7757,14.996 C53.7617,14.945 39.1367,14.376 34.2397,8.65 C30.5047,4.283 26.6477,2.62 25.2787,2.136 L23.7067,3.707 C19.0507,8.241 14.5047,10.346 10.2047,9.975 C6.8047,9.681 4.4287,7.902 3.1877,6.699 C1.1987,10.806 2.2337,15.355 2.7217,16.998 L10.6777,16.989 Z M37.5897,22.062 C31.4177,22.062 23.8537,21.366 14.7757,19.41 C13.4817,19.131 12.1037,18.989 10.6787,18.989 L2.0007,18.999 L1.9997,18.999 C1.6147,18.999 1.2647,18.778 1.0987,18.431 C1.0647,18.361 -1.9053,10.712 2.1607,4.455 C2.3407,4.179 2.6457,4.009 2.9747,4.001 C3.3337,3.981 3.6167,4.148 3.8107,4.414 C3.8317,4.444 6.2197,7.637 10.4067,7.985 C14.1027,8.291 18.1007,6.374 22.3027,2.284 L24.2927,0.293 C24.5387,0.045 24.8977,-0.055 25.2397,0.029 C25.4587,0.083 30.6927,1.424 35.7597,7.35 C40.3307,12.696 55.8597,12.998 56.0157,13 C56.1437,13.002 56.2707,13.029 56.3887,13.079 C56.7097,13.215 59.4997,14.452 59.9647,16.727 C59.9887,16.811 59.9997,16.899 59.9997,16.989 C59.9997,17.396 59.7557,17.755 59.4027,17.912 C58.3817,18.495 51.5597,22.061 37.5897,22.062 L37.5897,22.062 Z"/><path d="M22.6035,4.7331 L27.9565,9.1701 C29.9455,10.8221 32.7995,10.7621 34.7185,9.1631 C34.5475,8.9941 34.3885,8.8241 34.2405,8.6501 C30.5045,4.2831 26.6475,2.6201 25.2785,2.1361 L23.7075,3.7071 C23.3475,4.0571 22.9825,4.3961 22.6035,4.7331 M31.3255,12.3851 C29.6855,12.3851 28.0375,11.8361 26.6785,10.7111 L20.4135,5.5161 C20.1845,5.3251 20.0515,5.0431 20.0515,4.7461 C20.0515,4.4481 20.1845,4.1661 20.4145,3.9761 C21.0945,3.4111 21.7125,2.8581 22.3025,2.2841 L24.2925,0.2931 C24.5395,0.0451 24.8975,-0.0549 25.2395,0.0291 C25.4585,0.0831 30.6925,1.4241 35.7595,7.3501 C36.0415,7.6801 36.3805,8.0001 36.7955,8.3291 C37.0065,8.4961 37.1415,8.7411 37.1685,9.0081 C37.1975,9.2761 37.1165,9.5441 36.9445,9.7511 C35.5045,11.4871 33.4215,12.3851 31.3255,12.3851"/><path d="M27,6.0002 C26.744,6.0002 26.488,5.9022 26.293,5.7072 C25.902,5.3162 25.902,4.6842 26.293,4.2932 L28.293,2.2932 C28.684,1.9022 29.316,1.9022 29.707,2.2932 C30.098,2.6842 30.098,3.3162 29.707,3.7072 L27.707,5.7072 C27.512,5.9022 27.256,6.0002 27,6.0002"/><path d="M30,8.9987 C29.744,8.9987 29.488,8.9017 29.294,8.7067 C28.902,8.3157 28.902,7.6837 29.292,7.2917 L31.821,4.7587 C32.212,4.3667 32.847,4.3667 33.235,4.7577 C33.627,5.1477 33.627,5.7807 33.237,6.1717 L30.708,8.7057 C30.513,8.9007 30.256,8.9987 30,8.9987"/><path d="M14.2578,10.365 C14.1008,10.365 13.9408,10.328 13.7918,10.249 C13.5378,10.115 13.3658,9.888 13.2948,9.632 C13.0148,9.51 12.7928,9.261 12.7188,8.94 C12.5938,8.402 12.9288,7.865 13.4658,7.74 C13.7568,7.673 14.0528,7.592 14.3558,7.496 C14.7138,7.38 15.1108,7.481 15.3738,7.751 C15.6378,8.023 15.7258,8.419 15.6018,8.777 C15.4778,9.136 15.3228,9.491 15.1438,9.832 C14.9638,10.171 14.6168,10.365 14.2578,10.365"/><path d="M6.9326,9.0783 C6.7926,9.0783 6.6496,9.0493 6.5136,8.9863 C6.1346,8.8103 5.7606,8.6123 5.4006,8.3953 C4.9276,8.1103 4.7756,7.4953 5.0606,7.0223 C5.3446,6.5493 5.9586,6.3973 6.4336,6.6823 C6.7166,6.8533 7.0246,7.0183 7.3536,7.1703 C7.8546,7.4023 8.0736,7.9963 7.8406,8.4973 C7.6716,8.8633 7.3106,9.0783 6.9326,9.0783 M10.8316,10.0073 L10.7976,10.0073 C10.3746,9.9933 9.9506,9.9543 9.5366,9.8933 C8.9906,9.8123 8.6136,9.3033 8.6946,8.7573 C8.7766,8.2103 9.2856,7.8353 9.8296,7.9143 C10.1616,7.9643 10.5066,7.9963 10.8646,8.0083 C11.4156,8.0263 11.8486,8.4893 11.8296,9.0403 C11.8126,9.5813 11.3686,10.0073 10.8316,10.0073"/><path d="M2.4893,6.8635 C2.3303,6.8635 2.1693,6.8255 2.0183,6.7455 C1.5313,6.4845 1.3473,5.8785 1.6083,5.3915 C1.7773,5.0765 1.9613,4.7645 2.1623,4.4545 C2.3423,4.1785 2.6453,4.0095 2.9743,4.0005 C3.3113,3.9875 3.6153,4.1465 3.8093,4.4135 C3.8093,4.4135 4.0043,4.6755 4.3723,5.0535 C4.7583,5.4485 4.7503,6.0815 4.3543,6.4675 C4.0243,6.7885 3.5313,6.8375 3.1503,6.6145 C2.9683,6.7765 2.7303,6.8635 2.4893,6.8635"/><path d="M1.4072,9.7307 C1.3292,9.7307 1.2492,9.7217 1.1702,9.7027 C0.6332,9.5717 0.3032,9.0307 0.4342,8.4947 C0.5082,8.1917 0.5922,7.8887 0.6872,7.5847 C0.8542,7.0587 1.4132,6.7657 1.9422,6.9317 C2.4692,7.0977 2.7612,7.6587 2.5952,8.1857 C2.5132,8.4467 2.4412,8.7077 2.3782,8.9667 C2.2662,9.4247 1.8572,9.7307 1.4072,9.7307 M1.0172,12.7727 L0.9942,12.7727 C0.4412,12.7597 0.0052,12.3017 0.0172,11.7497 C0.0252,11.4437 0.0412,11.1327 0.0652,10.8177 C0.1102,10.2677 0.5822,9.8597 1.1412,9.8997 C1.6922,9.9437 2.1022,10.4247 2.0592,10.9757 C2.0372,11.2527 2.0232,11.5277 2.0172,11.7967 C2.0042,12.3407 1.5592,12.7727 1.0172,12.7727"/><path d="M2.2373,15.9983 L2.2223,15.9983 C1.8693,15.9933 1.5183,15.9783 1.1723,15.9543 C0.7073,15.9223 0.3263,15.5743 0.2533,15.1143 C0.2003,14.7843 0.1533,14.4353 0.1153,14.0703 C0.0573,13.5213 0.4563,13.0293 1.0063,12.9723 C1.5603,12.9143 2.0473,13.3143 2.1033,13.8623 C2.1083,13.9073 2.1133,13.9523 2.1183,13.9963 C2.1633,13.9973 2.2073,13.9983 2.2523,13.9983 C2.8033,14.0063 3.2453,14.4603 3.2373,15.0133 C3.2293,15.5603 2.7833,15.9983 2.2373,15.9983"/><path d="M10.6631,13.9328 C10.3201,13.9328 9.9861,13.7568 9.8001,13.4398 C9.5201,12.9638 9.6791,12.3508 10.1551,12.0708 C10.5491,11.8398 10.9211,11.5878 11.2621,11.3238 C11.7001,10.9868 12.3261,11.0658 12.6651,11.5028 C13.0031,11.9398 12.9231,12.5678 12.4861,12.9058 C12.0781,13.2218 11.6361,13.5198 11.1691,13.7948 C11.0101,13.8888 10.8351,13.9328 10.6631,13.9328 M5.8761,15.6858 C5.4051,15.6858 4.9861,15.3518 4.8941,14.8728 C4.7911,14.3298 5.1471,13.8068 5.6891,13.7038 C6.1471,13.6168 6.5941,13.5108 7.0271,13.3878 C7.5581,13.2368 8.1111,13.5438 8.2631,14.0758 C8.4141,14.6068 8.1051,15.1608 7.5741,15.3108 C7.0841,15.4508 6.5761,15.5708 6.0641,15.6678 C6.0011,15.6798 5.9371,15.6858 5.8761,15.6858"/><path d="M24.293,2.7072 C24.037,2.7072 23.781,2.6092 23.586,2.4142 C23.195,2.0232 23.195,1.3912 23.586,1.0002 L24.293,0.2932 C24.539,0.0452 24.897,-0.0548 25.238,0.0292 C25.279,0.0392 25.663,0.1352 26.303,0.3792 C26.818,0.5762 27.077,1.1532 26.881,1.6692 C26.684,2.1852 26.104,2.4442 25.59,2.2482 C25.476,2.2052 25.372,2.1662 25.28,2.1342 L25,2.4142 C24.805,2.6092 24.549,2.7072 24.293,2.7072"/><path d="M21.5742,5.3132 C21.2952,5.3132 21.0172,5.1972 20.8202,4.9702 C20.4572,4.5532 20.5012,3.9212 20.9182,3.5592 C21.1742,3.3362 21.4322,3.1042 21.6942,2.8612 C22.0982,2.4852 22.7332,2.5092 23.1072,2.9162 C23.4832,3.3212 23.4592,3.9542 23.0532,4.3292 C22.7762,4.5852 22.5022,4.8312 22.2302,5.0672 C22.0412,5.2322 21.8072,5.3132 21.5742,5.3132 M18.5692,7.5742 C18.2382,7.5742 17.9142,7.4102 17.7232,7.1092 C17.4282,6.6432 17.5662,6.0252 18.0322,5.7302 C18.3132,5.5512 18.5972,5.3612 18.8862,5.1582 C19.3362,4.8382 19.9612,4.9482 20.2792,5.3982 C20.5972,5.8502 20.4892,6.4732 20.0382,6.7922 C19.7222,7.0142 19.4112,7.2232 19.1042,7.4182 C18.9372,7.5232 18.7532,7.5742 18.5692,7.5742"/><path d="M15.6406,10.1628 C15.2656,10.1628 14.9076,9.9518 14.7366,9.5908 C14.5716,9.2428 14.4316,8.8838 14.3226,8.5218 C14.1686,8.0158 14.4366,7.4768 14.9326,7.2938 C15.2166,7.1888 15.5036,7.0718 15.7966,6.9408 C16.3036,6.7168 16.8936,6.9428 17.1176,7.4478 C17.3426,7.9518 17.1156,8.5428 16.6116,8.7678 C16.5966,8.7738 16.5806,8.7808 16.5666,8.7878 C16.7646,9.2748 16.5496,9.8388 16.0676,10.0668 C15.9296,10.1318 15.7846,10.1628 15.6406,10.1628"/><path d="M19.8379,14.4895 C19.6579,14.4895 19.4759,14.4415 19.3119,14.3395 C18.7679,14.0025 18.2549,13.6415 17.7869,13.2695 C17.3559,12.9255 17.2839,12.2965 17.6279,11.8645 C17.9719,11.4315 18.6029,11.3605 19.0329,11.7045 C19.4409,12.0295 19.8889,12.3435 20.3659,12.6395 C20.8349,12.9305 20.9799,13.5475 20.6889,14.0165 C20.4989,14.3225 20.1729,14.4895 19.8379,14.4895 M25.4469,16.8765 C25.3579,16.8765 25.2669,16.8645 25.1769,16.8395 C24.5819,16.6725 24.0049,16.4895 23.4469,16.2925 C22.9269,16.1075 22.6539,15.5365 22.8389,15.0155 C23.0239,14.4945 23.5959,14.2215 24.1149,14.4075 C24.6319,14.5905 25.1659,14.7595 25.7159,14.9135 C26.2479,15.0625 26.5589,15.6145 26.4089,16.1455 C26.2859,16.5875 25.8839,16.8765 25.4469,16.8765"/><path d="M41.875,17.0544 C41.429,17.0544 41.021,16.7524 40.906,16.2994 C40.771,15.7644 41.096,15.2204 41.631,15.0854 C42.185,14.9454 42.724,14.7894 43.247,14.6204 C43.771,14.4504 44.336,14.7394 44.506,15.2634 C44.676,15.7894 44.388,16.3534 43.862,16.5234 C43.3,16.7054 42.718,16.8724 42.121,17.0234 C42.039,17.0444 41.956,17.0544 41.875,17.0544 M31.476,17.9084 C31.451,17.9084 31.426,17.9074 31.401,17.9054 C30.796,17.8604 30.198,17.8004 29.61,17.7264 C29.062,17.6574 28.675,17.1564 28.744,16.6084 C28.814,16.0604 29.312,15.6734 29.862,15.7424 C30.415,15.8124 30.978,15.8684 31.548,15.9104 C32.099,15.9514 32.513,16.4304 32.472,16.9814 C32.433,17.5074 31.994,17.9084 31.476,17.9084 M35.837,17.9514 C35.309,17.9514 34.867,17.5384 34.839,17.0054 C34.81,16.4534 35.233,15.9824 35.785,15.9534 C36.355,15.9234 36.919,15.8784 37.474,15.8194 C38.029,15.7644 38.516,16.1584 38.574,16.7074 C38.633,17.2564 38.235,17.7484 37.687,17.8074 C37.097,17.8704 36.498,17.9184 35.891,17.9504 C35.873,17.9514 35.854,17.9514 35.837,17.9514"/><path d="M47.5684,14.8405 C47.2194,14.8405 46.8814,14.6585 46.6974,14.3335 C46.5824,14.1305 46.5464,13.9045 46.5794,13.6905 C46.4584,13.4925 46.4054,13.2525 46.4464,13.0055 C46.5374,12.4605 47.0534,12.0905 47.5974,12.1835 C47.9244,12.2385 48.2484,12.2895 48.5674,12.3365 C48.9784,12.3985 49.3094,12.7085 49.3974,13.1145 C49.4854,13.5225 49.3114,13.9415 48.9624,14.1665 C48.6714,14.3535 48.3714,14.5345 48.0604,14.7105 C47.9044,14.7985 47.7354,14.8405 47.5684,14.8405"/><path d="M40.168,12.2917 C40.047,12.2917 39.925,12.2697 39.806,12.2237 C39.393,12.0627 38.988,11.8937 38.599,11.7147 C38.096,11.4847 37.875,10.8907 38.105,10.3887 C38.335,9.8877 38.929,9.6667 39.431,9.8957 C39.787,10.0597 40.154,10.2127 40.53,10.3587 C41.045,10.5597 41.3,11.1387 41.1,11.6537 C40.946,12.0487 40.568,12.2917 40.168,12.2917 M44.363,13.5597 C44.287,13.5597 44.211,13.5507 44.134,13.5327 C43.717,13.4357 43.302,13.3307 42.887,13.2197 C42.354,13.0757 42.037,12.5267 42.181,11.9937 C42.324,11.4587 42.876,11.1457 43.406,11.2877 C43.8,11.3947 44.195,11.4927 44.591,11.5857 C45.128,11.7117 45.462,12.2497 45.336,12.7877 C45.228,13.2487 44.817,13.5597 44.363,13.5597"/><path d="M29.8213,4.3567 C29.6303,4.3567 29.4373,4.3017 29.2663,4.1877 C28.9153,3.9537 28.5773,3.7417 28.2533,3.5497 C27.7773,3.2697 27.6203,2.6557 27.9003,2.1807 C28.1813,1.7057 28.7953,1.5487 29.2703,1.8287 C29.6243,2.0377 29.9953,2.2687 30.3783,2.5257 C30.8373,2.8327 30.9613,3.4537 30.6533,3.9127 C30.4613,4.2007 30.1433,4.3567 29.8213,4.3567 M33.2253,7.1127 C32.9753,7.1127 32.7253,7.0197 32.5313,6.8327 C32.2333,6.5447 31.9373,6.2737 31.6443,6.0167 C31.2293,5.6517 31.1873,5.0207 31.5513,4.6057 C31.9153,4.1897 32.5493,4.1487 32.9633,4.5127 C33.2793,4.7897 33.5983,5.0827 33.9203,5.3937 C34.3173,5.7767 34.3293,6.4097 33.9453,6.8067 C33.7493,7.0107 33.4873,7.1127 33.2253,7.1127 M36.3063,10.2217 C36.0953,10.2217 35.8823,10.1547 35.7013,10.0167 C35.3163,9.7227 34.9643,9.4147 34.6533,9.0987 C34.2663,8.7057 34.2713,8.0717 34.6643,7.6847 C35.0593,7.2957 35.6903,7.3017 36.0793,7.6957 C36.3233,7.9437 36.6043,8.1897 36.9143,8.4267 C37.3533,8.7617 37.4373,9.3897 37.1023,9.8287 C36.9053,10.0857 36.6083,10.2217 36.3063,10.2217"/></g></g></g><text x="0" y="41" fill="#000000" font-size="5px" font-weight="bold" font-family="'Helvetica Neue', Helvetica, Arial-Unicode, Arial, Sans-serif">Created by Ben Davis</text><text x="0" y="46" fill="#000000" font-size="5px" font-weight="bold" font-family="'Helvetica Neue', Helvetica, Arial-Unicode, Arial, Sans-serif">from the Noun Project</text></svg>