<svg xmlns="http://www.w3.org/2000/svg" xmlns:xlink="http://www.w3.org/1999/xlink" viewBox="0 0 54 75" version="1.1" x="0px" y="0px"><title>65 -Woman Necklace- (Outline)</title><desc>Created with Sketch.</desc><g stroke="none" stroke-width="1" fill="none" fill-rule="evenodd"><g transform="translate(-602.000000, -1068.000000)" fill="#000000"><g transform="translate(602.000000, 1068.000000)"><path d="M4.4884535,2.91682838 C4.39927288,2.24698286 4.32413611,1.5788285 4.26305764,0.909873868 C4.21284052,0.35987688 3.72627086,-0.0452747559 3.17627387,0.00494236034 C2.62627688,0.0551594766 2.22112524,0.541729145 2.27134236,1.09172613 C2.33494191,1.78829259 2.41315584,2.4838106 2.5059465,3.18077162 C2.57883242,3.72822581 3.08171743,4.11293941 3.62917162,4.0400535 C4.17662581,3.96716758 4.56133941,3.46428257 4.4884535,2.91682838 Z"/><path d="M6.59387798,12.0219127 C6.22538052,10.9380388 5.89500985,9.82823808 5.60365598,8.69400426 C5.46624989,8.15908557 4.92122296,7.83683793 4.38630426,7.97424402 C3.85138557,8.11165011 3.52913793,8.65667704 3.66654402,9.19159574 C3.97051152,10.3749341 4.31539871,11.5334996 4.70032202,12.6656873 C4.87809549,13.1885784 5.44609631,13.4683514 5.96898734,13.290578 C6.49187838,13.1128045 6.77165145,12.5448037 6.59387798,12.0219127 Z"/><path d="M10.2805442,19.93832 C9.77959287,19.1274416 9.30511379,18.2830585 8.85765141,17.4056052 C8.60675132,16.9136016 8.00450885,16.7181485 7.5125052,16.9690486 C7.02050155,17.2199487 6.8250485,17.8221912 7.07594859,18.3141948 C7.548033,19.2399308 8.04924246,20.1318833 8.57905579,20.98948 C8.86932559,21.459333 9.4855269,21.604914 9.95537996,21.3146442 C10.425233,21.0243744 10.570814,20.4081731 10.2805442,19.93832 Z"/><path d="M16.0670243,26.7471643 C15.2762595,26.0907342 14.5084405,25.3606453 13.7655039,24.5595911 C13.3899453,24.1546538 12.7572284,24.1308376 12.3522911,24.5063961 C11.9473538,24.8819547 11.9235376,25.5146716 12.2990961,25.9196089 C13.1000702,26.7832406 13.9307951,27.5731443 14.7895757,28.2860357 C15.2145233,28.6387934 15.844978,28.5802719 16.1977357,28.1553243 C16.5504934,27.7303767 16.4919719,27.099922 16.0670243,26.7471643 Z"/><path d="M24.233602,30.7415247 C23.1105478,30.5322367 22.005186,30.1978 20.9231434,29.7412539 C20.414298,29.5265569 19.827751,29.7650112 19.6130539,30.2738566 C19.3983569,30.782702 19.6368112,31.369249 20.1456566,31.5839461 C21.3586609,32.0957487 22.6017094,32.4718438 23.867198,32.7076753 C24.4101354,32.808855 24.9322956,32.4507395 25.0334753,31.907802 C25.134655,31.3648646 24.7765395,30.8427044 24.233602,30.7415247 Z"/><path d="M33.152543,29.7414646 C32.069997,30.1972735 30.9641359,30.5318613 29.8406077,30.7421723 C29.2977517,30.8437884 28.9400562,31.3662363 29.0416723,31.9090923 C29.1432884,32.4519483 29.6657363,32.8096438 30.2085923,32.7080277 C31.4734955,32.471253 32.7160448,32.095309 33.928657,31.5847354 C34.4376622,31.3704174 34.6765533,30.7840482 34.4622354,30.275043 C34.2479174,29.7660378 33.6615482,29.5271467 33.152543,29.7414646 Z"/><path d="M40.307864,24.5602257 C39.5650857,25.3611851 38.7973854,26.0909209 38.0068311,26.7463865 C37.5816748,27.0988927 37.5227803,27.7293127 37.8752865,28.1544689 C38.2277927,28.5796252 38.8582127,28.6385197 39.2833689,28.2860135 C40.1423596,27.5738058 40.9732787,26.7839775 41.774336,25.9201743 C42.1498754,25.5152192 42.1260293,24.8825035 41.7210743,24.506964 C41.3161192,24.1314246 40.6834035,24.1552707 40.307864,24.5602257 Z"/><path d="M45.2197439,17.3998225 C44.7685601,18.2836348 44.2927228,19.130703 43.7927226,19.9398119 C43.5023931,20.4096281 43.6478958,21.0258479 44.1177119,21.3161774 C44.5875281,21.6065069 45.2037479,21.4610042 45.4940774,20.9911881 C46.0229897,20.1352932 46.5254421,19.2408457 47.0010561,18.3091775 C47.2521676,17.8172817 47.0569733,17.2149553 46.5650775,16.9638439 C46.0731817,16.7127324 45.4708553,16.9079267 45.2197439,17.3998225 Z"/><path d="M48.470944,8.69260426 C48.1786767,9.83039395 47.8480917,10.9409148 47.4809003,12.0189887 C47.3028375,12.5417812 47.5822961,13.1099368 48.1050887,13.2879997 C48.6278812,13.4660625 49.1960368,13.1866039 49.3740997,12.6638113 C49.7579234,11.536905 50.1031282,10.3772723 50.408056,9.19019574 C50.5454621,8.65527704 50.2232144,8.11025011 49.6882957,7.97284402 C49.153377,7.83543793 48.6083501,8.15768557 48.470944,8.69260426 Z"/><path d="M49.8118543,0.908942993 C49.7522429,1.56088365 49.6770768,2.22761659 49.5862308,2.91865914 C49.5142455,3.46623248 49.8997858,3.96848397 50.4473591,4.04046924 C50.9949325,4.11245451 51.497184,3.7269142 51.5691692,3.17934086 C51.6633441,2.46297719 51.7414497,1.77017032 51.8035457,1.09105701 C51.8538351,0.541066624 51.4487474,0.0544437149 50.898757,0.00415431846 C50.3487666,-0.046135078 49.8621437,0.35895261 49.8118543,0.908942993 Z"/><path d="M29.0372,32 C29.0372,33.1047153 28.1419153,34 27.0372,34 C25.9324847,34 25.0372,33.1047153 25.0372,32 C25.0372,30.8958878 25.9328816,30 27.0372,30 C28.1415184,30 29.0372,30.8958878 29.0372,32 Z M31.0372,32 C31.0372,29.7914214 29.246191,28 27.0372,28 C24.828209,28 23.0372,29.7914214 23.0372,32 C23.0372,34.2092847 24.8279153,36 27.0372,36 C29.2464847,36 31.0372,34.2092847 31.0372,32 Z"/><path d="M29.0372,44 C29.0372,45.1047153 28.1419153,46 27.0372,46 C25.9324847,46 25.0372,45.1047153 25.0372,44 C25.0372,42.8958878 25.9328816,42 27.0372,42 C28.1415184,42 29.0372,42.8958878 29.0372,44 Z M31.0372,44 C31.0372,41.7914214 29.246191,40 27.0372,40 C24.828209,40 23.0372,41.7914214 23.0372,44 C23.0372,46.2092847 24.8279153,48 27.0372,48 C29.2464847,48 31.0372,46.2092847 31.0372,44 Z"/><path d="M29.0372,56 C29.0372,57.1047153 28.1419153,58 27.0372,58 C25.9324847,58 25.0372,57.1047153 25.0372,56 C25.0372,54.8958878 25.9328816,54 27.0372,54 C28.1415184,54 29.0372,54.8958878 29.0372,56 Z M31.0372,56 C31.0372,53.7914214 29.246191,52 27.0372,52 C24.828209,52 23.0372,53.7914214 23.0372,56 C23.0372,58.2092847 24.8279153,60 27.0372,60 C29.2464847,60 31.0372,58.2092847 31.0372,56 Z"/><path d="M38.0372,29 C38.0372,30.1047153 37.1419153,31 36.0372,31 C34.9324847,31 34.0372,30.1047153 34.0372,29 C34.0372,27.8958878 34.9328816,27 36.0372,27 C37.1415184,27 38.0372,27.8958878 38.0372,29 Z M40.0372,29 C40.0372,26.7914214 38.246191,25 36.0372,25 C33.828209,25 32.0372,26.7914214 32.0372,29 C32.0372,31.2092847 33.8279153,33 36.0372,33 C38.2464847,33 40.0372,31.2092847 40.0372,29 Z"/><path d="M45.0372,23 C45.0372,24.1047153 44.1419153,25 43.0372,25 C41.9324847,25 41.0372,24.1047153 41.0372,23 C41.0372,21.8958878 41.9328816,21 43.0372,21 C44.1415184,21 45.0372,21.8958878 45.0372,23 Z M47.0372,23 C47.0372,20.7914214 45.246191,19 43.0372,19 C40.828209,19 39.0372,20.7914214 39.0372,23 C39.0372,25.2092847 40.8279153,27 43.0372,27 C45.2464847,27 47.0372,25.2092847 47.0372,23 Z"/><path d="M49.0372,15 C49.0372,16.1047153 48.1419153,17 47.0372,17 C45.9324847,17 45.0372,16.1047153 45.0372,15 C45.0372,13.8958878 45.9328816,13 47.0372,13 C48.1415184,13 49.0372,13.8958878 49.0372,15 Z M51.0372,15 C51.0372,12.7914214 49.246191,11 47.0372,11 C44.828209,11 43.0372,12.7914214 43.0372,15 C43.0372,17.2092847 44.8279153,19 47.0372,19 C49.2464847,19 51.0372,17.2092847 51.0372,15 Z"/><path d="M52.0372,6 C52.0372,7.10471525 51.1419153,8 50.0372,8 C48.9324847,8 48.0372,7.10471525 48.0372,6 C48.0372,4.89588783 48.9328816,4 50.0372,4 C51.1415184,4 52.0372,4.89588783 52.0372,6 Z M54.0372,6 C54.0372,3.7914214 52.246191,2 50.0372,2 C47.828209,2 46.0372,3.7914214 46.0372,6 C46.0372,8.20928475 47.8279153,10 50.0372,10 C52.2464847,10 54.0372,8.20928475 54.0372,6 Z"/><path d="M14.0372,29 C14.0372,31.2092847 15.8279153,33 18.0372,33 C20.2464847,33 22.0372,31.2092847 22.0372,29 C22.0372,26.7914214 20.246191,25 18.0372,25 C15.828209,25 14.0372,26.7914214 14.0372,29 Z M16.0372,29 C16.0372,27.8958878 16.9328816,27 18.0372,27 C19.1415184,27 20.0372,27.8958878 20.0372,29 C20.0372,30.1047153 19.1419153,31 18.0372,31 C16.9324847,31 16.0372,30.1047153 16.0372,29 Z"/><path d="M7.0372,23 C7.0372,25.2092847 8.82791525,27 11.0372,27 C13.2464847,27 15.0372,25.2092847 15.0372,23 C15.0372,20.7914214 13.246191,19 11.0372,19 C8.82820901,19 7.0372,20.7914214 7.0372,23 Z M9.0372,23 C9.0372,21.8958878 9.9328816,21 11.0372,21 C12.1415184,21 13.0372,21.8958878 13.0372,23 C13.0372,24.1047153 12.1419153,25 11.0372,25 C9.93248475,25 9.0372,24.1047153 9.0372,23 Z"/><path d="M3.0372,15 C3.0372,17.2092847 4.82791525,19 7.0372,19 C9.24648475,19 11.0372,17.2092847 11.0372,15 C11.0372,12.7914214 9.24619099,11 7.0372,11 C4.82820901,11 3.0372,12.7914214 3.0372,15 Z M5.0372,15 C5.0372,13.8958878 5.9328816,13 7.0372,13 C8.1415184,13 9.0372,13.8958878 9.0372,15 C9.0372,16.1047153 8.14191525,17 7.0372,17 C5.93248475,17 5.0372,16.1047153 5.0372,15 Z"/><path d="M0.0372,6 C0.0372,8.20928475 1.82791525,10 4.0372,10 C6.24648475,10 8.0372,8.20928475 8.0372,6 C8.0372,3.7914214 6.24619099,2 4.0372,2 C1.82820901,2 0.0372,3.7914214 0.0372,6 Z M2.0372,6 C2.0372,4.89588783 2.9328816,4 4.0372,4 C5.1415184,4 6.0372,4.89588783 6.0372,6 C6.0372,7.10471525 5.14191525,8 4.0372,8 C2.93248475,8 2.0372,7.10471525 2.0372,6 Z"/><path d="M26.0372,35 L26.0372,41 C26.0372,41.5522847 26.4849153,42 27.0372,42 C27.5894847,42 28.0372,41.5522847 28.0372,41 L28.0372,35 C28.0372,34.4477153 27.5894847,34 27.0372,34 C26.4849153,34 26.0372,34.4477153 26.0372,35 Z"/><path d="M26.0372,47 L26.0372,53 C26.0372,53.5522847 26.4849153,54 27.0372,54 C27.5894847,54 28.0372,53.5522847 28.0372,53 L28.0372,47 C28.0372,46.4477153 27.5894847,46 27.0372,46 C26.4849153,46 26.0372,46.4477153 26.0372,47 Z"/></g></g></g><text x="0" y="75" fill="#000000" font-size="5px" font-weight="bold" font-family="'Helvetica Neue', Helvetica, Arial-Unicode, Arial, Sans-serif">Created by Ben Davis</text><text x="0" y="80" fill="#000000" font-size="5px" font-weight="bold" font-family="'Helvetica Neue', Helvetica, Arial-Unicode, Arial, Sans-serif">from the Noun Project</text></svg>