<svg xmlns="http://www.w3.org/2000/svg" xmlns:xlink="http://www.w3.org/1999/xlink" viewBox="0 0 49 75" version="1.1" x="0px" y="0px"><title>63 -Woman Earrings- (Outline)</title><desc>Created with Sketch.</desc><g stroke="none" stroke-width="1" fill="none" fill-rule="evenodd"><g transform="translate(-365.000000, -1068.000000)" fill="#000000"><g transform="translate(365.000000, 1068.000000)"><path d="M40.0372,13 C40.0372,13.5522847 40.4849153,14 41.0372,14 C41.5894847,14 42.0372,13.5522847 42.0372,13 L42.0372,7 C42.0372,6.44771525 41.5894847,6 41.0372,6 C39.9324847,6 39.0372,5.10471525 39.0372,4 C39.0372,2.89528475 39.9324847,2 41.0372,2 C42.1419153,2 43.0372,2.89528475 43.0372,4 C43.0372,7.33051422 43.7866529,10 46.0372,10 C46.5894847,10 47.0372,9.55228475 47.0372,9 C47.0372,8.44771525 46.5894847,8 46.0372,8 C45.568007,8 45.0372,6.10931157 45.0372,4 C45.0372,1.79071525 43.2464847,0 41.0372,0 C38.8279153,0 37.0372,1.79071525 37.0372,4 C37.0372,5.86397992 38.311893,7.4300076 40.0372,7.87400405 L40.0372,13 Z"/><path d="M6.0372,13 C6.0372,13.5522847 6.48491525,14 7.0372,14 C7.58948475,14 8.0372,13.5522847 8.0372,13 L8.0372,7 C8.0372,6.44771525 7.58948475,6 7.0372,6 C5.93248475,6 5.0372,5.10471525 5.0372,4 C5.0372,2.89528475 5.93248475,2 7.0372,2 C8.14191525,2 9.0372,2.89528475 9.0372,4 C9.0372,7.33051422 9.78665285,10 12.0372,10 C12.5894847,10 13.0372,9.55228475 13.0372,9 C13.0372,8.44771525 12.5894847,8 12.0372,8 C11.568007,8 11.0372,6.10931157 11.0372,4 C11.0372,1.79071525 9.24648475,0 7.0372,0 C4.82791525,0 3.0372,1.79071525 3.0372,4 C3.0372,5.86397992 4.311893,7.4300076 6.0372,7.87400405 L6.0372,13 Z"/><path d="M7.0372,20 C6.48548475,20 6.0372,19.5517153 6.0372,19 L6.0372,15 C6.0372,14.4482847 6.48548475,14 7.0372,14 C7.58891525,14 8.0372,14.4482847 8.0372,15 L8.0372,19 C8.0372,19.5517153 7.58891525,20 7.0372,20 Z M7.0372,22 C8.69348475,22 10.0372,20.6562847 10.0372,19 L10.0372,15 C10.0372,13.3437153 8.69348475,12 7.0372,12 C5.38091525,12 4.0372,13.3437153 4.0372,15 L4.0372,19 C4.0372,20.6562847 5.38091525,22 7.0372,22 Z"/><path d="M41.0372,20 C40.4854847,20 40.0372,19.5517153 40.0372,19 L40.0372,15 C40.0372,14.4482847 40.4854847,14 41.0372,14 C41.5889153,14 42.0372,14.4482847 42.0372,15 L42.0372,19 C42.0372,19.5517153 41.5889153,20 41.0372,20 Z M41.0372,22 C42.6934847,22 44.0372,20.6562847 44.0372,19 L44.0372,15 C44.0372,13.3437153 42.6934847,12 41.0372,12 C39.3809153,12 38.0372,13.3437153 38.0372,15 L38.0372,19 C38.0372,20.6562847 39.3809153,22 41.0372,22 Z"/><path d="M8.0372,28 L8.0372,21 C8.0372,20.4477153 7.58948475,20 7.0372,20 C6.48491525,20 6.0372,20.4477153 6.0372,21 L6.0372,28 C6.0372,28.5522847 6.48491525,29 7.0372,29 C7.58948475,29 8.0372,28.5522847 8.0372,28 Z"/><path d="M42.0372,28 L42.0372,21 C42.0372,20.4477153 41.5894847,20 41.0372,20 C40.4849153,20 40.0372,20.4477153 40.0372,21 L40.0372,28 C40.0372,28.5522847 40.4849153,29 41.0372,29 C41.5894847,29 42.0372,28.5522847 42.0372,28 Z"/><path d="M12.0372,34 C12.0372,36.7607153 9.79791525,39 7.0372,39 C4.27648475,39 2.0372,36.7607153 2.0372,34 C2.0372,31.2392847 4.27648475,29 7.0372,29 C9.79791525,29 12.0372,31.2392847 12.0372,34 Z M14.0372,34 C14.0372,30.1347153 10.9024847,27 7.0372,27 C3.17191525,27 0.0372,30.1347153 0.0372,34 C0.0372,37.8652847 3.17191525,41 7.0372,41 C10.9024847,41 14.0372,37.8652847 14.0372,34 Z"/><path d="M10.0372,50 C10.0372,51.6567153 8.69391525,53 7.0372,53 C5.38048475,53 4.0372,51.6567153 4.0372,50 C4.0372,48.3432847 5.38048475,47 7.0372,47 C8.69391525,47 10.0372,48.3432847 10.0372,50 Z M12.0372,50 C12.0372,47.2387153 9.79848475,45 7.0372,45 C4.27591525,45 2.0372,47.2387153 2.0372,50 C2.0372,52.7612847 4.27591525,55 7.0372,55 C9.79848475,55 12.0372,52.7612847 12.0372,50 Z"/><path d="M46.0372,34 C46.0372,36.7607153 43.7979153,39 41.0372,39 C38.2764847,39 36.0372,36.7607153 36.0372,34 C36.0372,31.2392847 38.2764847,29 41.0372,29 C43.7979153,29 46.0372,31.2392847 46.0372,34 Z M48.0372,34 C48.0372,30.1347153 44.9024847,27 41.0372,27 C37.1719153,27 34.0372,30.1347153 34.0372,34 C34.0372,37.8652847 37.1719153,41 41.0372,41 C44.9024847,41 48.0372,37.8652847 48.0372,34 Z"/><path d="M44.0372,50 C44.0372,51.6567153 42.6939153,53 41.0372,53 C39.3804847,53 38.0372,51.6567153 38.0372,50 C38.0372,48.3432847 39.3804847,47 41.0372,47 C42.6939153,47 44.0372,48.3432847 44.0372,50 Z M46.0372,50 C46.0372,47.2387153 43.7984847,45 41.0372,45 C38.2759153,45 36.0372,47.2387153 36.0372,50 C36.0372,52.7612847 38.2759153,55 41.0372,55 C43.7984847,55 46.0372,52.7612847 46.0372,50 Z"/><path d="M6.0372,40 L6.0372,46 C6.0372,46.5522847 6.48491525,47 7.0372,47 C7.58948475,47 8.0372,46.5522847 8.0372,46 L8.0372,40 C8.0372,39.4477153 7.58948475,39 7.0372,39 C6.48491525,39 6.0372,39.4477153 6.0372,40 Z"/><path d="M40.0372,40 L40.0372,46 C40.0372,46.5522847 40.4849153,47 41.0372,47 C41.5894847,47 42.0372,46.5522847 42.0372,46 L42.0372,40 C42.0372,39.4477153 41.5894847,39 41.0372,39 C40.4849153,39 40.0372,39.4477153 40.0372,40 Z"/><path d="M6.0372,54 L6.0372,59 C6.0372,59.5522847 6.48491525,60 7.0372,60 C7.58948475,60 8.0372,59.5522847 8.0372,59 L8.0372,54 C8.0372,53.4477153 7.58948475,53 7.0372,53 C6.48491525,53 6.0372,53.4477153 6.0372,54 Z"/><path d="M40.0372,54 L40.0372,59 C40.0372,59.5522847 40.4849153,60 41.0372,60 C41.5894847,60 42.0372,59.5522847 42.0372,59 L42.0372,54 C42.0372,53.4477153 41.5894847,53 41.0372,53 C40.4849153,53 40.0372,53.4477153 40.0372,54 Z"/><path d="M6.57187238,37.9261145 C6.23557666,36.9173434 6.0372,35.5109815 6.0372,34 C6.0372,32.4890185 6.23557666,31.0826566 6.57187238,30.0738855 C6.71827391,29.6347315 6.8821437,29.3003919 7.0372,29.0997626 C7.1922563,29.3003919 7.35612609,29.6347315 7.50252762,30.0738855 C7.83882334,31.0826566 8.0372,32.4890185 8.0372,34 C8.0372,35.5109815 7.83882334,36.9173434 7.50252762,37.9261145 C7.35612609,38.3652685 7.1922563,38.6996081 7.0372,38.9002374 C6.8821437,38.6996081 6.71827391,38.3652685 6.57187238,37.9261145 Z M10.0372,34 C10.0372,30.1376757 8.99118771,27 7.0372,27 C5.08321229,27 4.0372,30.1376757 4.0372,34 C4.0372,37.8623243 5.08321229,41 7.0372,41 C8.99118771,41 10.0372,37.8623243 10.0372,34 Z"/><path d="M40.5718724,37.9261145 C40.2355767,36.9173434 40.0372,35.5109815 40.0372,34 C40.0372,32.4890185 40.2355767,31.0826566 40.5718724,30.0738855 C40.7182739,29.6347315 40.8821437,29.3003919 41.0372,29.0997626 C41.1922563,29.3003919 41.3561261,29.6347315 41.5025276,30.0738855 C41.8388233,31.0826566 42.0372,32.4890185 42.0372,34 C42.0372,35.5109815 41.8388233,36.9173434 41.5025276,37.9261145 C41.3561261,38.3652685 41.1922563,38.6996081 41.0372,38.9002374 C40.8821437,38.6996081 40.7182739,38.3652685 40.5718724,37.9261145 Z M44.0372,34 C44.0372,30.1376757 42.9911877,27 41.0372,27 C39.0832123,27 38.0372,30.1376757 38.0372,34 C38.0372,37.8623243 39.0832123,41 41.0372,41 C42.9911877,41 44.0372,37.8623243 44.0372,34 Z"/></g></g></g><text x="0" y="75" fill="#000000" font-size="5px" font-weight="bold" font-family="'Helvetica Neue', Helvetica, Arial-Unicode, Arial, Sans-serif">Created by Ben Davis</text><text x="0" y="80" fill="#000000" font-size="5px" font-weight="bold" font-family="'Helvetica Neue', Helvetica, Arial-Unicode, Arial, Sans-serif">from the Noun Project</text></svg>