<svg xmlns="http://www.w3.org/2000/svg" viewBox="0 0 45 75"><path d="M9.1 10.3c-.4.5-.9.9-1.3 1.4-.2.3-.4.5-.5.6C4.5 16.7 2.7 24.2 1.8 34 1 41.9.9 50.1 1 57.3v1.8c0 .5.5 1 1 1h4c.4 0 .8-.2.9-.6l2.9-7c.2-.2.2-.4.2-.5-.4-12.3-.4-22.6 0-30.9.2-5 .6-8.8.8-9.9.2-1-1-1.6-1.7-.9zM8 21c-.4 8.3-.4 18.6 0 30.8L5.4 58H3v-.8c-.2-7.1 0-15.3.7-23 .9-8.9 2.4-15.9 4.7-20-.1 2-.2 4.2-.4 6.8zm34 13.3c.5 4.7.8 9.8.9 14.9.1 3.3.1 6.4.1 8.8h-2.3l-2.6-6.2c.4-12.2.3-22.5-.1-30.8-.1-2.5-.3-4.7-.4-6.6 2.1 4.1 3.5 11 4.4 19.9zm-5-24c-.7-.7-1.9-.1-1.7.9.2 1.1.5 4.9.8 9.9.4 8.4.5 18.7.1 30.9 0 .1 0 .3.1.4l2.9 7c.2.4.5.6.9.6h4c.5 0 1-.4 1-1v-.8c.1-7.1-.2-15.8-1-24.2-1-9.8-2.6-17.3-5.1-21.6l-.1-.1c-.1-.1-.3-.4-.5-.6-.6-.4-1-.9-1.4-1.4z"/><path d="M33 4.5C31.5 1.7 28.2 0 23 0s-8.5 1.7-10 4.5c-.7 1.2-1 2.5-1 3.6-.8.3-1.7 1-2.9 2.2l-.3.6c0 .3-.2 1.2-.3 2.4-.2 2-.4 4.4-.5 7.2-.4 8.1-.4 18.2 0 30.5 0 .2.1.4.2.6 2.1 2.8 5.3 4.4 8.8 4.4h12.1c3.5 0 6.7-1.6 8.8-4.4.1-.2.2-.4.2-.6.4-12.3.3-22.4-.1-30.6-.1-2.9-.3-5.3-.5-7.2-.1-1.2-.2-2.1-.3-2.4 0-.2-.1-.4-.3-.5-1.1-1.1-2.1-1.9-3-2.2.1-1.1-.2-2.4-.9-3.6zM29.1 54H17c-2.7 0-5.3-1.2-7-3.4-.4-12.1-.4-22 0-30 .1-2.8.3-5.2.5-7.1.1-.7.1-1.2.2-1.7v-.2c1-1 1.8-1.6 2-1.5.7.2 1.3-.4 1.2-1.1-.1-1.1.1-2.3.7-3.4C15.9 3.3 18.5 2 23 2s7.1 1.3 8.3 3.5c.6 1.1.8 2.3.7 3.3-.1.8.5 1.4 1.2 1.2.2-.1 1.1.5 2.1 1.5v.2c.1.5.1 1 .2 1.7.2 1.9.4 4.3.5 7.1.4 8 .5 18 .1 30.1-1.7 2.2-4.3 3.4-7 3.4z"/><path d="M29.1 54H17c-1.9 0-3.8-.6-5.4-1.8a1 1 0 0 0-1.6.8v5c0 1.1.9 2 2 2h22c1.1 0 2-.9 2-2v-4.9c0-.8-.9-1.3-1.6-.8-1.6 1.1-3.4 1.7-5.3 1.7zm4.9 4H12v-3.2c1.5.8 3.3 1.2 5 1.2h12.1c1.7 0 3.4-.4 4.9-1.2V58zm3-4v.2c0 .1 0 .3.1.4l2 4.8c.2.4.5.6.9.6h4c.5 0 1-.4 1-1v-5c0-.6-.4-1-1-1h-6c-.6 0-1 .4-1 1zm6 1v3h-2.3l-1.2-3H43zM5.4 58H3v-3h3.7l-1.3 3zm3.7-4c0-.6-.4-1-1-1H2c-.6 0-1 .5-1 1v4.9c0 .5.5 1 1 1h4c.4 0 .8-.2.9-.6l2-4.8c.1-.1.1-.3.1-.4V54zm28.2-12h6.2c.6 0 1-.5 1-1.1-.2-3.2-.5-6.2-.8-9.1-.1-.5-.5-.9-1-.9h-5.4c-.6 0-1 .5-1 1v9c0 .6.5 1.1 1 1.1zm1-9h3.5c.2 2.2.4 4.6.6 7h-4.1c.1-2.4.1-4.8 0-7zm-36 9h6.5c.6 0 1-.5 1-1v-9c0-.6-.4-1-1-1H3c-.5 0-.9.4-1 .9-.3 2.9-.6 5.9-.7 9.1-.1.5.4 1 1 1zm1.6-9h3.8v7H3.3c.2-2.4.4-4.8.6-7z"/><path d="M19 36c0-1.4 0-2.7-.1-4 0-.5-.5-1-1-1H8.7c-.5 0-1 .4-1 1v9c0 .5.5 1 1 1h9.1c.5 0 1-.4 1-.9.1-1.8.2-3.4.2-5.1zm-9.3 4v-7h7.2c0 1 .1 2 .1 3 0 1.3 0 2.6-.1 4H9.7zM27 36c0 1.7.1 3.3.1 5.1 0 .5.5.9 1 .9h9.2c.5 0 1-.4 1-1v-9c0-.5-.5-1-1-1H28c-.5 0-1 .4-1 1v4zm9.3-3v7H29v-4c0-1 0-2 .1-3h7.2zM12 26h2c.6 0 1-.4 1-1s-.4-1-1-1h-2c-.6 0-1 .4-1 1s.4 1 1 1z"/><path d="M8.2 51.6c1.8 2.4 4.5 3.9 7.4 4.3.5.1 1-.3 1.1-.7C18.2 49.5 19 42.9 19 36c0-10.7-1.9-20.7-5.2-27.4-.2-.3-.5-.6-.8-.6-1.1-.1-2.1.5-3.5 1.9l-.4.4c-.2.2-.2.4-.3.6-.1.7-.3 3-.6 6.1-.3 5-.5 11.2-.5 18.5 0 4.8.1 10 .3 15.5 0 .2.1.4.2.6zm1.5-16.1c0-7.3.2-13.4.6-18.4.2-2.6.4-4.7.5-5.6l.2-.2c.6-.6 1.1-1 1.4-1.2C15.3 16.6 17 25.9 17 36c0 6.4-.7 12.4-2 17.8-2-.4-3.8-1.5-5-3.1-.2-5.4-.3-10.4-.3-15.2zM32.2 8.6C28.9 15.3 27 25.3 27 36c0 6.9.8 13.5 2.3 19.2.1.5.6.8 1.1.7 3-.3 5.7-1.9 7.5-4.3.1-.2.2-.4.2-.6.2-5.5.3-10.7.3-15.5 0-7.3-.2-13.5-.6-18.6-.2-3.1-.4-5.4-.6-6.1 0-.2-.1-.4-.3-.5l-.4-.4c-1.4-1.3-2.5-2-3.6-1.9-.3 0-.6.3-.7.6zm3 2.7c.1 0 .1.1.2.1.1.9.3 3 .5 5.6.3 5 .5 11.2.6 18.4 0 4.7-.1 9.7-.3 15.1-1.3 1.6-3.1 2.7-5.1 3.2-1.3-5.3-2-11.4-2-17.8 0-10.1 1.7-19.4 4.7-25.9.2.4.8.8 1.4 1.3z"/><path d="M33 4.5C31.5 1.7 28.2 0 23 0c-4.7 0-7.9 1.4-9.6 3.8-1.2 1.6-1.5 3.4-1.4 5v.1l.1.6c.2 1.1 1.7 1.1 2 .1C14.5 7.7 18.3 6 23 6s8.5 1.7 8.9 3.6c.2.9 1.5 1 1.9.2l.2-.4c.1-.3.1-.6 0-.8.1-1.2-.2-2.7-1-4.1zm0 5.5zM23 4c-3.5 0-6.6.8-8.7 2.2.2-.4.4-.8.7-1.2 1.3-1.9 3.8-3 8-3 4.5 0 7.1 1.3 8.3 3.5.1.2.3.5.3.7C29.6 4.8 26.4 4 23 4zm-2 10h4c.6 0 1-.4 1-1s-.4-1-1-1h-4c-.6 0-1 .4-1 1s.4 1 1 1z"/><text y="75" font-size="5" font-weight="bold" font-family="'Helvetica Neue', Helvetica, Arial-Unicode, Arial, Sans-serif">Created by Ben Davis</text><text y="80" font-size="5" font-weight="bold" font-family="'Helvetica Neue', Helvetica, Arial-Unicode, Arial, Sans-serif">from the Noun Project</text></svg>