<svg xmlns="http://www.w3.org/2000/svg" viewBox="0 0 60 75"><g fill-rule="evenodd"><path d="M2.572 16.069h.01-.01zm11.4 29.93h11.002v-1.425c0-5.17.948-10.213 2.817-14.992l3.354-8.573c.015-.036.031-.071.05-.106l3.61-6.77a1.626 1.626 0 0 0-.015-1.483c-.146-.264-.439-.59-1.012-.647-.407-.04-1.157.335-2.009 1.512l-4.51 6.114a1 1 0 1 1-1.758-.897l3.42-10.733c.183-.668-.06-1.401-.606-1.748A1.612 1.612 0 0 0 27.45 6c-.798 0-1.439 1.16-1.655 1.893a.952.952 0 0 1-.034.094l-3.87 9.466a1 1 0 1 1-1.925-.379l.008-13.432c0-.841-.589-1.558-1.34-1.634a1.511 1.511 0 0 0-1.166.379c-.314.285-.494.69-.494 1.113l-.009 14.796a1 1 0 0 1-1.95.314l-3.8-11.46c-.52-1.993-1.039-2.146-1.666-2.146-.7 0-1.296.408-1.519 1.039-.1.286-.06.616-.009.844l3.713 13.85a1 1 0 0 1-1.61 1.023l-1.269-1.068c-.635-.598-1.163-1.112-1.624-1.732-1.01-1.364-2.9-2.165-4.498-1.904a.909.909 0 0 0-.544.33.93.93 0 0 0 .011 1.202c1.29 1.495 9.986 13.73 10.841 15.89.611 1.548.922 3.175.922 4.838l.01 6.684zm12.002 2h-13a1 1 0 0 1-1-.997l-.01-7.685c0-1.411-.264-2.791-.783-4.102-.722-1.827-9.18-13.796-10.495-15.321a2.925 2.925 0 0 1-.04-3.78 2.904 2.904 0 0 1 1.765-1.032c2.328-.38 4.972.724 6.427 2.686l.046.062L6.081 7.368c-.168-.731-.143-1.406.062-1.99.51-1.443 1.847-2.374 3.406-2.374 2.352 0 3.15 1.914 3.582 3.58l1.837 5.537.006-8.621A3.504 3.504 0 0 1 18.832.018c1.761.176 3.142 1.768 3.142 3.625l-.006 8.336 1.924-4.704C24.357 5.753 25.56 4 27.45 4c.688 0 1.358.195 1.938.564 1.282.814 1.877 2.462 1.45 4.006l-1.594 4.999.91-1.234c1.586-2.192 3.076-2.391 3.822-2.322 1.105.11 2.04.719 2.566 1.672.566 1.027.581 2.285.04 3.366l-3.595 6.742-3.333 8.518a38.99 38.99 0 0 0-2.68 14.263V47a1 1 0 0 1-1 1z"/><path d="M19.965 25a1 1 0 0 1-1-1v-2a1 1 0 1 1 2 0v2a1 1 0 0 1-1 1m0 6a1 1 0 0 1-1-1v-1a1 1 0 1 1 2 0v1a1 1 0 0 1-1 1m5.698-6.791a1 1 0 0 1-.971-1.243l.303-1.209a.998.998 0 1 1 1.94.486l-.303 1.209a1.001 1.001 0 0 1-.969.757M23.966 31a.999.999 0 0 1-.971-1.243l.485-1.94a1.005 1.005 0 0 1 1.212-.728 1 1 0 0 1 .728 1.213l-.486 1.941a.998.998 0 0 1-.968.757m-9.699-6.791c-.447 0-.855-.303-.97-.757l-.301-1.209a1 1 0 1 1 1.939-.486l.303 1.209a1 1 0 0 1-.971 1.243M15.964 31a.998.998 0 0 1-.968-.757l-.486-1.941a1 1 0 0 1 1.94-.485l.485 1.94A.999.999 0 0 1 15.964 31m5.011 9a1.001 1.001 0 0 0 0 2h4.085c.042-.676.099-1.344.17-2h-4.255zm5.036 4h-5.036c-1.654 0-3-1.346-3-3s1.346-3 3-3h5.386a1 1 0 0 1 .99 1.137 40.35 40.35 0 0 0-.341 3.903.999.999 0 0 1-1 .96z"/><path d="M18.975 42h-6a1 1 0 1 1 0-2h6a1 1 0 1 1 0 2m8.15-6h-4.15a1 1 0 1 1 0-2h4.15a1 1 0 1 1 0 2m15.84 1a1 1 0 0 1-1-1v-2a1 1 0 1 1 2 0v2a1 1 0 0 1-1 1m0 6a1 1 0 0 1-1-1v-1a1 1 0 1 1 2 0v1a1 1 0 0 1-1 1m5.698-6.791a1 1 0 0 1-.971-1.243l.303-1.209a1 1 0 1 1 1.939.486l-.302 1.209a1.001 1.001 0 0 1-.969.757M46.966 43a.999.999 0 0 1-.971-1.243l.485-1.94a1.005 1.005 0 0 1 1.212-.728 1 1 0 0 1 .728 1.213l-.486 1.941a.998.998 0 0 1-.968.757m-9.699-6.791c-.447 0-.855-.303-.97-.757l-.301-1.209a1 1 0 1 1 1.939-.486l.303 1.209a1 1 0 0 1-.971 1.243M38.964 43a.998.998 0 0 1-.968-.757l-.486-1.941a1 1 0 0 1 1.94-.485l.485 1.94A.999.999 0 0 1 38.964 43m5.011 9a1.001 1.001 0 0 0 0 2h4.085c.042-.676.099-1.344.17-2h-4.255zm5.036 4h-5.036c-1.654 0-3-1.346-3-3s1.346-3 3-3h5.386a1 1 0 0 1 .99 1.137 40.35 40.35 0 0 0-.341 3.903.999.999 0 0 1-1 .96z"/><path d="M41.975 54h-6a1 1 0 1 1 0-2h6a1 1 0 1 1 0 2m8.15-6h-4.15a1 1 0 1 1 0-2h4.15a1 1 0 1 1 0 2"/><path d="M36.973 58h11.002v-1.426a40.99 40.99 0 0 1 2.816-14.992l3.355-8.573a.918.918 0 0 1 .049-.106l3.61-6.77a1.629 1.629 0 0 0-.015-1.483c-.145-.264-.438-.59-1.011-.647h-.001c-.39-.04-1.156.331-2.008 1.512l-4.512 6.114a1.004 1.004 0 0 1-1.26.297 1.002 1.002 0 0 1-.498-1.195l3.42-10.732c.185-.667-.06-1.401-.605-1.748A1.609 1.609 0 0 0 50.45 18c-.798 0-1.44 1.161-1.656 1.893a.746.746 0 0 1-.033.094l-3.871 9.466a1.001 1.001 0 0 1-1.926-.379l.01-13.431c0-.841-.59-1.56-1.342-1.635a1.484 1.484 0 0 0-1.164.379c-.314.284-.494.69-.494 1.113l-.01 14.796a1 1 0 0 1-1.95.314l-3.73-11.249-1.297 2.431-.698 1.782 2.97 9.719a1 1 0 0 1-1.6 1.057l-1.268-1.069c-.635-.597-1.163-1.112-1.623-1.731-.237-.319-.686-.786-1.135-1.188a38.881 38.881 0 0 0-1.29 3.957c1.548 2.133 6.9 10.144 7.697 12.16.612 1.547.922 3.174.922 4.837l.01 6.684zm12.002 2h-13a1 1 0 0 1-1-.999l-.012-7.684c0-1.411-.262-2.791-.781-4.103-.725-1.828-6.703-10.812-7.706-12.052a.998.998 0 0 1-.191-.879 41.242 41.242 0 0 1 1.506-4.701l.46-1.174c.106-.268.322-.478.592-.576a.994.994 0 0 1 .822.065c.78.429 1.913 1.479 2.542 2.247l-1.93-6.318a.994.994 0 0 1 .024-.657l.845-2.16a.853.853 0 0 1 .05-.106l2.339-4.384a.994.994 0 0 1 .83-.528c.379-.02.686.15.88.441.366.542.646 1.226.886 2.152l1.838 5.537.006-8.621a3.5 3.5 0 0 1 3.857-3.482c1.763.177 3.143 1.769 3.143 3.625l-.006 8.336 1.924-4.704C47.358 17.752 48.56 16 50.45 16c.688 0 1.358.195 1.938.563 1.28.816 1.876 2.463 1.448 4.007l-1.593 4.998.91-1.233c1.587-2.192 3.076-2.394 3.823-2.322 1.105.11 2.04.719 2.565 1.672.567 1.026.58 2.285.04 3.366l-3.594 6.741-3.333 8.519a38.969 38.969 0 0 0-2.68 14.263V59a1 1 0 0 1-1 1z"/></g><text y="75" font-size="5" font-weight="bold" font-family="'Helvetica Neue', Helvetica, Arial-Unicode, Arial, Sans-serif">Created by Ben Davis</text><text y="80" font-size="5" font-weight="bold" font-family="'Helvetica Neue', Helvetica, Arial-Unicode, Arial, Sans-serif">from the Noun Project</text></svg>