<svg xmlns="http://www.w3.org/2000/svg" viewBox="0 0 60 61.25"><g fill-rule="evenodd"><path d="M12 43a1 1 0 0 1-1-1c0-1.654-1.346-3-3-3a1 1 0 1 1 0-2c1.634 0 3.087.788 4 2.003A4.997 4.997 0 0 1 16 37a1 1 0 1 1 0 2c-1.654 0-3 1.346-3 3a1 1 0 0 1-1 1m10-25h-.02a1 1 0 0 1-.98-1.02c.136-7.009 8.244-10.737 8.59-10.892.273-.123.59-.116.858.017.268.135.462.384.529.677.066.294 1.729 7.218 8.96 7.218.02 0 .043-.004.064 0a1 1 0 0 1 .004 2h-.07c-6.813 0-9.59-5.149-10.518-7.563-2 1.151-6.332 4.15-6.417 8.583a1 1 0 0 1-1 .98"/><path d="M55 8a1 1 0 0 1-1-1V3c0-.552-.449-1-1-1H7c-.551 0-1 .448-1 1v4a1 1 0 1 1-2 0V3c0-1.654 1.346-3 3-3h46c1.654 0 3 1.346 3 3v4a1 1 0 0 1-1 1"/><path d="M12 5a1 1 0 0 1-1-1V1a1 1 0 1 1 2 0v3a1 1 0 0 1-1 1m6 0a1 1 0 0 1-1-1V1a1 1 0 1 1 2 0v3a1 1 0 0 1-1 1m6 0a1 1 0 0 1-1-1V1a1 1 0 1 1 2 0v3a1 1 0 0 1-1 1m6 0a1 1 0 0 1-1-1V1a1 1 0 1 1 2 0v3a1 1 0 0 1-1 1m6 0a1 1 0 0 1-1-1V1a1 1 0 1 1 2 0v3a1 1 0 0 1-1 1m6 0a1 1 0 0 1-1-1V1a1 1 0 1 1 2 0v3a1 1 0 0 1-1 1m6 0a1 1 0 0 1-1-1V1a1 1 0 1 1 2 0v3a1 1 0 0 1-1 1m10.678 14.913a.993.993 0 0 1-.12-.007C52.537 19.183 48 14.063 48 8V7a1 1 0 1 1 2 0v1a9.997 9.997 0 0 0 8.796 9.92 1 1 0 0 1-.118 1.993"/><path d="M30 38.002c.875 0 1.637.53 1.941 1.35l1.392 3.74A6.023 6.023 0 0 0 38.956 47H53c2.424 0 5-7.01 5-20 0-9.834-1.168-16.526-3.301-19H5.301C3.168 10.474 2 17.166 2 27c0 12.99 2.576 20 5 20h14.044a6.023 6.023 0 0 0 5.623-3.908l1.391-3.74A2.054 2.054 0 0 1 30 38.002M53 49H38.956a8.033 8.033 0 0 1-7.498-5.211l-1.391-3.74-1.071-.349.937.349-1.391 3.74A8.033 8.033 0 0 1 21.044 49H7c-5.161 0-7-11.364-7-22C0 15.725 1.458 8.705 4.333 6.135A1.006 1.006 0 0 1 5.474 6h49.052a1 1 0 0 1 1.141.135C58.542 8.705 60 15.725 60 27c0 10.636-1.839 22-7 22"/><path d="M1.322 19.913a1 1 0 0 1-.118-1.993A9.997 9.997 0 0 0 10 8V7a1 1 0 1 1 2 0v1c0 6.063-4.538 11.183-10.557 11.906a.993.993 0 0 1-.121.007"/></g><text y="64" font-size="5" font-weight="bold" font-family="'Helvetica Neue', Helvetica, Arial-Unicode, Arial, Sans-serif">Created by Ben Davis</text><text y="69" font-size="5" font-weight="bold" font-family="'Helvetica Neue', Helvetica, Arial-Unicode, Arial, Sans-serif">from the Noun Project</text></svg>