<svg xmlns="http://www.w3.org/2000/svg" viewBox="0 0 60 37.5"><g fill-rule="evenodd"><path d="M.564 22.058c-.565 1.05-.769 2.176-.34 3.285.742 1.922 3.176 3.13 7.559 3.573a1 1 0 0 0 .751-.236c.1-.085.306-.235.575-.386.476-.267.934-.404 1.293-.366.454.047.837.382 1.17 1.269a1 1 0 0 0 1.07.64 56.147 56.147 0 0 0 2.31-.387 51.151 51.151 0 0 0 5.064-1.212c1.328-.397 2.526-.832 3.567-1.31.09-.03.39-.126.77-.223a8.152 8.152 0 0 1 1.383-.238c.695-.051 1.156.05 1.315.225.835.919 3.18 2.224 5.215 2.801 2.714.77 4.941.363 5.964-1.647a1.34 1.34 0 0 1 .476.063c.284.097.495.309.649.756a1 1 0 0 0 .534.587c.182.082.476.194.858.304.91.261 1.846.37 2.757.235 1.271-.191 2.327-.851 3.018-2.024l.532-.178c.15.096.323.197.514.298.843.443 1.71.691 2.578.624 1.246-.097 2.265-.843 2.912-2.223l.92-.613.701-.045a1 1 0 0 0 .33-.08c.637-.272 1.545-.793 2.458-1.583 2.555-2.206 3.44-5.157 1.543-8.612a1 1 0 0 0-1.754.003 22.534 22.534 0 0 1-.989 1.628c-.17.253-.332.481-.485.679-.232.299-.43.512-.56.61l-.152.14c-.09.102-.311.316-.672.605a13.384 13.384 0 0 1-2.36 1.484c-6.02 3.02-14.905 3.317-27.155-.979-.342-.139-1.068-.354-2.146-.563-3.282-.636-7.62-.774-13.068-.117-.353.011-.969-.044-1.844-.234-1.424-.308-3.105-.891-5.04-1.819a1 1 0 0 0-.97.058 4.007 4.007 0 0 0-.865.777C-.058 18.812-.29 20.31.67 21.868c-.035.06-.07.124-.106.19zM7.4 20.566c1.047.227 1.834.296 2.353.277 5.38-.646 9.52-.515 12.603.083.56.109 1.032.224 1.416.338.22.064.354.111.406.133 12.785 4.484 22.231 4.169 28.757.894 1.79-.898 2.96-1.815 3.571-2.483.276-.224.556-.531.856-.92.183-.236.372-.5.565-.79.35 1.7-.336 3.119-1.768 4.356a8.726 8.726 0 0 1-1.795 1.192l-.782.05a1 1 0 0 0-.491.166l-1.387.925a1 1 0 0 0-.372.455c-.361.89-.795 1.232-1.342 1.275-.43.033-.953-.117-1.492-.4a4.441 4.441 0 0 1-.658-.416 1 1 0 0 0-.941-.168l-1.388.462a1 1 0 0 0-.587.518c-.379.795-.944 1.184-1.718 1.3-.585.087-1.25.01-1.908-.18a6.555 6.555 0 0 1-.241-.074c-.38-.774-.97-1.29-1.703-1.542-.611-.21-1.228-.213-1.806-.099-.144.029-.259.06-.337.085a1 1 0 0 0-.63.617c-.436 1.239-1.706 1.535-3.77.949-1.7-.482-3.722-1.607-4.281-2.223-.675-.741-1.693-.965-2.94-.874-.56.04-1.143.146-1.73.295a11.12 11.12 0 0 0-1.04.313 26.23 26.23 0 0 1-3.378 1.242 49.205 49.205 0 0 1-4.864 1.163c-.53.1-1.026.187-1.476.26-.596-1.088-1.454-1.698-2.493-1.806-.844-.088-1.676.16-2.479.61a6.524 6.524 0 0 0-.536.335c-3.448-.397-5.116-1.253-5.506-2.262-.18-.468-.079-1.031.236-1.618.13-.24.256-.418.324-.497a1 1 0 0 0 .015-1.283c-.8-.977-.743-1.652-.19-2.302a2.6 2.6 0 0 1 .041-.048c1.83.836 3.46 1.383 4.886 1.692z"/><path d="M57.364 18.889c.183-.237.371-.502.565-.79a24.485 24.485 0 0 0 1.083-1.784 1 1 0 0 0 .122-.478v-.462c-.05-.725-.577-1.463-1.749-2.048-1.604-.801-4.283-1.258-8.32-1.258-.109.005-.19.01-.307.014-1.078.044-2.324-.006-3.487-.217-1.786-.325-2.876-.956-3.1-1.823a1 1 0 0 0-.544-.655 2.74 2.74 0 0 0-.341-.13 2.56 2.56 0 0 0-.797-.124 1.763 1.763 0 0 0-.867.228l-.806-.605a3.893 3.893 0 0 0-.291-.595c-.642-1.068-1.708-1.52-2.872-.92l-.534-.356a2.86 2.86 0 0 0-.215-.438c-.507-.843-1.387-1.248-2.443-.94a4.79 4.79 0 0 1-.504-.313 2.383 2.383 0 0 1-.489-.443 2.4 2.4 0 0 0-.232-.457c-.515-.791-1.414-1.085-2.34-.563a1.554 1.554 0 0 1-.278-.101c-.431-.2-.905-.612-1.398-1.313-.923-1.312-2.802-2.323-4.362-2.317-2.025.007-3.067 1.567-2.616 4.04-.16.167-.402.374-.737.59-1.231.794-3.018 1.2-5.496.967a6.653 6.653 0 0 1-.512-.107 6.846 6.846 0 0 1-1.26-.436c-.543-.255-.962-.562-1.219-.908-.757-1.017-2.494-1.671-4.115-1.69-2.004-.022-3.489.975-3.228 2.884.135.995.084 1.567-.025 1.807a1 1 0 0 0-.238.22c-.316.41-.766 1.122-1.21 2.088-1.124 2.446-1.547 5.135-.85 7.903v.335a1 1 0 0 0 .567.9c2.059.992 3.89 1.626 5.484 1.969 1.048.226 1.836.296 2.352.28 5.379-.646 9.52-.515 12.602.083.56.109 1.032.224 1.417.338.218.064.353.111.406.133 12.784 4.484 22.23 4.169 28.756.894 1.79-.898 2.96-1.815 3.571-2.483.276-.224.556-.531.857-.92zM3.319 16.976c-.611-2.312-.262-4.59.7-6.685a11.069 11.069 0 0 1 .875-1.56c.159-.12.308-.282.436-.49.406-.663.528-1.686.327-3.17-.055-.403.274-.624 1.223-.614 1.056.012 2.208.446 2.533.884.48.644 1.157 1.141 1.976 1.525.897.42 1.776.636 2.394.719 2.953.278 5.188-.23 6.806-1.273.833-.538 1.343-1.102 1.591-1.529a1 1 0 0 0 .106-.743c-.396-1.598-.137-2.037.58-2.04.893-.003 2.164.681 2.719 1.47 1.235 1.753 2.568 2.373 3.653 2.273.22-.033.323-.07.418-.121a1 1 0 0 0 .066.12c.26.41.628.764 1.075 1.082.462.33.914.561 1.238.694a1 1 0 0 0 .81-.02c.287-.137.27-.144.345-.02a.85.85 0 0 1 .093.224 1 1 0 0 0 .428.649l1.387.925a1 1 0 0 0 1.198-.067c.363-.305.336-.313.514-.018.098.165.165.342.188.432a1 1 0 0 0 .368.546l1.85 1.388a1 1 0 0 0 1.589-.654c-.007.049-.069.114-.137.163a.32.32 0 0 1-.154.068c.036 0 .104.012.178.035.063.02-.457-.625-.457-.625.08.31.196.597.345.86.734 1.301 2.276 2.056 4.334 2.43 1.331.242 2.713.296 3.924.248.14-.006.24-.012.299-.016 3.682.003 6.074.41 7.354 1.05.342.171.543.328.644.454.01-.045.004-.08.001-.124l-.002.39h1l-.878-.478-.108.192-.18.314c-.226.384-.464.767-.701 1.122-.17.253-.332.481-.485.679-.231.299-.43.512-.56.61l-.152.14c-.09.102-.311.316-.672.605a13.384 13.384 0 0 1-2.359 1.484c-6.02 3.02-14.906 3.317-27.155-.979-.343-.139-1.069-.354-2.146-.563-3.282-.636-7.618-.774-13.063-.118-.357.01-.976-.048-1.85-.236-1.3-.28-2.797-.782-4.489-1.557a1 1 0 0 0-.017-.075z"/><path d="M29.506 3.922l-3.869 3.87a1 1 0 1 0 1.415 1.413l3.869-3.869a1 1 0 1 0-1.415-1.414zm3.767 2.233l-3.826 3.826a1 1 0 1 0 1.415 1.415l3.826-3.826a1 1 0 1 0-1.415-1.415zm3.477 1.524l-3.667 3.667a1 1 0 0 0 1.414 1.414l3.667-3.667a1 1 0 1 0-1.414-1.414z"/></g><text y="45" font-size="5" font-weight="bold" font-family="'Helvetica Neue', Helvetica, Arial-Unicode, Arial, Sans-serif">Created by Ben Davis</text><text y="50" font-size="5" font-weight="bold" font-family="'Helvetica Neue', Helvetica, Arial-Unicode, Arial, Sans-serif">from the Noun Project</text></svg>