<svg xmlns="http://www.w3.org/2000/svg" viewBox="0 0 26 75"><g fill-rule="evenodd"><path d="M1 9h24a1 1 0 0 0 1-1V1a1 1 0 0 0-1-1H1a1 1 0 0 0-1 1v7a1 1 0 0 0 1 1zm1-7h22v5H2V2z"/><path d="M12 8v13a1 1 0 0 0 1 1c.57 0 1.038.455 1.053 1.026l.896 34.053a3 3 0 0 0 2.999 2.92H23a3 3 0 0 0 3-3V8a1 1 0 0 0-1-1H13a1 1 0 0 0-1 1zm12 1v48a1 1 0 0 1-1 1h-5.052a1 1 0 0 1-1-.973l-.895-34.055A3.056 3.056 0 0 0 14 20.167V9h10z"/><path d="M14 21V8a1 1 0 0 0-1-1H1a1 1 0 0 0-1 1v49a3 3 0 0 0 3 3h5.052a3 3 0 0 0 2.999-2.921l.896-34.054A1.054 1.054 0 0 1 13 22a1 1 0 0 0 1-1zm-4.053 1.972l-.896 34.054a1 1 0 0 1-.999.974H3a1 1 0 0 1-1-1V9h10v11.167a3.056 3.056 0 0 0-2.053 2.805zM21 10V9h3v4.874A4.002 4.002 0 0 1 21 10zm4 6a1 1 0 0 0 1-1V8a1 1 0 0 0-1-1h-5a1 1 0 0 0-1 1v2a6 6 0 0 0 6 6z"/><path d="M1 16a6 6 0 0 0 6-6V8a1 1 0 0 0-1-1H1a1 1 0 0 0-1 1v7a1 1 0 0 0 1 1zm1-7h3v1a4.002 4.002 0 0 1-3 3.874V9zM1 5h24a1 1 0 0 0 0-2H1a1 1 0 1 0 0 2zm0 26h4a1 1 0 0 0 0-2H1a1 1 0 0 0 0 2zm0 4h2a1 1 0 0 0 0-2H1a1 1 0 0 0 0 2z"/></g><text y="75" font-size="5" font-weight="bold" font-family="'Helvetica Neue', Helvetica, Arial-Unicode, Arial, Sans-serif">Created by Ben Davis</text><text y="80" font-size="5" font-weight="bold" font-family="'Helvetica Neue', Helvetica, Arial-Unicode, Arial, Sans-serif">from the Noun Project</text></svg>