<svg xmlns="http://www.w3.org/2000/svg" viewBox="0 0 58 75"><path d="M19 32c.55 0 1-.45 1-1v-5c0-.55-.45-1-1-1s-1 .45-1 1v5c0 .55.45 1 1 1z"/><path d="M58 5.17L47.52 3.19C46.68 1.26 44.82 0 42.69 0H5.31C2.38 0 0 2.38 0 5.31V56h2v4h4.62l2-4h32.76l2 4H48v-6.05l10 2.31V5.17zM5.38 58H4v-2h2.38l-1 2zM46 58h-1.38l-1-2H46v2zm-5.62-4H2V5.31A3.32 3.32 0 0 1 5.31 2h37.37c1.02 0 1.94.46 2.55 1.22-.03.01-.05.02-.07.03-.06.02-.12.05-.17.08-.13.06-.25.13-.37.2l-.17.11c-.12.09-.24.19-.35.29-.03.03-.07.06-.1.09A3.446 3.446 0 0 0 41.55 3H6.45C4.55 3 3 4.55 3 6.45V53h40.88l2.12.49V54h-5.62zM25 51v-5h18v5H25zm13-35c-.55 0-1 .45-1 1v1h-1v-1c0-.55-.45-1-1-1s-1 .45-1 1v1h-1v-1c0-.55-.45-1-1-1s-1 .45-1 1v1h-1v-1c0-.55-.45-1-1-1s-1 .45-1 1v1h-3v-3h18v3h-4v-1c0-.55-.45-1-1-1zm-13 4h3v2c0 .55.45 1 1 1s1-.45 1-1v-2h1v2c0 .55.45 1 1 1s1-.45 1-1v-2h1v2c0 .55.45 1 1 1s1-.45 1-1v-2h1v2c0 .55.45 1 1 1s1-.45 1-1v-2h4v24H25V20zm18-7H25V5h16.55c.8 0 1.45.65 1.45 1.45V13zM23 51H5V6.45C5 5.65 5.65 5 6.45 5H23v46zm33 2.74l-8-1.85-3-.69V6.45c0-.19.04-.36.1-.53v-.01c.06-.16.16-.3.27-.43.01-.01.01-.01.01-.02.11-.12.25-.22.4-.3.01 0 .02-.01.03-.02.15-.07.31-.12.49-.14.01 0 .02 0 .03-.01l.32.09h.22L56 6.83v46.91z"/><text y="75" font-size="5" font-weight="bold" font-family="'Helvetica Neue', Helvetica, Arial-Unicode, Arial, Sans-serif">Created by Ben Davis</text><text y="80" font-size="5" font-weight="bold" font-family="'Helvetica Neue', Helvetica, Arial-Unicode, Arial, Sans-serif">from the Noun Project</text></svg>