<svg xmlns="http://www.w3.org/2000/svg" viewBox="0 0 60 40"><g fill-rule="evenodd"><path d="M2.015 24.259c12.553 3.664 25.647 3.665 37.972.004C39.597 14.126 31.23 6 21 6 10.772 6 2.406 14.124 2.015 24.259m19.08 4.75c-6.827 0-13.685-1.018-20.386-3.052A1 1 0 0 1-.001 25C0 13.42 9.422 4 21 4c11.58 0 21 9.42 21 21a.999.999 0 0 1-.703.955 68.23 68.23 0 0 1-20.201 3.054"/><path d="M12.005 26.384c5.995.815 12.038.82 17.99.018.003-.133.005-.267.005-.402 0-10.841-4.121-20-9-20s-9 9.159-9 20c0 .129.002.257.005.384m9.075 2.615c-3.4 0-6.806-.252-10.196-.754a1 1 0 0 1-.854-.961l-.009-.333A27.155 27.155 0 0 1 10 26c0-12.337 4.832-22 11-22s11 9.663 11 22c0 .325-.01.646-.02.966l-.01.335a1.002 1.002 0 0 1-.854.962c-3.323.49-6.676.736-10.036.736"/><path d="M21 4c.631 0 1.28.036 1.997.111L23 4c0-1.103-.897-2-2-2a2.002 2.002 0 0 0-1.997 2.111A19.01 19.01 0 0 1 21 4m2.741 2.21a.912.912 0 0 1-.137-.01c-1.982-.273-3.226-.273-5.208 0a.99.99 0 0 1-1.052-.586A3.971 3.971 0 0 1 17 4c0-2.206 1.794-4 4-4s4 1.794 4 4c0 .555-.116 1.098-.344 1.614a1.002 1.002 0 0 1-.915.596M35.15 27.544l3.04.967a24.826 24.826 0 0 0 17.407-.883l-14.502-1.611a68.027 68.027 0 0 1-5.944 1.527m10.563 4.135c-2.733 0-5.474-.417-8.13-1.262l-6.894-2.193a1.002 1.002 0 0 1 .156-1.943 66.2 66.2 0 0 0 9.859-2.236.997.997 0 0 1 .406-.04l18 2a.998.998 0 0 1 .404 1.852 26.82 26.82 0 0 1-13.801 3.822"/></g><text y="47" font-size="5" font-weight="bold" font-family="'Helvetica Neue', Helvetica, Arial-Unicode, Arial, Sans-serif">Created by Ben Davis</text><text y="52" font-size="5" font-weight="bold" font-family="'Helvetica Neue', Helvetica, Arial-Unicode, Arial, Sans-serif">from the Noun Project</text></svg>