<svg xmlns="http://www.w3.org/2000/svg" viewBox="0 0 60 72.5"><path d="M36.7.3L36 1l-.9-.4-4 8.8c-.4.9-1.7.9-2.1 0L25 .6c-.3-.6-1.1-.8-1.6-.3l-2.8 2.8c-7.1 2.2-9.6 4.2-9.5 6 .1.5.3.7.7.9.7.2 1.3 1.4 1.8 3.2.2.8.3 1.7.4 2.7 0 .3.1.6.1.9v40.3c0 .6.4 1 1 1h30c.6 0 1-.4 1-1V16.7c0-.3 0-.6.1-.9.1-.9.2-1.8.4-2.7.4-1.8 1.1-3 1.8-3.2.3-.1.6-.4.7-.8.2-1.9-2.4-3.9-9.5-6.1L36.7.3zM44 56H16V16.6c0-.3 0-.6-.1-1-.1-1-.3-2-.5-2.9-.5-1.9-1.1-3.3-2.1-4.1l.4-.4c1.3-1 3.7-2.1 7.6-3.3.2 0 .3-.1.4-.3l2-2 3.4 7.5c1.1 2.4 4.6 2.4 5.7 0l3.4-7.5 2 2c.1.1.3.2.4.3 3.9 1.2 6.3 2.3 7.6 3.3.2.1.3.3.4.4-1 .8-1.6 2.2-2.1 4.1-.2.9-.4 1.9-.5 2.9 0 .3-.1.7-.1 1v.4l.1 39z"/><path d="M16 16.6c0-.3 0-.6-.1-1-.1-1-.3-2-.5-2.9-.6-2.4-1.5-4.1-3-4.6-.4-.2-.9-.1-1.2.3l-11 14c-.4.4-.3 1.1.2 1.4l7 5c.3.2.7.2 1 .1l7-3.7c.3-.2.5-.5.5-.9V17c.1-.1.1-.2.1-.4zm-2 7.1l-5.9 3.1-5.6-4 9.8-12.5c.5.5.9 1.5 1.3 2.8.2.8.3 1.7.4 2.7 0 .3.1.6.1.9v7zm32-7c0-.3 0-.6.1-.9.1-.9.2-1.8.4-2.7.3-1.3.8-2.3 1.2-2.9l9.8 12.5-5.6 4-5.9-3v-7zm-2 7.6c0 .4.2.7.5.9l7 3.7c.3.2.7.1 1-.1l7-5c.5-.3.6-1 .2-1.4l-11-14c-.2-.4-.7-.5-1.1-.3h-.1c-1.4.5-2.4 2.2-2.9 4.6-.2.9-.4 1.9-.5 2.9 0 .3-.1.7-.1 1v7.7zM23.1 1.4l4 8.8c1.1 2.4 4.6 2.4 5.7 0l4-8.8c.4-.8-.4-1.6-1.2-1.4l-.2.1C31.8 1.3 28 1.3 24.5.1l-.2-.1c-.8-.2-1.6.6-1.2 1.4zm11.1 1.2l-3.1 6.8c-.4.9-1.7.9-2.1 0l-3.1-6.8c2.7.6 5.5.6 8.3 0zM26 29.8c0-.3-.1-.7-.4-.9l-4.2-3.4 5.7-.7c.3 0 .6-.3.8-.6l2.1-4.5 2.1 4.5c.1.3.4.5.8.6l5.7.7-4.2 3.4c-.3.2-.4.6-.4.9l.6 5.1-4-2.8c-.3-.2-.8-.2-1.1 0l-4 2.8.5-5.1zm9.3 8c.7.5 1.7-.1 1.6-.9l-.8-6.8 5.6-4.6c.7-.6.4-1.7-.5-1.8l-7.4-.9-2.8-6c-.4-.8-1.5-.8-1.8 0l-2.8 6-7.4.9c-.9.1-1.2 1.2-.5 1.8l5.6 4.6-.8 6.8c-.1.9.9 1.4 1.6.9l5.2-3.6 5.2 3.6z"/><text y="73" font-size="5" font-weight="bold" font-family="'Helvetica Neue', Helvetica, Arial-Unicode, Arial, Sans-serif">Created by Ben Davis</text><text y="78" font-size="5" font-weight="bold" font-family="'Helvetica Neue', Helvetica, Arial-Unicode, Arial, Sans-serif">from the Noun Project</text></svg>