<svg xmlns="http://www.w3.org/2000/svg" viewBox="0 0 45 75"><path d="M30 38.26V7c0-3.86-3.14-7-7-7s-7 3.14-7 7v31.26a11.995 11.995 0 0 0-4.92 11.15c.63 5.48 5.07 9.9 10.55 10.51.46.05.92.08 1.37.08 3.21 0 6.22-1.25 8.48-3.51A11.92 11.92 0 0 0 35 48c0-3.88-1.86-7.48-5-9.74zm.07 16.81a9.958 9.958 0 0 1-8.22 2.86c-4.57-.51-8.26-4.19-8.78-8.75a9.984 9.984 0 0 1 4.48-9.56l.45-.3V38h1c.55 0 1-.45 1-1s-.45-1-1-1h-1v-3h1c.55 0 1-.45 1-1s-.45-1-1-1h-1v-3h1c.55 0 1-.45 1-1s-.45-1-1-1h-1v-3h1c.55 0 1-.45 1-1s-.45-1-1-1h-1v-3h1c.55 0 1-.45 1-1s-.45-1-1-1h-1v-3h1c.55 0 1-.45 1-1s-.45-1-1-1h-1V8h1c.55 0 1-.45 1-1s-.45-1-1-1h-.9A5 5 0 0 1 28 7v1h-1c-.55 0-1 .45-1 1s.45 1 1 1h1v3h-1c-.55 0-1 .45-1 1s.45 1 1 1h1v3h-1c-.55 0-1 .45-1 1s.45 1 1 1h1v3h-1c-.55 0-1 .45-1 1s.45 1 1 1h1v3h-1c-.55 0-1 .45-1 1s.45 1 1 1h1v3h-1c-.55 0-1 .45-1 1s.45 1 1 1h1v4.33l.45.3A9.946 9.946 0 0 1 33 48c0 2.67-1.04 5.18-2.93 7.07z"/><path d="M24 43.1V6c0-.55-.45-1-1-1s-1 .45-1 1v37.1a5 5 0 1 0 2 0zm19.54-32.64L40 6.93l-3.54 3.54C35.52 11.41 35 12.66 35 14s.52 2.59 1.46 3.54S38.66 19 40 19s2.59-.52 3.54-1.46S45 15.34 45 14s-.52-2.59-1.46-3.54zm-1.42 5.66c-1.13 1.13-3.11 1.13-4.24 0-.57-.57-.88-1.32-.88-2.12s.31-1.55.88-2.12L40 9.76l2.12 2.12c.57.57.88 1.32.88 2.12s-.31 1.55-.88 2.12zM5 27.93l-3.54 3.54C.52 32.41 0 33.66 0 35s.52 2.59 1.46 3.54S3.66 40 5 40s2.59-.52 3.54-1.46S10 36.34 10 35s-.52-2.59-1.46-3.54L5 27.93zm2.12 9.19c-1.13 1.13-3.11 1.13-4.24 0C2.31 36.55 2 35.8 2 35s.31-1.55.88-2.12L5 30.76l2.12 2.12c.57.57.88 1.32.88 2.12s-.31 1.55-.88 2.12z"/><text y="75" font-size="5" font-weight="bold" font-family="'Helvetica Neue', Helvetica, Arial-Unicode, Arial, Sans-serif">Created by Ben Davis</text><text y="80" font-size="5" font-weight="bold" font-family="'Helvetica Neue', Helvetica, Arial-Unicode, Arial, Sans-serif">from the Noun Project</text></svg>