<svg xmlns="http://www.w3.org/2000/svg" viewBox="0 0 49 75"><g fill-rule="evenodd"><path d="M40.037 13a1 1 0 0 0 2 0V7a1 1 0 0 0-1-1 2 2 0 1 1 2-2c0 3.33.75 6 3 6a1 1 0 0 0 0-2c-.469 0-1-1.89-1-4a4 4 0 1 0-5 3.874V13zm-34 0a1 1 0 0 0 2 0V7a1 1 0 0 0-1-1 2 2 0 1 1 2-2c0 3.33.75 6 3 6a1 1 0 0 0 0-2c-.469 0-1-1.89-1-4a4 4 0 1 0-5 3.874V13z"/><path d="M7.037 20a1 1 0 0 1-1-1v-4a1 1 0 0 1 2 0v4a1 1 0 0 1-1 1zm0 2a3 3 0 0 0 3-3v-4a3 3 0 0 0-6 0v4a3 3 0 0 0 3 3zm34-2a1 1 0 0 1-1-1v-4a1 1 0 0 1 2 0v4a1 1 0 0 1-1 1zm0 2a3 3 0 0 0 3-3v-4a3 3 0 0 0-6 0v4a3 3 0 0 0 3 3z"/><path d="M8.037 28v-7a1 1 0 0 0-2 0v7a1 1 0 0 0 2 0zm34 0v-7a1 1 0 0 0-2 0v7a1 1 0 0 0 2 0z"/><path d="M12.037 34a5 5 0 0 1-10 0 5 5 0 0 1 10 0zm2 0a7 7 0 0 0-14 0 7 7 0 0 0 14 0zm-4 16a3 3 0 1 1-6 0 3 3 0 0 1 6 0zm2 0a5 5 0 1 0-10 0 5 5 0 0 0 10 0zm34-16a5 5 0 0 1-10 0 5 5 0 0 1 10 0zm2 0a7 7 0 0 0-14 0 7 7 0 0 0 14 0zm-4 16a3 3 0 1 1-6 0 3 3 0 0 1 6 0zm2 0a5 5 0 1 0-10 0 5 5 0 0 0 10 0z"/><path d="M6.037 40v6a1 1 0 0 0 2 0v-6a1 1 0 0 0-2 0zm34 0v6a1 1 0 0 0 2 0v-6a1 1 0 0 0-2 0zm-34 14v5a1 1 0 0 0 2 0v-5a1 1 0 0 0-2 0zm34 0v5a1 1 0 0 0 2 0v-5a1 1 0 0 0-2 0z"/><path d="M6.572 37.926c-.336-1.009-.535-2.415-.535-3.926 0-1.511.199-2.917.535-3.926.146-.44.31-.774.465-.974.155.2.32.535.466.974.336 1.009.534 2.415.534 3.926 0 1.511-.198 2.917-.534 3.926-.147.44-.31.774-.466.974-.155-.2-.319-.535-.465-.974zM10.037 34c0-3.862-1.046-7-3-7s-3 3.138-3 7 1.046 7 3 7 3-3.138 3-7zm30.535 3.926c-.336-1.009-.535-2.415-.535-3.926 0-1.511.199-2.917.535-3.926.146-.44.31-.774.465-.974.155.2.32.535.466.974.336 1.009.534 2.415.534 3.926 0 1.511-.198 2.917-.534 3.926-.147.44-.31.774-.466.974-.155-.2-.319-.535-.465-.974zM44.037 34c0-3.862-1.046-7-3-7s-3 3.138-3 7 1.046 7 3 7 3-3.138 3-7z"/></g><text y="75" font-size="5" font-weight="bold" font-family="'Helvetica Neue', Helvetica, Arial-Unicode, Arial, Sans-serif">Created by Ben Davis</text><text y="80" font-size="5" font-weight="bold" font-family="'Helvetica Neue', Helvetica, Arial-Unicode, Arial, Sans-serif">from the Noun Project</text></svg>