<svg xmlns="http://www.w3.org/2000/svg" viewBox="0 0 30 75"><g fill-rule="evenodd"><path d="M3 4V2h24v2H3zm25 2a1 1 0 0 0 1-1V2a2 2 0 0 0-2-2H3a2 2 0 0 0-2 2v3a1 1 0 0 0 1 1h26z"/><path d="M27.938 4H2.062A2 2 0 0 0 .065 6.119l2.88 48A2.001 2.001 0 0 0 4.942 56h6.087a2 2 0 0 0 2-1.938l.918-31.033a1.054 1.054 0 0 1 2.106-.003l.919 31.034a2 2 0 0 0 2 1.94h6.086a2 2 0 0 0 1.996-1.879l2.88-48A2 2 0 0 0 27.938 4zm-2.88 50h-6.087l-.92-31.03a3.054 3.054 0 0 0-6.104.004L11.03 54H4.942L2.062 6h25.876l-2.88 48z"/><path d="M6 56h4v2H6v-2zm4 4a2 2 0 0 0 2-2v-3a1 1 0 0 0-1-1H5a1 1 0 0 0-1 1v3a2 2 0 0 0 2 2h4zm10-4h4v2h-4v-2zm4 4a2 2 0 0 0 2-2v-3a1 1 0 0 0-1-1h-6a1 1 0 0 0-1 1v3a2 2 0 0 0 2 2h4zM15.719 7.67c1.259 1.436 2.548 2.327 3.925 2.352.17.003.34-.008.508-.034a1 1 0 0 0-.304-1.977.985.985 0 0 1-.168.011c-.654-.011-1.54-.623-2.457-1.67a13.577 13.577 0 0 1-1.36-1.858 1 1 0 0 0-1.39-.344l-.232.148a27.833 27.833 0 0 0-2.37 1.713 14.951 14.951 0 0 0-1.634 1.508C9.443 8.39 8.99 9.192 9 10.012a1 1 0 1 0 2-.025c-.002-.174.235-.594.715-1.12.369-.405.85-.844 1.414-1.301a25.693 25.693 0 0 1 1.585-1.179c.308.438.644.872 1.005 1.283zm13.613 8.495l.603-10.045A2.001 2.001 0 0 0 27.938 4H24a1 1 0 0 0-1 1v4a8.993 8.993 0 0 0 4.874 7.993 1 1 0 0 0 1.458-.828zm-1.892-1.86A6.98 6.98 0 0 1 25 9V6h2.938l-.498 8.305zM2.062 6H5v3c0 2.082-.92 4-2.44 5.305L2.062 6zM.668 16.165a1 1 0 0 0 1.458.828A8.993 8.993 0 0 0 7 9V5a1 1 0 0 0-1-1H2.062A2 2 0 0 0 .065 6.119l.603 10.046z"/></g><text y="75" font-size="5" font-weight="bold" font-family="'Helvetica Neue', Helvetica, Arial-Unicode, Arial, Sans-serif">Created by Ben Davis</text><text y="80" font-size="5" font-weight="bold" font-family="'Helvetica Neue', Helvetica, Arial-Unicode, Arial, Sans-serif">from the Noun Project</text></svg>