<svg xmlns="http://www.w3.org/2000/svg" viewBox="0 0 60 53.75"><g fill-rule="evenodd"><path d="M5 10h50a1 1 0 0 0 1-1V1a1 1 0 0 0-1-1H5a1 1 0 0 0-1 1v8a1 1 0 0 0 1 1zm1-2V2h48v6H6z"/><path d="M29 9v14a1 1 0 0 0 .051.316l5 15A1 1 0 0 0 35 39h23a1 1 0 0 0 .995-1.103l-3-29A1 1 0 0 0 55 8H30a1 1 0 0 0-1 1zm25.098 1l2.793 27h-21.17L31 22.837V10h23.098z"/><path d="M30 8H5a1 1 0 0 0-.995.897l-3 29A1 1 0 0 0 2 39h23a1 1 0 0 0 .949-.684l5-15A1 1 0 0 0 31 23V9a1 1 0 0 0-1-1zm-1 14.837L24.28 37H3.108l2.793-27H29v12.837z"/><path d="M31 10h2v6a3.001 3.001 0 0 1-2 2.829v-8.83zm-2 10a1 1 0 0 0 1 1 5 5 0 0 0 5-5V9a1 1 0 0 0-1-1h-4a1 1 0 0 0-1 1v11zM13 8H5a1 1 0 0 0-.995.9L2.689 22.057a1 1 0 0 0 1.33 1.042C9.957 20.986 14 15.385 14 8.999a1 1 0 0 0-1-1zM4.847 20.574L5.905 10h6.057a12.961 12.961 0 0 1-7.115 10.574zm52.475 1.599L55.995 8.9A1 1 0 0 0 55 8h-8.306a1 1 0 0 0-1 1c0 6.517 4.21 12.212 10.321 14.221a1 1 0 0 0 1.307-1.05zM47.732 10h6.363l1.074 10.738C50.974 18.77 48.093 14.692 47.733 10zM16 1v8a1 1 0 0 0 2 0V1a1 1 0 0 0-2 0z"/><path d="M29 1v8a1 1 0 0 0 2 0V1a1 1 0 0 0-2 0zm12 0v8a1 1 0 0 0 2 0V1a1 1 0 0 0-2 0zM14 24h4a1 1 0 0 0 0-2h-4a1 1 0 0 0 0 2zm0 6h4a1 1 0 0 0 0-2h-4a1 1 0 0 0 0 2zm1-3h2a1 1 0 0 0 0-2h-2a1 1 0 0 0 0 2zm20 14v-2h23v2H35zm23 2a2 2 0 0 0 2-2v-2a2 2 0 0 0-2-2H35a2 2 0 0 0-2 2v2a2 2 0 0 0 2 2h23zM2 41v-2h23v2H2zm23 2a2 2 0 0 0 2-2v-2a2 2 0 0 0-2-2H2a2 2 0 0 0-2 2v2a2 2 0 0 0 2 2h23z"/></g><text y="58" font-size="5" font-weight="bold" font-family="'Helvetica Neue', Helvetica, Arial-Unicode, Arial, Sans-serif">Created by Ben Davis</text><text y="63" font-size="5" font-weight="bold" font-family="'Helvetica Neue', Helvetica, Arial-Unicode, Arial, Sans-serif">from the Noun Project</text></svg>