<svg xmlns="http://www.w3.org/2000/svg" viewBox="0 0 60 25"><g fill-rule="evenodd"><path d="M31 5a1 1 0 1 1-2 0 1 1 0 0 1 2 0m-2 3a1 1 0 1 1-2 0 1 1 0 0 1 2 0m4 0a1 1 0 1 1-2 0 1 1 0 0 1 2 0m-2 2a1 1 0 1 1-2 0 1 1 0 0 1 2 0m0 5a1 1 0 1 1-2 0 1 1 0 0 1 2 0m-2-3a1 1 0 1 1-2 0 1 1 0 0 1 2 0m4 0a1 1 0 1 1-2 0 1 1 0 0 1 2 0"/><path d="M29.743 5A3.747 3.747 0 0 0 26 8.744v2.512A3.747 3.747 0 0 0 29.743 15h.513A3.748 3.748 0 0 0 34 11.256V8.744A3.748 3.748 0 0 0 30.256 5h-.513zm.513 12h-.513A5.75 5.75 0 0 1 24 11.256V8.744A5.75 5.75 0 0 1 29.743 3h.513A5.75 5.75 0 0 1 36 8.744v2.512A5.75 5.75 0 0 1 30.256 17z"/><path d="M14.474 2.027c-.721.97-2.57 3.866-2.47 7.948-.101 4.15 1.745 7.033 2.468 7.998 4.648-.355 8.335-3.289 9.897-4.746a5.5 5.5 0 0 1-.37-1.97V8.742a5.5 5.5 0 0 1 .37-1.97c-1.562-1.457-5.247-4.392-9.895-4.746M14.016 20a1 1 0 0 1-.74-.327c-.14-.154-3.416-3.827-3.271-9.698-.145-5.822 3.13-9.494 3.27-9.648.199-.217.486-.339.776-.327 6.214.222 10.932 4.527 12.23 5.841a1 1 0 0 1 .172 1.172A3.658 3.658 0 0 0 26 8.743v2.513c0 .584.152 1.166.453 1.73a1 1 0 0 1-.172 1.172c-1.298 1.314-6.016 5.62-12.23 5.841l-.035.001"/><path d="M2 13h8.24a14.89 14.89 0 0 1-.236-3 14.89 14.89 0 0 1 .236-3H2v6zm9.49 2H1a1 1 0 0 1-1-1V6a1 1 0 0 1 1-1h10.49a.998.998 0 0 1 .965 1.262 12.955 12.955 0 0 0-.45 3.713v.05a12.955 12.955 0 0 0 .45 3.713A.998.998 0 0 1 11.49 15zm38.27-2H58V7h-8.24c.182 1 .26 2.013.235 3.025.026.976-.053 1.978-.234 2.975M59 15H48.51a1 1 0 0 1-.965-1.262c.33-1.217.482-2.467.45-3.713a13.085 13.085 0 0 0-.45-3.763A1.001 1.001 0 0 1 48.51 5H59a1 1 0 0 1 1 1v8a1 1 0 0 1-1 1"/><path d="M35.632 13.227c1.562 1.457 5.247 4.392 9.895 4.745.72-.969 2.57-3.866 2.469-7.948.1-4.15-1.744-7.032-2.467-7.997-4.65.354-8.335 3.288-9.897 4.745.245.643.368 1.303.368 1.971v2.514c0 .668-.123 1.329-.368 1.97M45.985 20h-.036c-6.213-.223-10.931-4.527-12.23-5.841a1 1 0 0 1-.171-1.173c.3-.565.452-1.147.452-1.73V8.744c0-.582-.152-1.165-.452-1.73a1 1 0 0 1 .172-1.171C35.018 4.527 39.736.221 45.949 0a.994.994 0 0 1 .776.326c.139.153 3.415 3.827 3.27 9.697.145 5.822-3.131 9.496-3.27 9.649a1 1 0 0 1-.74.327"/><path d="M35.001 10a1 1 0 0 1-.448-1.895l4-2a1 1 0 1 1 .894 1.79l-4 2a1.003 1.003 0 0 1-.446.105M25 10c-.15 0-.304-.034-.447-.105l-4-2a1.001 1.001 0 0 1 .894-1.79l4 2A1.001 1.001 0 0 1 25 10"/><path d="M39 14c-.15 0-.304-.034-.447-.105l-4-2a1.001 1.001 0 0 1 .894-1.79l4 2A1.001 1.001 0 0 1 39 14m-17.999 0a1 1 0 0 1-.448-1.895l4-2a1 1 0 1 1 .894 1.79l-4 2a1.003 1.003 0 0 1-.446.105"/></g><text y="35" font-size="5" font-weight="bold" font-family="'Helvetica Neue', Helvetica, Arial-Unicode, Arial, Sans-serif">Created by Ben Davis</text><text y="40" font-size="5" font-weight="bold" font-family="'Helvetica Neue', Helvetica, Arial-Unicode, Arial, Sans-serif">from the Noun Project</text></svg>