<svg xmlns="http://www.w3.org/2000/svg" viewBox="0 0 24 75"><path d="M19 38.26V7c0-3.86-3.14-7-7-7S5 3.14 5 7v31.26A11.995 11.995 0 0 0 .08 49.41c.63 5.48 5.07 9.9 10.55 10.51.46.05.92.08 1.37.08 3.21 0 6.22-1.25 8.48-3.51A11.92 11.92 0 0 0 24 48c0-3.88-1.86-7.48-5-9.74zm.07 16.81a9.958 9.958 0 0 1-8.22 2.86c-4.57-.51-8.26-4.19-8.78-8.75a9.984 9.984 0 0 1 4.48-9.56l.45-.29V38h1c.55 0 1-.45 1-1s-.45-1-1-1H7v-3h1c.55 0 1-.45 1-1s-.45-1-1-1H7v-3h1c.55 0 1-.45 1-1s-.45-1-1-1H7v-3h1c.55 0 1-.45 1-1s-.45-1-1-1H7v-3h1c.55 0 1-.45 1-1s-.45-1-1-1H7v-3h1c.55 0 1-.45 1-1s-.45-1-1-1H7V8h1c.55 0 1-.45 1-1s-.45-1-1-1h-.9c.47-2.28 2.48-4 4.9-4 2.76 0 5 2.24 5 5v1h-1c-.55 0-1 .45-1 1s.45 1 1 1h1v3h-1c-.55 0-1 .45-1 1s.45 1 1 1h1v3h-1c-.55 0-1 .45-1 1s.45 1 1 1h1v3h-1c-.55 0-1 .45-1 1s.45 1 1 1h1v3h-1c-.55 0-1 .45-1 1s.45 1 1 1h1v3h-1c-.55 0-1 .45-1 1s.45 1 1 1h1v4.33l.45.3A9.946 9.946 0 0 1 22 48c0 2.67-1.04 5.18-2.93 7.07z"/><path d="M13 43.1V22c0-.55-.45-1-1-1s-1 .45-1 1v21.1a5 5 0 1 0 2 0z"/><text y="75" font-size="5" font-weight="bold" font-family="'Helvetica Neue', Helvetica, Arial-Unicode, Arial, Sans-serif">Created by Ben Davis</text><text y="80" font-size="5" font-weight="bold" font-family="'Helvetica Neue', Helvetica, Arial-Unicode, Arial, Sans-serif">from the Noun Project</text></svg>