<svg xmlns="http://www.w3.org/2000/svg" viewBox="0 0 60 51.25"><path d="M16 36h.3c1.3.4 7.8 2.1 15.9 2.7 10.7.8 19.6-.7 25.9-4.4v-.8c-4.3 1.9-17.9 6.3-43.2.8-1.3-.3-2.7-.4-4.1-.4L2 34v3h12.6l.7-.7c.2-.2.4-.3.7-.3m21.8 5c-9.9 0-18.8-2.2-21.5-2.9l-.6.6c-.2.2-.4.3-.7.3H1c-.6 0-1-.4-1-1v-5c0-.6.4-1 1-1h9.7c1.6 0 3.1.2 4.5.5 29.9 6.4 43.2-1.2 43.3-1.3.3-.2.7-.2 1 0s.5.5.5.9v3c0 .3-.2.7-.5.9-6.3 3.8-14.3 5-21.7 5"/><path d="M10.7 32c1.6 0 3.1.2 4.5.5 25.9 5.5 39.3.5 42.5-1-.5-.7-1.4-1.3-2-1.5-2.7-.3-34.6-3.7-34.6-26.1 0-.3-.1-.5-.3-.6-.1-.1-.3-.2-.5-.3l-.5.3c-4.2 2.4-9.3 2.2-13.3-.5-.1-.1-.2 0-.3 0-.1.1-.2.1-.2.3-.1 14.1-1.4 17.1-2.3 17.7-2.7 4.3-1.5 9.4-1 11.2h8zm26.9 5.1c-6.2 0-13.7-.7-22.8-2.7-1.3-.3-2.7-.4-4.1-.4H2c-.4 0-.7-.2-.9-.6 0-.1-3-7.7 1.1-14l.3-.3c.3-.4 1.4-3 1.5-16.1 0-.8.5-1.6 1.2-2s1.6-.4 2.3.1c3.4 2.3 7.7 2.4 11.2.4l.8-.4c.2-.1.4-.1.6-.1.8 0 1.5.3 2.1.8s.9 1.3.9 2.1c0 21.5 32.7 24.1 33 24.1.1 0 .2 0 .3.1.3.1 3.1 1.4 3.6 3.7v.3c0 .4-.2.8-.6.9-1 .5-7.8 4.1-21.8 4.1z"/><path d="M19 10c-.4 0-.8-.3-.9-.7-.2-.5.1-1.1.6-1.3l3.4-1.1c.5-.2 1.1.1 1.3.6.2.5-.1 1.1-.6 1.3l-3.4 1.1c-.2.1-.3.1-.4.1m1 3.7c-.4 0-.8-.3-.9-.7-.2-.5.1-1.1.6-1.3l3.5-1.2c.5-.2 1.1.1 1.3.6.2.5-.1 1.1-.6 1.3l-3.5 1.2c-.2.1-.3.1-.4.1m1.2 3.5c-.4 0-.8-.3-.9-.7-.2-.5.1-1.1.6-1.3l4-1.4c.5-.2 1 .1 1.2.6s-.1 1.1-.6 1.3l-4 1.4c-.2.1-.3.1-.3.1"/><path d="M16.4 4.6C15.5 6.3 15 8.1 15 10c0 6.1 4.9 11 11 11 1.1 0 2.2-.2 3.3-.5-5.4-4.4-8.2-10-8.2-16.6 0-.3-.1-.5-.3-.6-.1-.1-.3-.2-.5-.3l-.5.3c-1 .6-2.2 1-3.4 1.3M26 23c-7.2 0-13-5.8-13-13 0-2.4.7-4.7 1.9-6.8.1-.2.4-.4.7-.5 1.2-.2 2.2-.6 3.2-1.2l.8-.4c.1-.1.3-.1.5-.1.8 0 1.5.3 2.1.8s.9 1.3.9 2.1c0 6.5 3 11.9 8.8 16.1.3.2.4.5.4.9s-.2.7-.6.8C29.9 22.6 28 23 26 23"/><path d="M22 4.4c-.4 0-.8-.3-1-.7 0-.3-.3-.6-.6-.7-.5-.2-.8-.7-.7-1.3.2-.4.8-.7 1.3-.6 1 .3 1.7 1 2 2 .2.5-.1 1.1-.7 1.2-.1.1-.2.1-.3.1zm-7.6.5c-.5 0-1-.4-1-.9 0-.6.4-1 .9-1.1.6 0 1.2-.1 1.7-.3.5-.1 1.1.2 1.2.7s-.2 1.1-.7 1.2c-.6.3-1.3.4-2.1.4.1 0 0 0 0 0zM5 6.8c-.6 0-1-.5-1-1V3.9c0-.6.5-1 1-1 .6 0 1 .5 1 1v1.9c0 .6-.5 1-1 1zm18 4.1c-.4 0-.8-.3-1-.7-.2-.6-.4-1.3-.5-1.9-.1-.5.2-1.1.8-1.2.5-.1 1.1.2 1.2.8s.3 1.2.5 1.7-.1 1.1-.7 1.3H23zM4.7 13.4s-.1 0 0 0c-.6 0-1-.5-1-1.1s.1-1.2.1-1.9c0-.6.5-1 1.1-.9.6 0 1 .5.9 1.1 0 .7-.1 1.3-.1 1.9-.1.5-.5.9-1 .9zM26 16.8c-.3 0-.6-.1-.8-.4-.4-.5-.8-1.1-1.1-1.6-.3-.5-.1-1.1.3-1.4.5-.3 1.1-.1 1.4.3.3.5.7 1 1 1.5.3.4.3 1.1-.2 1.4-.1.1-.3.2-.6.2zm4.8 4.6c-.2 0-.4-.1-.6-.2-.5-.4-1.1-.8-1.5-1.2-.4-.4-.5-1-.1-1.4s1-.5 1.4-.1c.5.4.9.8 1.4 1.1.4.3.5 1 .2 1.4-.2.3-.5.4-.8.4zm-20.2 3c-.2 0-.4-.1-.6-.2-.5-.4-1.1-.8-1.5-1.3-.4-.4-.5-1-.1-1.4s1-.5 1.4-.1.9.8 1.4 1.1c.4.3.5 1 .2 1.4-.2.3-.5.5-.8.5zm5.8 3.2c-.1 0-.3 0-.4-.1-.6-.3-1.2-.5-1.8-.8-.5-.2-.7-.8-.5-1.3s.8-.7 1.3-.5c.5.3 1.1.5 1.7.8.5.2.8.8.5 1.3-.1.4-.5.6-.8.6zm6.3 2h-.2c-.7-.1-1.3-.3-1.9-.4-.5-.1-.9-.7-.7-1.2.1-.5.7-.9 1.2-.7.6.2 1.2.3 1.8.4.5.1.9.6.8 1.2-.1.4-.5.7-1 .7zm18 .5c-.5 0-.9-.4-1-.9s.3-1 .9-1.1c.6-.1 1.2-.1 1.9-.2.5-.1 1.1.3 1.1.9.1.5-.3 1.1-.9 1.1-.6.1-1.3.2-2 .2zm-11.4.3c-.7 0-1.4-.1-2-.2-.5-.1-1-.5-.9-1.1.1-.5.5-1 1.1-.9s1.2.1 1.9.1c.6 0 1 .5.9 1.1 0 .6-.5 1-1 1zm4.8.1c-.5 0-1-.4-1-1s.4-1 1-1 1.2 0 1.9-.1c.5 0 1 .4 1 1s-.4 1-1 1c-.7.1-1.3.1-1.9.1z"/><text y="56" font-size="5" font-weight="bold" font-family="'Helvetica Neue', Helvetica, Arial-Unicode, Arial, Sans-serif">Created by Ben Davis</text><text y="61" font-size="5" font-weight="bold" font-family="'Helvetica Neue', Helvetica, Arial-Unicode, Arial, Sans-serif">from the Noun Project</text></svg>