<svg xmlns="http://www.w3.org/2000/svg" viewBox="0 0 48 75"><g fill-rule="evenodd"><path d="M35 56v2H13v-2h22zm0 4a2 2 0 0 0 2-2v-3a1 1 0 0 0-1-1H12a1 1 0 0 0-1 1v3a2 2 0 0 0 2 2h22zm10-4v2h-3v-2h3zm0 4a2 2 0 0 0 2-2v-3a1 1 0 0 0-1-1h-5a1 1 0 0 0-1 1v3a2 2 0 0 0 2 2h3zM6 56v2H3v-2h3zm0 4a2 2 0 0 0 2-2v-3a1 1 0 0 0-1-1H2a1 1 0 0 0-1 1v3a2 2 0 0 0 2 2h3z"/><path d="M8.455 49.364c.216 1.508.438 2.47.595 2.949l1.001 3.003a1 1 0 0 0 .95.684h26a1 1 0 0 0 .948-.684l1-3c.159-.482.38-1.444.597-2.952.844-5.883.846-14.683-.543-26.9.009-.14.039-.376.104-.679a5.727 5.727 0 0 1 .677-1.734 4.673 4.673 0 0 1 1.712-1.683 1 1 0 0 0 .045-1.71l-7-4.5a1 1 0 0 0-1.495.54C32.565 14.227 31.511 15 30 15H18c-1.295 0-2.648-1.04-3.046-2.302a1 1 0 0 0-1.495-.54l-7 4.5a1 1 0 0 0 .045 1.71c.736.42 1.298.992 1.713 1.683.328.547.548 1.14.676 1.734.066.303.096.54.105.68-1.39 12.216-1.388 21.016-.543 26.9zm29.614-30.342c-.771 1.284-1.046 2.555-1.069 3.453l.007.138c1.38 12.095 1.38 20.751.559 26.467-.118.82-.243 1.494-.367 2.032-.071.31-.124.499-.149.575L36.28 54H11.72l-.771-2.317a7.77 7.77 0 0 1-.148-.57 25.104 25.104 0 0 1-.367-2.033c-.82-5.716-.82-14.372.56-26.467l.006-.138c-.023-.898-.298-2.169-1.068-3.453a6.765 6.765 0 0 0-1.176-1.462l4.83-3.105C14.529 15.948 16.24 17 18 17h12c1.954 0 3.532-.9 4.448-2.524l4.796 3.084a6.765 6.765 0 0 0-1.175 1.462z"/><path d="M39.107 21.785a5.727 5.727 0 0 1 .677-1.734 4.673 4.673 0 0 1 1.712-1.683 1 1 0 0 0 .045-1.71l-7-4.5a1 1 0 0 0-1.461.45C30.531 18.595 29 28.296 29 39c0 4.943.304 7.876 1.06 11.037.26 1.085 1.46 5.45 1.399 5.22a1 1 0 0 0 .966.743H37a1 1 0 0 0 .949-.684l1-3c.159-.482.38-1.444.597-2.952.844-5.883.846-14.683-.543-26.9.009-.14.039-.376.104-.679zm-7.102 27.787C31.288 46.572 31 43.794 31 39c0-9.808 1.311-18.726 3.479-24.504l4.765 3.064a6.765 6.765 0 0 0-1.175 1.462c-.771 1.284-1.046 2.555-1.069 3.453l.007.138c1.38 12.095 1.38 20.751.559 26.467-.118.82-.243 1.494-.367 2.032-.071.31-.124.499-.149.575L36.28 54h-3.093c-.34-1.245-1.002-3.678-1.182-4.428zm-23.55-.208c.216 1.508.438 2.47.595 2.949l1.001 3.003a1 1 0 0 0 .95.684h4.574a1 1 0 0 0 .966-.742c-.061.23 1.14-4.136 1.399-5.22C18.696 46.875 19 43.942 19 39c0-10.704-1.53-20.405-4.08-26.392a1 1 0 0 0-1.46-.45l-7 4.5a1 1 0 0 0 .044 1.71c.736.42 1.298.992 1.713 1.683.328.547.548 1.14.676 1.734.066.303.096.54.105.68-1.39 12.216-1.388 21.016-.543 26.9zM11.72 54l-.772-2.317a7.77 7.77 0 0 1-.148-.57 25.104 25.104 0 0 1-.367-2.033c-.82-5.716-.82-14.372.56-26.467l.006-.138c-.023-.898-.298-2.169-1.068-3.453a6.765 6.765 0 0 0-1.176-1.462l4.765-3.064C15.688 20.274 17 29.192 17 39c0 4.794-.289 7.573-1.006 10.572-.18.75-.841 3.183-1.182 4.428H11.72zM23 9a1 1 0 0 0 2 0V7a1 1 0 0 0-1-1 2 2 0 1 1 2-2 1 1 0 0 0 2 0 4 4 0 1 0-5 3.874V9z"/><path d="M33.888 13.767l-9.374-5.624a1 1 0 0 0-1.028 0l-9.374 5.624a1 1 0 0 0-.428 1.194c.646 1.806 1.215 3.904 1.691 6.239a1 1 0 0 0 .98.8h15.29a1 1 0 0 0 .98-.8c.476-2.335 1.045-4.433 1.69-6.24a1 1 0 0 0-.427-1.193zM30.834 20H17.166a48.496 48.496 0 0 0-1.33-4.935L24 10.166l8.165 4.899A48.496 48.496 0 0 0 30.834 20zm10.165-2.501l-.707.707.703-.701.004-.006zm-2.93 1.523c-.77 1.284-1.046 2.554-1.069 3.453l.006.135c.82 7.194 1.142 12.257 1.1 16.357.032 3.69-.126 6.724-.42 9.18a1 1 0 0 0 .082.529c.284.634.588 1.526.895 2.601.245.856.477 1.777.69 2.698a61.136 61.136 0 0 1 .268 1.224 1 1 0 0 0 .98.8h6a1 1 0 0 0 .995-.907c1.632-17.645-2.178-38.398-6.64-38.66a.97.97 0 0 0-.924.495 6.674 6.674 0 0 0-1.963 2.095zm2.93-1.522l-.496-.868c-.163.093-.32.192-.471.295-.24.421-.184 1.007.31 1.336l.102.068.55-.826L41 17.5zm3.533 11.769c1.367 7.445 1.846 16.278 1.152 24.73h-4.276l-.107-.473c-.22-.952-.46-1.905-.715-2.798-.294-1.03-.588-1.912-.882-2.613.284-2.493.434-5.524.403-9.147.042-4.162-.284-9.29-1.105-16.503.01-.14.04-.377.105-.68a5.731 5.731 0 0 1 .677-1.734 4.683 4.683 0 0 1 1.338-1.446c.85.888 2.382 5.062 3.41 10.664zM7.045 16.433c-4.463.26-8.273 21.014-6.642 38.659A1 1 0 0 0 1.4 56h6a1 1 0 0 0 .98-.801l.07-.333a61.137 61.137 0 0 1 .888-3.589c.307-1.075.61-1.967.895-2.601a1 1 0 0 0 .081-.529c-.294-2.456-.451-5.489-.42-9.158-.041-4.126.282-9.198 1.1-16.376l.007-.138c-.023-.899-.298-2.169-1.069-3.453a6.674 6.674 0 0 0-1.963-2.095.97.97 0 0 0-.923-.494zm1.25 31.682c-.293.701-.587 1.584-.881 2.613A56.555 56.555 0 0 0 6.59 54H2.316c-.694-8.453-.215-17.286 1.152-24.731 1.028-5.602 2.56-9.776 3.41-10.664.556.39.997.877 1.338 1.446.329.547.548 1.14.677 1.735.066.302.096.539.105.679-.821 7.207-1.147 12.334-1.105 16.517-.03 3.616.12 6.642.403 9.133z"/><path d="M39.107 21.785a5.727 5.727 0 0 1 .677-1.734 4.673 4.673 0 0 1 1.712-1.683 1 1 0 0 0 .045-1.71l-7-4.5a1 1 0 0 0-1.461.45C30.531 18.595 29 28.296 29 39c0 .237.001.418.005.813l.002.196a1 1 0 0 0 1 .99h9.103a1 1 0 0 0 1-.998c.006-4.966-.34-10.785-1.107-17.536.009-.14.039-.377.104-.68zm.137-4.225a6.765 6.765 0 0 0-1.175 1.462c-.771 1.284-1.046 2.555-1.069 3.453l.007.138c.714 6.26 1.06 11.701 1.1 16.387H31c0-9.808 1.311-18.726 3.479-24.504l4.765 3.064zM7.89 40a1 1 0 0 0 1 1h9.103a1 1 0 0 0 1-.991l.002-.158c.004-.433.005-.614.005-.851 0-10.704-1.53-20.405-4.08-26.392a1 1 0 0 0-1.46-.45l-7 4.5a1 1 0 0 0 .044 1.71c.736.42 1.298.992 1.713 1.683.328.547.548 1.14.676 1.734.066.303.096.54.105.68C8.23 29.216 7.884 35.035 7.89 40zm5.631-25.504c2.168 5.778 3.48 14.696 3.48 24.504H9.893c.038-4.686.385-10.126 1.1-16.387l.006-.138c-.023-.898-.298-2.169-1.068-3.453a6.765 6.765 0 0 0-1.176-1.462l4.765-3.064zm19.772 30.211l2 2a1 1 0 0 0 1.414-1.414l-2-2a1 1 0 0 0-1.414 1.414zm-20-1.414l-2 2a1 1 0 0 0 1.414 1.414l2-2a1 1 0 0 0-1.414-1.414z"/><path d="M40.999 17.499l-.707.707.703-.701.004-.006zm-2.93 1.523c-.77 1.284-1.046 2.554-1.069 3.453l.006.135c.82 7.194 1.142 12.257 1.1 16.357.003.25.003.43.003.83V40a1 1 0 0 0 1 1h7.7a1 1 0 0 0 .998-1.061c-.771-12.654-3.712-23.324-6.852-23.507a.97.97 0 0 0-.923.495 6.674 6.674 0 0 0-1.963 2.095zm2.93-1.522l-.496-.868c-.163.093-.32.192-.471.295-.24.421-.184 1.007.31 1.336l.102.068.55-.826L41 17.5zm2.404 6.764C44.5 28.245 45.343 33.442 45.74 39h-5.633c.042-4.194-.284-9.322-1.105-16.535.01-.14.04-.377.105-.68a5.731 5.731 0 0 1 .677-1.734 4.685 4.685 0 0 1 1.316-1.43c.528.612 1.48 2.658 2.303 5.643zM7.045 16.432C3.905 16.615.964 27.286.193 39.94A1 1 0 0 0 1.191 41h7.701a1 1 0 0 0 1-1.002v-.193c-.001-.337-.001-.57.001-.815-.041-4.12.282-9.193 1.1-16.376l.007-.138c-.023-.898-.298-2.169-1.069-3.453a6.672 6.672 0 0 0-1.963-2.095.97.97 0 0 0-.923-.495zm1.172 3.619a5.74 5.74 0 0 1 .676 1.734c.066.303.095.54.105.68-.822 7.218-1.147 12.347-1.105 16.526 0 .003-5.634.009-5.634.009.399-5.558 1.24-10.754 2.338-14.737.823-2.983 1.775-5.03 2.303-5.642.546.386.98.868 1.317 1.43z"/></g><text y="75" font-size="5" font-weight="bold" font-family="'Helvetica Neue', Helvetica, Arial-Unicode, Arial, Sans-serif">Created by Ben Davis</text><text y="80" font-size="5" font-weight="bold" font-family="'Helvetica Neue', Helvetica, Arial-Unicode, Arial, Sans-serif">from the Noun Project</text></svg>