<svg xmlns="http://www.w3.org/2000/svg" viewBox="0 0 60 32.5"><g fill-rule="evenodd"><path d="M16 21c.083 0 .167.01.249.032 2.781.785 26.832 7.212 41.751-1.607v-.82c-4.31 1.9-17.874 6.267-43.225.805a19.407 19.407 0 0 0-4.096-.42L2 19v3h12.586l.707-.707A.998.998 0 0 1 16 21m21.762 5.01c-9.926 0-18.829-2.18-21.467-2.89l-.588.587A.996.996 0 0 1 15 24H1a1 1 0 0 1-1-1v-5a1 1 0 0 1 .999-1l9.679-.01c1.567 0 3.087.156 4.519.465 30.011 6.467 43.154-1.24 43.283-1.32a1.003 1.003 0 0 1 1.52.854v3a1 1 0 0 1-.473.85c-6.366 3.953-14.351 5.17-21.765 5.17"/><path d="M10.678 16.989c1.567 0 3.087.157 4.52.466 26.014 5.605 39.354.56 42.53-.934-.468-.673-1.374-1.25-1.952-1.525-2.014-.051-16.64-.62-21.536-6.346-3.735-4.367-7.592-6.03-8.961-6.514l-1.572 1.571c-4.656 4.534-9.202 6.639-13.502 6.268-3.4-.294-5.776-2.073-7.017-3.276-1.99 4.107-.954 8.656-.466 10.299l7.956-.009zm26.912 5.073c-6.172 0-13.736-.696-22.814-2.652a19.483 19.483 0 0 0-4.097-.421L2 18.999a.998.998 0 0 1-.901-.568c-.034-.07-3.004-7.719 1.062-13.976.18-.276.485-.446.814-.454.359-.02.642.147.836.413.02.03 2.409 3.223 6.596 3.571 3.696.306 7.694-1.611 11.896-5.701l1.99-1.991a.997.997 0 0 1 .947-.264c.219.054 5.453 1.395 10.52 7.321 4.57 5.346 20.1 5.648 20.256 5.65a.997.997 0 0 1 .373.079c.32.136 3.11 1.373 3.576 3.648a1.013 1.013 0 0 1-.562 1.185c-1.021.583-7.843 4.149-21.813 4.15z"/><path d="M22.604 4.733l5.352 4.437a5.298 5.298 0 0 0 6.762-.007 8.101 8.101 0 0 1-.478-.513c-3.736-4.367-7.593-6.03-8.962-6.514l-1.57 1.571c-.36.35-.725.69-1.104 1.026m8.722 7.652a7.263 7.263 0 0 1-4.648-1.674l-6.265-5.195a.998.998 0 0 1 .001-1.54 32.09 32.09 0 0 0 1.889-1.692l1.99-1.99a.998.998 0 0 1 .947-.265c.219.054 5.453 1.395 10.52 7.321.282.33.62.65 1.035.98a.995.995 0 0 1 .373.678.995.995 0 0 1-.224.743 7.283 7.283 0 0 1-5.619 2.634"/><path d="M27 6a.999.999 0 0 1-.707-1.707l2-2a.999.999 0 1 1 1.414 1.414l-2 2A.997.997 0 0 1 27 6m3 2.999a1 1 0 0 1-.708-1.707l2.529-2.533a.998.998 0 0 1 1.414-.001.999.999 0 0 1 .002 1.414l-2.529 2.534a1 1 0 0 1-.708.293m-15.742 1.366a.996.996 0 0 1-.963-.733 1 1 0 0 1 .17-1.892c.292-.067.588-.148.89-.244a.998.998 0 0 1 1.247 1.281 7.663 7.663 0 0 1-.458 1.055c-.18.339-.527.533-.886.533M6.933 9.078a.995.995 0 0 1-.42-.092 11.74 11.74 0 0 1-1.112-.59 1 1 0 0 1 1.033-1.714c.283.171.59.336.92.488a1 1 0 0 1 .487 1.327.999.999 0 0 1-.908.581m3.899.93h-.034a11.23 11.23 0 0 1-1.261-.115 1 1 0 0 1 .293-1.979c.332.05.677.082 1.035.094a.999.999 0 0 1-.033 2M2.49 6.864a1 1 0 0 1-.881-1.472c.168-.316.352-.628.553-.938a1 1 0 0 1 1.647-.04s.195.262.563.64a.999.999 0 0 1-1.222 1.56.997.997 0 0 1-.66.25M1.407 9.73a1 1 0 0 1-.973-1.236c.074-.302.158-.605.253-.91a1 1 0 0 1 1.908.602 12.3 12.3 0 0 0-.217.78 1.001 1.001 0 0 1-.97.765m-.39 3.042H.993a1 1 0 0 1-.977-1.023c.008-.306.024-.617.048-.932a.999.999 0 1 1 1.994.158 14.47 14.47 0 0 0-.042.82 1 1 0 0 1-1 .977m1.221 3.225h-.015c-.353-.005-.704-.02-1.05-.044a1 1 0 0 1-.919-.84c-.053-.33-.1-.679-.138-1.044a.999.999 0 1 1 1.988-.208l.015.134.134.002a1 1 0 0 1-.015 2m8.426-2.065a.998.998 0 0 1-.508-1.862c.394-.231.766-.483 1.107-.747a1 1 0 0 1 1.224 1.582c-.408.316-.85.614-1.317.889a.992.992 0 0 1-.506.138m-4.787 1.753a1 1 0 0 1-.187-1.982c.458-.087.905-.193 1.338-.316a1 1 0 1 1 .547 1.923c-.49.14-.998.26-1.51.357a1.013 1.013 0 0 1-.188.018M24.293 2.707A.999.999 0 0 1 23.586 1l.707-.707a.994.994 0 0 1 .945-.264c.041.01.425.106 1.065.35a1 1 0 0 1-.713 1.87 13.276 13.276 0 0 0-.31-.115l-.28.28a.997.997 0 0 1-.707.293m-2.719 2.606a1 1 0 0 1-.656-1.754c.256-.223.514-.455.776-.698a.998.998 0 0 1 1.413.055.998.998 0 0 1-.054 1.413c-.277.256-.55.502-.823.738a.994.994 0 0 1-.656.246M18.57 7.574a1 1 0 0 1-.537-1.844c.281-.179.565-.369.854-.572a.999.999 0 1 1 1.152 1.634c-.316.222-.627.431-.934.626a1 1 0 0 1-.535.156"/><path d="M15.64 10.163a.999.999 0 0 1-.903-.572 7.659 7.659 0 0 1-.414-1.07 1 1 0 0 1 .61-1.227c.284-.105.57-.222.864-.353a1 1 0 1 1 .77 1.847 1 1 0 0 1-.926 1.375m4.197 4.327a.992.992 0 0 1-.526-.15 16.009 16.009 0 0 1-1.525-1.07 1 1 0 0 1 1.246-1.566c.408.325.856.64 1.333.935a1 1 0 0 1-.528 1.85m5.609 2.387a1.01 1.01 0 0 1-.27-.037 27.605 27.605 0 0 1-1.73-.546 1 1 0 0 1 .668-1.885 25 25 0 0 0 1.6.506 1 1 0 1 1-.269 1.963m16.429.177a1 1 0 0 1-.244-1.969 25.87 25.87 0 0 0 1.616-.465 1.001 1.001 0 0 1 .615 1.903c-.562.182-1.144.35-1.741.5a.993.993 0 0 1-.246.031m-10.399.854a35.357 35.357 0 0 1-1.866-.182 1 1 0 1 1 .252-1.984c.553.07 1.116.126 1.686.168a1 1 0 0 1-.072 1.998m4.361.043a1 1 0 0 1-.052-1.998 31.8 31.8 0 0 0 1.689-.134 1 1 0 1 1 .213 1.988c-.59.063-1.189.111-1.796.143l-.054.001m11.731-3.111a.998.998 0 0 1-.989-1.15.999.999 0 0 1 1.018-1.507c.327.056.651.107.97.153a1 1 0 0 1 .395 1.83 18.73 18.73 0 0 1-.902.544.998.998 0 0 1-.492.13m-7.4-2.548a1 1 0 0 1-.362-.068c-.413-.161-.818-.33-1.207-.51a1 1 0 1 1 .832-1.818c.356.164.723.317 1.099.463a1 1 0 0 1-.362 1.933m4.195 1.268a1.06 1.06 0 0 1-.229-.027 39.175 39.175 0 0 1-1.247-.313 1 1 0 0 1 .519-1.932c.394.107.789.205 1.185.298a1 1 0 0 1-.228 1.974M29.821 4.357a.998.998 0 0 1-.555-.17 22.574 22.574 0 0 0-1.013-.637 1 1 0 1 1 1.017-1.721c.354.209.725.44 1.108.697a.999.999 0 0 1-.557 1.83m3.404 2.757c-.25 0-.5-.093-.694-.28a24.92 24.92 0 0 0-.887-.816 1 1 0 1 1 1.32-1.504c.315.277.634.57.956.88a.999.999 0 0 1-.695 1.72m3.081 3.109a.995.995 0 0 1-.605-.205 9.914 9.914 0 0 1-1.048-.918 1 1 0 0 1 1.426-1.403c.244.248.525.494.835.73a1 1 0 0 1-.608 1.796"/></g><text y="41" font-size="5" font-weight="bold" font-family="'Helvetica Neue', Helvetica, Arial-Unicode, Arial, Sans-serif">Created by Ben Davis</text><text y="46" font-size="5" font-weight="bold" font-family="'Helvetica Neue', Helvetica, Arial-Unicode, Arial, Sans-serif">from the Noun Project</text></svg>