<svg xmlns="http://www.w3.org/2000/svg" viewBox="0 0 60 61.25"><g fill-rule="evenodd"><path d="M31 17a1 1 0 1 1-2-.001 1 1 0 0 1 2 0M31 24a1 1 0 1 1-2-.001 1 1 0 0 1 2 0M31 31a1 1 0 1 1-2-.001 1 1 0 0 1 2 0M31 38a1 1 0 1 1-2-.001 1 1 0 0 1 2 0M35 31h6a1 1 0 0 0 1-1v-8a1 1 0 0 0-1-1h-6a1 1 0 0 0-1 1v8a1 1 0 0 0 1 1zm1-2v-6h4v6h-4zM25.446 2.797C26.618 2.295 28.248 2 30.002 2c1.753 0 3.384.295 4.555.797.726.311 1.17.652 1.35.934l-5.905 6.75-5.907-6.75c.181-.282.625-.623 1.35-.934zM22.002 4a1 1 0 0 0 .247.658l7 8a1 1 0 0 0 1.505 0l7-8A1 1 0 0 0 38.002 4c0-2.441-3.638-4-8-4s-8 1.559-8 4z"/><path d="M34.115 8.817L37.455 5h1.847l-3.426 6.166-1.761-2.349zm1.087 4.783a1 1 0 0 0 1.674-.115l5-9A1 1 0 0 0 41.002 3h-4a1 1 0 0 0-.753.341l-4.173 4.77a1 1 0 0 0-.047 1.258l3.173 4.23zm-10.4 0l3.173-4.231a1 1 0 0 0-.048-1.259l-4.173-4.769A1 1 0 0 0 23.002 3h-4a1 1 0 0 0-.875 1.485l5 9a1 1 0 0 0 1.675.115zm-4.1-8.6h1.846l3.34 3.817-1.761 2.349L20.7 5z"/><path d="M44.977 4.353A5.776 5.776 0 0 0 41.262 3h-4.26a1 1 0 0 0-.753.341l-6.247 7.14-6.248-7.14A1 1 0 0 0 23.002 3H18.74a5.773 5.773 0 0 0-4.985 2.861L.32 28.869a2.347 2.347 0 0 0 .854 3.215l2.866 1.655a2.347 2.347 0 0 0 3.197-.843L14 21.378V43a1 1 0 0 0 .577.906l6.893 3.217a20.171 20.171 0 0 0 17.06 0l6.893-3.217A1 1 0 0 0 46 43V21.342l6.83 11.502a2.345 2.345 0 0 0 3.19.833l2.736-1.579a2.499 2.499 0 0 0 .905-3.43L46.246 5.858a5.76 5.76 0 0 0-1.27-1.506zm-7.293 40.958a18.171 18.171 0 0 1-15.368 0L16 42.363l.002-24.663c0-1.02-1.346-1.385-1.863-.506L5.512 31.883a.347.347 0 0 1-.472.124l-2.866-1.655a.347.347 0 0 1-.127-.475L15.483 6.87A3.773 3.773 0 0 1 18.74 5l3.808.001 6.701 7.659a1 1 0 0 0 1.505 0L37.455 5h3.807a3.776 3.776 0 0 1 3.258 1.869l13.418 22.812a.5.5 0 0 1-.181.685l-2.735 1.579a.346.346 0 0 1-.471-.122l-8.69-14.634c-.519-.874-1.86-.506-1.86.51L44 42.364l-6.316 2.948z"/><path d="M56.02 33.678l2.737-1.58a2.499 2.499 0 0 0 .904-3.431l-1.77-3.01a1 1 0 0 0-1.398-.337l-5.082 3.233a1 1 0 0 0-.324 1.354l1.743 2.936a2.347 2.347 0 0 0 3.19.835zm.672-6.115l1.245 2.117c.141.24.06.547-.18.685l-2.736 1.58a.347.347 0 0 1-.47-.122l-1.249-2.103 3.39-2.157zM2.149 25.737L.32 28.868a2.346 2.346 0 0 0 .852 3.216l2.867 1.655a2.346 2.346 0 0 0 3.197-.845l1.957-3.33a1 1 0 0 0-.395-1.39L3.48 25.358a1 1 0 0 0-1.331.38zm4.79 3.715l-1.427 2.43a.346.346 0 0 1-.471.125l-2.868-1.655a.346.346 0 0 1-.125-.475l1.344-2.303 3.548 1.878z"/></g><text y="64" font-size="5" font-weight="bold" font-family="'Helvetica Neue', Helvetica, Arial-Unicode, Arial, Sans-serif">Created by Ben Davis</text><text y="69" font-size="5" font-weight="bold" font-family="'Helvetica Neue', Helvetica, Arial-Unicode, Arial, Sans-serif">from the Noun Project</text></svg>