<svg xmlns="http://www.w3.org/2000/svg" viewBox="0 0 54 75"><g fill-rule="evenodd"><path d="M2 52h18V2H2v50zm19 2H1a1 1 0 0 1-1-1V1a1 1 0 0 1 1-1h20a1 1 0 0 1 1 1v52a1 1 0 0 1-1 1z"/><path d="M21 60a1 1 0 0 1-1-1v-6a1 1 0 1 1 2 0v6a1 1 0 0 1-1 1m-4 0a1 1 0 0 1-1-1v-6a1 1 0 1 1 2 0v6a1 1 0 0 1-1 1m-4 0a1 1 0 0 1-1-1v-6a1 1 0 1 1 2 0v6a1 1 0 0 1-1 1m-4 0a1 1 0 0 1-1-1v-6a1 1 0 1 1 2 0v6a1 1 0 0 1-1 1m-4 0a1 1 0 0 1-1-1v-6a1 1 0 1 1 2 0v6a1 1 0 0 1-1 1m-4 0a1 1 0 0 1-1-1v-6a1 1 0 1 1 2 0v6a1 1 0 0 1-1 1m51.114-26.885a.997.997 0 0 1-.707-.293l-4.243-4.243a1 1 0 0 1 1.414-1.414l4.243 4.243a.999.999 0 0 1-.707 1.707m-2.828 2.828a.997.997 0 0 1-.707-.293l-4.243-4.242a1 1 0 0 1 1.414-1.414l4.243 4.242a.999.999 0 0 1-.707 1.707m-2.828 2.83a.997.997 0 0 1-.707-.294l-4.243-4.242a1 1 0 0 1 1.414-1.415l4.243 4.243a.999.999 0 0 1-.707 1.708M43.629 41.6a.997.997 0 0 1-.707-.292l-4.243-4.243a1 1 0 0 1 1.414-1.414l4.243 4.243a.999.999 0 0 1-.707 1.707M40.8 44.429a.997.997 0 0 1-.707-.293l-4.243-4.242a1 1 0 0 1 1.414-1.414l4.243 4.242a.999.999 0 0 1-.707 1.707m-2.828 2.828a.997.997 0 0 1-.707-.293l-4.243-4.242a1 1 0 0 1 1.414-1.414l4.243 4.242a.999.999 0 0 1-.707 1.707"/><path d="M22 28.871l11.73 11.73 12.728-12.728L22 3.415v25.456zm11.73 14.144a1 1 0 0 1-.708-.293l-12.729-12.73a.996.996 0 0 1-.293-.707V1.005a.997.997 0 0 1 .93-.999.987.987 0 0 1 .778.29l26.871 26.87a1 1 0 0 1 0 1.414L34.437 42.722a1.001 1.001 0 0 1-.708.293zM7.23 18L11 23.279 14.771 18l-3.77-5.279L7.228 18zM11 26a1 1 0 0 1-.814-.419l-5-7a1 1 0 0 1 0-1.162l5-7c.376-.525 1.252-.525 1.628 0l5 7a1 1 0 0 1 0 1.162l-5 7A1 1 0 0 1 11 26z"/><path d="M7.23 32L11 37.279 14.771 32l-3.77-5.279L7.228 32zM11 40a1 1 0 0 1-.814-.419l-5-7a1 1 0 0 1 0-1.162l5-7c.376-.525 1.252-.525 1.628 0l5 7a1 1 0 0 1 0 1.162l-5 7A1 1 0 0 1 11 40z"/><path d="M7.23 46L11 51.279 14.771 46l-3.77-5.279L7.228 46zM11 54a1 1 0 0 1-.814-.419l-5-7a1 1 0 0 1 0-1.162l5-7c.376-.525 1.252-.525 1.628 0l5 7a1 1 0 0 1 0 1.162l-5 7A1 1 0 0 1 11 54zm12.342-31.3l6.4 1.065-1.067-6.399-6.4-1.066 1.067 6.4zm7.616 3.282c-.054 0-.109-.005-.164-.013l-8.486-1.415a.998.998 0 0 1-.82-.822l-1.416-8.485a.997.997 0 0 1 .28-.87c.228-.23.551-.33.871-.28l8.486 1.414c.421.07.751.4.821.822l1.415 8.485a.997.997 0 0 1-.28.871.996.996 0 0 1-.707.293z"/><path d="M33.242 32.599l6.4 1.066-1.067-6.4-6.4-1.065 1.067 6.399zm7.616 3.283c-.055 0-.11-.005-.165-.013l-8.485-1.415a.998.998 0 0 1-.82-.822l-1.416-8.485a1 1 0 0 1 1.151-1.151l8.485 1.415c.422.07.752.4.822.822l1.414 8.485a1 1 0 0 1-.986 1.164zM7.23 4L11 9.279 14.771 4l-1.429-2H8.658L7.23 4zM11 12a1 1 0 0 1-.814-.419l-5-7a.999.999 0 0 1 .001-1.162l2.143-3A.997.997 0 0 1 8.143 0h5.714c.323 0 .626.156.813.419l2.143 3a.999.999 0 0 1 .001 1.162l-5 7A1 1 0 0 1 11 12z"/></g><text y="75" font-size="5" font-weight="bold" font-family="'Helvetica Neue', Helvetica, Arial-Unicode, Arial, Sans-serif">Created by Ben Davis</text><text y="80" font-size="5" font-weight="bold" font-family="'Helvetica Neue', Helvetica, Arial-Unicode, Arial, Sans-serif">from the Noun Project</text></svg>