<svg xmlns="http://www.w3.org/2000/svg" viewBox="0 0 60 40"><g fill-rule="evenodd"><path d="M10 5a1 1 0 1 1-2-.001 1 1 0 0 1 2 0M16 5a1 1 0 1 1-2-.001 1 1 0 0 1 2 0M22 5a1 1 0 1 1-2-.001 1 1 0 0 1 2 0M28 5a1 1 0 1 1-2-.001 1 1 0 0 1 2 0M34 5a1 1 0 1 1-2-.001 1 1 0 0 1 2 0M40 5a1 1 0 1 1-2-.001 1 1 0 0 1 2 0M46 5a1 1 0 1 1-2-.001 1 1 0 0 1 2 0M52 5a1 1 0 1 1-2-.001 1 1 0 0 1 2 0"/><path d="M2 8V3a1 1 0 0 1 1-1h54a1 1 0 0 1 1 1v5H2zm57 2a1 1 0 0 0 1-1V3a3 3 0 0 0-3-3H3a3 3 0 0 0-3 3v6a1 1 0 0 0 1 1h58z"/><path d="M3 28a1 1 0 0 1-1-1V10h16.895l-1.8 18H3zm15 2a1 1 0 0 0 .995-.9l2-20A1 1 0 0 0 20 8H1a1 1 0 0 0-1 1v18a3 3 0 0 0 3 3h15zm23.105-20H58v17a1 1 0 0 1-1 1H42.905l-1.8-18zM57 30a3 3 0 0 0 3-3V9a1 1 0 0 0-1-1H40a1 1 0 0 0-.995 1.1l2 20A1 1 0 0 0 42 30h15z"/><path d="M37 28a1 1 0 0 0-.496.131l-.538.307a12.025 12.025 0 0 1-11.932 0l-.538-.307A1 1 0 0 0 23 28h-3.895l1.8-18h18.19l1.8 18H37zm-13.958 2.175a14.025 14.025 0 0 0 13.916 0l.307-.175H42a1 1 0 0 0 .995-1.1l-2-20A1 1 0 0 0 40 8H20a1 1 0 0 0-.995.9l-2 20A1 1 0 0 0 18 30h4.735l.307.175z"/><path d="M42 30a1 1 0 0 0 .995-1.1l-.9-9a1 1 0 0 0-.995-.9 6.1 6.1 0 0 0-6.1 6.1v4.433a1 1 0 0 0 1.463.886 3 3 0 0 1 .14-.067c.173-.08.251-.117.356-.178l.306-.174H42zm-5-2v-2.9a4.101 4.101 0 0 1 3.205-4.002l.69 6.902H37zM.293 20.707l9 9a1 1 0 1 0 1.414-1.414l-9-9a1 1 0 1 0-1.414 1.414zm0-6l15 15a1 1 0 0 0 1.414-1.414l-15-15a1 1 0 1 0-1.414 1.414z"/></g><text y="47" font-size="5" font-weight="bold" font-family="'Helvetica Neue', Helvetica, Arial-Unicode, Arial, Sans-serif">Created by Ben Davis</text><text y="52" font-size="5" font-weight="bold" font-family="'Helvetica Neue', Helvetica, Arial-Unicode, Arial, Sans-serif">from the Noun Project</text></svg>