<svg xmlns="http://www.w3.org/2000/svg" data-name="Layer 1" viewBox="0 0 60 75"><path d="M59.316 42.948A.999.999 0 0 0 60 42v-6a1 1 0 0 0-1.323-.946L43.4 40.28l-1.447-4.58a.998.998 0 0 0-1.347-.619l-7 3a.999.999 0 0 0-.56 1.217l1.277 4.087-12.693 4.343-1.682-5.044a.997.997 0 0 0-1.264-.632l-9 3a1 1 0 0 0-.632 1.264L11.613 54H2a2.003 2.003 0 0 0-2 2v2a2.003 2.003 0 0 0 2 2h56a2.003 2.003 0 0 0 2-2v-2a2.003 2.003 0 0 0-2-2H47.732l-2.054-6.505zM58 37.4v3.88l-12.924 4.309-1.074-3.4zm-23.08 7.896l1.04 3.33-12.628 4.21-1.07-3.21zM37.64 54H26.16l10.397-3.466zm-26.375-7.367l7.102-2.368L21.613 54H13.72zM58 58H2l-.002-2H58zm-18.265-4l-4.511-14.437 5.155-2.209L45.636 54z"/><text y="75" font-size="5" font-weight="bold" font-family="'Helvetica Neue', Helvetica, Arial-Unicode, Arial, Sans-serif">Created by Locad</text><text y="80" font-size="5" font-weight="bold" font-family="'Helvetica Neue', Helvetica, Arial-Unicode, Arial, Sans-serif">from the Noun Project</text></svg>