<svg xmlns="http://www.w3.org/2000/svg" viewBox="0 0 50.66 75"><path d="M33.33 38.26V7c0-3.86-3.14-7-7-7s-7 3.14-7 7v31.26a11.995 11.995 0 0 0-4.92 11.15c.63 5.48 5.07 9.9 10.55 10.51a11.953 11.953 0 0 0 9.86-3.43c2.27-2.27 3.51-5.28 3.51-8.49 0-3.88-1.86-7.48-5-9.74zm.07 16.81a9.958 9.958 0 0 1-8.22 2.86c-4.57-.51-8.26-4.19-8.79-8.75a9.984 9.984 0 0 1 4.48-9.56l.45-.3V38h1c.55 0 1-.45 1-1s-.45-1-1-1h-1v-3h1c.55 0 1-.45 1-1s-.45-1-1-1h-1v-3h1c.55 0 1-.45 1-1s-.45-1-1-1h-1v-3h1c.55 0 1-.45 1-1s-.45-1-1-1h-1v-3h1c.55 0 1-.45 1-1s-.45-1-1-1h-1v-3h1c.55 0 1-.45 1-1s-.45-1-1-1h-1V8h1c.55 0 1-.45 1-1s-.45-1-1-1h-.9a5 5 0 0 1 9.9 1v1h-1c-.55 0-1 .45-1 1s.45 1 1 1h1v3h-1c-.55 0-1 .45-1 1s.45 1 1 1h1v3h-1c-.55 0-1 .45-1 1s.45 1 1 1h1v3h-1c-.55 0-1 .45-1 1s.45 1 1 1h1v3h-1c-.55 0-1 .45-1 1s.45 1 1 1h1v3h-1c-.55 0-1 .45-1 1s.45 1 1 1h1v4.33l.45.3a9.976 9.976 0 0 1 4.55 8.38 9.875 9.875 0 0 1-2.92 7.06z"/><path d="M27.33 43.1V37c0-.55-.45-1-1-1s-1 .45-1 1v6.1a5 5 0 1 0 2 0zm22.83-29.47L47.33 12l2.83-1.63c.48-.28.64-.89.37-1.37a1.01 1.01 0 0 0-1.37-.37l-2.83 1.63V7c0-.55-.45-1-1-1s-1 .45-1 1v3.27L41.5 8.63a1.01 1.01 0 0 0-1.37.37c-.28.48-.11 1.09.37 1.37L43.33 12l-2.83 1.63c-.48.28-.64.89-.37 1.37.19.32.52.5.87.5.17 0 .34-.04.5-.13l2.83-1.63V17c0 .55.45 1 1 1s1-.45 1-1v-3.27l2.83 1.63c.16.09.33.13.5.13.35 0 .68-.18.87-.5.27-.47.11-1.08-.37-1.36zM10.53 36a1.01 1.01 0 0 0-1.37-.37l-2.83 1.63V34c0-.55-.45-1-1-1s-1 .45-1 1v3.27L1.5 35.63A1.01 1.01 0 0 0 .13 36c-.28.48-.11 1.09.37 1.37L3.33 39 .5 40.63c-.48.28-.64.89-.37 1.37.19.32.52.5.87.5.17 0 .34-.04.5-.13l2.83-1.63V44c0 .55.45 1 1 1s1-.45 1-1v-3.27l2.83 1.63c.16.09.33.13.5.13a1.002 1.002 0 0 0 .5-1.87L7.33 39l2.83-1.63c.48-.28.64-.89.37-1.37z"/><text y="75" font-size="5" font-weight="bold" font-family="'Helvetica Neue', Helvetica, Arial-Unicode, Arial, Sans-serif">Created by Ben Davis</text><text y="80" font-size="5" font-weight="bold" font-family="'Helvetica Neue', Helvetica, Arial-Unicode, Arial, Sans-serif">from the Noun Project</text></svg>