<svg xmlns="http://www.w3.org/2000/svg" viewBox="0 0 52 75"><g fill-rule="evenodd"><path d="M8 8h18a1 1 0 0 0 1-1V1a1 1 0 0 0-1-1H8a1 1 0 0 0-1 1v6a1 1 0 0 0 1 1zm1-6h16v4H9V2z"/><path d="M8.84 58L2.048 19.188 8.574 8H25v50H8.84zM26 60a1 1 0 0 0 1-1V7a1 1 0 0 0-1-1H8a1 1 0 0 0-.864.496l-7 12a1 1 0 0 0-.121.676l7 40A1 1 0 0 0 8 60h18z"/><path d="M13 1v6a1 1 0 0 0 2 0V1a1 1 0 0 0-2 0zm6 0v6a1 1 0 0 0 2 0V1a1 1 0 0 0-2 0zm-8 14h10a1 1 0 0 0 0-2H11a1 1 0 0 0 0 2z"/><path d="M19 13v3a1 1 0 0 0 2 0v-3a1 1 0 0 0-2 0zm7.707 46.435l25-25a1 1 0 0 0 0-1.415L38.98 20.292a1 1 0 0 0-1.414 0L25.293 32.564a1 1 0 0 0-.293.708v25.456c0 .89 1.077 1.337 1.707.707zM27 33.685l11.272-11.271 11.314 11.314L27 56.313V33.686z"/><path d="M34.207 25.065l12.728 12.728a1 1 0 0 0 1.414 0l3.358-3.358a1 1 0 0 0 0-1.415L38.98 20.292a1 1 0 0 0-1.414 0l-3.358 3.358a1 1 0 0 0 0 1.415zm2.122-.707l1.943-1.944 11.314 11.314-1.944 1.943L36.33 24.358z"/></g><text y="75" font-size="5" font-weight="bold" font-family="'Helvetica Neue', Helvetica, Arial-Unicode, Arial, Sans-serif">Created by Ben Davis</text><text y="80" font-size="5" font-weight="bold" font-family="'Helvetica Neue', Helvetica, Arial-Unicode, Arial, Sans-serif">from the Noun Project</text></svg>