<svg xmlns="http://www.w3.org/2000/svg" viewBox="0 0 45 75"><path d="M17 23v8c0 .6.4 1 1 1s1-.4 1-1v-8c0-.6-.4-1-1-1s-1 .4-1 1zm8 0v8c0 .6.4 1 1 1s1-.4 1-1v-8c0-.6-.4-1-1-1s-1 .4-1 1zm-9 16c0 3.4-1.9 6-4 6-.6 0-1 .4-1 1v4c0 .6.4 1 1 1h10c.6 0 1-.4 1-1V39c0-.6-.4-1-1-1h-5c-.6 0-1 .4-1 1zm5 1v9h-8v-2.1c2.6-.6 4.6-3.4 5-6.9h3z"/><path d="M31 46.9V49h-8v-9h3c.4 3.5 2.4 6.3 5 6.9zM28 39c0-.6-.4-1-1-1h-5c-.6 0-1 .4-1 1v11c0 .6.4 1 1 1h10c.6 0 1-.4 1-1v-4c0-.6-.4-1-1-1-2.1 0-4-2.6-4-6zM8.1 19.3c-.4.5-.9.9-1.3 1.4-.2.3-.4.5-.5.6-2.5 3.9-4.2 9.4-5.2 16.2S-.2 51.4 0 57.6V59c0 .5.5.9 1 .9h4c.4 0 .8-.2.9-.6l2.9-7c.2 0 .2-.2.2-.3-.5-14.4-.3-23.6.3-28.8.1-1 .2-1.8.4-2.3.1-.3.2-.7.2-.7.1-1-1.1-1.6-1.8-.9zM7 51.8L4.4 58H2.1v-.3c-.2-6.1.1-13.1 1-19.8.9-5.8 2.2-10.6 4.1-14.1-.5 5.4-.7 14.4-.2 28zm34-13.9c1 6.7 1.2 13.7 1 19.8v.3h-2.4L37 51.8c.5-13.7.3-22.7-.2-28 2 3.4 3.3 8.3 4.2 14.1zm-5-18.6c-.7-.7-1.9-.1-1.7.9 0 0 .1.4.2.7.1.5.2 1.3.4 2.3.6 5.2.8 14.4.3 28.7 0 .1 0 .3.1.4l2.9 7c.2.4.5.6.9.6h4c.5 0 1-.4 1-.9v-1.4c.2-6.2-.1-13.3-1.1-20.1s-2.7-12.3-5.1-16.1c-.2-.2-.3-.4-.6-.7-.4-.4-.9-.9-1.3-1.4zM28.1 54H16c-1.9 0-3.8-.6-5.4-1.8A1 1 0 0 0 9 53v5c0 1.1.9 2 2 2h22c1.1 0 2-.9 2-2v-4.9c0-.8-.9-1.3-1.6-.8-1.5 1.1-3.4 1.7-5.3 1.7zm4.9 4H11v-3.2c1.5.8 3.3 1.2 5 1.2h12.1c1.7 0 3.4-.4 4.9-1.2V58z"/><path d="M36.5 54.1v.2c0 .1 0 .3.1.4l1.5 4.7c.2.4.5.6.9.6h4c.5 0 1-.4 1-1v-4.9c0-.6-.4-1-1-1h-6c-.6-.1-.5.4-.5 1zm5.6.9v3h-2.4l-1.2-3h3.6zM4.4 58H2.1v-3h3.7l-1.4 3zm3.5-4.2c0-.6-.2-.8-.8-.8H1c-.6 0-1 .5-1 1v4.9c0 .5.5 1 1 1h4c.4 0 .8-.2.9-.6l1.7-4.7c.1-.1.4-.4.4-.5V54l-.1-.2zM18.5 9.1C18.7 7.3 20.2 6 22 6s3.3 1.3 3.5 3.1l.8 5.9c.3 2.1-1.4 4-3.5 4h-1.6c-2.2 0-3.8-1.9-3.5-4l.8-5.9zM21.2 21h1.6c3.4 0 6-3 5.5-6.3l-.8-5.9C27.2 6.1 24.8 4 22 4s-5.2 2.1-5.5 4.8l-.8 5.9c-.4 3.3 2.2 6.3 5.5 6.3zM31.5 8.3C30.9 3.6 26.8 0 22 0s-8.9 3.6-9.5 8.3l-.7 7.3C10.2 17 8.4 18.7 8 19.5c-.1.1-.1.2-.1.4.1-.8-.3 1-.6 2.8-.6 4.8-.8 13.9-.3 28.3 0 .2.1.4.2.6C9.3 54.4 12.5 56 16 56h12.1c3.5 0 6.7-1.6 8.8-4.4.1-.2.2-.4.2-.6.5-14.5.3-23.5-.3-28.4-.2-1.8-.7-3.6-.6-2.8 0-.1-.1-.2-.1-.4-.5-.8-2.3-2.6-3.9-4l-.7-7.1zm3 12.5c.1.5.2 1.1.4 2.1.6 4.7.7 13.6.3 27.8-1.7 2.1-4.3 3.4-7 3.4H16c-2.7 0-5.3-1.2-7-3.4-.5-14.2-.3-23 .3-27.8.1-.9.2-1.6.4-2.1 0-.1.1-.2.1-.3.4-.6 2.2-2.4 3.7-3.6.2-.2.3-.4.3-.7l.8-7.6C15 4.8 18.2 2 22 2s7 2.8 7.5 6.6l.7 7.6c0 .3.2.5.4.7 1.5 1.2 3.3 3 3.8 3.7 0 0 .1.1.1.2z"/><text y="75" font-size="5" font-weight="bold" font-family="'Helvetica Neue', Helvetica, Arial-Unicode, Arial, Sans-serif">Created by Ben Davis</text><text y="80" font-size="5" font-weight="bold" font-family="'Helvetica Neue', Helvetica, Arial-Unicode, Arial, Sans-serif">from the Noun Project</text></svg>