<svg xmlns="http://www.w3.org/2000/svg" viewBox="0 0 60 75"><g fill-rule="evenodd"><path d="M16.003 58H44V19c.04-1.184.355-6.462 2.692-8.391-.64-.658-2.528-2.011-7.98-3.651a1.006 1.006 0 0 1-.42-.251L36.31 4.723l-5.4 11.696a1 1 0 0 1-1.816 0l-5.4-11.698-1.985 1.986a1.006 1.006 0 0 1-.42.251c-5.451 1.64-7.34 2.993-7.98 3.651 2.338 1.929 2.65 7.203 2.693 8.356V58zM45 60H15.003a1 1 0 0 1-1-1V19c-.093-2.542-.894-6.577-2.316-7.051a1.001 1.001 0 0 1-.666-.76c-.217-1.13.73-3.413 9.452-6.073l2.823-2.823a1 1 0 0 1 1.615.288l5.092 11.033 5.06-10.966.013-.031c.264-.635 1.207-.791 1.663-.292l2.79 2.791c8.722 2.66 9.67 4.943 9.453 6.073a1.001 1.001 0 0 1-.666.76c-1.422.474-2.223 4.509-2.316 7.087V59a1 1 0 0 1-1 1z"/><path d="M8 31c-.205 0-.408-.063-.581-.186l-7-5a1 1 0 0 1-.205-1.432l11-14a1.001 1.001 0 0 1 1.572 1.236L2.433 24.795l5.648 4.034 6.458-3.383a1 1 0 1 1 .928 1.772l-7.003 3.668A1.004 1.004 0 0 1 8 31m44 0c-.159 0-.318-.038-.464-.114l-7.003-3.668a1 1 0 0 1 .928-1.772l6.458 3.383 5.648-4.034-10.353-13.177a1 1 0 0 1 1.572-1.236l11 14a1 1 0 0 1-.205 1.432l-7 5A1.001 1.001 0 0 1 52 31M25.112 3.017l4.89 10.597 4.889-10.597-.101-.201A1.467 1.467 0 0 0 33.47 2h-6.938c-.563 0-1.07.313-1.32.818l-.1.199zM30.002 17a.998.998 0 0 1-.907-.581l-6-13a1.001 1.001 0 0 1 .013-.865l.314-.63A3.456 3.456 0 0 1 26.532 0h6.938c1.325 0 2.517.737 3.109 1.922l.316.632c.135.27.14.589.013.865l-5.997 13a1 1 0 0 1-.908.58z"/><path d="M24 15a1.007 1.007 0 0 1-.937-.649l-2.997-8a1.002 1.002 0 0 1 .586-1.288 1.002 1.002 0 0 1 1.287.586l2.608 6.96 3.133-1.567a1.001 1.001 0 0 1 .895 1.789l-4.128 2.064c-.14.07-.294.105-.447.105m12.003 0a.998.998 0 0 1-.447-.105l-4.128-2.064a1.001 1.001 0 0 1 .895-1.789l3.133 1.567 2.608-6.96a1.001 1.001 0 0 1 1.873.702l-2.997 8a1.007 1.007 0 0 1-.937.649M37 26a1 1 0 0 1-1-1c0-1.654-1.346-3-3-3a1 1 0 0 1 0-2c1.634 0 3.087.788 4 2.003A4.997 4.997 0 0 1 41 20a1 1 0 0 1 0 2c-1.654 0-3 1.346-3 3a1 1 0 0 1-1 1"/></g><text y="75" font-size="5" font-weight="bold" font-family="'Helvetica Neue', Helvetica, Arial-Unicode, Arial, Sans-serif">Created by Ben Davis</text><text y="80" font-size="5" font-weight="bold" font-family="'Helvetica Neue', Helvetica, Arial-Unicode, Arial, Sans-serif">from the Noun Project</text></svg>