<svg xmlns="http://www.w3.org/2000/svg" viewBox="0 0 44 75"><g fill-rule="evenodd"><path d="M27 33a1 1 0 1 1-2-.001 1 1 0 0 1 2 0M27 40a1 1 0 1 1-2-.001 1 1 0 0 1 2 0M27 47a1 1 0 1 1-2-.001 1 1 0 0 1 2 0M30 48h8a1 1 0 0 0 1-1v-4a1 1 0 0 0-1-1h-8a1 1 0 0 0-1 1v4a1 1 0 0 0 1 1zm1-4h6v2h-6v-2zM6 48h8a1 1 0 0 0 1-1v-4a1 1 0 0 0-1-1H6a1 1 0 0 0-1 1v4a1 1 0 0 0 1 1zm1-4h6v2H7v-2z"/><path d="M15.223 2.268c.131.852.28 1.8.448 2.818a261.065 261.065 0 0 0 1.557 8.67c.822 4.129 1.623 7.453 2.387 9.702.473 1.395.92 2.373 1.428 2.965V54a1 1 0 0 0 .293.707l1.12 1.12-3.266 2.086L3.05 53.25l.008-.894c.031-4.206.02-8.812-.06-13.15-.129-6.867-.411-11.738-.905-13.898-.13-.573.04-1.13.449-1.48 3.381-2.902 5.11-8.939 3.904-19.098l8.777-2.462zM23.043 26a1 1 0 0 0-.419-.814c-.22-.157-.655-1.015-1.115-2.371-.729-2.146-1.514-5.4-2.32-9.45a259.126 259.126 0 0 1-1.545-8.602 293.253 293.253 0 0 1-.57-3.629c-.035-.231-.035-.231-.041-.279a1 1 0 0 0-1.26-.818l-10.696 3a1 1 0 0 0-.721 1.093c1.328 10.068-.218 15.692-3.116 18.18-.985.845-1.39 2.162-1.097 3.443.45 1.969.73 6.788.855 13.49a514.574 514.574 0 0 1 .045 14.744 1 1 0 0 0 .722.973l17.304 5a1 1 0 0 0 .816-.118l4.696-3a1 1 0 0 0 .17-1.55l-1.708-1.707V26z"/><path d="M38.988 3.037l-10.675-3a1 1 0 0 0-1.26.818l-.04.279-.121.793c-.132.856-.282 1.81-.45 2.836a259.126 259.126 0 0 1-1.546 8.602c-.806 4.05-1.59 7.304-2.319 9.45-.46 1.356-.895 2.214-1.115 2.371a1 1 0 0 0-.42.814v28a1 1 0 0 0 .294.707l5 5a1 1 0 0 0 1.024.241l14.979-5a1 1 0 0 0 .683-.951v-.214c-.002-1.34.001-3.146.015-5.252.02-3.187.061-6.337.125-9.28.146-6.728.399-11.556.768-13.537.241-1.297-.138-2.575-1.105-3.404-2.898-2.488-4.444-8.112-3.116-18.18a1 1 0 0 0-.72-1.093zm2.535 20.79c.394.339.558.892.44 1.52-.397 2.134-.652 7.002-.8 13.86a702.573 702.573 0 0 0-.141 14.072l-13.71 4.576-4.27-4.27V26.423c.509-.592.955-1.57 1.43-2.965.763-2.25 1.564-5.573 2.386-9.703.549-2.76 1.074-5.715 1.557-8.669.167-1.018.317-1.965.448-2.817l8.756 2.46c-1.206 10.16.523 16.197 3.904 19.099z"/><path d="M22.625 26.813c1.372-.98 2.592-5.048 4.015-11.977.886-4.315 1.681-8.99 2.29-13.008.15-.984-1.073-1.558-1.735-.816C26.115 2.223 24.188 3 22.043 3c-2.143 0-4.071-.773-5.152-1.98-.663-.74-1.883-.165-1.733.818.614 4.044 1.406 8.7 2.291 13.01 1.422 6.924 2.641 10.986 4.013 11.966a1 1 0 0 0 1.163 0zm-3.217-12.367a249.503 249.503 0 0 1-1.896-10.493C18.822 4.625 20.392 5 22.043 5c1.652 0 3.223-.376 4.532-1.051-.54 3.378-1.189 7.05-1.894 10.484-.955 4.653-1.916 8.197-2.638 9.825-.72-1.626-1.68-5.165-2.635-9.812z"/></g><text y="75" font-size="5" font-weight="bold" font-family="'Helvetica Neue', Helvetica, Arial-Unicode, Arial, Sans-serif">Created by Ben Davis</text><text y="80" font-size="5" font-weight="bold" font-family="'Helvetica Neue', Helvetica, Arial-Unicode, Arial, Sans-serif">from the Noun Project</text></svg>