<svg xmlns="http://www.w3.org/2000/svg" viewBox="0 0 60 70"><g fill-rule="evenodd"><path d="M5 44c-1.654 0-3 1.346-3 3v4c0 1.654 1.346 3 3 3h50c1.654 0 3-1.346 3-3v-4c0-1.654-1.346-3-3-3H5zm50 12H5c-2.757 0-5-2.243-5-5v-4c0-2.757 2.243-5 5-5h50c2.757 0 5 2.243 5 5v4c0 2.757-2.243 5-5 5z"/><path d="M7 42h46v-9.021C53 18.654 42.682 7 30 7S7 18.654 7 32.979V42zm47 2H6a1 1 0 0 1-1-1V32.979C5 17.552 16.215 5 30 5s25 12.552 25 27.979V43a1 1 0 0 1-1 1z"/><path d="M30 1.98c-1.979 0-3.628 1.453-3.945 3.352a23.64 23.64 0 0 1 7.89 0C33.627 3.432 31.98 1.98 30 1.98m-4.985 5.587a.998.998 0 0 1-1-.964A18.92 18.92 0 0 1 24 6.002c0-3.32 2.691-6.022 6-6.022 3.31 0 6 2.701 6 6.021 0 .152-.007.359-.02.619a1.002 1.002 0 0 1-1.23.92c-3.01-.715-6.493-.715-9.504 0a1.012 1.012 0 0 1-.23.027"/><path d="M41 23.98a1 1 0 0 1-1-1C40 14.168 35.514 7 30 7s-10 7.168-10 15.98a1 1 0 0 1-2 0C18 13.065 23.383 5 30 5s12 8.066 12 17.98a1 1 0 0 1-1 1M33 50h-5c-1.654 0-3-1.346-3-3a1 1 0 0 1 2 0c0 .551.45 1 1 1h5a1 1 0 0 1 0 2"/><path d="M28 50.98a1 1 0 0 1-1-1V49a1 1 0 1 1 2 0v.98a1 1 0 0 1-1 1m3 0a1 1 0 0 1-1-1V49a1 1 0 1 1 2 0v.98a1 1 0 0 1-1 1"/></g><text y="71" font-size="5" font-weight="bold" font-family="'Helvetica Neue', Helvetica, Arial-Unicode, Arial, Sans-serif">Created by Ben Davis</text><text y="76" font-size="5" font-weight="bold" font-family="'Helvetica Neue', Helvetica, Arial-Unicode, Arial, Sans-serif">from the Noun Project</text></svg>