<svg xmlns="http://www.w3.org/2000/svg" viewBox="0 0 34 75"><g fill-rule="evenodd"><path d="M7.983 16.815l-3-16C4.763-.357 3.044-.229 3 .963a185.066 185.066 0 0 1-.154 3.122 162.617 162.617 0 0 1-.535 6.874c-.254 2.515-.552 4.651-.894 6.283-.354 1.69-.767 2.778-1 2.944C-.371 20.752.029 22 1 22c3.073 0 7-2.323 7-5l-.017-.185zM2.865 19.65c.609-1.824 1.05-4.665 1.437-8.488.07-.682.134-1.379.195-2.086l1.5 8c-.078.919-1.545 2.022-3.132 2.574zM29.503 9.075c.06.707.126 1.404.195 2.086.387 3.823.828 6.664 1.437 8.488-1.587-.552-3.054-1.655-3.132-2.574l1.5-8zm-3.486 7.74L26 17c0 2.677 3.927 5 7 5 .973 0 1.373-1.248.581-1.814-.232-.166-.645-1.253-.999-2.944-.342-1.632-.64-3.768-.894-6.283a162.617 162.617 0 0 1-.534-6.873 185.066 185.066 0 0 1-.155-3.123c-.043-1.192-1.762-1.32-1.982-.148l-3 16z"/><path d="M1 20a1 1 0 0 0-1 1v36a3 3 0 0 0 3 3h28a3 3 0 0 0 3-3V21a1 1 0 0 0-1-1c-2.072 0-4.888-1.642-4.997-2.925l2.98-15.891A1 1 0 0 0 30 0h-4a1 1 0 0 0-1 1 8 8 0 0 1-8 8 8 8 0 0 1-8-8 1 1 0 0 0-1-1H4a1 1 0 0 0-.983 1.184l2.98 15.891C5.888 18.358 3.072 20 1 20zM28.795 2l-2.778 14.815L26 17c0 2.394 3.139 4.503 6 4.924V57a1 1 0 0 1-1 1H3a1 1 0 0 1-1-1V21.924c2.861-.42 6-2.53 6-4.924l-.017-.185L5.205 2h1.844c.502 5.053 4.765 9 9.951 9 5.186 0 9.449-3.947 9.95-9h1.845z"/><path d="M17 11c5.32 0 9.692-4.17 9.975-9.464C27.022.642 25.962.141 25.3.745 23.843 2.078 20.622 3 17 3S10.157 2.078 8.699.745c-.66-.604-1.721-.103-1.674.791C7.308 6.831 11.68 11 17 11zm7.574-7.45a7.95 7.95 0 0 1-.024.071l.024-.072zm-.024.071A7.992 7.992 0 0 1 17 9a7.993 7.993 0 0 1-7.574-5.45C11.42 4.47 14.113 5 17 5c2.887 0 5.58-.53 7.574-1.45l-.024.071z"/></g><text y="75" font-size="5" font-weight="bold" font-family="'Helvetica Neue', Helvetica, Arial-Unicode, Arial, Sans-serif">Created by Ben Davis</text><text y="80" font-size="5" font-weight="bold" font-family="'Helvetica Neue', Helvetica, Arial-Unicode, Arial, Sans-serif">from the Noun Project</text></svg>