<svg xmlns="http://www.w3.org/2000/svg" viewBox="0 0 52 75"><g fill-rule="evenodd"><path d="M18 17a1 1 0 1 1-2-.001 1 1 0 0 1 2 0"/><path d="M17 22.72l-4-3.2V13h8v6.52l-4 3.2zm5.625-1.94A1 1 0 0 0 23 20v-8a1 1 0 0 0-1-1H12a1 1 0 0 0-1 1v8a1 1 0 0 0 .375.78l5 4a1 1 0 0 0 1.25 0l5-4zM8 8h18a1 1 0 0 0 1-1V1a1 1 0 0 0-1-1H8a1 1 0 0 0-1 1v6a1 1 0 0 0 1 1zm1-6h16v4H9V2z"/><path d="M8.84 58L2.048 19.188 8.574 8H25v50H8.84zM26 60a1 1 0 0 0 1-1V7a1 1 0 0 0-1-1H8a1 1 0 0 0-.864.496l-7 12a1 1 0 0 0-.121.676l7 40A1 1 0 0 0 8 60h18z"/><path d="M13 1v6a1 1 0 0 0 2 0V1a1 1 0 0 0-2 0zm6 0v6a1 1 0 0 0 2 0V1a1 1 0 0 0-2 0zm7.707 58.435l25-25a1 1 0 0 0 0-1.415L38.98 20.292a1 1 0 0 0-1.414 0L25.293 32.564a1 1 0 0 0-.293.708v25.456c0 .89 1.077 1.337 1.707.707zM27 33.685l11.272-11.271 11.314 11.314L27 56.313V33.686z"/><path d="M34.207 25.065l12.728 12.728a1 1 0 0 0 1.414 0l3.358-3.358a1 1 0 0 0 0-1.415L38.98 20.292a1 1 0 0 0-1.414 0l-3.358 3.358a1 1 0 0 0 0 1.415zm4.065-2.651l11.314 11.314-1.944 1.943-11.314-11.313 1.944-1.944z"/></g><text y="75" font-size="5" font-weight="bold" font-family="'Helvetica Neue', Helvetica, Arial-Unicode, Arial, Sans-serif">Created by Ben Davis</text><text y="80" font-size="5" font-weight="bold" font-family="'Helvetica Neue', Helvetica, Arial-Unicode, Arial, Sans-serif">from the Noun Project</text></svg>