<svg xmlns="http://www.w3.org/2000/svg" viewBox="0 0 60 75"><g fill-rule="evenodd"><path d="M38.997 21a1 1 0 0 1-1-1c0-1.654-1.346-3-3-3a1 1 0 1 1 0-2c1.634 0 3.087.788 4 2.003a4.997 4.997 0 0 1 4-2.003 1 1 0 1 1 0 2c-1.654 0-3 1.346-3 3a1 1 0 0 1-1 1m12.361 30.309a1 1 0 0 1-.274-1.962l6.944-1.983a1.005 1.005 0 0 1 1.236.687 1.001 1.001 0 0 1-.687 1.237l-6.944 1.983a1.042 1.042 0 0 1-.275.038M8.63 51.32c-.09 0-.184-.013-.275-.038L1.412 49.3a1.001 1.001 0 0 1-.687-1.237 1.005 1.005 0 0 1 1.237-.687l6.942 1.983a1 1 0 0 1-.274 1.962M22.71 5.29a1.001 1.001 0 0 1-.707-1.708l1.174-1.174.241-.483A3.455 3.455 0 0 1 26.53 0h6.937c1.326 0 2.517.736 3.11 1.922l.242.486 1.173 1.173a.999.999 0 1 1-1.414 1.414L35.292 3.71a.998.998 0 0 1-.19-.262l-.315-.63A1.468 1.468 0 0 0 33.467 2h-6.938c-.564 0-1.069.313-1.32.817l-.314.63a1.015 1.015 0 0 1-.188.26l-1.29 1.29a.997.997 0 0 1-.707.292"/><path d="M12.982 10.813zm2.017 14.52a1.001 1.001 0 0 1 1.001 1V55c0 1.654 1.345 3 3 3h21.997c1.654 0 3-1.346 3-3V26.334a1.001 1.001 0 0 1 1.967-.258L52.9 52.218a.998.998 0 0 0 1.251.744l3.12-.892c.519-.148.83-.694.693-1.215L47.033 11.267a1.029 1.029 0 0 1-.036-.252c-.103-.226-1.087-1.89-8.288-4.057a1.006 1.006 0 0 1-.42-.25l-.772-.774a9.016 9.016 0 0 1-7.52 4.067 9.017 9.017 0 0 1-7.52-4.065l-.77.771a1.006 1.006 0 0 1-.42.252c-7.2 2.165-8.184 3.83-8.287 4.056a1.01 1.01 0 0 1-.057.317L2.028 50.867a1.003 1.003 0 0 0 .697 1.203l3.12.89a1 1 0 0 0 1.246-.724l6.942-26.16a.999.999 0 0 1 .966-.744zM40.997 60H19c-2.757 0-5-2.244-5-5V33.999L9.028 52.73c-.19.78-.69 1.45-1.402 1.864a2.982 2.982 0 0 1-2.331.29l-3.12-.89a3.019 3.019 0 0 1-2.078-3.647L10.99 10.885c.019-1.207 1.478-3.33 9.479-5.77l1.533-1.533a1.004 1.004 0 0 1 1.619.294A7.012 7.012 0 0 0 29.997 8a7.017 7.017 0 0 0 6.377-4.123 1 1 0 0 1 1.618-.294l1.535 1.534c8.02 2.446 9.467 4.574 9.478 5.779l10.89 39.44a3.023 3.023 0 0 1-2.074 3.66l-3.12.89a2.978 2.978 0 0 1-2.331-.29 2.978 2.978 0 0 1-1.408-1.883L45.997 34v21c0 2.757-2.243 5-5 5z"/><path d="M29.997 60a1 1 0 0 1-1-1V9a1 1 0 1 1 2 0v50a1 1 0 0 1-1 1"/></g><text y="75" font-size="5" font-weight="bold" font-family="'Helvetica Neue', Helvetica, Arial-Unicode, Arial, Sans-serif">Created by Ben Davis</text><text y="80" font-size="5" font-weight="bold" font-family="'Helvetica Neue', Helvetica, Arial-Unicode, Arial, Sans-serif">from the Noun Project</text></svg>