<svg xmlns="http://www.w3.org/2000/svg" viewBox="0 0 61 75"><g fill-rule="evenodd"><path d="M36.024 38.5c0 .766-.065 1.534-.193 2.306-8.908-1.23-15.89-8.476-16.715-17.509a19.538 19.538 0 0 1-.092-1.797c0-.965.09-1.958.265-3.066C20.78 9.02 28.906 2 38.524 2c10.77 0 19.5 8.73 19.5 19.5 0 9.16-6.367 16.967-15.105 18.977.07-.678.105-1.33.105-1.977 0-.366-.012-.738-.035-1.126C50.02 35.397 55.024 28.95 55.024 21.5c0-9.099-7.4-16.5-16.5-16.5-7.743 0-14.404 5.407-16.087 12.876a16.458 16.458 0 0 0-.413 3.624c0 .565.028 1.126.085 1.682.76 7.479 6.533 13.494 13.899 14.627.01.23.016.46.016.691zm2.5-31.5c7.995 0 14.5 6.506 14.5 14.5 0 6.801-4.753 12.657-11.315 14.136a1 1 0 0 0-.776 1.067c.06.656.09 1.238.09 1.797 0 .966-.09 1.96-.265 3.066a1 1 0 0 0 1.144 1.144c10.381-1.643 18.122-10.604 18.122-21.21 0-11.874-9.626-21.5-21.5-21.5-10.607 0-19.567 7.74-21.21 18.121-.19 1.205-.29 2.3-.29 3.38 0 .62.034 1.26.1 1.979.94 10.293 9.127 18.48 19.42 19.42a1 1 0 0 0 1.066-.776c.273-1.21.414-2.416.414-3.624 0-.565-.029-1.126-.085-1.681a1 1 0 0 0-.894-.893c-6.816-.694-12.253-6.131-12.946-12.947a14.53 14.53 0 0 1-.075-1.479c0-1.056.124-2.116.364-3.185C25.867 11.753 31.723 7 38.524 7z"/><path d="M17.024 21.5c0 .366.012.738.035 1.126-7.03 1.977-12.035 8.425-12.035 15.874 0 9.1 7.4 16.5 16.5 16.5 7.743 0 14.404-5.406 16.087-12.876.272-1.21.413-2.416.413-3.624 0-.558-.028-1.118-.085-1.68-.76-7.48-6.533-13.496-13.899-14.628a14.11 14.11 0 0 1 .176-2.998c8.91 1.23 15.89 8.476 16.716 17.508.061.665.092 1.243.092 1.798 0 .965-.09 1.96-.265 3.066C39.269 50.98 31.142 58 21.524 58c-10.77 0-19.5-8.73-19.5-19.5 0-9.16 6.367-16.967 15.105-18.977a19.18 19.18 0 0 0-.105 1.977zm26 17c0-.622-.034-1.258-.1-1.98-.94-10.293-9.127-18.479-19.42-19.42a1 1 0 0 0-1.066.775 16.4 16.4 0 0 0-.329 5.307 1 1 0 0 0 .894.893c6.816.693 12.253 6.13 12.946 12.946.05.495.075.989.075 1.48 0 1.055-.124 2.115-.364 3.184C34.18 48.247 28.326 53 21.524 53c-7.995 0-14.5-6.505-14.5-14.5 0-6.801 4.753-12.657 11.315-14.135a1 1 0 0 0 .776-1.067 19.6 19.6 0 0 1-.09-1.798c0-.963.089-1.957.264-3.067a1 1 0 0 0-1.144-1.143C7.764 18.934.025 27.894.025 38.5c0 11.875 9.625 21.5 21.5 21.5 10.605 0 19.565-7.74 21.208-18.12.19-1.203.29-2.3.29-3.379z"/></g><text y="75" font-size="5" font-weight="bold" font-family="'Helvetica Neue', Helvetica, Arial-Unicode, Arial, Sans-serif">Created by Ben Davis</text><text y="80" font-size="5" font-weight="bold" font-family="'Helvetica Neue', Helvetica, Arial-Unicode, Arial, Sans-serif">from the Noun Project</text></svg>