<svg xmlns="http://www.w3.org/2000/svg" viewBox="0 0 60 33.75"><g fill-rule="evenodd"><path d="M0 1.998c0 2.014 1.465 4.097 3.347 4.414a1 1 0 0 0 .332-1.972C2.842 4.3 2 3.102 2 1.998a1 1 0 1 0-2 0z"/><path d="M24.136.726a1 1 0 0 0-1.271.372c-.105.165-.33.48-.673.895a15.244 15.244 0 0 1-2.07 2.061c-4.29 3.523-9.613 4.273-16.095.498a1 1 0 0 0-1.487.68 598.28 598.28 0 0 1-.373 1.983 951.948 951.948 0 0 1-.837 4.361l-.076.39C.628 15.168.178 17.337.052 17.716a1 1 0 0 0 .873 1.313l.77.057a560.096 560.096 0 0 0 9.759.596c6.214.325 12.36.549 18.106.625 16.399.216 26.625-.711 28.983-3.526a1 1 0 0 0 .156-.255c.032-.078.068-.185.1-.318.225-.954.001-2.039-.95-2.997-1.767-1.782-5.707-2.69-12.48-2.495L24.135.727zM21.391 5.6a17.23 17.23 0 0 0 2.646-2.71l20.697 9.739a1 1 0 0 0 .458.095c6.416-.207 9.942.59 11.237 1.896.379.382.48.723.442 1.024-2.094 1.972-12.31 2.862-27.285 2.664-5.718-.076-11.837-.298-18.027-.622a558.106 558.106 0 0 1-9.309-.565c.227-1.036.552-2.648.967-4.773l.076-.39a953.889 953.889 0 0 0 .958-5.004c6.724 3.438 12.517 2.442 17.14-1.354z"/><path d="M29.585 18.307c-5.717-.075-11.836-.298-18.025-.622a558.23 558.23 0 0 1-9.722-.594 184.9 184.9 0 0 1-.762-.055A1 1 0 0 0 0 18.033v5.965a1 1 0 0 0 .978 1 2516.92 2516.92 0 0 1 2.266.05 8021.817 8021.817 0 0 1 24.11.58 3897.407 3897.407 0 0 1 13.359.37c8.26.25 13.915-1.257 17.473-3.815 1.664-1.2 2.235-3.393 1.51-5.359l-1.001-2.34a1 1 0 0 0-.975-.604 1.003 1.003 0 0 0-.908 1.326c.056.16.07.31.056.442-2.102 1.97-12.315 2.857-27.283 2.66zm28.228-2.429h.018l-.055-1-.018.008.055.992zm.026 1.686c.406 1.105.084 2.343-.822 2.995-3.177 2.285-8.401 3.677-16.244 3.44a3899.457 3899.457 0 0 0-13.367-.37A7019.645 7019.645 0 0 0 2 23.019v-3.911a560.22 560.22 0 0 0 9.456.575c6.213.325 12.357.548 18.103.624 15.032.2 24.877-.563 28.23-2.859l.05.116z"/><path d="M44.013 20.086c8.005-.438 12.903-1.412 14.488-3.303a1 1 0 0 0 .156-.256c.032-.077.068-.184.1-.317.225-.955.001-2.04-.95-2.998-1.788-1.802-5.8-2.71-12.722-2.487a1 1 0 0 0-.955.842l-1.16 7.273-.012.158v.09a1 1 0 0 0 1.055.998zm-.055-.998h1v-.09h-1l.988.157 1.028-6.452c5.895-.115 9.175.67 10.413 1.918.378.38.48.72.442 1.022-1.206 1.114-5.355 1.956-11.702 2.373-.399.026-.807.05-1.223.073l.054.999zM26.862 5.837l1.958-3.332a1 1 0 0 0-1.724-1.013l-1.958 3.332a1 1 0 0 0 1.724 1.013zm4 2l1.958-3.332a1 1 0 0 0-1.724-1.013l-1.958 3.332a1 1 0 0 0 1.724 1.013zm4 2l1.958-3.332a1 1 0 0 0-1.724-1.013l-1.958 3.332a1 1 0 0 0 1.724 1.013zm4 2l1.958-3.332a1 1 0 0 0-1.724-1.013l-1.958 3.332a1 1 0 1 0 1.724 1.013zm-14.406-1.133a1 1 0 0 0 .701.473l.865.137-.637.705a1 1 0 0 0-.241.853l.124.666-.8-.424a1 1 0 0 0-.936 0l-.8.424.124-.666a1 1 0 0 0-.241-.853l-.637-.705.865-.137a1 1 0 0 0 .7-.473L24 9.943l.456.76zm-4.613-1.075a1 1 0 0 0-.585 1.658l1.541 1.706-.411 2.214a1 1 0 0 0 1.45 1.067L24 15.13l2.161 1.144a1 1 0 0 0 1.451-1.067l-.411-2.214 1.541-1.706a1 1 0 0 0-.585-1.658l-2.225-.354-1.074-1.791a1 1 0 0 0-1.716 0l-1.074 1.79-2.225.355z"/></g><text y="42" font-size="5" font-weight="bold" font-family="'Helvetica Neue', Helvetica, Arial-Unicode, Arial, Sans-serif">Created by Ben Davis</text><text y="47" font-size="5" font-weight="bold" font-family="'Helvetica Neue', Helvetica, Arial-Unicode, Arial, Sans-serif">from the Noun Project</text></svg>