<svg xmlns="http://www.w3.org/2000/svg" viewBox="0 0 60 52.5"><g fill-rule="evenodd"><path d="M23.628 19.373a1 1 0 0 1-.708-1.707l.796-.796a3.983 3.983 0 0 1-.553-2.033c0-1.068.416-2.072 1.171-2.828 1.512-1.512 4.146-1.512 5.657 0a3.973 3.973 0 0 1 1.172 2.828 3.97 3.97 0 0 1-1.172 2.828 1 1 0 1 1-1.413-1.414c.378-.378.585-.88.585-1.414 0-.534-.207-1.036-.585-1.414-.756-.756-2.073-.756-2.83 0a1.99 1.99 0 0 0-.585 1.414c0 .534.209 1.036.585 1.414a1 1 0 0 1 .002 1.414l-1.415 1.415a1.001 1.001 0 0 1-.707.293"/><path d="M4.26 14.562L27.438 37.74l-4.636-18.543L4.26 14.563zm25.024 27.437a.999.999 0 0 1-.707-.291L.293 13.423a.999.999 0 0 1 .95-1.677l22.627 5.658a.998.998 0 0 1 .727.727l5.657 22.627a1 1 0 0 1-.97 1.241zm23.18-33.464a.999.999 0 0 1-.707-1.707l.796-.796A3.968 3.968 0 0 1 52 4a3.97 3.97 0 0 1 1.172-2.828c1.51-1.512 4.145-1.512 5.656 0A3.97 3.97 0 0 1 60 4a3.971 3.971 0 0 1-1.172 2.828 1 1 0 1 1-1.414-1.414C57.792 5.036 58 4.534 58 4c0-.534-.208-1.036-.586-1.414-.756-.756-2.073-.756-2.828 0C54.208 2.964 54 3.466 54 4c0 .534.208 1.036.586 1.414a1 1 0 0 1 0 1.414l-1.415 1.414a.997.997 0 0 1-.707.293"/><path d="M33.097 3.725l23.179 23.179L51.64 8.36 33.097 3.725zm25.025 27.438a1 1 0 0 1-.708-.292L29.13 2.586A.999.999 0 0 1 30.08.91l22.627 5.656a1 1 0 0 1 .728.727l5.657 22.628a1.001 1.001 0 0 1-.97 1.242z"/></g><text y="57" font-size="5" font-weight="bold" font-family="'Helvetica Neue', Helvetica, Arial-Unicode, Arial, Sans-serif">Created by Ben Davis</text><text y="62" font-size="5" font-weight="bold" font-family="'Helvetica Neue', Helvetica, Arial-Unicode, Arial, Sans-serif">from the Noun Project</text></svg>