<svg xmlns="http://www.w3.org/2000/svg" viewBox="0 0 32 75"><g fill-rule="evenodd"><path d="M14 18C7.383 18 2 23.383 2 30s5.383 12 12 12 12-5.383 12-12-5.383-12-12-12m0 26C6.28 44 0 37.72 0 30s6.28-14 14-14 14 6.28 14 14-6.28 14-14 14m-6.476 6h12.9l.1-2h-13.1l.1 2zm13.851 2H6.573a1 1 0 0 1-.999-.95l-.2-4a1 1 0 0 1 1-1.05h15.203a.997.997 0 0 1 .997 1.05l-.2 4a1 1 0 0 1-.998.95z"/><path d="M7.725 54h12.5l.1-2h-12.7l.1 2zm13.45 2h-14.4a1 1 0 0 1-1-.95l-.2-4A.997.997 0 0 1 6.573 50h14.802a1 1 0 0 1 1 1.05l-.202 4a1 1 0 0 1-.998.95z"/><path d="M7.825 56l.1 2h12.098l.1-2H7.825zm12.198 4H7.926a1.999 1.999 0 0 1-1.998-1.899l-.153-3.051A1 1 0 0 1 6.774 54h14.401a.997.997 0 0 1 .998 1.05l-.153 3.05a1.996 1.996 0 0 1-1.997 1.9zM7.475 12h13.101l-.1-2h-12.9l-.1 2zm14.152 2H6.424a1 1 0 0 1-.999-1.05l.201-4A1 1 0 0 1 6.624 8h14.803a1 1 0 0 1 .998.95l.2 4a.996.996 0 0 1-.274.739.995.995 0 0 1-.724.311z"/><path d="M7.676 8h12.7l-.101-2H7.777l-.101 2zm13.75 2h-14.8a1 1 0 0 1-1-1.05l.202-4A1 1 0 0 1 6.825 4h14.4a1 1 0 0 1 1 .95l.2 4a1 1 0 0 1-.999 1.05z"/><path d="M7.877 4h12.298l-.1-2H7.977l-.1 2zm13.35 2H6.826a1 1 0 0 1-1-1.05L5.98 1.9C6.033.834 6.91 0 7.977 0h12.098c1.066 0 1.944.834 1.997 1.899l.153 3.051A.997.997 0 0 1 21.227 6zM7.324 46h13.301l.19-3.779a13.818 13.818 0 0 1-6.877 1.777c-.195-.001-.345-.012-.497-.022l-.177-.012a13.894 13.894 0 0 1-6.13-1.775L7.323 46zm14.252 2H6.373a1 1 0 0 1-.999-.95l-.338-6.741a1 1 0 1 1 1.613-.84 11.896 11.896 0 0 0 6.726 2.498l.207.014c.13.009.26.019.392.019H14c2.656 0 5.181-.862 7.302-2.494a1 1 0 1 1 1.608.843l-.336 6.701a.999.999 0 0 1-.998.95zm-7.551-32c.18 0 .357.012.534.024l.177.012c2.174.112 4.261.72 6.13 1.776L20.676 14h-13.3l-.19 3.779A13.819 13.819 0 0 1 14 16h.024zm7.94 4.741a1 1 0 0 1-.613-.21 11.902 11.902 0 0 0-6.726-2.498l-.207-.014c-.123-.008-.244-.018-.367-.019h-.08a11.88 11.88 0 0 0-7.274 2.494 1 1 0 0 1-1.609-.843l.337-6.701a1 1 0 0 1 .997-.95h15.204a1 1 0 0 1 .998.95l.338 6.741a.998.998 0 0 1-.998 1.05z"/><path d="M14 21a1 1 0 0 1-1-1v-3a1 1 0 0 1 2 0v3a1 1 0 0 1-1 1m0 23a1 1 0 0 1-1-1v-3a1 1 0 0 1 2 0v3a1 1 0 0 1-1 1m13-13h-3a1 1 0 0 1 0-2h3a1 1 0 0 1 0 2M4 31H1a1 1 0 0 1 0-2h3a1 1 0 0 1 0 2m14 0h-4a1 1 0 0 1-1-1v-6a1 1 0 0 1 2 0v5h3a1 1 0 0 1 0 2"/><path d="M27.849 32h2.15v-4h-2.15c.1.675.15 1.344.15 2 0 .656-.05 1.325-.15 2m2.15 2h-3.36a1.002 1.002 0 0 1-.974-1.23c.223-.94.335-1.872.335-2.77 0-.897-.112-1.83-.335-2.77a1.002 1.002 0 0 1 .974-1.23h3.36c1.104 0 2 .897 2 2v4c0 1.103-.896 2-2 2"/></g><text y="75" font-size="5" font-weight="bold" font-family="'Helvetica Neue', Helvetica, Arial-Unicode, Arial, Sans-serif">Created by Ben Davis</text><text y="80" font-size="5" font-weight="bold" font-family="'Helvetica Neue', Helvetica, Arial-Unicode, Arial, Sans-serif">from the Noun Project</text></svg>