<svg xmlns="http://www.w3.org/2000/svg" viewBox="0 0 54 75"><g fill-rule="evenodd"><path d="M4.488 2.917A50.886 50.886 0 0 1 4.263.91a1 1 0 1 0-1.992.182c.064.696.142 1.392.235 2.089a1 1 0 0 0 1.982-.264zm2.106 9.105a45.524 45.524 0 0 1-.99-3.328 1 1 0 0 0-1.937.498A47.523 47.523 0 0 0 4.7 12.666a1 1 0 0 0 1.894-.644zm3.686 7.916a35.512 35.512 0 0 1-1.422-2.532 1 1 0 0 0-1.782.908c.472.926.973 1.818 1.503 2.675a1 1 0 0 0 1.702-1.05zm5.787 6.809a24.413 24.413 0 0 1-2.301-2.187 1 1 0 0 0-1.467 1.36 26.41 26.41 0 0 0 2.49 2.366 1 1 0 1 0 1.278-1.539zm8.167 3.995a16.085 16.085 0 0 1-3.31-1 1 1 0 0 0-.778 1.842c1.213.512 2.456.888 3.721 1.124a1 1 0 0 0 .367-1.966zm8.919-1.001a16.21 16.21 0 0 1-3.312 1.001 1 1 0 1 0 .368 1.966 18.208 18.208 0 0 0 3.72-1.123 1 1 0 0 0-.776-1.844zm7.155-5.181a24.32 24.32 0 0 1-2.301 2.186 1 1 0 1 0 1.276 1.54 26.282 26.282 0 0 0 2.491-2.366 1 1 0 0 0-1.466-1.36zm4.912-7.16a35.84 35.84 0 0 1-1.427 2.54 1 1 0 0 0 1.701 1.051 37.755 37.755 0 0 0 1.507-2.682 1 1 0 1 0-1.781-.91zm3.25-8.707a45.205 45.205 0 0 1-.99 3.326 1 1 0 0 0 1.894.645 47.204 47.204 0 0 0 1.034-3.474 1 1 0 0 0-1.937-.497zM49.812.909c-.06.652-.135 1.319-.226 2.01a1 1 0 1 0 1.983.26 55.18 55.18 0 0 0 .235-2.088A1 1 0 0 0 49.812.91z"/><path d="M29.037 32a2 2 0 1 1-4 0 2 2 0 0 1 4 0zm2 0a4 4 0 1 0-8 0 4 4 0 0 0 8 0zm-2 12a2 2 0 1 1-4 0 2 2 0 0 1 4 0zm2 0a4 4 0 1 0-8 0 4 4 0 0 0 8 0zm-2 12a2 2 0 1 1-4 0 2 2 0 0 1 4 0zm2 0a4 4 0 1 0-8 0 4 4 0 0 0 8 0zm7-27a2 2 0 1 1-4 0 2 2 0 0 1 4 0zm2 0a4 4 0 1 0-8 0 4 4 0 0 0 8 0zm5-6a2 2 0 1 1-4 0 2 2 0 0 1 4 0zm2 0a4 4 0 1 0-8 0 4 4 0 0 0 8 0z"/><path d="M49.037 15a2 2 0 1 1-4 0 2 2 0 0 1 4 0zm2 0a4 4 0 1 0-8 0 4 4 0 0 0 8 0zm1-9a2 2 0 1 1-4 0 2 2 0 0 1 4 0zm2 0a4 4 0 1 0-8 0 4 4 0 0 0 8 0zm-40 23a4 4 0 1 0 8 0 4 4 0 0 0-8 0zm2 0a2 2 0 1 1 4.001 0 2 2 0 0 1-4 0zm-9-6a4 4 0 1 0 8 0 4 4 0 0 0-8 0zm2 0a2 2 0 1 1 4.001 0 2 2 0 0 1-4 0zm-6-8a4 4 0 1 0 8 0 4 4 0 0 0-8 0zm2 0a2 2 0 1 1 4.001 0 2 2 0 0 1-4 0zm-5-9a4 4 0 1 0 8 0 4 4 0 0 0-8 0zm2 0a2 2 0 1 1 4.001 0 2 2 0 0 1-4 0zm24 29v6a1 1 0 0 0 2 0v-6a1 1 0 0 0-2 0zm0 12v6a1 1 0 0 0 2 0v-6a1 1 0 0 0-2 0z"/></g><text y="75" font-size="5" font-weight="bold" font-family="'Helvetica Neue', Helvetica, Arial-Unicode, Arial, Sans-serif">Created by Ben Davis</text><text y="80" font-size="5" font-weight="bold" font-family="'Helvetica Neue', Helvetica, Arial-Unicode, Arial, Sans-serif">from the Noun Project</text></svg>