<svg xmlns="http://www.w3.org/2000/svg" viewBox="0 0 54 68.75"><path d="M54 10c0-5.51-4.49-10-10-10-4.47 0-8.26 2.95-9.54 7H5.24C2.35 7 0 9.35 0 12.24v37.53C0 52.65 2.35 55 5.24 55h37.53c2.89 0 5.24-2.35 5.24-5.24v-30.6C51.53 17.61 54 14.09 54 10zm-8 39.76c0 1.78-1.45 3.24-3.24 3.24H5.24A3.24 3.24 0 0 1 2 49.76V12.24A3.24 3.24 0 0 1 5.24 9h28.82c-.04.33-.06.66-.06 1 0 5.51 4.49 10 10 10 .68 0 1.35-.07 2-.2v29.96zm.65-32.22c-.2.07-.4.13-.6.18l-.11.03c-.18.05-.36.08-.53.12-.09.02-.19.03-.28.04A8.687 8.687 0 0 1 44 18c-4.41 0-8-3.59-8-8 0-.58.07-1.18.21-1.78C37.02 4.67 40.2 2 44 2c4.41 0 8 3.59 8 8 0 3.48-2.24 6.44-5.35 7.54z"/><text y="70" font-size="5" font-weight="bold" font-family="'Helvetica Neue', Helvetica, Arial-Unicode, Arial, Sans-serif">Created by Ben Davis</text><text y="75" font-size="5" font-weight="bold" font-family="'Helvetica Neue', Helvetica, Arial-Unicode, Arial, Sans-serif">from the Noun Project</text></svg>