<svg xmlns="http://www.w3.org/2000/svg" viewBox="0 0 60 27.5"><g fill-rule="evenodd"><path d="M7 11a1 1 0 1 0 2 0 1 1 0 0 0-2 0m10 9h21a3.006 3.006 0 0 0 2.83-2H22a1 1 0 0 1-1-1V5a1 1 0 0 1 1-1h18.83A3.006 3.006 0 0 0 38 2H17v18zm21 2H16a1 1 0 0 1-1-1V1a1 1 0 0 1 1-1h22c2.757 0 5 2.243 5 5a1 1 0 0 1-1 1H23v10h19a1 1 0 0 1 1 1c0 2.757-2.243 5-5 5z"/><path d="M3 6c-.552 0-1 .449-1 1v8c0 .551.448 1 1 1h12V6H3zm13 12H3c-1.654 0-3-1.346-3-3V7c0-1.654 1.346-3 3-3h13a1 1 0 0 1 1 1v12a1 1 0 0 1-1 1zm7-2h30c2.757 0 5-2.243 5-5s-2.243-5-5-5H23v10zm30 2H22a1 1 0 0 1-1-1V5a1 1 0 0 1 1-1h31c3.86 0 7 3.14 7 7s-3.14 7-7 7z"/><path d="M33 12H20a1 1 0 1 1 0-2h13a1 1 0 1 1 0 2"/></g><text y="37" font-size="5" font-weight="bold" font-family="'Helvetica Neue', Helvetica, Arial-Unicode, Arial, Sans-serif">Created by Ben Davis</text><text y="42" font-size="5" font-weight="bold" font-family="'Helvetica Neue', Helvetica, Arial-Unicode, Arial, Sans-serif">from the Noun Project</text></svg>