<svg xmlns="http://www.w3.org/2000/svg" viewBox="0 0 64 80"><path d="M47.981 7.623C47.783 3.939 44.732 1 41 1c-3.859 0-7 3.141-7 7s3.141 7 7 7c.984 0 1.92-.206 2.771-.575C50.182 18.49 54 25.389 54 33c0 12.131-9.869 22-22 22s-22-9.869-22-22c0-7.611 3.818-14.51 10.229-18.575A6.946 6.946 0 0 0 23 15c3.859 0 7-3.141 7-7s-3.141-7-7-7c-3.732 0-6.783 2.939-6.981 6.623C7.235 13.158 2 22.596 2 33c0 16.542 13.458 30 30 30s30-13.458 30-30c0-10.404-5.235-19.842-14.019-25.377zm9.677 14.12a37.774 37.774 0 0 0-5.777-2.224 23.751 23.751 0 0 0-2.017-2.566c3.025.264 5.291.851 5.758.979a27.801 27.801 0 0 1 2.036 3.811zm1.061 2.819c.424 1.356.735 2.756.95 4.182a37.638 37.638 0 0 0-4.991-3.627 23.617 23.617 0 0 0-1.263-2.99c2.858 1.04 4.895 2.195 5.304 2.435zm-3.147 12.932c.2-1.053.337-2.128.394-3.224 1.922 2.287 3.104 4.277 3.375 4.751a27.807 27.807 0 0 1-1.251 4.124 37.693 37.693 0 0 0-2.518-5.651zm1.277 8.387a27.99 27.99 0 0 1-2.275 3.659 37.59 37.59 0 0 0-.968-6.098c.471-.971.875-1.98 1.213-3.017 1.257 2.69 1.884 4.908 2.03 5.456zm-.918-14.642a24.217 24.217 0 0 0-.451-3.213c2.435 1.702 4.086 3.31 4.482 3.708.018.421.038.841.038 1.266 0 1.032-.06 2.05-.17 3.053-.886-1.3-2.2-3.044-3.899-4.814zM47.744 9.851l.003-.007c.275.187.537.387.804.582a36.15 36.15 0 0 0-1.027.093c.084-.218.157-.441.22-.668zM36 8c0-2.757 2.243-5 5-5a5.004 5.004 0 0 1 4.996 4.964l-.003.101a5.069 5.069 0 0 1-.082.814c-.02.113-.05.224-.077.335-.045.177-.099.35-.161.519-.036.097-.067.196-.108.29-.105.237-.23.463-.369.679-.049.076-.103.147-.156.22-.13.179-.269.349-.42.509-.043.045-.082.094-.127.137-.203.199-.422.38-.657.542-.044.03-.091.056-.136.085A4.953 4.953 0 0 1 41 13c-2.757 0-5-2.243-5-5zm9.727 5.148c.153-.141.3-.288.44-.442 2.41-.351 4.25-.373 4.724-.372a27.847 27.847 0 0 1 2.978 3.153 37.65 37.65 0 0 0-6.186-.652 24.458 24.458 0 0 0-2.051-1.589c.034-.031.061-.067.095-.098zm2.323 37.678c-.254 2.952-.818 5.186-.969 5.747a27.994 27.994 0 0 1-3.806 2.048 37.747 37.747 0 0 0 2.219-5.786 24.079 24.079 0 0 0 2.556-2.009zm-7.597 8.867c-1.36.432-2.764.765-4.205.985a37.675 37.675 0 0 0 3.646-5.019 23.908 23.908 0 0 0 2.993-1.282c-1.024 2.824-2.163 4.852-2.434 5.316zm-12.947-3.121c1.053.2 2.128.337 3.224.394-2.287 1.922-4.277 3.104-4.751 3.375a27.807 27.807 0 0 1-4.124-1.251 37.693 37.693 0 0 0 5.651-2.518zm-8.387 1.277a27.99 27.99 0 0 1-3.659-2.275 37.566 37.566 0 0 0 6.099-.968c.97.471 1.979.874 3.016 1.212-2.69 1.258-4.908 1.885-5.456 2.031zM6.378 44.274a37.747 37.747 0 0 0 5.786 2.219 24.127 24.127 0 0 0 2.01 2.557c-2.952-.254-5.186-.818-5.747-.969a27.961 27.961 0 0 1-2.049-3.807zm-.124-20.481l1.869-.711a30.932 30.932 0 0 1-.985-3.013 27.633 27.633 0 0 1 2.285-3.653c.116 1.564.379 3.73.965 6.114-.471.975-.88 1.98-1.215 3.017-.056-.12-.116-.233-.171-.354l-1.82.828c.39.857.809 1.674 1.241 2.459a24.316 24.316 0 0 0-.385 3.254c-1.932-2.299-3.117-4.298-3.382-4.762a27.85 27.85 0 0 1 1.241-4.164c.107.309.223.633.357.985zm1.818 10.97c.08 1.092.229 2.165.45 3.212-2.45-1.712-4.106-3.329-4.49-3.716A27.617 27.617 0 0 1 4 33c0-1.029.064-2.045.172-3.05.887 1.3 2.2 3.044 3.9 4.813zm1.268 6.132c.361 1.032.79 2.031 1.282 2.993-2.823-1.024-4.851-2.163-5.316-2.434a27.688 27.688 0 0 1-.985-4.205 37.741 37.741 0 0 0 5.019 3.646zm9.028-27.65a24.342 24.342 0 0 0-2.415 1.901 36.6 36.6 0 0 1 .64-4.338c.129.293.28.572.446.842l.049.08c.17.269.354.527.559.769l.058.064c.178.206.368.399.568.583.034.033.061.069.095.099zM23 3c2.757 0 5 2.243 5 5s-2.243 5-5 5c-.996 0-1.919-.3-2.699-.804-.045-.029-.092-.055-.136-.085a5.019 5.019 0 0 1-.657-.542c-.045-.044-.084-.092-.127-.137a4.977 4.977 0 0 1-.42-.509c-.053-.073-.107-.144-.156-.22a4.89 4.89 0 0 1-.369-.679c-.042-.094-.073-.193-.108-.29a4.801 4.801 0 0 1-.161-.519c-.028-.111-.057-.222-.077-.335a4.957 4.957 0 0 1-.082-.814l-.003-.101A5.002 5.002 0 0 1 23 3zm-8.52 8.164a37.587 37.587 0 0 0-.646 6.133 23.643 23.643 0 0 0-1.958 2.598c-.524-2.971-.546-5.298-.543-5.802a28.149 28.149 0 0 1 3.147-2.929zm-4.296 39.36c1.549.292 3.709.595 6.159.643a24.18 24.18 0 0 0 2.592 1.95c-2.923.52-5.229.552-5.805.55a28.164 28.164 0 0 1-2.946-3.143zM28.947 60.83a37.683 37.683 0 0 0 4.817-3.902 24.063 24.063 0 0 0 3.212-.45c-1.712 2.45-3.329 4.106-3.716 4.49-.418.019-.837.032-1.26.032-1.032 0-2.05-.06-3.053-.17zm20.577-6.014c.292-1.549.595-3.709.643-6.159a24.18 24.18 0 0 0 1.95-2.592c.519 2.922.552 5.229.55 5.805a28.164 28.164 0 0 1-3.143 2.946z"/><text y="79" font-size="5" font-weight="bold" font-family="'Helvetica Neue', Helvetica, Arial-Unicode, Arial, Sans-serif">Created by Eucalyp</text><text y="84" font-size="5" font-weight="bold" font-family="'Helvetica Neue', Helvetica, Arial-Unicode, Arial, Sans-serif">from the Noun Project</text></svg>