<svg xmlns="http://www.w3.org/2000/svg" viewBox="0 0 60 31.25"><g fill-rule="evenodd"><path d="M41.957 2c-4.172 0-6.609 2.764-7.499 5.351-.89 2.586-.67 6.265 2.62 8.832l5.166 4.031c2.625 2.05 5.98 2.402 8.975.941C54.213 19.693 56 16.833 56 13.501v-3.313C56 5.673 52.327 2 47.811 2h-5.854zm5.511 22.029c-2.29 0-4.558-.758-6.454-2.238l-5.167-4.032c-3.393-2.648-4.68-6.989-3.28-11.059 1.4-4.07 5.085-6.7 9.39-6.7h5.854c5.62 0 10.19 4.57 10.19 10.188v3.313c0 4.052-2.264 7.674-5.905 9.451a10.541 10.541 0 0 1-4.628 1.077z"/><path d="M53 11.188a1 1 0 0 1-1-1A4.192 4.192 0 0 0 47.812 6a1 1 0 1 1 0-2A6.195 6.195 0 0 1 54 10.188a1 1 0 0 1-1 1M12.197 2C7.681 2 4.01 5.673 4.01 10.188v3.313c0 3.331 1.787 6.192 4.781 7.653 2.993 1.462 6.35 1.111 8.975-.94l5.166-4.031c3.29-2.567 3.51-6.246 2.62-8.832C24.661 4.764 22.223 2 18.051 2h-5.854zm.344 22.029c-1.569 0-3.149-.355-4.628-1.077a10.446 10.446 0 0 1-5.904-9.451v-3.313C2.01 4.57 6.58 0 12.197 0h5.854c4.305 0 7.991 2.63 9.391 6.7 1.401 4.07.112 8.411-3.28 11.059l-5.166 4.032a10.471 10.471 0 0 1-6.455 2.238z"/><path d="M33.846 7.185a.997.997 0 0 1-.557-.17 5.975 5.975 0 0 0-6.607-.047 1 1 0 1 1-1.092-1.676 7.977 7.977 0 0 1 8.815.063 1 1 0 0 1-.56 1.83M44 2H16a1 1 0 1 1 0-2h28a1 1 0 1 1 0 2M3 12H1a1 1 0 1 1 0-2h2a1 1 0 1 1 0 2m56 0h-2a1 1 0 1 1 0-2h2a1 1 0 1 1 0 2M10 7H8a1 1 0 1 1 0-2h2a1 1 0 1 1 0 2"/></g><text y="40" font-size="5" font-weight="bold" font-family="'Helvetica Neue', Helvetica, Arial-Unicode, Arial, Sans-serif">Created by Ben Davis</text><text y="45" font-size="5" font-weight="bold" font-family="'Helvetica Neue', Helvetica, Arial-Unicode, Arial, Sans-serif">from the Noun Project</text></svg>