<svg xmlns="http://www.w3.org/2000/svg" viewBox="0 0 48 75"><g fill-rule="evenodd"><path d="M29.999 20a1 1 0 0 1-1-1c0-1.653-1.346-3-3-3a1 1 0 0 1 0-2c1.634 0 3.087.789 4 2.004a4.997 4.997 0 0 1 4-2.003 1 1 0 0 1 0 2c-1.654 0-3 1.346-3 3a1 1 0 0 1-1 1"/><path d="M11.72 54h24.558l.741-2.225c.183-1.401 2.352-18.913-.014-39.661a.797.797 0 0 1-.006-.138c.003-.137.101-2.928 2.26-4.933L32.475 2.52a12.422 12.422 0 0 1-3.227 4.297L24.65 10.76a.998.998 0 0 1-1.302 0l-4.599-3.942a12.407 12.407 0 0 1-3.226-4.297L8.738 7.043c2.16 2.005 2.256 4.796 2.26 4.933a.91.91 0 0 1-.006.138c-2.369 20.762-.197 38.26-.015 39.66l.742 2.227zm25.278 2h-26a.999.999 0 0 1-.948-.683l-1-3a.913.913 0 0 1-.042-.18c-.025-.181-2.483-18.414-.013-40.168-.027-.414-.283-2.837-2.493-4.1a.999.999 0 0 1-.058-1.7l9-6a1.002 1.002 0 0 1 1.503.516A10.428 10.428 0 0 0 20.05 5.3l3.948 3.384 3.95-3.384A10.428 10.428 0 0 0 31.05.685a.998.998 0 0 1 1.503-.516l9 6a.999.999 0 0 1-.059 1.7c-2.204 1.26-2.464 3.674-2.493 4.1 2.47 21.754.013 39.987-.012 40.169a.991.991 0 0 1-.042.179l-1 3a1 1 0 0 1-.949.684z"/><path d="M46.6 56h-6a1 1 0 0 1-.98-.8c-.01-.05-1.005-4.922-2.01-6.851A.999.999 0 0 1 38.035 47a.999.999 0 0 1 1.349.424c.876 1.68 1.682 5.035 2.024 6.576h4.275c1.577-19.282-2.755-44.158-4.898-46.023A1.002 1.002 0 0 1 40 6.942a.988.988 0 0 1 1.058-.94c.462.028.889.266 1.269.707 3.394 3.948 6.87 31.063 5.269 48.384A1 1 0 0 1 46.6 56M7.398 56h-6a1 1 0 0 1-.996-.907C-1.2 37.772 2.277 10.657 5.67 6.709c.38-.441.807-.68 1.269-.706a.99.99 0 0 1 1.058.939c.028.499-.312.933-.785 1.036C5.07 9.843.738 34.718 2.315 54H6.59c.342-1.541 1.148-4.895 2.024-6.576A.999.999 0 0 1 9.963 47c.49.254.68.858.425 1.348-1.005 1.929-2 6.802-2.01 6.85a1 1 0 0 1-.98.802M23.999 4c-3.57 0-6.811-1.15-8.503-2.135A1 1 0 0 1 16.502.137C17.69.829 20.608 2 23.999 2c3.39 0 6.307-1.172 7.497-1.864a1 1 0 0 1 1.006 1.728C30.809 2.85 27.566 4 23.999 4m11 56h-22c-1.103 0-2-.896-2-2v-3a1 1 0 0 1 2 0v3h22v-3a1 1 0 0 1 2 0v3c0 1.104-.897 2-2 2"/><path d="M44.999 60h-3c-1.103 0-2-.896-2-2v-3a1 1 0 0 1 2 0v3h3v-3a1 1 0 0 1 2 0v3c0 1.104-.897 2-2 2m-42-4v2h3v-2h-3zm3 4h-3c-1.103 0-2-.896-2-2v-3a1 1 0 0 1 1-1h5a1 1 0 0 1 1 1v3c0 1.104-.897 2-2 2z"/></g><text y="75" font-size="5" font-weight="bold" font-family="'Helvetica Neue', Helvetica, Arial-Unicode, Arial, Sans-serif">Created by Ben Davis</text><text y="80" font-size="5" font-weight="bold" font-family="'Helvetica Neue', Helvetica, Arial-Unicode, Arial, Sans-serif">from the Noun Project</text></svg>