<svg xmlns="http://www.w3.org/2000/svg" viewBox="0 0 60 75"><g fill-rule="evenodd"><path d="M39 31a1 1 0 1 1-2-.001 1 1 0 0 1 2 0M39 40a1 1 0 1 1-2-.001 1 1 0 0 1 2 0m15.703 14.886l3.12-.892a3 3 0 0 0 2.08-3.645l-.633-2.29a1 1 0 0 0-1.239-.695l-6.944 1.984a1 1 0 0 0-.692 1.218l.573 2.157a3 3 0 0 0 3.735 2.163zm2.907-5.322l.36 1.305a.997.997 0 0 1-.695 1.202l-3.121.892a1 1 0 0 1-1.246-.725l-.005-.02L52.58 51l5.03-1.437zM.726 48.071l-.623 2.264a3.003 3.003 0 0 0 2.075 3.657l3.12.892a3 3 0 0 0 3.739-2.173l.563-2.135a1 1 0 0 0-.692-1.217l-6.943-1.984a1 1 0 0 0-1.24.696zm6.69 2.942l-.318 1.206a1.004 1.004 0 0 1-1.25.742l-3.12-.892a1 1 0 0 1-.694-1.215l.352-1.278 5.03 1.437z"/><path d="M36.58 1.922a3.477 3.477 0 0 0-3.11-1.923h-6.937a3.476 3.476 0 0 0-3.111 1.925l-.242.483a15338.121 15338.121 0 0 0-1.174 1.176l-1.533 1.532c-6.808 2.076-9.427 4.029-9.475 5.753L.104 50.335a3 3 0 0 0 2.075 3.657l3.119.892a3 3 0 0 0 3.738-2.174l4.967-18.95V55a5 5 0 0 0 5 5H41a5 5 0 0 0 5-5V34l4.97 18.73c.399 1.635 2.097 2.622 3.734 2.154l3.12-.891a3 3 0 0 0 2.078-3.645L49.004 10.88c-.036-1.727-2.651-3.685-9.475-5.765l-2.707-2.708-.243-.485zm10.426 8.97c.004-.039.004-.039.012-.082a1 1 0 0 0-.018.168c.001-.018.002-.047.006-.086zm.03.374L57.97 50.868a.998.998 0 0 1-.697 1.202l-3.12.89a1 1 0 0 1-1.246-.723l-6.942-26.16c-.3-1.132-1.966-.914-1.966.256V55a3 3 0 0 1-3 3H19.003a3 3 0 0 1-3-3V26c0-1.172-1.67-1.387-1.968-.253L7.097 52.22a1.003 1.003 0 0 1-1.25.74l-3.12-.891a.998.998 0 0 1-.692-1.214l10.833-39.243c.142-.204.216-.458.194-.705.113-.176.325-.402.666-.671 1.267-1 3.697-2.116 7.563-3.279a1 1 0 0 0 .419-.25l1.71-1.71.898-.898.392-.392a1 1 0 0 0 .187-.261l.314-.629c.25-.501.762-.818 1.322-.818h6.937c.559 0 1.07.316 1.32.817l.315.63a1 1 0 0 0 .187.26l3 3a1 1 0 0 0 .42.251c3.865 1.163 6.295 2.279 7.562 3.279.393.31.615.563.711.748.013.09.025.188.05.282z"/><path d="M.103 50.335c-.04.202-.04.202-.037.274a1 1 0 0 0 .075.38c.329.8.68 1.58 1.054 2.34a1 1 0 0 0 .44.449c.175.09.357.162.545.215l3.118.89a3 3 0 0 0 3.738-2.172l4.966-18.95V55a5 5 0 0 0 5 5h1.734a1 1 0 0 0 .854-.48C24.965 53.98 27 44.895 27 35c0-13.2-3.613-24.731-8.982-28.6a1 1 0 0 0-.946-.122c-4.3 1.665-6.026 3.226-6.073 4.591L.103 50.335zM25 35c0 9.268-1.84 17.76-4.835 23h-1.163a3 3 0 0 1-3-3V26c0-1.173-1.67-1.388-1.967-.254L7.097 52.22a1.003 1.003 0 0 1-1.25.74l-3.027-.864a36.003 36.003 0 0 1-.7-1.557l10.75-38.927c.141-.204.214-.457.193-.704.062-.095.16-.213.303-.353.664-.65 1.923-1.398 3.907-2.205C21.772 12.085 25 22.76 25 35zM21 5c0 2.21 1.79 4 4 4a1 1 0 0 0 0-2c-1.106 0-2-.895-2-2a1 1 0 0 0-2 0zm16 0c0 1.105-.894 2-2 2a1 1 0 0 0 0 2c2.21 0 4-1.79 4-4a1 1 0 0 0-2 0zm11.81 5.166c-.545-1.127-2.026-2.26-4.807-3.45a32.49 32.49 0 0 0-1.075-.438 1 1 0 0 0-.945.121C36.613 10.266 33 21.8 33 35c0 9.895 2.036 18.98 5.41 24.52a1 1 0 0 0 .853.48H41a5 5 0 0 0 5-5V34.002l4.97 18.73c.4 1.635 2.097 2.621 3.734 2.153l3.12-.89a3 3 0 0 0 2.078-3.646L48.995 10.845a1.999 1.999 0 0 0-.184-.679zm-5.634-1.63c-.028-.012-.028-.012-.088-.044l.094.046-.006-.002zM57.274 52.07l-3.12.891a1 1 0 0 1-1.246-.724l-6.941-26.16c-.3-1.132-1.967-.915-1.967.256V55a3 3 0 0 1-3 3h-1.166C36.841 52.76 35 44.267 35 35c0-12.24 3.23-22.917 7.728-26.65.153.062.3.123.443.184 2.391 1.022 3.521 1.876 3.814 2.45.004.007.91-.417.91-.417h-1a1 1 0 0 0 .09.418c.054-.294.054-.294.055-.277-.02.067-.02.069-.037.261-.001.131.01.215.033.297L57.968 50.86a1 1 0 0 1-.694 1.21z"/></g><text y="75" font-size="5" font-weight="bold" font-family="'Helvetica Neue', Helvetica, Arial-Unicode, Arial, Sans-serif">Created by Ben Davis</text><text y="80" font-size="5" font-weight="bold" font-family="'Helvetica Neue', Helvetica, Arial-Unicode, Arial, Sans-serif">from the Noun Project</text></svg>