<svg xmlns="http://www.w3.org/2000/svg" viewBox="0 0 28 75"><g fill-rule="evenodd"><path d="M10.944 6L14 10.279 17.056 6h-6.113zM14 13a1 1 0 0 1-.813-.419l-5-7A1 1 0 0 1 9 4h10a1 1 0 0 1 .813 1.581l-5 7A.997.997 0 0 1 14 13z"/><path d="M10.01 52.65L14 57.437l3.99-4.789-.977-37.14L14 13.25l-3.012 2.26-.978 37.14zM14 60a1 1 0 0 1-.768-.36l-5-6A1.002 1.002 0 0 1 8 52.973l1-38c.009-.305.156-.59.4-.773l4-3a.998.998 0 0 1 1.2 0l4 3a1 1 0 0 1 .4.773l1 38c.006.243-.076.48-.231.667l-5 6c-.191.228-.472.36-.77.36zm5.254-55.967a1.001 1.001 0 0 1 .702 1.26l4.665-1.554-2.593-1.556-2.774 1.85zm-1.816 4.155a1 1 0 0 1-.814-1.581L17.057 6H16a1 1 0 0 1-.555-1.832l6-4a1 1 0 0 1 1.07-.025l5 3a1.002 1.002 0 0 1-.198 1.806l-9.563 3.188a1.019 1.019 0 0 1-.316.05zM3.379 3.739l4.665 1.555a1.003 1.003 0 0 1 .066-.751 1 1 0 0 1 .636-.51l-2.774-1.85-2.593 1.556zm7.184 4.449a.998.998 0 0 1-.317-.052L.684 4.949a1.003 1.003 0 0 1-.678-.84.997.997 0 0 1 .479-.966l5-3a1 1 0 0 1 1.07.025l6 4A1 1 0 0 1 12 6h-1.057l.433.607a1 1 0 0 1-.813 1.58z"/></g><text y="75" font-size="5" font-weight="bold" font-family="'Helvetica Neue', Helvetica, Arial-Unicode, Arial, Sans-serif">Created by Ben Davis</text><text y="80" font-size="5" font-weight="bold" font-family="'Helvetica Neue', Helvetica, Arial-Unicode, Arial, Sans-serif">from the Noun Project</text></svg>