<svg xmlns="http://www.w3.org/2000/svg" data-name="Layer 1" viewBox="0 0 60 75"><path d="M59.953 27.697l-7-22-.012.004c-.008-.026-.005-.054-.015-.08a1.003 1.003 0 0 0-.541-.544l-12-5A1.002 1.002 0 0 0 40 0H20a1.002 1.002 0 0 0-.385.077l-12 5a1.003 1.003 0 0 0-.54.544c-.011.026-.008.054-.016.08l-.012-.004-7 22a1 1 0 0 0 .637 1.252l9 3a.998.998 0 0 0 1.264-.633l1.722-5.164c1.518 10.243 1 20.143.398 31.522l-.067 1.273A1 1 0 0 0 14 60h32a1 1 0 0 0 .999-1.053l-.067-1.273c-.602-11.379-1.12-21.28.398-31.522l1.722 5.164a.998.998 0 0 0 1.264.633l9-3a1 1 0 0 0 .637-1.252zM37.97 2L30 12.36 22.031 2zM9.367 29.735l-7.115-2.372L8.105 8.97a80.497 80.497 0 0 1 3.835 13.049zm35.568 28.044l.011.221H15.054l.011-.22c.971-18.344 1.74-32.895-5.758-51.24l10.368-4.321 9.532 12.39a1 1 0 0 0 1.586 0l9.532-12.39 10.368 4.32c-7.499 18.346-6.73 32.897-5.758 51.24zm5.698-28.044l-2.573-7.716a80.497 80.497 0 0 1 3.835-13.05l5.853 18.394z"/><text y="75" font-size="5" font-weight="bold" font-family="'Helvetica Neue', Helvetica, Arial-Unicode, Arial, Sans-serif">Created by Locad</text><text y="80" font-size="5" font-weight="bold" font-family="'Helvetica Neue', Helvetica, Arial-Unicode, Arial, Sans-serif">from the Noun Project</text></svg>