<svg xmlns="http://www.w3.org/2000/svg" viewBox="0 0 60 75"><path d="M26 10V8h18v2H26zm19 2c.6 0 1-.4 1-1V7c0-.6-.4-1-1-1H25c-.6 0-1 .4-1 1v4c0 .6.4 1 1 1h20z"/><path d="M34.4 45.1c1.3-.9 2.9-1.4 4.6-1.4.8 0 1.6-.1 2.3-.3 4.1-1 7.1-4.5 7.6-8.6.3-2.5-.4-4.8-1.7-6.8-.8-1.1-1.2-2.3-1.2-3.6V1c0-.6-.4-1-1-1H25c-.6 0-1 .4-1 1v22.6c0 2.9-1.4 5.6-3.7 7.3L3.6 43c-3.9 3.9-4 9.9-.4 13.8 3.8 4.1 10.2 4.2 14.2.3l17-12zM21.5 32.5c2.8-2.1 4.5-5.4 4.5-8.9V2h18v22.4c0 1.6.6 3.3 1.6 4.7 1.1 1.6 1.6 3.5 1.4 5.4-.3 3.3-2.8 6.1-6.1 6.9-.6.2-1.2.2-1.9.2-2.2 0-4.2.6-5.8 1.8l-17 12.1-.1.1c-3.2 3.2-8.3 3.1-11.4-.2-2.9-3.1-2.8-7.9.1-10.9l16.7-12z"/><path d="M28 1v2c0 .6.4 1 1 1s1-.4 1-1V1c0-.6-.4-1-1-1s-1 .4-1 1zm4 0v2c0 .6.4 1 1 1s1-.4 1-1V1c0-.6-.4-1-1-1s-1 .4-1 1zm4 0v2c0 .6.4 1 1 1s1-.4 1-1V1c0-.6-.4-1-1-1s-1 .4-1 1zm-3 35c0 3 1.3 5.8 3.6 7.6.2.2.5.3.8.2.6-.1 1.1-.2 1.6-.2.8 0 1.6-.1 2.3-.3 4.1-1 7.1-4.5 7.6-8.6.3-2.5-.4-4.8-1.7-6.8-.2-.3-.4-.6-.6-1-.1-.2-.3-.4-.6-.5-1-.3-2-.5-3-.5-5.5.1-10 4.6-10 10.1zm12.6-6.9c1.1 1.6 1.6 3.5 1.4 5.4-.3 3.3-2.8 6.1-6.1 6.9-.6.2-1.2.2-1.9.2-.5 0-1 0-1.5.1-1.6-1.4-2.5-3.5-2.5-5.7 0-4.4 3.6-8 8-8 .7 0 1.4.1 2 .3.2.3.4.5.6.8zM3.3 43.3C-.3 47.1-.3 53 3.2 56.9c3.5 3.7 9.3 4.2 13.3 1.1.2-.2.4-.4.4-.7 0-.4.1-.8.1-1.2 0-7.2-5.8-13-12.9-13-.3-.1-.6 0-.8.2zM15 56v.6c-3.2 2.2-7.6 1.8-10.2-1.1C2 52.5 1.9 48 4.5 45c5.8.3 10.5 5.1 10.5 11zM40 1v2c0 .6.4 1 1 1s1-.4 1-1V1c0-.6-.4-1-1-1s-1 .4-1 1zm7 0v2c0 .6.4 1 1 1s1-.4 1-1V1c0-.6-.4-1-1-1s-1 .4-1 1zm4 0v2c0 .6.4 1 1 1s1-.4 1-1V1c0-.6-.4-1-1-1s-1 .4-1 1z"/><path d="M45.4 45.1c1.3-.9 2.9-1.4 4.6-1.4.8 0 1.6-.1 2.3-.3 4.1-1 7.1-4.5 7.6-8.6.3-2.5-.4-4.8-1.7-6.8-.8-1.1-1.2-2.3-1.2-3.6V1c0-.6-.4-1-1-1H45c-.6 0-1 .4-1 1v23.4c0 1.6.6 3.3 1.6 4.7 1.1 1.6 1.6 3.5 1.4 5.4-.3 3.3-2.8 6.1-6.1 6.9-.6.2-1.2.2-1.9.2-2.1 0-4.2.6-5.8 1.8l-17 12.1-.1.1c-.2.2-.4.4-.7.6-.5.4-.5 1.2 0 1.6 3.9 3.1 9.5 2.8 13.1-.7l16.9-12zM17.7 57c-.2-.1 16.7-11.9 16.7-11.9 1.3-.9 2.9-1.4 4.6-1.4.8 0 1.6-.1 2.3-.3 4.1-1 7.1-4.5 7.6-8.6.3-2.5-.4-4.8-1.7-6.8-.8-1.1-1.2-2.3-1.2-3.6V2h9v22.4c0 1.6.6 3.3 1.6 4.7 1.1 1.6 1.6 3.5 1.4 5.4-.3 3.3-2.8 6.1-6.1 6.9-.6.2-1.2.2-1.9.2-2.1 0-4.2.6-5.8 1.8l-17 12.1-.1.1c-2.6 2.6-6.4 3.1-9.4 1.4z"/><path d="M16.1 55.7c-.2.2-.4.4-.7.6-.5.4-.5 1.2 0 1.6 3.6 2.8 8.6 2.8 12.2.1.2-.2.4-.4.4-.7 0-.4.1-.8.1-1.2 0-2.2-.6-4.4-1.6-6.3-.3-.5-1-.7-1.5-.3l-8.7 6.2h-.2zm9-4c.6 1.3.9 2.8.9 4.3v.6c-2.5 1.7-5.7 1.8-8.3.4-.3-.2 7.4-5.3 7.4-5.3zM45 12h11c.6 0 1-.4 1-1V7c0-.6-.4-1-1-1H45c-.6 0-1 .4-1 1v4c0 .5.4 1 1 1zm1-2V8h9v2h-9zm11.6 17c-.1-.2-.3-.4-.6-.5-1-.3-2-.5-3-.5-2.9 0-5.6 1.3-7.5 3.3-.3.3-.3.7-.2 1.1.6 1.3.8 2.6.6 4-.2 1.6-.9 3-1.9 4.3-.3.3-.3.7-.2 1.1.6 1.4 1.6 2.6 2.7 3.6.2.2.5.3.8.2.6-.1 1.1-.2 1.6-.2.8 0 1.6-.1 2.3-.3 4.1-1 7.1-4.4 7.6-8.4.3-2.4-.4-4.7-1.7-6.6-.1-.4-.3-.7-.5-1.1zM46.9 39.3c1.1-1.4 1.8-3.1 2-4.9.2-1.5 0-3-.5-4.4 1.5-1.5 3.5-2.2 5.6-2.2.7 0 1.4.1 2 .3.2.3.3.6.5.9 1.1 1.6 1.6 3.4 1.4 5.3-.3 3.2-2.8 5.9-6.1 6.7-.6.2-1.2.2-1.9.2-.5 0-1 0-1.5.1-.5-.5-1.1-1.2-1.5-2z"/><text y="75" font-size="5" font-weight="bold" font-family="'Helvetica Neue', Helvetica, Arial-Unicode, Arial, Sans-serif">Created by Ben Davis</text><text y="80" font-size="5" font-weight="bold" font-family="'Helvetica Neue', Helvetica, Arial-Unicode, Arial, Sans-serif">from the Noun Project</text></svg>