<svg xmlns="http://www.w3.org/2000/svg" viewBox="0 0 54 75"><g fill-rule="evenodd"><path d="M21 52h-8a1 1 0 0 1 0-2h8a1 1 0 0 1 0 2m23-9h-8a1 1 0 0 1 0-2h8a1 1 0 0 1 0 2m0 8h-8a1 1 0 0 1 0-2h8a1 1 0 0 1 0 2"/><path d="M17 54a1 1 0 0 1-1-1v-2a1 1 0 0 1 2 0v2a1 1 0 0 1-1 1M2 44h14V2H4.521A2.524 2.524 0 0 0 2 4.521V44zm15 2H1a1 1 0 0 1-1-1V4.521A4.526 4.526 0 0 1 4.521 0H17a1 1 0 0 1 1 1v44a1 1 0 0 1-1 1z"/><path d="M11 23a1 1 0 0 1-1-1v-3a1 1 0 0 1 2 0v3a1 1 0 0 1-1 1"/><path d="M11 20H8a1 1 0 0 1 0-2h3a1 1 0 0 1 0 2m12 3a1 1 0 0 1-1-1v-3a1 1 0 0 1 2 0v3a1 1 0 0 1-1 1"/><path d="M26 20h-3a1 1 0 0 1 0-2h3a1 1 0 0 1 0 2m4 25h20v-6H30v6zm21 2H29a1 1 0 0 1-1-1v-8a1 1 0 0 1 1-1h22a1 1 0 0 1 1 1v8a1 1 0 0 1-1 1z"/><path d="M30 53h20v-6H30v6zm21 2H29a1 1 0 0 1-1-1v-8a1 1 0 0 1 1-1h22a1 1 0 0 1 1 1v8a1 1 0 0 1-1 1z"/><path d="M46.677 58H48v-3h-2.523l1.2 3zM49 60h-3c-.409 0-.777-.249-.929-.628l-2-5a1.003 1.003 0 0 1 .93-1.372h5a1 1 0 0 1 1 1v5a1 1 0 0 1-1 1zm-17-2h1.323l1.2-3H32v3zm2 2h-3a1 1 0 0 1-1-1v-5a1 1 0 0 1 1-1h5a1.001 1.001 0 0 1 .929 1.372l-2 5c-.153.379-.52.628-.929.628zm-6-23h24v-2H28v2zm25 2H27a1 1 0 0 1-1-1v-4a1 1 0 0 1 1-1h26a1 1 0 0 1 1 1v4a1 1 0 0 1-1 1z"/><path d="M31 60H1a1 1 0 0 1-1-1V45a1 1 0 0 1 1-1h28a1 1 0 0 1 0 2H2v12h29a1 1 0 0 1 0 2"/><path d="M29 46H17a1 1 0 0 1-1-1V1a1 1 0 0 1 1-1h12.479A4.526 4.526 0 0 1 34 4.521V34a1 1 0 0 1-2 0V4.521A2.524 2.524 0 0 0 29.479 2H18v42h11a1 1 0 0 1 0 2"/></g><text y="75" font-size="5" font-weight="bold" font-family="'Helvetica Neue', Helvetica, Arial-Unicode, Arial, Sans-serif">Created by Ben Davis</text><text y="80" font-size="5" font-weight="bold" font-family="'Helvetica Neue', Helvetica, Arial-Unicode, Arial, Sans-serif">from the Noun Project</text></svg>