<svg xmlns="http://www.w3.org/2000/svg" viewBox="0 0 60 37.5"><g fill-rule="evenodd"><path d="M18.09 19.737a57.18 57.18 0 0 0 23.82 0l-1.26-11.65c0-.007-.002-.012-.003-.018C40.327 4.552 37.531 2 34 2c-.305 0-.613.133-.686.298C32.556 3.99 31.317 5 30 5c-1.318 0-2.556-1.01-3.314-2.7-.074-.167-.382-.3-.686-.3-3.532 0-6.328 2.552-6.648 6.07L18.09 19.736zM30 22.991c-4.45 0-8.899-.499-13.225-1.497a1 1 0 0 1-.769-1.082l1.356-12.54A8.628 8.628 0 0 1 26 0c1.123 0 2.11.581 2.511 1.481.407.908 1.005 1.52 1.49 1.52.482 0 1.08-.612 1.487-1.52C31.891.58 32.878 0 34 0a8.632 8.632 0 0 1 8.638 7.878l1.356 12.533a1 1 0 0 1-.77 1.082A58.897 58.897 0 0 1 30 22.991z"/><path d="M18.09 19.737c1.812.388 3.655.69 5.491.9a57.17 57.17 0 0 0 12.838 0 57.493 57.493 0 0 0 5.49-.9L41.505 16h-23.01l-.405 3.737zM30 23a58.757 58.757 0 0 1-13.225-1.505 1 1 0 0 1-.769-1.082l.597-5.52a.998.998 0 0 1 .994-.892h24.805a1 1 0 0 1 .995.892l.597 5.52a1 1 0 0 1-.77 1.082A58.77 58.77 0 0 1 30 23z"/><path d="M16.188 18.73C5.501 19.936 2 22.105 2 23c0 1.698 9.883 5 28 5s28-3.302 28-5c0-.895-3.5-3.064-14.188-4.27l.182 1.683a1 1 0 0 1-.769 1.081 59.166 59.166 0 0 1-26.45 0 1 1 0 0 1-.769-1.081l.182-1.683zM30 30c-10.376 0-30-1.462-30-7 0-4.05 10.786-5.744 17.215-6.392a1.002 1.002 0 0 1 1.095 1.102l-.22 2.027a57.185 57.185 0 0 0 23.82 0l-.22-2.026a1.002 1.002 0 0 1 1.095-1.102C49.215 17.255 60 18.948 60 23c0 5.538-19.624 7-30 7z"/><path d="M30 19.999a1 1 0 0 1-1-1V18a1 1 0 1 1 2 0v.999a1 1 0 0 1-1 1"/></g><text y="45" font-size="5" font-weight="bold" font-family="'Helvetica Neue', Helvetica, Arial-Unicode, Arial, Sans-serif">Created by Ben Davis</text><text y="50" font-size="5" font-weight="bold" font-family="'Helvetica Neue', Helvetica, Arial-Unicode, Arial, Sans-serif">from the Noun Project</text></svg>