<svg xmlns="http://www.w3.org/2000/svg" viewBox="0 0 40 76.25"><g fill-rule="evenodd"><path d="M24 28a1 1 0 1 1-2-.001 1 1 0 0 1 2 0M24 38a1 1 0 1 1-2-.001 1 1 0 0 1 2 0m0 11.032a1 1 0 1 1-2 0 1 1 0 0 1 2 0m1.471-46.063L20 15.473 14.529 2.968h10.942zM13 .968a1 1 0 0 0-.916 1.4l7 16c.35.8 1.483.8 1.832 0l7-16A1 1 0 0 0 27 .969H13z"/><path d="M12.46 3.229L19 18.177V54.72l-1.546 2.907a8.328 8.328 0 0 1-9.201-.025l-.228-.152.845-18.237a75.904 75.904 0 0 0-1.935-22.034L3.267 6.572l9.193-3.343zm-10.802 1.8a1 1 0 0 0-.603 1.266l3.962 11.442a73.993 73.993 0 0 1 1.856 21.37L6 57.922a1 1 0 0 0 .445.878l.698.465a10.328 10.328 0 0 0 11.65-.132 1 1 0 0 0 .31-.35l1.779-3.345a1 1 0 0 0 .117-.47v-37a1 1 0 0 0-.084-.4l-7-16a1 1 0 0 0-1.258-.54l-11 4z"/><path d="M38.342 5.028l-11-4a1 1 0 0 0-1.258.54l-7 16a1 1 0 0 0-.084.4v37a1 1 0 0 0 .117.47l1.779 3.346a1 1 0 0 0 .31.35 10.328 10.328 0 0 0 11.65.131l.698-.465a1 1 0 0 0 .445-.878l-.871-18.802a73.923 73.923 0 0 1 1.883-21.478l3.934-11.347a1 1 0 0 0-.603-1.267zm-5.249 12.055a75.868 75.868 0 0 0-1.962 22.142l.844 18.224-.227.152a8.328 8.328 0 0 1-9.202.025L21 54.72V18.177L27.54 3.23l9.193 3.342-3.64 10.512z"/><path d="M19 19.46l-7.964-8.4 1.6-1.321a1 1 0 0 0-.44-1.752l-3.168-.633 3.642-3.642L19 18.208v1.252zM8.937 10.2a1 1 0 0 0-.089 1.46l10.426 10.996c.622.656 1.726.215 1.726-.688V18a1 1 0 0 0-.084-.4l-7-16.032a1 1 0 0 0-1.623-.307l-6 6a1 1 0 0 0 .51 1.687l2.939.588-.805.665z"/><path d="M33.196 8.948a1 1 0 0 0 .511-1.687l-6-6a1 1 0 0 0-1.623.307l-7 16.032A1 1 0 0 0 19 18v3.968c0 .903 1.104 1.344 1.726.688L31.152 11.66a1 1 0 0 0-.09-1.46l-.804-.664 2.938-.588zM27.33 3.712l3.642 3.642-3.168.633a1 1 0 0 0-.44 1.752l1.6 1.322L21 19.46v-1.252l6.33-14.496zM9 34.766c0-5.922-.693-11.824-2.064-17.588L2.945 5.64A1 1 0 0 0 2 4.968c-.87 0-1.521.396-1.814 1.133-.173.434-.194.754-.188 1.616L0 7.968v38a3 3 0 0 0 3 3h2.467a3 3 0 0 0 2.995-2.824l.407-6.92c.087-1.483.13-2.97.13-4.458zM2 6.968l-.032-.022c-.006.014 0 .022.032.022zm3.018 10.768a74.062 74.062 0 0 1 1.854 21.371l-.407 6.92a1 1 0 0 1-.998.941H3a1 1 0 0 1-1-1V9.023l3.018 8.713zM2 7.968c0-.077 0-.137-.002-.266-.004-.562.01-.771.046-.862-.016.04-.065.081-.076.106l-.913-.65L2 9.022V7.968zM37.055 5.64l-3.962 11.442a75.882 75.882 0 0 0-1.962 22.143l.407 6.919a3 3 0 0 0 2.995 2.824H37a3 3 0 0 0 3-3v-38l.001-.252c.007-.862-.014-1.182-.187-1.616-.293-.736-.944-1.132-1.814-1.132a1 1 0 0 0-.945.673zM38 6.969c.032 0 .038-.008.032-.022L38 6.968zm0 39a1 1 0 0 1-1 1h-2.467a1 1 0 0 1-.999-.942l-.407-6.919a73.938 73.938 0 0 1 1.884-21.467L38 9.02v36.948zM37.956 6.84c.036.09.05.3.045.86L38 7.97v1.05l.945-2.725-.913.65c-.011-.024-.06-.065-.076-.106z"/><path d="M7.483 45.998l8.4.995A1 1 0 0 0 17 46v-4a1 1 0 0 0-.88-.993l-8.214-.995a1 1 0 0 0-1.12.947l-.185 4a1 1 0 0 0 .882 1.04zm1.251-3.87l6.266.758v1.989l-6.358-.753.092-1.995zm23.36-2.115l-8.214.994a1 1 0 0 0-.88.992v4a1 1 0 0 0 1.118.993l8.399-.994a1 1 0 0 0 .881-1.039l-.185-4a1 1 0 0 0-1.119-.946zm-.736 4.109L25 44.874v-1.988l6.265-.759.093 1.995z"/></g><text y="76" font-size="5" font-weight="bold" font-family="'Helvetica Neue', Helvetica, Arial-Unicode, Arial, Sans-serif">Created by Ben Davis</text><text y="81" font-size="5" font-weight="bold" font-family="'Helvetica Neue', Helvetica, Arial-Unicode, Arial, Sans-serif">from the Noun Project</text></svg>