<svg xmlns="http://www.w3.org/2000/svg" viewBox="0 0 36 75"><g fill-rule="evenodd"><path d="M32 17V1a1 1 0 0 0-1-1h-4a1 1 0 0 0-1 1c0 7.804-3.717 14-8 14-4.283 0-8-6.196-8-14a1 1 0 0 0-1-1H5a1 1 0 0 0-1 1v16c0 1.677-.473 2.53-1.694 2.853C.959 20.209 0 21.366 0 22.745V57a3 3 0 0 0 3 3h30a3 3 0 0 0 3-3V22.745c0-1.379-.959-2.536-2.305-2.892C32.473 19.531 32 18.677 32 17zM6 2h2.019c.315 8.308 4.539 15 9.981 15s9.666-6.692 9.981-15H30v15c0 2.493.944 4.196 3.184 4.787.495.13.816.518.816.958V57a1 1 0 0 1-1 1H3a1 1 0 0 1-1-1V22.745c0-.44.32-.827.817-.959C5.056 21.196 6 19.493 6 17V2z"/><path d="M23 28h4a1 1 0 0 0 0-2h-4a1 1 0 0 0 0 2z"/></g><text y="75" font-size="5" font-weight="bold" font-family="'Helvetica Neue', Helvetica, Arial-Unicode, Arial, Sans-serif">Created by Ben Davis</text><text y="80" font-size="5" font-weight="bold" font-family="'Helvetica Neue', Helvetica, Arial-Unicode, Arial, Sans-serif">from the Noun Project</text></svg>